<?xml version="1.0" encoding="UTF-8" standalone="no"?>
<svg width="270px" height="46px" viewBox="0 0 270 46" version="1.1" xmlns="http://www.w3.org/2000/svg" xmlns:xlink="http://www.w3.org/1999/xlink" xmlns:sketch="http://www.bohemiancoding.com/sketch/ns">
    <!-- Generator: Sketch 3.3.2 (12043) - http://www.bohemiancoding.com/sketch -->
    <title>logotype copy</title>
    <desc>Created with Sketch.</desc>
    <defs></defs>
    <g id="Page-1" stroke="none" stroke-width="1" fill="none" fill-rule="evenodd" sketch:type="MSPage">
        <g id="logotype-copy" sketch:type="MSArtboardGroup" fill="#FFFFFF">
            <g id="WAFFLE-+-JS-+-Rectangle-3303" sketch:type="MSLayerGroup">
                <rect id="Rectangle-3303" sketch:type="MSShapeGroup" x="211" y="37" width="41" height="8"></rect>
                <path d="M0.630859375,1.25976562 L8.18945312,1.25976562 L11.3242188,33.3691406 L15.1035156,12.5976562 L22.28125,12.5976562 L26.6757812,33.3691406 L29.1367188,1.25976562 L36.7539062,1.25976562 L31.7148438,45 L23.6582031,45 L18.6777344,22.03125 L14.0195312,45 L6.02148438,45 L0.630859375,1.25976562 Z M54.8007812,9.16992188 L50.7285156,27.0703125 L58.9023438,27.0703125 L54.8007812,9.16992188 Z M49.5273438,1.25976562 L60.1035156,1.25976562 L71.9101562,45 L63.2675781,45 L60.5722656,34.1894531 L49,34.1894531 L46.3632812,45 L37.7207031,45 L49.5273438,1.25976562 Z M104.455078,8.87695312 L85.8515625,8.87695312 L85.8515625,18.3105469 L102.785156,18.3105469 L102.785156,25.9277344 L85.8515625,25.9277344 L85.8515625,45 L77.2089844,45 L77.2089844,1.25976562 L104.455078,1.25976562 L104.455078,8.87695312 Z M137.578125,8.87695312 L118.974609,8.87695312 L118.974609,18.3105469 L135.908203,18.3105469 L135.908203,25.9277344 L118.974609,25.9277344 L118.974609,45 L110.332031,45 L110.332031,1.25976562 L137.578125,1.25976562 L137.578125,8.87695312 Z M143.714844,45 L143.714844,1.25976562 L152.357422,1.25976562 L152.357422,37.3828125 L170.84375,37.3828125 L170.84375,45 L143.714844,45 Z M204.414062,45 L177.167969,45 L177.167969,1.25976562 L204.414062,1.25976562 L204.414062,8.87695312 L185.810547,8.87695312 L185.810547,18.3105469 L202.65625,18.3105469 L202.65625,25.9277344 L185.810547,25.9277344 L185.810547,37.3828125 L204.414062,37.3828125 L204.414062,45 Z" id="WAFFLE" sketch:type="MSShapeGroup"></path>
                <path d="M212.144531,27.6269531 L212.144531,21.28125 C213.208339,22.3697971 214.343256,23.1985649 215.549316,23.7675781 C216.755377,24.3365914 217.970697,24.6210938 219.195312,24.6210938 C220.630216,24.6210938 221.681637,24.2623734 222.349609,23.5449219 C223.017581,22.8274704 223.351562,21.6832761 223.351562,20.1123047 L223.351562,6.12207031 L216.65332,6.12207031 L216.65332,1.29785156 L228.825195,1.29785156 L228.825195,20.1123047 C228.825195,23.4892747 228.117032,25.9044524 226.700684,27.3579102 C225.284335,28.8113679 222.949561,29.5380859 219.696289,29.5380859 C218.521153,29.5380859 217.293463,29.3772803 216.013184,29.0556641 C214.732904,28.7340479 213.443366,28.2578157 212.144531,27.6269531 L212.144531,27.6269531 Z M240.462891,16.8466797 C237.704413,15.7952421 235.836593,14.6912493 234.859375,13.534668 C233.882157,12.3780867 233.393555,10.8226009 233.393555,8.86816406 C233.393555,6.3570838 234.197583,4.38412176 235.805664,2.94921875 C237.413745,1.51431574 239.621731,0.796875 242.429688,0.796875 C243.703782,0.796875 244.977858,0.942218599 246.251953,1.23291016 C247.526048,1.52360171 248.787754,1.95344768 250.037109,2.52246094 L250.037109,7.86621094 C248.861973,7.03743075 247.6683,6.40657769 246.456055,5.97363281 C245.243809,5.54068794 244.043951,5.32421875 242.856445,5.32421875 C241.532871,5.32421875 240.518558,5.59016661 239.813477,6.12207031 C239.108395,6.65397401 238.755859,7.41470859 238.755859,8.40429688 C238.755859,9.17122779 239.01253,9.80517328 239.525879,10.3061523 C240.039228,10.8071314 241.112297,11.3606741 242.745117,11.9667969 L245.101562,12.8574219 C247.328136,13.6738322 248.967117,14.7561782 250.018555,16.1044922 C251.069992,17.4528062 251.595703,19.1536356 251.595703,21.2070312 C251.595703,24.0026181 250.770028,26.0899996 249.118652,27.4692383 C247.467277,28.8484769 244.971696,29.5380859 241.631836,29.5380859 C240.258782,29.5380859 238.882657,29.3741878 237.503418,29.0463867 C236.124179,28.7185856 234.791348,28.2330761 233.504883,27.5898438 L233.504883,21.9306641 C234.964526,22.9697318 236.37776,23.742836 237.744629,24.25 C239.111498,24.757164 240.462884,25.0107422 241.798828,25.0107422 C243.147142,25.0107422 244.192379,24.7045929 244.93457,24.0922852 C245.676762,23.4799774 246.047852,22.6233779 246.047852,21.5224609 C246.047852,20.6936808 245.800458,19.9669628 245.305664,19.3422852 C244.81087,18.7176076 244.093429,18.2259133 243.15332,17.8671875 L240.462891,16.8466797 Z" id="JS" sketch:type="MSShapeGroup"></path>
            </g>
        </g>
    </g>
</svg>