<svg width="160" height="52" viewBox="0 0 160 52" xmlns="http://www.w3.org/2000/svg"><title>Artboard</title><g fill="none" fill-rule="nonzero"><path d="M91.663 24.7c-2.927 4.835-5.47 9.856-7.337 15.209a1.73 1.73 0 0 1-.42.782c-.92.819-1.705.573-1.957-.62-.865-4.102-.586-8.2.061-12.289.46-2.913 1.093-5.783 2.292-8.494.36-.83.844-1.608 1.356-2.568-1.748.604-3.339 1.085-5.016 1.144-.32.013-.448.259-.572.506-1.798 3.604-3.04 7.41-4.225 11.386 1.258-.382 2.132-1.01 2.675-2.079.133-.26.198-.598.626-.415.49.211.153.542.057.743-.559 1.23-1.602 1.931-2.824 2.34-.62.208-.9.553-1.048 1.166-.54 2.094-1.12 4.176-1.683 6.263-.18.664-.311 1.385.467 1.717.779.333 1.286-.233 1.681-.835.18-.273.295-.589.457-.876.088-.157.218-.313.43-.232.212.082.18.28.16.46-.205 1.501-2.312 3.153-3.82 2.994-.938-.1-1.396-.542-1.542-1.464-.145-.921.052-1.856.293-2.758.471-1.769.955-3.535 1.439-5.304 0-.016-.038-.043-.09-.103-.487.067-.923.322-1.347.584a15.907 15.907 0 0 0-5.214 5.125c-.156.25-.259.616-.63.52-.443-.113-.323-.507-.278-.829.18-1.373.094-2.745.067-4.225-.421.159-.54.47-.72.712-2.2 3.038-4.636 5.834-7.937 7.728-3.776 2.168-7.757 2.568-11.867 1.277-7.245-2.273-9.529-10.713-4.495-16.498a15.344 15.344 0 0 1 3.334-2.866c.248-.165.516-.297.798-.392.316-.1.692-.15.832.265a.585.585 0 0 1-.51.797c-1.854.228-2.726 1.647-3.573 3.015-2.75 4.453-1.848 12.865 5.457 15.153 3.596 1.128 6.985.252 10.052-1.868 2.35-1.627 4.136-3.828 5.887-6.04.719-.893 1.379-1.822 2.112-2.693.383-.453.396-.882.225-1.41-1.043-3.233-3.344-5.08-6.539-5.783-3.682-.813-8.44.214-10.816 3.919-1.318 2.054-1.726 4.274-.9 6.625a5.368 5.368 0 0 0 5.466 3.566 2.912 2.912 0 0 0 1.638-.666c.18-.151.36-.321.556-.457.329-.226.72-.293.955.065.28.429 0 .705-.401.904-2.169 1.113-4.328 1.084-6.424-.137-2.485-1.446-3.51-4.562-2.6-7.782.76-2.691 2.395-4.681 4.905-5.905 4.426-2.154 8.736-1.848 12.894.723a7.784 7.784 0 0 1 3.008 3.533c1.681-2.147 3.287-4.275 4.973-6.338 2.823-3.446 5.82-6.726 9.53-9.26 2.384-1.626 4.928-2.859 7.91-2.725.568.027 1.132.102 1.687.224.649.141.899.62.678 1.225-.221.606-.662.66-1.246.416-2.789-1.171-4.966-.732-7.107 1.433-1.06 1.07-1.892 2.315-2.697 3.752A15.837 15.837 0 0 0 86 15.408c.87-.459 1.686-1.048 2.686-1.2.31-.047.719-.18.91.148.217.394-.229.564-.443.776-2.598 2.559-3.982 5.747-4.674 9.262a51.967 51.967 0 0 0-.951 12.746c0 .06.009.12.014.18.023.295-.045.724.268.792.36.08.406-.361.516-.625a98.37 98.37 0 0 1 4.1-8.705 55.063 55.063 0 0 1 4.812-7.59c.18-.236.308-.698.72-.467.33.18.116.542.06.82-.972 5.084-1.781 10.19-1.844 15.384-.01.15-.01.301 0 .451.032.28-.085.696.282.758.311.05.345-.362.453-.591 2.64-5.603 5.574-11.039 9.274-16.027 2.677-3.614 5.613-6.976 9.409-9.468 1.18-.775 2.429-1.417 3.824-1.72a4.726 4.726 0 0 1 2.819.242c.61.244.93.723.68 1.362-.25.64-.765.904-1.453.7a1.654 1.654 0 0 1-.42-.15c-1.736-1.084-3.349-.676-4.961.336-3.578 2.245-6.272 5.38-8.72 8.745-4.058 5.577-7.295 11.631-10.089 17.931-.102.283-.23.554-.384.812-.368.529-.988.821-1.628.766-.577-.06-.469-.755-.528-1.2-.464-3.5-.025-6.965.457-10.424.203-1.458.436-2.913.658-4.37.034-.173.185-.408-.184-.381z" fill="#666"/><path d="M107.284 44.277c-.706.89-1.317 1.622-1.892 2.376-.22.287-.463.369-.803.232-.286-.116-.629-.178-.585-.58.2-1.765 0-3.54.114-5.305.94.048 1.409.38 1.26 1.326a8.529 8.529 0 0 0 .023 2.574c.602-.776 1.21-1.547 1.802-2.33.237-.313.436-.51.917-.338.482.172.48.448.45.828-.095.962-.095 1.93 0 2.892.607-.765 1.264-1.502 1.809-2.314.466-.689.952-.338 1.442-.137.352.144.096.34-.024.482-1.057 1.246-2.13 2.492-3.182 3.738-.261.312-.527.332-.9.209-.375-.123-.437-.356-.433-.679.01-.925.002-1.849.002-2.974zM121.011 46c1.745.038 3.04 1.35 2.987 3.027-.056 1.745-1.368 3.027-3.041 2.971-1.78-.059-2.986-1.292-2.956-3.035.03-1.78 1.268-3 3.01-2.962zm1.585 3.003c.03-1.095-.579-1.807-1.563-1.843-.946-.025-1.668.757-1.712 1.865-.035.464.122.92.433 1.262.31.341.747.536 1.205.537.935.004 1.606-.748 1.637-1.82zM137 51.568c-1.036.463-1.686.177-2.139-.701-.169-.334-.389-.732-.87-.556-.483.176-.24.613-.195.9.083.517 0 .76-.595.786-.595.027-.788-.12-.817-.715a50.634 50.634 0 0 0-.361-4.132c-.105-.797.147-1.083.958-1.042.51.027 1.027-.089 1.54-.106.824-.028 1.526.22 1.98.948.482.759.602 1.675 0 2.297-.68.696-.366 1.11.056 1.65.17.19.29.415.443.671zm-3.438-3.46c.1.435-.256 1.147.724 1.056.72-.065 1.205-.34 1.166-1.076-.029-.66-.468-.976-1.166-.976-.74.002-.852.4-.724.995zM66.989 15c-1.095-.19-1.633-.692-1.503-1.752.041-.325.068-.729-.401-.846-.552-.139-.513.38-.643.631-.237.461-.425.683-1.013.4-.631-.303-.437-.625-.226-1.043.66-1.295 1.319-2.592 1.953-3.9.216-.445.424-.65.936-.346.583.34 1.217.569 1.8.91 1.423.814 1.52 2.883.033 3.549-1.07.478-1.074 1.088-.94 1.942.011.151.013.303.004.455zm-.534-3.234c.68-.036 1.07-.379 1.134-.973.085-.777-.579-.97-1.138-1.192-.233-.095-1.093 1.138-1.01 1.517.117.514.669.459 1.014.648zM145.847 45.813c.895-.961.385-2.806 2.54-2.813-.35.842-.656 1.648-1.025 2.43-.185.393-.089.607.284.833.788.478 1.548.994 2.354 1.515-.834.488-1.542.538-2.26-.088-.43-.374-.954-.656-1.635-1.114.23.673.37 1.133.537 1.572.164.412.13.658-.419.79-.467.11-.7.122-.852-.384a71.322 71.322 0 0 0-1.31-3.936c-.153-.421-.017-.54.402-.626.37-.075.707-.282.862.24.155.522.335 1.02.522 1.581zM157.679 42.496c-.2.032-.54.106-.882.14-.768.073-1.366-.226-1.67-1.022-.305-.796-.033-1.392.518-1.914.737-.706 1.73-.916 2.378-.455.235.167.691.374.422.749-.2.272-.562.663-1.026.375-.1-.06-.173-.165-.28-.214-.31-.15-.567 0-.78.227-.141.151-.254.346-.134.588.119.259.376.409.641.374.43-.034.865-.1 1.286-.152.825-.099 1.406.294 1.73 1.094.3.758.012 1.592-.675 2.131-.875.69-1.92.783-2.557.198-.204-.187-.595-.477-.377-.715.247-.271.609-.738 1.107-.354.046.036.084.086.133.12a.813.813 0 0 0 1.037-.075.622.622 0 0 0 .173-.749c-.18-.444-.557-.363-1.044-.346zM25.1 1.616c-.208-1.573-.208-1.573 1.157-1.6.276 0 .55-.018.826-.016 1.104 0 1.85.799 1.913 2.035.062 1.195-.66 2.212-1.744 2.202-.826 0-1.157.25-.992 1.232.088.533-.247.527-.571.53-.324.004-.597-.011-.59-.535.011-1.289.002-2.571.002-3.848zm1.061.376c.316.263-.401 1.321.613 1.207.582-.065 1.028-.293.992-1.11-.037-.818-.49-.951-1.081-.965-.524-.011-.6.29-.524.868zM16 4.124c-.016 1.007-.58 1.657-1.824 1.914-.727.15-1.118.377-.76 1.137.25.531-.114.667-.57.782-.494.125-.675-.018-.774-.489-.313-1.465-.665-2.91-1.037-4.357-.116-.449.055-.595.486-.669.63-.108 1.25-.276 1.878-.395 1.454-.271 2.624.668 2.6 2.077zm-2.485-1.046c-.157.355-1.006-.136-.901.544.073.522-.086 1.326.653 1.51.322.064.658-.01.918-.202.259-.192.414-.484.424-.795-.021-.592-.352-.958-1.094-1.057zM.054 7.651c.184-.445-.47-1.172.46-1.53.457-.179.754-.197 1.105.208.958 1.112 1.975 2.18 2.947 3.281.166.19.654.385.319.67-.276.236-.681.512-1.16.28a1.612 1.612 0 0 0-1.262-.017 1.535 1.535 0 0 0-.864.889c-.173.47-.669.535-1.048.567-.346.028-.245-.405-.262-.64-.093-1.21-.156-2.42-.235-3.708zm1.129.029c.062.586.096 1.009.156 1.42.037.238-.094.601.275.655.34.029.673-.095.906-.335.273-.28-.11-.459-.26-.637-.285-.333-.48-.747-1.077-1.103zM50 8.523c1.105-1.44 2.191-2.842 3.26-4.25.26-.34.564-.312.903-.186.34.126.711.153.715.661.015 1.65.079 3.3.122 4.95 0 .155-.041.356-.229.289-.39-.14-.9-.063-1.14-.496-.492-.888-1.261-1.08-2.288-.66-.437.19-.872-.086-1.343-.308zm3.749-2.778l-.166-.052c-.34.487-.682.972-1.013 1.464-.084.126-.313.305-.04.417.327.137.705.28 1.044.249.253-.021.175-.396.175-.617.01-.486 0-.973 0-1.461zM39.26 1.036c.885.135 1.58.245 2.28.345.353.047.542.16.426.592-.09.332-.15.577-.576.446a6.115 6.115 0 0 0-.884-.105c-.335-.05-.72-.274-.76.368-.026.446-.102.871.542.875.32 0 .64.101.963.127.322.026.462.195.414.541-.048.346-.152.595-.554.516-.232-.046-.462-.094-.695-.13-.478-.07-.942-.183-1.01.59-.066.737.45.569.81.654.256.06.53.083.785.121.379.055.354.334.331.623-.016.322-.177.432-.464.394-.845-.118-1.69-.256-2.535-.369-.335-.042-.354-.232-.322-.506.203-1.455.426-2.907.594-4.366.073-.567.246-.86.655-.716z" fill="#B1B1B1"/><path d="M92 25.45c.045-.198.162-.522.236-.436.217.293.118.667-.045.986L92 25.45z" fill="#B4B4B4"/><path d="M68 34.941V30.92c-.009-.274.074-.542.234-.76 3.688-5.184 7.52-10.242 12.033-14.696.191-.183.34-.51.692-.459.016.07.055.144.036.171-3.215 4.469-4.97 9.64-6.612 14.86-.194.62-.44.994-1.08 1.242-1.981.767-3.58 2.15-5.037 3.722L68 34.941z" fill="#FEFEFE"/></g></svg>