<?xml version="1.0" encoding="UTF-8" standalone="no"?>
<svg
   xmlns:dc="http://purl.org/dc/elements/1.1/"
   xmlns:cc="http://creativecommons.org/ns#"
   xmlns:rdf="http://www.w3.org/1999/02/22-rdf-syntax-ns#"
   xmlns:svg="http://www.w3.org/2000/svg"
   xmlns="http://www.w3.org/2000/svg"
   height="40"
   width="37.508362"
   version="1.1"
   viewBox="0 0 37.508362 40"
   data-name="Layer 1"
   id="Layer_1">
  <metadata
     id="metadata1371">
    <rdf:RDF>
      <cc:Work
         rdf:about="">
        <dc:format>image/svg+xml</dc:format>
        <dc:type
           rdf:resource="http://purl.org/dc/dcmitype/StillImage" />
        <dc:title>Artboard 1</dc:title>
      </cc:Work>
    </rdf:RDF>
  </metadata>
  <defs
     id="defs1348">
    <style
       id="style1346">.cls-1{fill:#231f20;}</style>
  </defs>
  <title
     id="title1350">Artboard 1</title>
  <path
     style="stroke-width:0.103689;fill:#231f20;fill-opacity:0.44736844"
     id="path1352"
     d="m 7.88656,34.09596 c 0.84299,-0.38468 1.37595,-1.16857 1.37595,-2.20442 0,-1.34795 -0.90312,-2.67828 -3.64051,-2.67828 H 0 v 10.53478 h 5.72569 c 2.76745,0 3.96506,-1.24427 3.96506,-3.11067 A 2.7477512,2.7477512 0 0 0 7.88656,34.09596 Z m -4.5426,-2.30811 h 1.64243 c 0.54748,0 0.82951,0.26648 0.82951,0.74034 0,0.47386 -0.281,0.7393 -0.82951,0.7393 H 3.34396 Z m 2.05615,5.38559 H 3.34396 v -1.47963 h 2.05615 c 0.54748,0 0.82951,0.26648 0.82951,0.74033 0,0.47386 -0.28203,0.7393 -0.82951,0.7393 z"
     class="cls-1" />
  <path
     style="stroke-width:0.103689;fill:#231f20;fill-opacity:0.44736844"
     id="path1354"
     d="m 13.30119,33.62314 v -1.50971 h -3.01734 v 7.63461 h 3.07748 v -2.92921 c 0,-1.42054 0.63561,-2.0126 1.83425,-2.0126 h 0.71027 v -2.76641 a 2.9903829,2.9903829 0 0 0 -0.54748,-0.0446 c -1.10947,0 -1.7907,0.54748 -2.05718,1.62791 z"
     class="cls-1" />
  <path
     style="stroke-width:0.103689;fill:#231f20;fill-opacity:0.44736844"
     id="path1356"
     d="m 24.43321,34.38007 c 0,-1.55533 -1.14057,-2.44083 -3.89144,-2.44083 -2.82551,0 -3.96505,0.96119 -4.03867,2.82552 v 0.0446 h 3.07748 v -0.0446 c 0.0446,-0.57651 0.32558,-0.75382 0.91661,-0.75382 0.56303,0 0.85854,0.16279 0.85854,0.56199 0,0.3992 -0.29551,0.51844 -0.91765,0.57651 l -1.39668,0.13065 c -2.10074,0.20738 -2.91469,1.03689 -2.91469,2.36721 0,1.61236 1.19864,2.3527 2.811,2.3527 1.21316,0 2.04163,-0.42927 2.45638,-1.14058 a 2.2998159,2.2998159 0 0 0 0.2219,0.88758 h 3.092 a 2.7052389,2.7052389 0 0 1 -0.281,-1.21316 z m -3.07748,2.45639 c 0,0.82951 -0.41475,1.24426 -1.19864,1.24426 -0.59206,0 -0.90209,-0.22189 -0.90209,-0.68123 0,-0.39921 0.23641,-0.60658 0.72582,-0.66569 l 0.71027,-0.0892 c 0.34009,-0.0436 0.54747,-0.13272 0.66568,-0.31106 z"
     class="cls-1" />
  <rect
     style="stroke-width:0.103689;fill:#231f20;fill-opacity:0.44736844"
     id="rect1358"
     height="7.6346006"
     width="3.0774815"
     y="32.113441"
     x="25.211914"
     class="cls-1" />
  <path
     style="stroke-width:0.103689;fill:#231f20;fill-opacity:0.44736844"
     id="path1360"
     d="m 34.43088,29.21326 v 3.89144 c -0.45831,-0.71027 -1.18309,-1.16857 -2.26353,-1.16857 -2.02711,0 -3.2693,1.58332 -3.2693,3.99512 0,2.4118 1.24426,3.99409 3.2693,3.99409 1.15406,0 1.90891,-0.51844 2.3527,-1.31684 v 1.14057 h 2.98831 V 29.21326 Z m -1.15406,8.34487 c -0.84299,0 -1.30129,-0.54748 -1.30129,-1.61236 0,-1.06488 0.4583,-1.62791 1.30129,-1.62791 0.84299,0 1.28782,0.56199 1.28782,1.62791 0,1.06592 -0.44379,1.61236 -1.28782,1.61236 z"
     class="cls-1" />
  <path
     style="stroke-width:0.103689;fill:#231f20;fill-opacity:0.44736844"
     id="path1362"
     d="m 26.75065,28.49055 a 1.5491096,1.5491096 0 1 0 1.54911,1.54807 1.5480727,1.5480727 0 0 0 -1.54911,-1.54807 z"
     class="cls-1" />
  <path
     style="stroke-width:0.103689;fill:#231f20;fill-opacity:0.44736844"
     id="path1364"
     d="M 18.75418,7.9549352e-8 A 10.446639,10.446639 0 0 0 11.13202,17.59079 a 8.3573113,8.3573113 0 0 1 15.24224,0 A 10.446639,10.446639 0 0 0 18.75107,7.9549352e-8 Z"
     class="cls-1" />
  <path
     style="stroke-width:0.103689;fill:#231f20;fill-opacity:0.44736844"
     id="path1366"
     d="m 18.75418,20.89431 a 10.414496,10.414496 0 0 1 -7.62216,-3.30352 8.3583482,8.3583482 0 1 0 15.24224,0 10.417606,10.417606 0 0 1 -7.62008,3.30352 z"
     class="cls-1" />
</svg>
