<?xml version="1.0" encoding="UTF-8" standalone="no"?>
<svg
   xmlns:dc="http://purl.org/dc/elements/1.1/"
   xmlns:cc="http://creativecommons.org/ns#"
   xmlns:rdf="http://www.w3.org/1999/02/22-rdf-syntax-ns#"
   xmlns:svg="http://www.w3.org/2000/svg"
   xmlns="http://www.w3.org/2000/svg"
   xmlns:sodipodi="http://sodipodi.sourceforge.net/DTD/sodipodi-0.dtd"
   xmlns:inkscape="http://www.inkscape.org/namespaces/inkscape"
   inkscape:version="1.0beta2 (2b71d25, 2019-12-03)"
   sodipodi:docname="Braid-Increase.svg"
   id="Layer_1"
   data-name="Layer 1"
   viewBox="0 0 56.262539 60"
   version="1.1"
   width="56.262539"
   height="60">
  <sodipodi:namedview
     fit-margin-bottom="0"
     fit-margin-right="0"
     fit-margin-left="0"
     fit-margin-top="0"
     lock-margins="true"
     inkscape:current-layer="Layer_1"
     inkscape:window-maximized="0"
     inkscape:window-y="29"
     inkscape:window-x="15"
     inkscape:cy="47.941176"
     inkscape:cx="29.415946"
     inkscape:zoom="6.8"
     showgrid="false"
     id="namedview2057"
     inkscape:window-height="708"
     inkscape:window-width="1280"
     inkscape:pageshadow="2"
     inkscape:pageopacity="0"
     guidetolerance="10"
     gridtolerance="10"
     objecttolerance="10"
     borderopacity="1"
     inkscape:document-rotation="0"
     bordercolor="#666666"
     pagecolor="#ffffff" />
  <metadata
     id="metadata1371">
    <rdf:RDF>
      <cc:Work
         rdf:about="">
        <dc:format>image/svg+xml</dc:format>
        <dc:type
           rdf:resource="http://purl.org/dc/dcmitype/StillImage" />
        <dc:title>Artboard 1</dc:title>
      </cc:Work>
    </rdf:RDF>
  </metadata>
  <defs
     id="defs1348">
    <style
       id="style1346">.cls-1{fill:#231f20;}</style>
  </defs>
  <title
     id="title1350">Artboard 1</title>
  <path
     inkscape:connector-curvature="0"
     class="cls-1"
     d="m 11.82984,51.14394 c 1.264485,-0.57702 2.063925,-1.752855 2.063925,-3.30663 0,-2.021925 -1.35468,-4.01742 -5.460765,-4.01742 H 0 v 15.80217 h 8.588535 c 4.151175,0 5.94759,-1.866405 5.94759,-4.666005 A 4.1216268,4.1216268 0 0 0 11.82984,51.14394 Z m -6.8139,-3.462165 h 2.463645 c 0.82122,0 1.244265,0.39972 1.244265,1.11051 0,0.71079 -0.4215,1.10895 -1.244265,1.10895 H 5.01594 Z M 8.100165,55.76016 H 5.01594 v -2.219445 h 3.084225 c 0.82122,0 1.244265,0.39972 1.244265,1.110495 0,0.71079 -0.423045,1.10895 -1.244265,1.10895 z"
     id="path1352"
     style="fill:#666666;fill-opacity:1;stroke-width:0.155534" />
  <path
     inkscape:connector-curvature="0"
     class="cls-1"
     d="m 19.951785,50.43471 v -2.264565 h -4.52601 V 59.62206 h 4.61622 v -4.393815 c 0,-2.13081 0.953415,-3.0189 2.751375,-3.0189 h 1.065405 V 48.05973 a 4.4855744,4.4855744 0 0 0 -0.82122,-0.0669 c -1.664205,0 -2.68605,0.82122 -3.08577,2.441865 z"
     id="path1354"
     style="fill:#666666;fill-opacity:1;stroke-width:0.155534" />
  <path
     inkscape:connector-curvature="0"
     class="cls-1"
     d="m 36.649815,51.570105 c 0,-2.332995 -1.710855,-3.661245 -5.83716,-3.661245 -4.238265,0 -5.947575,1.441785 -6.058005,4.23828 v 0.0669 h 4.61622 v -0.0669 c 0.0669,-0.864765 0.48837,-1.13073 1.374915,-1.13073 0.844545,0 1.28781,0.244185 1.28781,0.842985 0,0.5988 -0.443265,0.77766 -1.376475,0.864765 l -2.09502,0.195975 c -3.15111,0.31107 -4.372035,1.555335 -4.372035,3.550815 0,2.41854 1.79796,3.52905 4.2165,3.52905 1.81974,0 3.062445,-0.643905 3.68457,-1.71087 a 3.4497239,3.4497239 0 0 0 0.33285,1.33137 h 4.638 a 4.0578584,4.0578584 0 0 1 -0.4215,-1.81974 z m -4.61622,3.684585 c 0,1.244265 -0.622125,1.86639 -1.79796,1.86639 -0.88809,0 -1.353135,-0.332835 -1.353135,-1.021845 0,-0.598815 0.354615,-0.90987 1.08873,-0.998535 l 1.065405,-0.1338 c 0.510135,-0.0654 0.821205,-0.19908 0.99852,-0.46659 z"
     id="path1356"
     style="fill:#666666;fill-opacity:1;stroke-width:0.155534" />
  <rect
     class="cls-1"
     x="37.817871"
     y="48.170162"
     width="4.6162224"
     height="11.451901"
     id="rect1358"
     style="fill:#666666;fill-opacity:1;stroke-width:0.155534" />
  <path
     inkscape:connector-curvature="0"
     class="cls-1"
     d="m 51.64632,43.81989 v 5.83716 c -0.687465,-1.065405 -1.774635,-1.752855 -3.395295,-1.752855 -3.040665,0 -4.90395,2.37498 -4.90395,5.99268 0,3.6177 1.86639,5.991135 4.90395,5.991135 1.73109,0 2.863365,-0.77766 3.52905,-1.97526 v 1.710855 H 56.26254 V 43.81989 Z m -1.73109,12.517305 c -1.264485,0 -1.951935,-0.82122 -1.951935,-2.41854 0,-1.59732 0.68745,-2.441865 1.951935,-2.441865 1.264485,0 1.93173,0.842985 1.93173,2.441865 0,1.59888 -0.665685,2.41854 -1.93173,2.41854 z"
     id="path1360"
     style="fill:#666666;fill-opacity:1;stroke-width:0.155534" />
  <path
     inkscape:connector-curvature="0"
     class="cls-1"
     d="M 40.125975,42.735825 A 2.3236644,2.3236644 0 1 0 42.44964,45.05793 2.3221091,2.3221091 0 0 0 40.125975,42.735825 Z"
     id="path1362"
     style="fill:#666666;fill-opacity:1;stroke-width:0.155534" />
  <path
     inkscape:connector-curvature="0"
     class="cls-1"
     d="M 28.13127,1.1916781e-7 A 15.669959,15.669959 0 0 0 16.69803,26.386185 a 12.535967,12.535967 0 0 1 22.86336,0 A 15.669959,15.669959 0 0 0 28.126605,1.1916781e-7 Z"
     id="path1364"
     style="fill:#666666;fill-opacity:1;stroke-width:0.155534" />
  <path
     inkscape:connector-curvature="0"
     class="cls-1"
     d="m 28.13127,31.341465 a 15.621744,15.621744 0 0 1 -11.43324,-4.95528 12.537522,12.537522 0 1 0 22.86336,0 15.626409,15.626409 0 0 1 -11.43012,4.95528 z"
     id="path1366"
     style="fill:#666666;fill-opacity:1;stroke-width:0.155534" />
</svg>
