<?xml version="1.0" encoding="UTF-8" standalone="no"?>
<svg
   xmlns:dc="http://purl.org/dc/elements/1.1/"
   xmlns:cc="http://creativecommons.org/ns#"
   xmlns:rdf="http://www.w3.org/1999/02/22-rdf-syntax-ns#"
   xmlns:svg="http://www.w3.org/2000/svg"
   xmlns="http://www.w3.org/2000/svg"
   height="37"
   width="34.692535"
   id="svg260"
   version="1.1"
   viewBox="0 0 34.692535 37">
  <metadata
     id="metadata264">
    <rdf:RDF>
      <cc:Work
         rdf:about="">
        <dc:format>image/svg+xml</dc:format>
        <dc:type
           rdf:resource="http://purl.org/dc/dcmitype/StillImage" />
        <dc:title>BraidCentered_SpectrumLight</dc:title>
      </cc:Work>
    </rdf:RDF>
  </metadata>
  <defs
     id="defs233">
    <style
       id="style216">.cls-1{isolation:isolate;}.cls-2{fill:url(#Braid_Spectrum);}.cls-3,.cls-5{fill:#d9d8d6;}.cls-4{mix-blend-mode:screen;}.cls-5{mix-blend-mode:multiply;}</style>
    <linearGradient
       gradientUnits="userSpaceOnUse"
       y2="315.17999"
       x2="434.73001"
       y1="315.17999"
       x1="287.73999"
       id="Braid_Spectrum">
      <stop
         id="stop218"
         stop-color="#f8ec1f"
         offset="0" />
      <stop
         id="stop220"
         stop-color="#e75e8d"
         offset="0.16" />
      <stop
         id="stop222"
         stop-color="#985aa1"
         offset="0.32" />
      <stop
         id="stop224"
         stop-color="#4272b6"
         offset="0.5" />
      <stop
         id="stop226"
         stop-color="#37b574"
         offset="0.67" />
      <stop
         id="stop228"
         stop-color="#b1d137"
         offset="0.83" />
      <stop
         id="stop230"
         stop-color="#fcb740"
         offset="1" />
    </linearGradient>
  </defs>
  <title
     id="title235">BraidCentered_SpectrumLight</title>
  <g
     transform="matrix(0.09590461,0,0,0.09590461,-17.297355,-14.711767)"
     id="g258"
     class="cls-1">
    <g
       data-name="Layer 1"
       id="Layer_1">
      <path
         style="fill:url(#Braid_Spectrum)"
         id="path237"
         d="m 433.78,321 c -0.26,-0.53 -0.52,-1.06 -0.79,-1.59 l -0.48,-0.92 -0.63,-1.18 c -0.27,-0.48 -0.53,-0.95 -0.8,-1.41 l -0.63,-1.09 -0.64,-1 -0.63,-1 -0.48,-0.73 -0.64,-1 -0.63,-0.93 -0.79,-1.11 c -0.22,-0.3 -0.42,-0.6 -0.64,-0.89 -0.22,-0.29 -0.32,-0.41 -0.48,-0.62 l -0.63,-0.83 c -0.21,-0.27 -0.42,-0.55 -0.64,-0.82 -0.22,-0.27 -0.42,-0.52 -0.63,-0.77 -0.21,-0.25 -0.42,-0.52 -0.64,-0.77 -0.22,-0.25 -0.52,-0.63 -0.79,-0.94 l -0.63,-0.72 -0.8,-0.9 -0.48,-0.51 -0.79,-0.84 -0.32,-0.33 c -0.36,-0.38 -0.73,-0.75 -1.11,-1.13 l -0.47,-0.47 c -0.22,-0.2 -0.42,-0.41 -0.64,-0.62 l -0.63,-0.6 -1,-0.87 -0.95,-0.87 -1.27,-1.08 c -0.42,-0.36 -0.84,-0.71 -1.27,-1 -0.43,-0.29 -0.84,-0.68 -1.27,-1 l -0.64,-0.5 c -0.36,-0.28 -0.74,-0.55 -1.11,-0.82 -0.37,-0.27 -0.94,-0.69 -1.43,-1 l -0.47,-0.33 -1.27,-0.87 -0.95,-0.61 -1,-0.6 -0.95,-0.59 -0.95,-0.56 c -0.43,-0.25 -0.84,-0.5 -1.27,-0.74 -0.43,-0.24 -1,-0.52 -1.43,-0.78 l -1.11,-0.59 -1,-0.47 -1,-0.47 -1.11,-0.53 -1,-0.43 -1.27,-0.56 -1.27,-0.52 -1.27,-0.52 -0.95,-0.35 -1,-0.35 -0.95,-0.34 -0.95,-0.31 -1.27,-0.41 -0.48,-0.16 -1,-0.27 -0.95,-0.27 -0.64,-0.18 -1.27,-0.32 -1.11,-0.28 -0.79,-0.19 -0.64,-0.13 -0.64,-0.13 -0.63,-0.13 -0.79,-0.17 -0.32,-0.06 -0.64,-0.1 -1,-0.16 -0.32,-0.06 c -0.31,-0.05 -0.63,-0.11 -0.95,-0.15 l -1.11,-0.15 -0.48,-0.06 -0.63,-0.08 -1.27,-0.14 -0.95,-0.09 -0.64,-0.06 -0.95,-0.08 h -0.64 -0.63 l -1.27,-0.08 h -0.64 -0.79 -0.8 -1.74 -0.8 -1.58 -1 l -0.79,0.05 -0.95,0.05 h -0.64 l -0.95,0.09 -0.95,0.09 c -0.37,0 -0.75,0.07 -1.11,0.12 l -1,0.12 -1.11,0.15 -1,0.14 -0.64,0.1 -0.95,0.16 -0.48,0.08 -1.11,0.22 -1,0.19 -0.48,0.1 -1.11,0.24 -1.43,0.35 -0.79,0.2 -0.79,0.21 -1.11,0.32 c -0.43,0.12 -0.85,0.23 -1.27,0.36 l -1,0.31 -1.11,0.36 -1.43,0.49 -1.11,0.41 -0.54,0.38 -0.64,0.26 -0.79,0.33 -1.27,0.52 -0.48,0.22 -0.95,0.43 -0.95,0.42 -0.64,0.32 -0.63,0.31 -0.64,0.31 -0.63,0.32 -0.8,0.42 -0.31,0.18 c -0.48,0.25 -1,0.5 -1.43,0.77 l -0.8,0.46 -0.79,0.47 c -0.32,0.18 -0.64,0.36 -0.95,0.56 -0.31,0.2 -0.32,0.2 -0.48,0.3 l -0.95,0.6 c -0.37,0.24 -0.75,0.47 -1.11,0.72 l -0.64,0.43 -0.47,0.33 -1,0.65 -0.79,0.58 -0.79,0.59 -0.48,0.35 -0.48,0.36 -0.47,0.38 c -0.22,0.16 -0.43,0.33 -0.64,0.5 l -0.47,0.38 -0.48,0.38 c -0.38,0.31 -0.74,0.63 -1.11,0.95 l -0.48,0.4 -0.79,0.69 -0.48,0.44 -0.95,0.87 -0.79,0.75 -0.64,0.62 c -0.32,0.32 -0.64,0.62 -0.95,0.94 l -0.48,0.49 -0.79,0.84 -0.48,0.5 -1.11,1.23 -0.79,0.9 -0.8,0.94 -0.63,0.77 -0.32,0.39 c -0.32,0.4 -0.64,0.8 -0.95,1.21 -0.31,0.41 -0.43,0.55 -0.64,0.82 l -0.95,1.29 c -0.32,0.44 -0.64,0.89 -1,1.34 l -0.64,0.93 c -0.37,0.56 -0.75,1.12 -1.11,1.69 l -0.48,0.77 c -0.26,0.43 -0.53,0.86 -0.79,1.3 -0.26,0.44 -0.53,0.91 -0.79,1.36 -0.5,0.87 -1,1.74 -1.43,2.62 -0.38,0.73 -0.76,1.47 -1.11,2.21 -0.35,0.74 -0.64,1.31 -0.93,2 0.3,0.33 0.62,0.64 0.93,1 0.31,0.36 0.73,0.76 1.11,1.14 0.38,0.38 0.94,0.95 1.43,1.41 0.26,0.26 0.53,0.5 0.79,0.75 l 0.79,0.75 0.48,0.44 1.11,1 0.64,0.57 1,0.81 0.95,0.81 0.64,0.51 0.95,0.78 0.32,0.25 0.63,0.49 0.8,0.61 0.79,0.61 1.11,0.81 0.48,0.35 0.79,0.56 0.48,0.33 0.95,0.66 0.64,0.42 0.79,0.52 0.95,0.62 0.48,0.3 0.79,0.49 0.48,0.3 1.11,0.66 0.48,0.28 0.47,0.28 0.64,0.36 0.47,0.26 0.48,0.27 0.48,0.26 0.79,0.43 0.79,0.42 1,0.49 0.47,0.24 0.64,0.31 1.11,0.55 0.95,0.44 0.48,0.22 0.95,0.44 0.79,0.34 0.8,0.34 c 0.47,0.21 0.95,0.41 1.43,0.6 l 0.31,0.13 0.8,0.31 0.63,0.26 0.64,0.24 0.63,0.23 0.64,0.23 0.95,0.35 0.95,0.32 0.48,0.16 1.27,0.42 0.79,0.25 0.64,0.19 q 0.56,0.18 1.11,0.33 l 1.11,0.32 1.43,0.38 1.11,0.29 1,0.23 c 0.42,0.11 0.84,0.2 1.27,0.29 l 1.11,0.26 0.79,0.15 0.79,0.16 1.43,0.28 1.11,0.19 0.48,0.08 1,0.15 1.11,0.17 0.48,0.07 0.95,0.13 0.64,0.07 1,0.12 1.11,0.12 1,0.09 1.11,0.1 0.95,0.07 0.95,0.06 h 0.64 0.95 0.79 1 5.71 0.64 l 1.27,-0.05 h 0.63 0.64 l 0.95,-0.06 h 0.64 l 0.95,-0.07 1.27,-0.12 0.63,-0.06 0.48,-0.05 1.11,-0.13 0.95,-0.11 h 0.32 l 1,-0.13 0.64,-0.1 h 0.32 l 0.79,-0.12 0.63,-0.11 0.64,-0.11 0.64,-0.11 0.79,-0.13 1.11,-0.22 1.27,-0.26 0.64,-0.14 0.95,-0.21 1,-0.22 0.48,-0.12 1.27,-0.32 0.95,-0.24 0.95,-0.27 1,-0.27 0.95,-0.28 1.27,-0.4 1.27,-0.4 1.27,-0.43 1,-0.33 1.11,-0.41 1,-0.35 1,-0.38 1.11,-0.44 1.43,-0.6 1.27,-0.54 0.95,-0.43 0.95,-0.44 1,-0.45 0.95,-0.47 1.27,-0.63 0.47,-0.25 1.43,-0.74 1.11,-0.62 0.64,-0.35 1.27,-0.73 c 0.42,-0.25 0.85,-0.49 1.27,-0.75 0.42,-0.26 0.85,-0.52 1.27,-0.78 0.42,-0.26 0.64,-0.39 0.95,-0.6 l 1,-0.62 0.63,-0.42 0.64,-0.42 0.47,-0.33 c 0.37,-0.25 0.75,-0.51 1.11,-0.77 a 3.62,3.62 0 0 0 0.32,-0.22 l 0.79,-0.58 0.48,-0.34 0.8,-0.58 0.63,-0.49 0.79,-0.61 0.64,-0.49 0.63,-0.52 0.64,-0.51 0.63,-0.52 0.48,-0.4 0.64,-0.54 0.79,-0.68 0.63,-0.56 0.64,-0.57 0.48,-0.43 0.63,-0.59 0.64,-0.6 0.63,-0.6 c 0.27,-0.25 0.53,-0.52 0.8,-0.78 l 0.63,-0.63 0.48,-0.47 0.79,-0.82 1,-1 c -0.93,-0.82 -1.25,-1.48 -1.57,-2.17 z"
         class="cls-2" />
      <path
         id="path239"
         d="M 361.23,153.43 A 100.72,100.72 0 0 0 287.74,323 a 80.57,80.57 0 0 1 147,0 100.72,100.72 0 0 0 -73.5,-169.6 z"
         class="cls-3" />
      <path
         id="path241"
         d="M 361.23,354.89 A 100.44,100.44 0 0 1 287.74,323 a 80.59,80.59 0 1 0 147,0 100.48,100.48 0 0 1 -73.51,31.89 z"
         class="cls-3" />
      <g
         id="g255"
         class="cls-4">
        <path
           id="path243"
           d="m 256.42,482.26 c 8.13,-3.71 13.27,-11.27 13.27,-21.26 0,-13 -8.71,-25.83 -35.11,-25.83 h -54.22 v 101.6 h 55.22 c 26.69,0 38.24,-12 38.24,-30 a 26.5,26.5 0 0 0 -17.4,-24.51 z M 212.61,460 h 15.84 c 5.28,0 8,2.57 8,7.14 0,4.57 -2.71,7.13 -8,7.13 h -15.84 z m 19.83,51.94 h -19.83 v -14.27 h 19.83 c 5.28,0 8,2.57 8,7.14 0,4.57 -2.72,7.13 -8,7.13 z"
           class="cls-5" />
        <path
           id="path245"
           d="m 308.64,477.7 v -14.56 h -29.1 v 73.63 h 29.68 v -28.25 c 0,-13.7 6.13,-19.41 17.69,-19.41 h 6.85 V 462.43 A 28.84,28.84 0 0 0 328.48,462 c -10.7,0 -17.27,5.28 -19.84,15.7 z"
           class="cls-5" />
        <path
           id="path247"
           d="m 416,485 c 0,-15 -11,-23.54 -37.53,-23.54 -27.25,0 -38.24,9.27 -38.95,27.25 v 0.43 h 29.68 v -0.43 c 0.43,-5.56 3.14,-7.27 8.84,-7.27 5.43,0 8.28,1.57 8.28,5.42 0,3.85 -2.85,5 -8.85,5.56 L 364,493.68 c -20.26,2 -28.11,10 -28.11,22.83 0,15.55 11.56,22.69 27.11,22.69 11.7,0 19.69,-4.14 23.69,-11 a 22.18,22.18 0 0 0 2.14,8.56 h 29.82 a 26,26 0 0 1 -2.71,-11.7 z m -29.68,23.69 c 0,8 -4,12 -11.56,12 -5.71,0 -8.7,-2.14 -8.7,-6.57 0,-3.85 2.28,-5.85 7,-6.42 l 6.85,-0.86 c 3.28,-0.42 5.28,-1.28 6.42,-3 z"
           class="cls-5" />
        <rect
           id="rect249"
           height="73.629997"
           width="29.68"
           y="463.14001"
           x="423.51001"
           class="cls-5" />
        <path
           id="path251"
           d="m 512.42,435.17 v 37.53 c -4.42,-6.85 -11.41,-11.27 -21.83,-11.27 -19.55,0 -31.53,15.27 -31.53,38.53 0,23.26 12,38.52 31.53,38.52 11.13,0 18.41,-5 22.69,-12.7 v 11 H 542.1 V 435.17 Z m -11.13,80.48 c -8.13,0 -12.55,-5.28 -12.55,-15.55 0,-10.27 4.42,-15.7 12.55,-15.7 8.13,0 12.42,5.42 12.42,15.7 0,10.28 -4.28,15.55 -12.42,15.55 z"
           class="cls-5" />
        <path
           id="path253"
           d="m 438.35,428.2 a 14.94,14.94 0 1 0 14.94,14.93 14.93,14.93 0 0 0 -14.94,-14.93 z"
           class="cls-5" />
      </g>
    </g>
  </g>
</svg>
