<svg width="136" height="37" viewBox="0 0 136 37" fill="none" xmlns="http://www.w3.org/2000/svg"><g clip-path="url(#a)"><path fill-rule="evenodd" clip-rule="evenodd" d="M6.505 8.39a9.157 9.157 0 0 1 9.732 2.953 9.11 9.11 0 0 1-1.021 12.623 9.18 9.18 0 0 1-6.456 2.282C3.829 26.038 0 21.864 0 16.941V1.895a.418.418 0 0 1 .2-.358L2.588.091a.421.421 0 0 1 .638.356v9.735a9.137 9.137 0 0 1 3.28-1.792zm-.643 13.654a5.95 5.95 0 0 0 7.492-.738 5.912 5.912 0 0 0 1.74-4.18c0-1.17-.347-2.314-1-3.286a5.93 5.93 0 0 0-2.663-2.179 5.953 5.953 0 0 0-6.468 1.283 5.896 5.896 0 0 0-1.287 6.446 5.92 5.92 0 0 0 2.186 2.654zm62.507-6.45c-2.337-.648-3.756-1.13-3.756-2.392 0-1.825 2.003-2.487 3.35-2.487 1.535 0 2.465.353 3.673 1.09a.422.422 0 0 0 .57-.131l1.107-1.713a.42.42 0 0 0-.138-.587 10.296 10.296 0 0 0-5.322-1.47c-3.038 0-6.165 1.994-6.165 5.329 0 3.4 3.032 4.22 5.702 4.94l.007.002c2.531.682 4.063 1.21 4.063 2.799 0 1.46-1.505 2.561-3.5 2.561-1.92 0-3.49-.864-4.556-1.681a.418.418 0 0 0-.58.065l-1.315 1.598a.422.422 0 0 0 .061.592c1.728 1.445 4.03 2.235 6.534 2.235 3.637 0 6.274-2.302 6.274-5.476.009-3.605-3.33-4.531-6.005-5.273l-.004-.001zm16.708-7.676c-4.305.128-7.675 3.76-7.675 8.054v9.804a.418.418 0 0 0 .42.418h2.385a.42.42 0 0 0 .42-.418v-9.837c0-2.523 1.936-4.68 4.455-4.805a4.71 4.71 0 0 1 3.469 1.285 4.676 4.676 0 0 1 1.457 3.39v9.972a.418.418 0 0 0 .42.418h2.385a.421.421 0 0 0 .42-.418v-9.972a7.88 7.88 0 0 0-2.407-5.661 7.934 7.934 0 0 0-5.749-2.23zm20.125.09a9.19 9.19 0 0 0-4.326.867 9.155 9.155 0 0 0-3.416 2.783 9.112 9.112 0 0 0-1.33 8.434 9.126 9.126 0 0 0 2.397 3.692 9.168 9.168 0 0 0 3.85 2.148 9.193 9.193 0 0 0 8.36-1.858v1.7a.417.417 0 0 0 .42.419h2.386a.422.422 0 0 0 .421-.42v-8.459c-.002-4.919-3.831-9.097-8.762-9.307zm-.398 15.033a5.95 5.95 0 0 1-3.298-.996 5.92 5.92 0 0 1-2.186-2.654 5.896 5.896 0 0 1 1.285-6.447 5.952 5.952 0 0 1 6.468-1.283 5.927 5.927 0 0 1 2.664 2.179c.652.972 1 2.116 1 3.286a5.91 5.91 0 0 1-1.74 4.18 5.95 5.95 0 0 1-4.193 1.735zm17.11-14.166a9.19 9.19 0 0 1 4.326-.868c4.931.21 8.76 4.388 8.767 9.316v10.334c0 5.12-4.204 9.41-9.339 9.313a9.12 9.12 0 0 1-4.171-1.085 9.089 9.089 0 0 1-3.202-2.876.441.441 0 0 1-.067-.156.44.44 0 0 1 0-.17.424.424 0 0 1 .191-.273l2.025-1.251a.414.414 0 0 1 .556.108 5.9 5.9 0 0 0 4.725 2.489c3.328.06 6.05-2.757 6.05-6.073v-3.61a9.193 9.193 0 0 1-8.36 1.859 9.168 9.168 0 0 1-3.85-2.148 9.105 9.105 0 0 1-1.067-12.126 9.153 9.153 0 0 1 3.416-2.783zm.629 13.169a5.947 5.947 0 0 0 7.492-.738 5.91 5.91 0 0 0 1.74-4.18c0-1.17-.348-2.314-1-3.286a5.928 5.928 0 0 0-2.664-2.179 5.953 5.953 0 0 0-6.467 1.282 5.898 5.898 0 0 0-1.287 6.446 5.918 5.918 0 0 0 2.186 2.655zM49.354 8.007a9.187 9.187 0 0 0-4.325.869 9.154 9.154 0 0 0-3.416 2.783 9.112 9.112 0 0 0-1.328 8.433 9.126 9.126 0 0 0 2.396 3.693 9.19 9.19 0 0 0 12.21.288v3.61c0 3.316-2.722 6.135-6.05 6.073a5.911 5.911 0 0 1-4.725-2.49.415.415 0 0 0-.557-.107l-2.025 1.251a.423.423 0 0 0-.123.599 9.085 9.085 0 0 0 3.195 2.873 9.119 9.119 0 0 0 4.163 1.088c5.135.097 9.338-4.193 9.338-9.313V17.323c.009-4.928-3.82-9.106-8.753-9.316zm-.398 15.034a5.95 5.95 0 0 1-3.297-.997 5.92 5.92 0 0 1-2.186-2.654 5.896 5.896 0 0 1 1.286-6.447 5.954 5.954 0 0 1 6.468-1.282 5.931 5.931 0 0 1 2.664 2.179c.652.973 1 2.116 1 3.286a5.912 5.912 0 0 1-1.74 4.18 5.952 5.952 0 0 1-4.195 1.735zM33.995 8.16l2.386-.036a.421.421 0 0 1 .427.419v9.524a7.882 7.882 0 0 1-2.409 5.658 7.936 7.936 0 0 1-5.747 2.228c-4.301-.128-7.676-3.762-7.676-8.054V8.587a.418.418 0 0 1 .42-.418h2.384a.421.421 0 0 1 .42.418v9.34c0 2.514 1.936 4.682 4.455 4.805a4.71 4.71 0 0 0 3.467-1.283 4.68 4.68 0 0 0 1.46-3.386V8.577a.418.418 0 0 1 .413-.415z" fill="#666"/></g><defs><clipPath id="a"><path fill="#fff" d="M0 0h136v37H0z"/></clipPath></defs></svg>