<svg width="140" height="29" viewBox="0 0 140 29" fill="none" xmlns="http://www.w3.org/2000/svg"><path d="M34.27 24.834c-.509 0-.982-.318-1.149-.82a1.185 1.185 0 0 1 .773-1.5c2.298-.74 3.784-2.722 3.784-5.05 0-2.948-2.438-5.346-5.434-5.346-.209 0-.433.016-.705.05l-1.182.151-.17-1.16c-.725-4.978-5.132-8.731-10.25-8.731-4.23 0-7.997 2.492-9.594 6.349l-.3.725-.796.014c-3.659.066-6.634 3.047-6.634 6.644 0 2.626 1.55 5.02 3.947 6.1.607.274.874.98.596 1.577s-.995.859-1.601.586A9.086 9.086 0 0 1 .196 16.16c0-4.624 3.621-8.498 8.22-8.973C10.537 2.827 14.978.05 19.939.05c5.936 0 11.097 4.095 12.435 9.69 4.27.069 7.722 3.507 7.722 7.724 0 3.323-2.19 6.261-5.45 7.31-.124.04-.25.06-.376.06z" fill="#666"/><path d="M15.804 25.387l-.001-.001H15.8h-.002-.003-.001v-.001h-.003a.203.203 0 0 0-.06-.012h-.003-.001-.001a.95.95 0 0 1-.954-.933V13.973H15.587a.196.196 0 0 0 .209-.201.202.202 0 0 0-.127-.187l-3.91-2.655a.207.207 0 0 0-.232 0l-3.94 2.676a.2.2 0 0 0-.08.226.204.204 0 0 0 .196.142h.814v10.464c.005.724.596 1.314 1.347 1.333l.026.002h5.833a.206.206 0 0 0 .14-.058v-.001h.001a.2.2 0 0 0 .058-.14v-.005a.196.196 0 0 0-.118-.181zM24.258 25.387l-.001-.001h-.007-.001v-.001h-.002-.001a.201.201 0 0 0-.06-.012h-.006-.003a.949.949 0 0 1-.955-.933v-8.125h.823c.113 0 .205-.09.205-.201a.202.202 0 0 0-.127-.187l-3.91-2.655a.208.208 0 0 0-.233 0l-3.94 2.676a.2.2 0 0 0-.079.226.204.204 0 0 0 .196.142h.81l.001 8.122c.004.724.595 1.314 1.347 1.332l.024.002h5.841a.206.206 0 0 0 .138-.056l.002-.002.001-.001a.2.2 0 0 0 .058-.14v-.005a.203.203 0 0 0-.12-.181zM32.716 25.387h-.001-.001-.001-.002-.002l-.001-.001h-.005a.202.202 0 0 0-.06-.012h-.007-.002a.949.949 0 0 1-.954-.933v-5.784H32.496c.115-.003.21-.088.21-.201a.202.202 0 0 0-.128-.187l-3.91-2.655a.207.207 0 0 0-.232 0l-3.94 2.676a.2.2 0 0 0-.08.226.204.204 0 0 0 .196.141h.813v5.78c.004.724.596 1.315 1.347 1.333h5.865a.206.206 0 0 0 .138-.055l.002-.002h.001v-.001a.2.2 0 0 0 .058-.14v-.004c0-.08-.05-.15-.12-.181zM70.658 16.529a4.417 4.417 0 0 0-1.58-1.066c-.636-.257-1.376-.39-2.2-.393-.825.004-1.565.136-2.2.393a4.417 4.417 0 0 0-1.58 1.066c-.434.467-.75.991-.966 1.604-.22.614-.33 1.29-.33 2.008 0 .547.057 1.08.17 1.586.11.492.292.96.54 1.39.243.419.565.791.955 1.105a4.26 4.26 0 0 0 1.429.737c.56.178 1.228.27 1.981.273.755-.003 1.421-.095 1.981-.273.562-.174 1.042-.422 1.43-.737.388-.31.71-.682.957-1.106.246-.43.428-.898.538-1.39.115-.5.171-1.018.171-1.585 0-.718-.111-1.394-.33-2.008a4.524 4.524 0 0 0-.966-1.604zm-1.302 4.884c-.095.396-.25.761-.46 1.082-.211.322-.487.581-.82.77-.337.186-.74.282-1.196.285-.46-.003-.86-.1-1.194-.285a2.373 2.373 0 0 1-.826-.77 3.474 3.474 0 0 1-.46-1.082 5.343 5.343 0 0 1-.146-1.27c0-.471.052-.914.153-1.317.098-.402.256-.764.472-1.076.218-.314.497-.56.827-.733.33-.171.724-.26 1.17-.263h.004c.445.003.84.091 1.172.262.331.175.608.422.825.733.214.31.374.673.476 1.077.099.407.149.849.149 1.316 0 .449-.05.876-.146 1.27zM78.29 25.017a3.655 3.655 0 0 0 1.067-.588 4.95 4.95 0 0 0 .859-.885l.06-.08h.3l.04.197v.365c0 .256.038.474.118.666.074.17.187.3.342.393.157.096.368.145.63.148.26-.003.471-.052.626-.146a.837.837 0 0 0 .345-.398c.079-.189.117-.406.117-.662v-7.75a1.629 1.629 0 0 0-.11-.626.824.824 0 0 0-.356-.415c-.178-.107-.435-.163-.762-.166-.321.003-.577.06-.757.167a.846.846 0 0 0-.358.414c-.076.189-.112.399-.11.624v4.636c-.003.386-.074.72-.217 1.022-.142.297-.33.55-.558.755a2.511 2.511 0 0 1-.761.47c-.288.109-.56.162-.833.162-.445-.004-.821-.098-1.118-.28a1.724 1.724 0 0 1-.671-.774 2.634 2.634 0 0 1-.21-1.085v-4.904a1.627 1.627 0 0 0-.11-.626.838.838 0 0 0-.355-.414c-.178-.107-.435-.163-.763-.166-.323.003-.58.059-.76.167a.853.853 0 0 0-.354.413c-.076.19-.113.4-.11.624v5.463c.006.682.108 1.255.303 1.701.195.444.456.8.777 1.06.327.265.682.45 1.085.566a4.25 4.25 0 0 0 1.195.169h.034a4.25 4.25 0 0 0 1.375-.217zM59.513 11.419a1.51 1.51 0 0 0-.662-.136c-.25 0-.474.046-.664.137a.935.935 0 0 0-.408.39c-.1.176-.152.405-.154.681v11.535c.003.274.055.504.154.68.096.171.23.298.41.388.187.092.41.14.662.14.256 0 .473-.046.664-.14a.934.934 0 0 0 .409-.387c.1-.177.151-.406.154-.683V12.49c-.003-.274-.055-.503-.154-.68a.939.939 0 0 0-.411-.39zM139.669 15.856a1.298 1.298 0 0 0-.205-.359 1.171 1.171 0 0 0-.386-.298 1.404 1.404 0 0 0-.618-.129 1.062 1.062 0 0 0-.55.138c-.154.094-.282.22-.377.376a2.246 2.246 0 0 0-.245.59l-1.779 6.51h-.306l-.081-.144-1.837-6.557a1.202 1.202 0 0 0-.439-.661c-.223-.166-.497-.248-.834-.252-.222.003-.42.053-.598.151-.18.103-.32.236-.425.408-.107.17-.16.364-.163.593 0 .088.012.186.034.288.025.113.062.241.112.388.052.157.117.345.195.564l2.99 8.381-.015.057c-.077.307-.182.54-.309.693a.89.89 0 0 1-.457.3 1.579 1.579 0 0 1-.361.042l-.074-.002h-.282c-.232 0-.428.037-.596.111a.837.837 0 0 0-.377.307.95.95 0 0 0-.136.522c0 .194.05.367.154.526.106.164.268.293.497.395.236.108.554.165.947.168a3.18 3.18 0 0 0 1.102-.173c.311-.117.575-.283.805-.51a3.63 3.63 0 0 0 .636-.866 9.53 9.53 0 0 0 .531-1.24l3.303-9.212c.067-.178.117-.335.155-.477.032-.13.049-.246.049-.342a1.034 1.034 0 0 0-.06-.286zM121.329 23.742a3.964 3.964 0 0 1-.107-.517 5.525 5.525 0 0 1-.047-.754v-4.713c-.003-.468-.108-.872-.31-1.198a2.38 2.38 0 0 0-.88-.83 4.667 4.667 0 0 0-1.402-.496 9.559 9.559 0 0 0-2.106-.158l-.071.006a7.948 7.948 0 0 0-.75.063l-.107.016a5.903 5.903 0 0 0-.695.143c-.54.147-.999.344-1.364.583-.366.241-.64.498-.817.764-.177.268-.264.517-.264.761.003.16.043.303.125.433a.893.893 0 0 0 .349.32c.152.081.335.124.541.127a.899.899 0 0 0 .466-.13c.143-.091.29-.211.435-.354a6.24 6.24 0 0 1 .523-.469 2.705 2.705 0 0 1 1.341-.544l.046-.005c.146-.018.307-.035.487-.036.348 0 .668.042.952.126.306.091.555.237.741.433.199.204.303.47.307.79-.004.312-.071.55-.205.73a1.106 1.106 0 0 1-.541.372c-.194.064-.418.11-.665.134l-1.737.192a9.974 9.974 0 0 0-1.518.276 4.216 4.216 0 0 0-1.207.528 2.35 2.35 0 0 0-.791.87c-.191.36-.29.817-.293 1.361a2.46 2.46 0 0 0 .931 1.944c.283.231.61.412.971.536.369.126.736.188 1.122.188h.045c.468 0 .92-.05 1.342-.149a4.2 4.2 0 0 0 .237-.062c.06-.017.118-.04.177-.062l.16-.06c.038-.012.076-.025.113-.04.21-.087.393-.176.56-.273.392-.23.771-.541 1.127-.925l.331-.358.017.484c.008.26.063.508.163.737.094.21.242.377.45.507.208.13.501.197.869.2.201-.003.384-.042.551-.12a.986.986 0 0 0 .392-.314.769.769 0 0 0 .145-.45.986.986 0 0 0-.039-.262l-.1-.345zm-2.607-2.196c0 .286-.065.568-.191.839a2.278 2.278 0 0 1-.549.717 2.658 2.658 0 0 1-.857.494c-.139.05-.298.09-.485.124l-.083.015a3.79 3.79 0 0 1-.555.046 2.37 2.37 0 0 1-.926-.174 1.502 1.502 0 0 1-.628-.482 1.148 1.148 0 0 1-.23-.695c0-.322.085-.595.252-.814.161-.214.399-.385.703-.506a4.563 4.563 0 0 1 1.054-.26l1.034-.153a9.35 9.35 0 0 0 .385-.074c.139-.03.28-.073.419-.126.126-.048.231-.112.323-.193l.334-.3v1.542zM49.1 13.684c.47-.222.977-.333 1.51-.333.518.003.935.068 1.274.199.336.124.623.293.852.5.216.199.404.412.562.634.148.21.293.41.438.597.13.168.286.306.462.412.17.101.39.154.654.157.417-.003.733-.11.935-.32.206-.208.31-.512.31-.905 0-.237-.074-.51-.22-.81-.15-.3-.375-.607-.67-.91a5.152 5.152 0 0 0-1.11-.841 6.335 6.335 0 0 0-1.537-.617 7.7 7.7 0 0 0-1.952-.24c-.873.003-1.677.126-2.39.367a6.08 6.08 0 0 0-1.862 1.014c-.537.44-.986.956-1.336 1.532a7.159 7.159 0 0 0-.816 1.934 8.817 8.817 0 0 0-.273 2.204c.006 1.555.28 2.871.816 3.91.532 1.035 1.309 1.824 2.305 2.345 1.012.529 2.249.797 3.674.798a6.98 6.98 0 0 0 2.12-.33 6.102 6.102 0 0 0 1.71-.87c.488-.366.87-.776 1.135-1.219a2.67 2.67 0 0 0 .405-1.366.845.845 0 0 0-.187-.532 1.208 1.208 0 0 0-.498-.35 1.794 1.794 0 0 0-.679-.131.972.972 0 0 0-.544.16c-.164.114-.316.261-.462.451-.152.197-.307.41-.469.633a4.854 4.854 0 0 1-.573.664 2.721 2.721 0 0 1-.811.532c-.323.138-.708.21-1.145.213-.723-.003-1.347-.14-1.857-.404-.51-.263-.93-.63-1.248-1.092a4.774 4.774 0 0 1-.68-1.568 7.669 7.669 0 0 1-.208-1.845c.003-.765.104-1.458.299-2.06.2-.608.479-1.127.828-1.544.356-.425.773-.75 1.238-.97zM94.065 12.49c0-.27-.052-.5-.153-.68a.939.939 0 0 0-.412-.392c-.367-.178-.943-.181-1.326.002a.935.935 0 0 0-.408.39c-.099.175-.15.405-.154.682v4.001h-.311l-.098-.093a2.732 2.732 0 0 0-1.454-1.142 1.258 1.258 0 0 0-.075-.022l-.057-.016a3.207 3.207 0 0 0-.296-.074l-.048-.012c-.05-.01-.087-.014-.124-.018l-.185-.024a4.37 4.37 0 0 0-1.942.246c-.446.174-.84.421-1.17.735a4.16 4.16 0 0 0-.831 1.105c-.223.43-.39.891-.493 1.37a7.048 7.048 0 0 0-.165 1.536c.006.885.126 1.66.353 2.303.23.645.544 1.183.938 1.597.39.416.846.732 1.356.94.51.204 1.058.308 1.627.308.216 0 .427-.014.626-.043.217-.033.418-.079.605-.14.37-.122.694-.306.964-.548.269-.235.48-.542.629-.913l.05-.125h.336l.038.197v.443c.003.38.095.667.274.85.18.186.455.28.816.28.376 0 .654-.094.828-.277.174-.185.262-.471.262-.853V12.489zm-2.425 8.885a3.226 3.226 0 0 1-.423 1.038 2.196 2.196 0 0 1-1.031.863c-.024.01-.05.018-.076.025l-.06.019c-.046.015-.093.031-.143.043a1.11 1.11 0 0 1-.094.017l-.04.007c-.08.015-.12.023-.164.028-.035.004-.07.006-.106.007l-.09.006c-.043.003-.085.006-.13.006a2.316 2.316 0 0 1-1.099-.29 2.304 2.304 0 0 1-.775-.72 3.36 3.36 0 0 1-.448-1.026 4.849 4.849 0 0 1-.146-1.218c0-.281.022-.569.064-.855.043-.293.118-.586.222-.87.107-.29.255-.555.44-.79.189-.242.43-.436.717-.577.28-.142.625-.216 1.022-.22h.002c.053 0 .104.004.154.008l.088.005c.033.001.066.003.097.007.055.006.107.017.158.027l.07.013c.028.005.056.01.083.017.059.014.114.034.17.054l.049.017a.742.742 0 0 1 .069.024c.09.039.177.083.26.134.323.202.583.473.771.805.184.318.32.676.402 1.062.081.398.118.77.115 1.141 0 .428-.041.818-.128 1.193zM129.493 16.957c.115-.177.174-.419.177-.72a1.09 1.09 0 0 0-.173-.597 1.168 1.168 0 0 0-.475-.41 1.587 1.587 0 0 0-.717-.16c-.305.004-.58.066-.813.186-.233.12-.433.283-.609.495a3.245 3.245 0 0 0-.441.718 5.308 5.308 0 0 0-.306.84l-.039.146h-.354l-.039-.197V16.18a1.258 1.258 0 0 0-.147-.618.907.907 0 0 0-.38-.364 1.21 1.21 0 0 0-.563-.129c-.208 0-.397.043-.561.128a.906.906 0 0 0-.382.367 1.262 1.262 0 0 0-.146.618v7.843c-.003.227.034.437.11.627.068.17.186.304.36.412.174.109.428.165.757.168.327-.003.583-.06.759-.169a.841.841 0 0 0 .357-.411c.076-.189.113-.399.11-.624v-3.271c0-.796.07-1.417.213-1.898.15-.5.376-.864.671-1.083.291-.22.648-.331 1.059-.331h.543c.218 0 .418-.04.596-.117a.958.958 0 0 0 .433-.372zM109.02 15.805a3.02 3.02 0 0 0-1.086-.566 4.26 4.26 0 0 0-1.196-.169c-.554.004-1.015.076-1.406.216a3.661 3.661 0 0 0-1.068.589 4.969 4.969 0 0 0-.859.885l-.059.08h-.301l-.04-.198v-.365c0-.256-.039-.48-.117-.665a.84.84 0 0 0-.343-.395c-.161-.098-.372-.147-.628-.147-.257 0-.468.05-.628.146a.837.837 0 0 0-.345.398 1.72 1.72 0 0 0-.117.663v7.748c-.003.228.034.438.11.627.067.17.185.304.358.412.176.108.432.165.76.168.325-.003.581-.06.758-.169a.836.836 0 0 0 .357-.411c.076-.19.113-.4.11-.624v-4.636c.004-.387.075-.72.217-1.022.143-.297.33-.55.559-.755.227-.202.482-.36.76-.47a2.26 2.26 0 0 1 .833-.16c.449.003.825.098 1.12.28.298.185.522.444.669.769.139.31.21.677.21 1.09v4.902c-.003.228.033.438.109.627.068.17.186.305.36.412.177.109.432.165.757.169.327-.004.584-.06.761-.17a.817.817 0 0 0 .354-.408c.077-.191.114-.401.111-.627v-5.463c-.006-.682-.108-1.255-.303-1.701-.197-.449-.458-.805-.777-1.06zM98.206 15.236c-.178-.107-.435-.162-.762-.165-.32.003-.582.06-.756.166a.85.85 0 0 0-.36.414c-.075.19-.112.4-.109.624v7.752c-.003.226.034.436.11.626.068.17.186.305.36.412.174.109.429.165.757.169.327-.004.584-.06.76-.17a.844.844 0 0 0 .357-.41c.075-.19.112-.4.11-.625v-7.752a1.63 1.63 0 0 0-.11-.626.846.846 0 0 0-.357-.415zM98.073 11.45a1.264 1.264 0 0 0-1.253 0 1.214 1.214 0 0 0 0 2.113 1.263 1.263 0 0 0 1.253 0 1.214 1.214 0 0 0 0-2.113z" fill="#666"/></svg>