<?xml version="1.0" encoding="UTF-8" standalone="no"?>
<!-- Generator: Adobe Illustrator 22.1.0, SVG Export Plug-In . SVG Version: 6.00 Build 0)  -->

<svg
   xmlns:dc="http://purl.org/dc/elements/1.1/"
   xmlns:cc="http://creativecommons.org/ns#"
   xmlns:rdf="http://www.w3.org/1999/02/22-rdf-syntax-ns#"
   xmlns:svg="http://www.w3.org/2000/svg"
   xmlns="http://www.w3.org/2000/svg"
   xmlns:sodipodi="http://sodipodi.sourceforge.net/DTD/sodipodi-0.dtd"
   xmlns:inkscape="http://www.inkscape.org/namespaces/inkscape"
   version="1.1"
   id="Layer_1"
   x="0px"
   y="0px"
   viewBox="0 0 146.505 32"
   xml:space="preserve"
   sodipodi:docname="Coinbase.svg"
   width="146.505"
   height="32"
   inkscape:version="0.92.3 (2405546, 2018-03-11)"><metadata
   id="metadata29"><rdf:RDF><cc:Work
       rdf:about=""><dc:format>image/svg+xml</dc:format><dc:type
         rdf:resource="http://purl.org/dc/dcmitype/StillImage" /><dc:title></dc:title></cc:Work></rdf:RDF></metadata><defs
   id="defs27" /><sodipodi:namedview
   pagecolor="#ffffff"
   bordercolor="#666666"
   borderopacity="1"
   objecttolerance="10"
   gridtolerance="10"
   guidetolerance="10"
   inkscape:pageopacity="0"
   inkscape:pageshadow="2"
   inkscape:window-width="1414"
   inkscape:window-height="647"
   id="namedview25"
   showgrid="false"
   viewbox-height="150"
   scale-x="0.7"
   fit-margin-top="0"
   fit-margin-left="0"
   fit-margin-right="0"
   fit-margin-bottom="0"
   inkscape:zoom="1"
   inkscape:cx="-50"
   inkscape:cy="-42.640206"
   inkscape:window-x="0"
   inkscape:window-y="34"
   inkscape:window-maximized="0"
   inkscape:current-layer="g22" />
<style
   type="text/css"
   id="style2">
	.st0{fill:#1652F0;}
</style>
<g
   id="g22"
   style="fill:#666666;fill-opacity:1;stroke-width:4.69062471"
   transform="scale(0.21319121)">
	
	
	
	
	
	
	
	
	<path
   id="path20"
   style="fill:#666666;fill-opacity:1;stroke-width:4.69062471"
   d="M 687.2,104.6 V 93.7 c 0,-26.3 -13.3,-44.3 -41.3,-44.3 -26.5,0 -46.5,20.4 -46.5,51.1 0,30.4 20.4,49.6 50.4,49.6 12.4,0 25.2,-2.8 33.9,-8.9 v -18.9 c -9.6,6.3 -19.1,9.3 -32.4,9.3 -15,0 -29.8,-9.3 -31.1,-26.5 v -0.4 h 67 z M 645.3,67.4 c 13.9,0 21.3,8.3 21.7,23.3 h -46.1 c 2.9,-14.6 12,-23.3 24.4,-23.3 z M 473,49.3 c -12,0 -22.8,3 -31.3,7.8 v 18.7 c 8,-4.6 16.7,-7.8 27.8,-7.8 10.6,0 18.5,4.8 18.5,15.2 v 8.1 h -10.7 c -27.8,0 -44.6,9.6 -44.6,29.1 0,21.7 18.3,29.4 43.3,29.4 10.9,0 23.9,-1.5 33,-3.9 V 82.2 C 509.1,58 494.1,49.3 473,49.3 Z m 15,83.3 c -3.9,0.7 -8.5,1.1 -11.7,1.1 -13,0 -22.2,-3.9 -22.2,-13.9 0,-9.8 9.8,-14.1 24.8,-14.1 H 488 Z M 53.5,131.1 c -18.7,0 -31.7,-12.2 -31.7,-31.3 0,-20.2 13.5,-31.3 30.9,-31.3 5.1,0 10.1,0.9 14.9,2.8 2.3,-5.7 5.4,-10.9 9.1,-15.5 -8,-4.3 -15.9,-6.5 -26,-6.5 C 22.4,49.3 0,68.7 0,99.8 0,130.7 21.3,150 50.7,150 c 9.9,0 18.9,-2.1 27.6,-6.7 -3.9,-4.4 -7.2,-9.4 -9.7,-15 -4.8,1.8 -9.8,2.8 -15.1,2.8 z M 559.3,90.2 c -11.1,-3 -15.2,-6.3 -15.2,-12.6 0,-6.3 5,-10.9 14.3,-10.9 10.2,0 18.5,3.7 27,9.8 V 56.7 c -8,-5 -16.7,-7.4 -27.6,-7.4 -19.6,0 -34.4,9.6 -34.4,29.1 0,16.7 8.5,24.8 28.5,29.3 12.4,3.3 18,6.1 18,13.9 0,7.6 -6.3,10.9 -15.9,10.9 -9.8,0 -20.4,-4.1 -29.3,-10.9 V 142 c 7.2,4.8 18.5,7.8 29.8,7.8 20.9,0 36.3,-9.1 36.3,-29.3 0,-17.2 -9.5,-25.5 -31.5,-30.3 z M 191,51.5 h 21.5 v 96.3 H 191 Z M 127.5,49.3 C 98.8,49.3 78,69.8 78,99.8 c 0,29.8 20.9,50.2 49.6,50.2 28.9,0 49.8,-20.4 49.8,-50.2 -0.1,-30 -21,-50.5 -49.9,-50.5 z m 0,82.2 c -16.1,0 -27.8,-12.4 -27.8,-31.7 0,-19.6 11.7,-32 27.8,-32 16.5,0 28,12.4 28,32 0.1,19.3 -11.5,31.7 -28,31.7 z M 377.1,49.3 c -8.5,0 -17.4,2.4 -22,4.8 V 0 h -21.5 v 143.7 c 9.8,3.5 22,6.3 35.9,6.3 35.6,0 56.3,-20.9 56.3,-52 0,-30.8 -20.8,-48.7 -48.7,-48.7 z m -6.9,82.2 c -5.4,0 -10.9,-0.7 -15,-2 V 73.3 c 4.4,-2.4 10.9,-4.6 19.4,-4.6 16.3,0 29.6,11.1 29.6,29.8 -0.1,22.2 -14.2,33 -34,33 z M 201.6,8.7 c -7.2,0 -13.5,5.9 -13.5,13.3 0,7.6 6.3,13.7 13.5,13.7 7.2,0 13.5,-6.1 13.5,-13.7 0,-7.4 -6.3,-13.3 -13.5,-13.3 z m 73.8,40.6 c -14.1,0 -30.7,3 -44.1,8.3 v 90.2 h 21.5 V 71.7 c 5.7,-1.7 13.3,-2.8 20.9,-2.8 12,0 20.7,5 20.7,18.9 v 60 h 21.3 v -62 C 315.6,58.7 300,49.3 275.4,49.3 Z" />
</g>
</svg>