<?xml version="1.0" encoding="UTF-8" standalone="no"?>
<svg width="149px" height="34px" viewBox="0 0 149 34" version="1.1" xmlns="http://www.w3.org/2000/svg" xmlns:xlink="http://www.w3.org/1999/xlink" xmlns:sketch="http://www.bohemiancoding.com/sketch/ns">
    <!-- Generator: Sketch 3.3.3 (12072) - http://www.bohemiancoding.com/sketch -->
    <title>crunchyroll</title>
    <desc>Created with Sketch.</desc>
    <defs></defs>
    <g id="Page-1" stroke="none" stroke-width="1" fill="none" fill-rule="evenodd" sketch:type="MSPage">
        <g id="crunchyroll" sketch:type="MSLayerGroup" transform="translate(0.000000, -0.660645)">
            <path d="M40.163,20.5045 C41.2805,20.5045 42.2785,20.261125 43.18075,19.8965 L43.18075,22.3295 C42.133875,22.742625 40.964625,23.01025 39.675375,23.01025 C35.975125,23.01025 33.931875,20.797 33.931875,16.756375 C33.931875,12.717375 35.975125,10.47925 39.675375,10.47925 C40.964625,10.47925 42.133875,10.747125 43.18075,11.160125 L43.18075,13.59275 C42.2785,13.228 41.2805,13.01025 40.163,13.01025 C38.1185,13.01025 36.854625,13.619 36.854625,16.756375 C36.854625,19.871 38.1185,20.5045 40.163,20.5045" id="Fill-1" fill="#3D3D3C" sketch:type="MSShapeGroup"></path>
            <path d="M52.3345,10.47925 L52.3345,12.999 C50.712125,13.02425 48.9405,13.002 48.9405,13.71825 L48.9405,22.765625 L46.033,22.765625 L46.033,12.03325 C46.033,10.22475 52.3345,10.47925 52.3345,10.47925" id="Fill-2" fill="#3D3D3C" sketch:type="MSShapeGroup"></path>
            <path d="M65.238875,10.673375 L65.238875,17.314625 C65.238875,20.891625 64.0435,23.008375 59.892625,23.008375 C55.7285,23.008375 54.56875,20.891625 54.56875,17.314625 L54.56875,10.673375 L57.430375,10.673375 L57.430375,17.7055 C57.430375,19.651125 58.1425,20.316 59.892625,20.316 C61.66425,20.316 62.375125,19.651125 62.375125,17.7055 L62.375125,10.673375 L65.238875,10.673375" id="Fill-3" fill="#3D3D3C" sketch:type="MSShapeGroup"></path>
            <path d="M86.536,20.5135 C87.658875,20.5135 88.6565,20.27075 89.558375,19.905375 L89.558375,22.34025 C88.51225,22.75225 87.343375,23.023625 86.04925,23.023625 C82.349625,23.023625 80.300625,20.806 80.300625,16.76225 C80.300625,12.72 82.349625,10.47925 86.04925,10.47925 C87.343375,10.47925 88.51225,10.747125 89.558375,11.161125 L89.558375,13.595625 C88.6565,13.23125 87.658875,13.012125 86.536,13.012125 C84.49325,13.012125 83.22475,13.6215 83.22475,16.76225 C83.22475,19.879875 84.49325,20.5135 86.536,20.5135" id="Fill-4" fill="#3D3D3C" sketch:type="MSShapeGroup"></path>
            <path d="M102.85825,15.494875 L102.85825,22.765625 L99.97425,22.765625 L99.97425,15.2535 C99.97425,14.186125 99.731,13.047625 97.017,13.047625 C96.219125,13.047625 95.563875,13.192875 95.079625,13.41075 L95.079625,22.765625 L92.173375,22.765625 L92.173375,6.0675 L95.079625,6.0675 L95.079625,10.89125 C95.75675,10.624875 96.558375,10.47925 97.504375,10.47925 C100.8705,10.47925 102.85825,12.344625 102.85825,15.494875" id="Fill-5" fill="#3D3D3C" sketch:type="MSShapeGroup"></path>
            <path d="M106.6325,27.542875 C108.840625,22.139 108.688625,22.5625 108.840625,22.13525 L104.506125,10.673375 L107.581125,10.673375 L110.2975,19.106875 L112.9625,10.673375 L116.03875,10.673375 L111.435,23.055625 C109.6725,27.544625 111.435,23.055625 109.6725,27.544625 L106.6325,27.542875" id="Fill-6" fill="#3D3D3C" sketch:type="MSShapeGroup"></path>
            <path d="M124.36875,10.47925 L124.36875,12.999 C122.74625,13.02425 120.96,13.002 120.96,13.71 L120.96,22.765625 L118.0475,22.765625 L118.0475,12.03325 C118.0475,10.218625 124.36875,10.47925 124.36875,10.47925" id="Fill-7" fill="#3D3D3C" sketch:type="MSShapeGroup"></path>
            <path d="M134.15,16.756375 C134.15,13.544875 133.05375,12.912125 131.3275,12.912125 C129.5975,12.912125 128.5025,13.544875 128.5025,16.756375 C128.5025,19.966625 129.5975,20.599 131.3275,20.599 C133.05375,20.599 134.15,19.966625 134.15,16.756375 L134.15,16.756375 L134.15,16.756375 Z M137.0675,16.756375 C137.0675,20.79575 135.02375,23.008375 131.3275,23.008375 C127.6275,23.008375 125.585,20.79575 125.585,16.756375 C125.585,12.717375 127.6275,10.5035 131.3275,10.5035 C135.02375,10.5035 137.0675,12.717375 137.0675,16.756375 L137.0675,16.756375 L137.0675,16.756375 Z" id="Fill-8" fill="#3D3D3C" sketch:type="MSShapeGroup"></path>
            <path d="M139.5625,6.0675 L142.4725,6.0675 L142.4725,22.765625 L139.5625,22.765625 L139.5625,6.0675 L139.5625,6.0675 Z" id="Fill-9" fill="#3D3D3C" sketch:type="MSShapeGroup"></path>
            <path d="M145.865,6.0675 L148.7725,6.0675 L148.7725,22.765625 L145.865,22.765625 L145.865,6.0675 L145.865,6.0675 Z" id="Fill-10" fill="#3D3D3C" sketch:type="MSShapeGroup"></path>
            <path d="M78.404875,15.18325 L78.404875,22.757875 L75.581625,22.757875 L75.581625,15.2465 C75.581625,14.180375 75.632125,13.05875 73.047125,13.05875 C72.242,13.05875 70.771875,13.16325 70.771875,13.678 L70.771875,22.757875 L67.927625,22.757875 L67.927625,12.752125 C67.927625,10.740875 70.415875,10.4715 73.427125,10.4715 C76.721125,10.4715 78.404875,11.818375 78.404875,15.18325" id="Fill-11" fill="#3D3D3C" sketch:type="MSShapeGroup"></path>
            <path d="M3.466375,16.693125 C3.466375,9.9395 8.94125,4.464625 15.69525,4.464625 C22.160625,4.464625 27.453375,9.483125 27.892875,15.836625 C27.908625,15.56575 27.916875,15.2925 27.916875,15.01775 C27.916875,7.334375 21.68825,1.1055 14.004625,1.1055 C6.320875,1.1055 0.09225,7.334375 0.09225,15.01775 C0.09225,22.70175 6.320875,28.93075 14.004625,28.93075 C14.322375,28.93075 14.637875,28.91925 14.949875,28.89875 C8.543375,28.513 3.466375,23.19675 3.466375,16.693125" id="Fill-40" fill="#E98432" sketch:type="MSShapeGroup"></path>
            <path d="M22.464625,17.382375 C20.00675,17.382375 18.01425,15.3895 18.01425,12.931625 C18.01425,11.003625 19.24025,9.362375 20.95425,8.744125 C19.596,8.028625 18.049375,7.62375 16.40775,7.62375 C11.007875,7.62375 6.630875,12.001 6.630875,17.40025 C6.630875,22.800125 11.007875,27.177375 16.40775,27.177375 C21.80725,27.177375 26.184625,22.800125 26.184625,17.40025 C26.184625,16.788375 26.12775,16.18975 26.019875,15.608625 C25.20775,16.6855 23.91775,17.382375 22.464625,17.382375" id="Fill-41" fill="#E98432" sketch:type="MSShapeGroup"></path>
        </g>
    </g>
</svg>