<svg width="149" height="34" viewBox="0 0 149 34" xmlns="http://www.w3.org/2000/svg"><title>crunchyroll</title><g fill="none" fill-rule="evenodd"><path d="M40.163 19.844a7.964 7.964 0 0 0 3.018-.608v2.433a9.483 9.483 0 0 1-3.506.68c-3.7 0-5.743-2.213-5.743-6.253s2.043-6.277 5.743-6.277c1.29 0 2.459.267 3.506.68v2.433a7.958 7.958 0 0 0-3.018-.582c-2.044 0-3.308.608-3.308 3.746 0 3.114 1.264 3.748 3.308 3.748M52.334 9.819v2.52c-1.622.025-3.394.002-3.394.719v9.047h-2.907V11.373c0-1.809 6.301-1.554 6.301-1.554M65.239 10.013v6.641c0 3.577-1.196 5.694-5.346 5.694-4.165 0-5.324-2.117-5.324-5.694v-6.641h2.861v7.032c0 1.945.712 2.61 2.463 2.61 1.771 0 2.482-.665 2.482-2.61v-7.032h2.864M86.536 19.853c1.123 0 2.12-.243 3.022-.608v2.435a9.503 9.503 0 0 1-3.509.683c-3.7 0-5.748-2.218-5.748-6.261s2.049-6.283 5.748-6.283c1.294 0 2.463.267 3.51.681v2.435a7.968 7.968 0 0 0-3.023-.584c-2.043 0-3.311.61-3.311 3.75 0 3.118 1.268 3.752 3.311 3.752M102.858 14.834v7.271h-2.884v-7.512c0-1.068-.243-2.206-2.957-2.206-.798 0-1.453.145-1.937.363v9.355h-2.907V5.407h2.907v4.824c.677-.267 1.478-.412 2.424-.412 3.367 0 5.354 1.865 5.354 5.015M106.632 26.882c2.209-5.404 2.057-4.98 2.209-5.407l-4.335-11.462h3.075l2.716 8.433 2.666-8.433h3.076l-4.604 12.382-1.763 4.489-3.04-.002M124.369 9.819v2.52c-1.623.025-3.409.002-3.409.71v9.056h-2.912V11.373c0-1.815 6.32-1.554 6.32-1.554M134.15 16.096c0-3.212-1.096-3.845-2.823-3.845-1.73 0-2.825.633-2.825 3.845 0 3.21 1.095 3.842 2.825 3.842 1.727 0 2.823-.632 2.823-3.842zm2.917 0c0 4.04-2.043 6.252-5.74 6.252-3.7 0-5.742-2.213-5.742-6.252 0-4.04 2.043-6.253 5.742-6.253 3.697 0 5.74 2.214 5.74 6.253zM139.563 5.407h2.91v16.698h-2.91V5.407zM145.865 5.407h2.907v16.698h-2.907V5.407zM78.405 14.523v7.574h-2.823v-7.511c0-1.066.05-2.188-2.535-2.188-.805 0-2.275.105-2.275.62v9.08h-2.844V12.09c0-2.01 2.488-2.28 5.5-2.28 3.293 0 4.977 1.347 4.977 4.712" fill="#3D3D3C"/><path d="M3.466 16.032c0-6.753 5.475-12.228 12.23-12.228 6.465 0 11.757 5.018 12.197 11.372.016-.27.024-.544.024-.819 0-7.683-6.229-13.912-13.912-13.912C6.32.445.092 6.674.092 14.357c0 7.684 6.229 13.913 13.913 13.913.317 0 .633-.011.945-.032-6.407-.386-11.484-5.702-11.484-12.206" fill="#E98432"/><path d="M22.465 16.722a4.45 4.45 0 0 1-1.51-8.639 9.725 9.725 0 0 0-4.547-1.12c-5.4 0-9.777 4.377-9.777 9.777 0 5.4 4.377 9.777 9.777 9.777 5.4 0 9.777-4.378 9.777-9.777 0-.612-.057-1.21-.165-1.792a4.444 4.444 0 0 1-3.555 1.774" fill="#E98432"/></g></svg>