<svg width="167" height="28" viewBox="0 0 167 28" fill="none" xmlns="http://www.w3.org/2000/svg">
<path d="M156.493 9.94708C152.023 9.94708 148.424 13.0916 148.424 18.0459C148.424 23.0002 152.02 26.2426 156.493 26.2426C158.138 26.2642 159.76 25.8558 161.197 25.0581C162.874 24.1742 164.036 22.2386 164.218 21.0926H160.899C160.092 22.5321 158.657 23.2308 156.633 23.2308C153.879 23.2308 151.855 21.0926 151.855 19.0382H164.323C164.358 18.5001 164.358 18.1333 164.358 17.7664C164.355 12.8295 160.962 9.94708 156.493 9.94708ZM151.855 16.2361C152.287 14.255 153.96 12.854 156.374 12.854C158.724 12.854 160.647 14.2516 160.896 16.2361H151.855Z" fill="#666666"/>
<path d="M10.1913 13.3956C11.1099 13.3961 12.0084 13.6635 12.7767 14.1649C13.545 14.6663 14.1497 15.3801 14.5169 16.2186H18.1479C17.6889 14.2776 16.5316 12.5714 14.895 11.4226C13.2584 10.2738 11.2559 9.76203 9.26605 9.98409C7.27623 10.2061 5.43708 11.1466 4.09636 12.6277C2.75564 14.1088 2.0063 16.0278 1.99002 18.0218C1.97374 20.0158 2.69166 21.9467 4.00802 23.4493C5.32438 24.9519 7.14794 25.922 9.13386 26.1763C11.1198 26.4305 13.1304 25.9513 14.7856 24.8291C16.4407 23.7069 17.6257 22.0197 18.1163 20.0864H14.4573C14.0984 20.8479 13.5407 21.4995 12.8424 21.9729C12.1442 22.4464 11.331 22.7243 10.488 22.7777C9.64503 22.831 8.80311 22.6579 8.05029 22.2763C7.29748 21.8947 6.66142 21.3187 6.20861 20.6085C5.75581 19.8983 5.50289 19.08 5.47629 18.2392C5.4497 17.3983 5.65041 16.5658 6.05744 15.8287C6.46447 15.0915 7.06287 14.4768 7.79008 14.0488C8.51729 13.6207 9.34661 13.3952 10.1913 13.3956V13.3956Z" fill="#666666"/>
<path d="M23.575 10.9568V10.4817H20.2422V25.6836H23.5995V18.3883C23.5995 17.0222 23.6171 16.1103 23.8065 15.436C23.8065 15.4115 23.8065 15.3871 23.8311 15.3626C24.029 14.7152 24.4752 14.1717 25.073 13.8498C25.615 13.5097 26.2425 13.3292 26.8832 13.3292C27.5238 13.3292 28.1514 13.5097 28.6934 13.8498L30.1703 10.6389C29.1423 10.1563 28.016 9.91712 26.8797 9.94011C25.7028 9.95521 24.5553 10.3082 23.575 10.9568V10.9568Z" fill="#666666"/>
<path d="M42.186 17.7908C42.186 19.1569 42.1685 20.0689 41.979 20.7432C41.979 20.7676 41.979 20.7921 41.9545 20.8165C41.7565 21.4639 41.3103 22.0075 40.7126 22.3294C40.1705 22.6695 39.543 22.85 38.9023 22.85C38.2617 22.85 37.6342 22.6695 37.0921 22.3294C36.4944 22.0075 36.0482 21.4639 35.8502 20.8165C35.8502 20.7921 35.8502 20.7676 35.8257 20.7432C35.6397 20.0654 35.6187 19.1569 35.6187 17.7908V10.4816H32.2754V18.7831C32.2754 20.6174 32.3771 21.4419 32.8507 22.7766C33.2682 23.9541 34.3136 24.9288 35.6257 25.5438C36.6538 26.0264 37.7801 26.2655 38.9164 26.2425C40.0929 26.2285 41.2403 25.8767 42.2211 25.2293V25.6905H45.5574V10.4816H42.2L42.186 17.7908Z" fill="#666666"/>
<path d="M58.2149 10.6389C57.1868 10.1563 56.0605 9.91712 54.9242 9.94011C53.7477 9.95417 52.6002 10.306 51.6195 10.9533V10.4817H48.2832V25.6836H51.6405V18.3883C51.6405 17.0222 51.6581 16.1103 51.8475 15.436C51.8475 15.4115 51.8475 15.3871 51.8721 15.3626C52.07 14.7152 52.5162 14.1717 53.114 13.8498C53.656 13.5097 54.2836 13.3292 54.9242 13.3292C55.5648 13.3292 56.1924 13.5097 56.7344 13.8498C57.3329 14.1748 57.7781 14.7224 57.9728 15.3731C57.9728 15.3976 57.9728 15.422 57.9974 15.4465C58.1833 16.1243 58.2043 17.0327 58.2043 18.3988V25.6836H61.5617V17.3996C61.5617 15.5653 61.4599 14.7407 60.9863 13.406C60.5689 12.2286 59.5234 11.2538 58.2149 10.6389Z" fill="#666666"/>
<path d="M71.9564 13.3956C72.8749 13.3961 73.7734 13.6635 74.5417 14.1649C75.31 14.6663 75.9148 15.3801 76.2819 16.2186H79.9164C79.4574 14.2776 78.3002 12.5714 76.6636 11.4226C75.027 10.2738 73.0244 9.76203 71.0346 9.98409C69.0448 10.2061 67.2056 11.1466 65.8649 12.6277C64.5242 14.1088 63.7748 16.0278 63.7586 18.0218C63.7423 20.0158 64.4602 21.9467 65.7766 23.4493C67.0929 24.9519 68.9165 25.922 70.9024 26.1763C72.8883 26.4305 74.899 25.9513 76.5541 24.8291C78.2093 23.7069 79.3942 22.0197 79.8849 20.0864H76.2223C75.8634 20.8479 75.3057 21.4995 74.6075 21.9729C73.9092 22.4464 73.0961 22.7243 72.2531 22.7777C71.4101 22.831 70.5681 22.6579 69.8153 22.2763C69.0625 21.8947 68.4265 21.3187 67.9737 20.6085C67.5209 19.8983 67.2679 19.08 67.2413 18.2392C67.2147 17.3983 67.4155 16.5658 67.8225 15.8287C68.2295 15.0915 68.8279 14.4768 69.5551 14.0488C70.2823 13.6207 71.1117 13.3952 71.9564 13.3956V13.3956Z" fill="#666666"/>
<path d="M91.9353 10.6389C90.9072 10.1563 89.781 9.91711 88.6447 9.9401C87.4681 9.95416 86.3207 10.306 85.3399 10.9533V2.23608H82.0037V25.6836H85.361V18.3883C85.361 17.0222 85.3785 16.1103 85.568 15.436C85.568 15.4115 85.568 15.3871 85.5925 15.3626C85.7901 14.715 86.2365 14.1714 86.8344 13.8498C87.3765 13.5097 88.004 13.3292 88.6447 13.3292C89.2853 13.3292 89.9129 13.5097 90.4549 13.8498C91.0547 14.1741 91.5013 14.7218 91.6968 15.3731C91.6968 15.3976 91.6968 15.422 91.7213 15.4465C91.9073 16.1243 91.9283 17.0327 91.9283 18.3988V25.6836H95.2856V17.3995C95.2856 15.5653 95.1839 14.7407 94.7103 13.406C94.2928 12.2286 93.2474 11.2538 91.9353 10.6389Z" fill="#666666"/>
<path d="M106.017 9.9401C105.814 9.9401 105.614 9.9401 105.414 9.96456C103.972 10.065 102.582 10.5475 101.39 11.3621V2.23608H98.0537V25.6801H101.411V24.8275C102.47 25.545 103.683 26.0049 104.952 26.1703C106.222 26.3357 107.513 26.2019 108.721 25.7797C109.93 25.3576 111.022 24.6588 111.909 23.7397C112.797 22.8206 113.456 21.7068 113.833 20.4879C114.209 19.269 114.293 17.979 114.078 16.7219C113.863 15.4647 113.354 14.2754 112.593 13.2497C111.832 12.2239 110.84 11.3904 109.697 10.8162C108.554 10.242 107.291 9.94311 106.01 9.9436L106.017 9.9401ZM110.736 18.0913C110.735 18.3006 110.719 18.5095 110.69 18.7167C110.69 18.7657 110.69 18.8146 110.669 18.8635C110.638 19.057 110.595 19.2484 110.539 19.4365C110.477 19.6383 110.401 19.8355 110.311 20.0269L110.28 20.0968C109.97 20.7372 109.519 21.2998 108.961 21.7426C108.403 22.1854 107.752 22.4971 107.056 22.6544C106.912 22.6858 106.761 22.7103 106.61 22.7277H106.547C106.378 22.7463 106.208 22.7556 106.038 22.7557V22.7557C105.826 22.7537 105.614 22.7373 105.403 22.7068L105.245 22.7103C104.828 22.6488 104.421 22.5313 104.035 22.3609L103.947 22.3189C103.567 22.134 103.213 21.8989 102.895 21.6202L102.86 21.5887C102.537 21.2976 102.256 20.9637 102.025 20.5965L102.004 20.565C101.889 20.379 101.787 20.1852 101.699 19.985C101.425 19.3726 101.287 18.7086 101.293 18.0382C101.3 17.3678 101.451 16.7067 101.737 16.0998V16.0998C102.083 15.3689 102.613 14.7392 103.275 14.2716C103.937 13.804 104.709 13.5143 105.516 13.4305C105.677 13.4104 105.84 13.3987 106.003 13.3956V13.3956C107.254 13.3965 108.454 13.8919 109.339 14.773C110.223 15.654 110.721 16.8488 110.722 18.0948L110.736 18.0913Z" fill="#666666"/>
<path d="M140.433 9.92261C136.24 9.96104 134.325 12.4172 134.272 14.8525V14.9363V15.0237C134.36 16.4527 135.153 18.2765 138.366 19.0172L141.197 19.6531C141.931 19.8138 143.172 20.2226 143.274 21.1555C143.274 22.4342 141.618 23.1155 140.429 23.1155C139.061 23.1155 137.584 22.3608 137.584 21.145V21.0681H134.265V21.145C134.265 23.6221 136.17 26.1412 140.429 26.1832C144.688 26.1412 146.593 23.6256 146.593 21.145V21.0681C146.519 19.6216 145.737 17.7769 142.495 17.0292L139.664 16.4212C139.04 16.285 137.594 15.8692 137.594 14.9503C137.594 13.5108 139.061 13.0007 140.436 13.0007C141.811 13.0007 143.281 13.7554 143.281 14.9713V15.0237H146.6V14.9468C146.6 12.4836 144.695 9.96453 140.433 9.92261Z" fill="#666666"/>
<path d="M128.841 11.3796C127.649 10.565 126.26 10.0825 124.818 9.98205C124.618 9.98205 124.418 9.95759 124.214 9.95759C122.932 9.95534 121.668 10.2531 120.522 10.8268C119.377 11.4005 118.383 12.2341 117.62 13.2605C116.858 14.2869 116.348 15.4774 116.132 16.736C115.916 17.9945 116 19.286 116.377 20.5064C116.754 21.7267 117.414 22.8417 118.303 23.7616C119.192 24.6815 120.286 25.3806 121.496 25.8024C122.706 26.2242 123.999 26.357 125.27 26.1901C126.541 26.0232 127.754 25.5613 128.813 24.8415V25.6801H132.171V10.4817H128.834L128.841 11.3796ZM128.54 19.9641C128.452 20.1642 128.35 20.358 128.235 20.5441L128.214 20.5755C127.982 20.9428 127.701 21.2766 127.379 21.5678L127.343 21.5992C127.026 21.878 126.672 22.113 126.291 22.298L126.203 22.3399C125.821 22.5169 125.416 22.6415 125 22.7103L124.849 22.7347C124.639 22.7653 124.427 22.7816 124.214 22.7836V22.7836C124.044 22.7836 123.874 22.7743 123.706 22.7557H123.642C123.492 22.7382 123.344 22.7138 123.197 22.6823C122.501 22.523 121.851 22.2093 121.294 21.7646C120.736 21.32 120.287 20.7559 119.98 20.1143L119.948 20.0444C119.859 19.853 119.783 19.6557 119.72 19.454V19.454C119.665 19.2659 119.622 19.0745 119.59 18.881C119.59 18.8321 119.59 18.7831 119.569 18.7342C119.54 18.527 119.525 18.3181 119.524 18.1088V18.1088C119.525 16.8628 120.022 15.668 120.907 14.787C121.791 13.9059 122.991 13.4105 124.242 13.4096C124.405 13.4127 124.568 13.4244 124.73 13.4445C125.537 13.5283 126.309 13.818 126.971 14.2856C127.632 14.7532 128.162 15.3829 128.508 16.1138V16.1138C128.794 16.7171 128.947 17.3745 128.957 18.0416C128.967 18.7088 128.833 19.3703 128.564 19.9815L128.54 19.9641Z" fill="#666666"/>
</svg>
