<?xml version="1.0" encoding="UTF-8" standalone="no"?>
<svg width="168px" height="48px" viewBox="0 0 168 48" version="1.1" xmlns="http://www.w3.org/2000/svg" xmlns:xlink="http://www.w3.org/1999/xlink" xmlns:sketch="http://www.bohemiancoding.com/sketch/ns">
    <!-- Generator: Sketch 3.4 (15575) - http://www.bohemiancoding.com/sketch -->
    <title>dropbox</title>
    <desc>Created with Sketch.</desc>
    <defs></defs>
    <g id="Page-1" stroke="none" stroke-width="1" fill="none" fill-rule="evenodd" sketch:type="MSPage">
        <g id="dropbox" sketch:type="MSArtboardGroup" fill="#007EE5">
            <g id="dropbox_blue" sketch:type="MSLayerGroup" transform="translate(1.000000, 5.000000)">
                <g id="XMLID_12_" transform="translate(46.000000, 7.000000)" sketch:type="MSShapeGroup">
                    <path d="M0.111317254,1.31386861 L8.17068646,1.31386861 C15.0723562,1.31386861 19.4359926,5.69343066 19.4359926,12.5255474 C19.4359926,19.3576642 15.0946197,23.7372263 8.17068646,23.7372263 L0.111317254,23.7372263 L0.111317254,1.31386861 L0.111317254,1.31386861 Z M7.99257885,19.6423358 C12.3339518,19.6423358 14.716141,16.9051095 14.716141,12.5474453 C14.716141,8.16788321 12.3339518,5.43065693 7.99257885,5.43065693 L4.83116883,5.43065693 L4.83116883,19.6423358 L7.99257885,19.6423358 L7.99257885,19.6423358 Z" id="XMLID_29_"></path>
                    <path d="M31.6586271,11.8905109 C31.0352505,11.5182482 30.2115028,11.3430657 29.3432282,11.3430657 C27.7847866,11.3430657 26.5157699,12.1532847 26.1818182,13.6423358 L26.1818182,23.7591241 L21.5955473,23.7591241 L21.5955473,7.42335766 L26.2040816,7.42335766 L26.2040816,9.02189781 C26.9165121,7.86131387 28.2745826,7.05109489 29.9220779,7.05109489 C30.7012987,7.05109489 31.4137291,7.20437956 31.6586271,7.33576642 L31.6586271,11.8905109 L31.6586271,11.8905109 Z" id="XMLID_27_"></path>
                    <path d="M40.8534323,24.1313869 C36.0222635,24.1313869 32.7050093,20.6277372 32.7050093,15.6131387 C32.7050093,10.5766423 36.0222635,7.05109489 40.8534323,7.05109489 C45.6846011,7.05109489 48.9795918,10.5547445 48.9795918,15.6131387 C48.9795918,20.6277372 45.6846011,24.1313869 40.8534323,24.1313869 L40.8534323,24.1313869 Z M40.8534323,10.9051095 C38.5380334,10.9051095 37.2912801,12.8759124 37.2912801,15.6131387 C37.2912801,18.3065693 38.5602968,20.2992701 40.8534323,20.2992701 C43.1465677,20.2992701 44.4155844,18.3284672 44.4155844,15.6131387 C44.4155844,12.8759124 43.1465677,10.9051095 40.8534323,10.9051095 L40.8534323,10.9051095 Z" id="XMLID_24_"></path>
                    <path d="M55.5695733,29.8029197 L50.961039,29.8029197 L50.961039,7.42335766 L55.5695733,7.42335766 L55.5695733,8.7810219 C56.3042672,7.90510949 57.9517625,7.0729927 59.7328386,7.0729927 C64.5640074,7.0729927 67.3024119,11.0145985 67.3024119,15.6350365 C67.3024119,20.2335766 64.5640074,24.1532847 59.7328386,24.1532847 C57.9517625,24.1532847 56.3042672,23.3211679 55.5695733,22.4452555 L55.5695733,29.8029197 L55.5695733,29.8029197 Z M55.5695733,18.2846715 C56.1261596,19.4233577 57.3506494,20.189781 58.6864564,20.189781 C61.1799629,20.189781 62.6716141,18.2189781 62.6716141,15.6131387 C62.6716141,12.9854015 61.1799629,11.0145985 58.6864564,11.0145985 C57.3061224,11.0145985 56.1261596,11.8248175 55.5695733,12.919708 L55.5695733,18.2846715 L55.5695733,18.2846715 Z" id="XMLID_21_"></path>
                    <path d="M73.9369202,23.7591241 L69.283859,23.7591241 L69.283859,0 L73.9369202,0 L73.9369202,8.7810219 C74.6716141,7.90510949 76.3191095,7.0729927 78.1001855,7.0729927 C82.9313544,7.0729927 85.6474954,10.9489051 85.6474954,15.6350365 C85.6474954,20.3211679 82.9313544,24.1532847 78.1001855,24.1532847 C76.3191095,24.1532847 74.6716141,23.3211679 73.9369202,22.4452555 L73.9369202,23.7591241 L73.9369202,23.7591241 Z M73.9369202,18.2846715 C74.4489796,19.4233577 75.6734694,20.189781 77.0538033,20.189781 C79.5473098,20.189781 81.038961,18.2189781 81.038961,15.6131387 C81.038961,12.9854015 79.5473098,11.0145985 77.0538033,11.0145985 C75.7179963,11.0145985 74.4489796,11.8248175 73.9369202,12.919708 L73.9369202,18.2846715 L73.9369202,18.2846715 Z" id="XMLID_18_"></path>
                    <path d="M95.4434137,24.1751825 C90.6122449,24.1751825 87.2949907,20.6715328 87.2949907,15.6569343 C87.2949907,10.620438 90.6122449,7.09489051 95.4434137,7.09489051 C100.274583,7.09489051 103.569573,10.5985401 103.569573,15.6569343 C103.569573,20.6715328 100.252319,24.1751825 95.4434137,24.1751825 L95.4434137,24.1751825 Z M95.4434137,10.9489051 C93.1280148,10.9489051 91.8812616,12.919708 91.8812616,15.6569343 C91.8812616,18.350365 93.1502783,20.3430657 95.4434137,20.3430657 C97.7365492,20.3430657 99.0055659,18.3722628 99.0055659,15.6569343 C99.0055659,12.919708 97.7365492,10.9489051 95.4434137,10.9489051 L95.4434137,10.9489051 Z" id="XMLID_15_"></path>
                    <path d="M113.922078,15.3284672 L119.977737,23.7810219 L114.879406,23.7810219 L111.317254,18.6569343 L107.710575,23.7810219 L102.879406,23.7810219 L108.868275,15.4379562 L103.235622,7.44525547 L108.333952,7.44525547 L111.539889,12.0875912 L114.790353,7.44525547 L119.621521,7.44525547 L113.922078,15.3284672 L113.922078,15.3284672 Z" id="XMLID_13_"></path>
                </g>
                <g id="XMLID_6_" sketch:type="MSShapeGroup">
                    <path d="M12.0759563,0.2 L0,7.91111111 L8.3568306,14.6 L20.5,7.15555556 L12.0759563,0.2 Z" id="XMLID_11_"></path>
                    <path d="M0,21.1333333 L12.0759563,29 L20.5,22.0444444 L8.3568306,14.6 L0,21.1333333 Z" id="XMLID_10_"></path>
                    <path d="M20.5,22.0444444 L28.9240437,29 L40.9551913,21.2222222 L32.620765,14.6 L20.5,22.0444444 Z" id="XMLID_9_"></path>
                    <path d="M40.9551913,7.97777778 L28.9240437,0.2 L20.5,7.15555556 L32.620765,14.6 L40.9551913,7.97777778 Z" id="XMLID_8_"></path>
                    <path d="M20.5224044,23.5333333 L12.0759563,30.4888889 L8.44644809,28.1555556 L8.44644809,30.7777778 L20.5224044,37.9555556 L32.5759563,30.7777778 L32.5759563,28.1555556 L28.9688525,30.4888889 L20.5224044,23.5333333 Z" id="XMLID_7_"></path>
                </g>
            </g>
        </g>
    </g>
</svg>