<svg width="168" height="48" viewBox="0 0 168 48" xmlns="http://www.w3.org/2000/svg"><title>dropbox</title><g fill="#007EE5" fill-rule="evenodd"><path d="M47.111 13.314h8.06c6.901 0 11.265 4.38 11.265 11.212s-4.341 11.211-11.265 11.211h-8.06V13.314zm7.882 18.328c4.341 0 6.723-2.737 6.723-7.095 0-4.38-2.382-7.116-6.723-7.116H51.83v14.211h3.162zM78.659 23.89c-.624-.372-1.447-.547-2.316-.547-1.558 0-2.827.81-3.161 2.3v10.116h-4.586V19.423h4.608v1.599c.713-1.16 2.07-1.97 3.718-1.97.78 0 1.492.152 1.737.284v4.555zM87.853 36.131c-4.83 0-8.148-3.503-8.148-8.518 0-5.036 3.317-8.562 8.148-8.562 4.832 0 8.127 3.504 8.127 8.562 0 5.015-3.295 8.518-8.127 8.518zm0-13.226c-2.315 0-3.562 1.97-3.562 4.708 0 2.694 1.27 4.686 3.562 4.686 2.294 0 3.563-1.97 3.563-4.686 0-2.737-1.27-4.708-3.563-4.708zM102.57 41.803H97.96v-22.38h4.609v1.358c.734-.876 2.382-1.708 4.163-1.708 4.831 0 7.57 3.942 7.57 8.562 0 4.599-2.739 8.518-7.57 8.518-1.781 0-3.429-.832-4.163-1.708v7.358zm0-11.518c.556 1.138 1.78 1.905 3.116 1.905 2.494 0 3.986-1.971 3.986-4.577 0-2.628-1.492-4.598-3.986-4.598-1.38 0-2.56.81-3.116 1.905v5.365zM120.937 35.76h-4.653V12h4.653v8.781c.735-.876 2.382-1.708 4.163-1.708 4.831 0 7.547 3.876 7.547 8.562s-2.716 8.518-7.547 8.518c-1.78 0-3.428-.832-4.163-1.708v1.314zm0-5.475c.512 1.138 1.736 1.905 3.117 1.905 2.493 0 3.985-1.971 3.985-4.577 0-2.628-1.492-4.598-3.985-4.598-1.336 0-2.605.81-3.117 1.905v5.365zM142.443 36.175c-4.83 0-8.148-3.503-8.148-8.518 0-5.037 3.317-8.562 8.148-8.562 4.832 0 8.127 3.504 8.127 8.562 0 5.015-3.318 8.518-8.127 8.518zm0-13.226c-2.315 0-3.562 1.97-3.562 4.708 0 2.693 1.27 4.686 3.562 4.686 2.294 0 3.563-1.97 3.563-4.686 0-2.737-1.27-4.708-3.563-4.708z"/><path d="M160.922 27.328l6.056 8.453h-5.099l-3.562-5.124-3.606 5.124h-4.832l5.99-8.343-5.633-7.993h5.098l3.206 4.643 3.25-4.643h4.832l-5.7 7.883z"/><g><path d="M13.076 5.2L1 12.911 9.357 19.6 21.5 12.156 13.076 5.2zM1 26.133L13.076 34l8.424-6.956L9.357 19.6 1 26.133zM21.5 27.044L29.924 34l12.031-7.778-8.334-6.622L21.5 27.044zM41.955 12.978L29.924 5.2 21.5 12.156 33.62 19.6l8.335-6.622z"/><path d="M21.522 28.533l-8.446 6.956-3.63-2.333v2.622l12.076 7.178 12.054-7.178v-2.622l-3.607 2.333-8.447-6.956z"/></g></g></svg>