<?xml version="1.0" encoding="UTF-8" standalone="no"?>
<svg width="100px" height="85px" viewBox="0 0 100 85" version="1.1" xmlns="http://www.w3.org/2000/svg" xmlns:xlink="http://www.w3.org/1999/xlink" xmlns:sketch="http://www.bohemiancoding.com/sketch/ns">
    <!-- Generator: Sketch 3.4.4 (17249) - http://www.bohemiancoding.com/sketch -->
    <title>Earnest</title>
    <desc>Created with Sketch.</desc>
    <defs></defs>
    <g id="Page-1" stroke="none" stroke-width="1" fill="none" fill-rule="evenodd" sketch:type="MSPage">
        <g id="Earnest" sketch:type="MSArtboardGroup" fill="#14181A">
            <g id="earnest-logotype-green" sketch:type="MSLayerGroup" transform="translate(1.000000, 27.000000)">
                <path d="M3.96469121,13.2526462 C4.09836401,11.5203108 5.4970184,9.65430266 7.93018405,9.65430266 C10.5950225,9.65430266 11.8620082,11.3531697 11.9279427,13.2526462 L3.96469121,13.2526462 L3.96469121,13.2526462 Z M7.89651534,6.42270757 C3.79835174,6.42270757 0,9.82084254 0,14.9525153 C0,20.4495337 3.89835583,23.6482618 8.29613088,23.6482618 C12.1944867,23.6482618 14.7599223,21.3491697 15.6266912,18.517591 L12.3608262,17.4838814 C11.8277382,19.0837464 10.6286912,20.3166626 8.29613088,20.3166626 C5.89703476,20.3166626 3.96469121,18.5506585 3.86468712,16.085227 L15.7260941,16.085227 C15.7589611,16.0186912 15.8260982,15.4848016 15.8260982,14.8525112 C15.8260982,9.72083845 12.8941145,6.42270757 7.89651534,6.42270757 L7.89651534,6.42270757 Z" id="Fill-1" sketch:type="MSShapeGroup"></path>
                <path d="M26.9530061,16.4175051 C26.9530061,19.5831656 25.0877996,20.6166748 22.9211779,20.6166748 C21.3888507,20.6166748 20.5555501,19.6168344 20.5555501,18.517591 C20.5555501,17.1836687 21.5225235,16.5177096 22.7215706,16.317501 L26.9530061,15.6850102 L26.9530061,16.4175051 L26.9530061,16.4175051 Z M30.7519591,12.4862822 C30.7519591,9.25408589 28.8524826,6.42270757 23.8548834,6.42270757 C19.8567239,6.42270757 17.3247566,8.92180777 17.0239427,11.720319 L20.5555501,12.5197505 C20.7228916,10.8870184 21.8548016,9.58776687 23.8879509,9.58776687 C26.019501,9.58776687 26.9530061,10.6870102 26.9530061,12.0531984 C26.9530061,12.6191534 26.6856605,13.0865072 25.7537587,13.2195787 L21.5888589,13.8520695 C18.8234151,14.2522863 16.6910634,15.8513497 16.6910634,18.7506667 C16.6910634,21.3159018 18.7905481,23.6482618 22.1884826,23.6482618 C24.820454,23.6482618 26.4199182,22.3159427 27.1864826,21.0834274 C27.1864826,22.3818773 27.3195542,23.0478364 27.3532229,23.1486421 L30.9513661,23.1486421 C30.9182986,22.9821022 30.7519591,22.0153292 30.7519591,20.5495378 L30.7519591,12.4862822 L30.7519591,12.4862822 Z" id="Fill-4" sketch:type="MSShapeGroup"></path>
                <path d="M36.6812597,9.52143149 L36.6812597,6.9223272 L32.9159755,6.9223272 L32.9159755,23.1486421 L36.7814642,23.1486421 L36.7814642,15.4190675 C36.7814642,12.3856769 38.1470511,10.6539427 41.1461718,10.6539427 C41.5463885,10.6539427 41.979272,10.6870102 42.411955,10.7541472 L42.411955,6.82292434 C42.2454151,6.78945603 41.8451984,6.72231902 41.3792474,6.72231902 C39.2472965,6.72231902 37.4474233,7.75482618 36.6812597,9.52143149" id="Fill-5" sketch:type="MSShapeGroup"></path>
                <path d="M52.3730838,6.45617587 C50.5742127,6.45617587 48.6414683,7.22233947 47.5752924,9.08834765 L47.5752924,6.9223272 L43.8098078,6.9223272 L43.8098078,23.1486421 L47.6752965,23.1486421 L47.6752965,13.7863354 C47.6752965,11.6539836 48.8408753,9.95431493 51.0401636,9.95431493 C53.4713252,9.95431493 54.3719632,11.5529775 54.3719632,13.5526585 L54.3719632,23.1486421 L58.2364499,23.1486421 L58.2364499,12.886499 C58.2364499,9.3212229 56.3375746,6.45617587 52.3730838,6.45617587" id="Fill-6" sketch:type="MSShapeGroup"></path>
                <path d="M63.5997955,13.2526462 C63.7324663,11.5203108 65.1317219,9.65430266 67.5636851,9.65430266 C70.229726,9.65430266 71.4955092,11.3531697 71.5628466,13.2526462 L63.5997955,13.2526462 L63.5997955,13.2526462 Z M67.5312188,6.42270757 C63.4318528,6.42270757 59.6343027,9.82084254 59.6343027,14.9525153 C59.6343027,20.4495337 63.5324581,23.6482618 67.931636,23.6482618 C71.8293906,23.6482618 74.3940245,21.3491697 75.260593,18.517591 L71.9949284,17.4838814 C71.4626421,19.0837464 70.2629939,20.3166626 67.931636,20.3166626 C65.5321391,20.3166626 63.5997955,18.5506585 63.499591,16.085227 L75.3603967,16.085227 C75.3936646,16.0186912 75.4606012,15.4848016 75.4606012,14.8525112 C75.4606012,9.72083845 72.528818,6.42270757 67.5312188,6.42270757 L67.5312188,6.42270757 Z" id="Fill-7" sketch:type="MSShapeGroup"></path>
                <path d="M98,11.8319468 L98,8.40094479 L94.6012638,8.40094479 L94.6012638,6.00184867 L94.5992597,6.00004499 C94.5980573,2.78147648 91.9893333,0.17195092 88.769362,0.17195092 C85.5499918,0.17195092 82.9384622,2.7818773 82.9384622,6.00184867 C82.9384622,6.14894888 82.9512883,6.29244172 82.96191,6.43633538 C82.8482781,6.4323272 82.7402577,6.42270757 82.6222168,6.42270757 C79.2571493,6.42270757 76.6588466,8.82100204 76.6588466,11.6539836 C76.6588466,13.8857382 78.1579059,15.7507444 81.0227526,16.384638 L83.4226503,16.917726 C84.7213006,17.1836687 85.3213252,17.850229 85.3213252,18.7163967 C85.3213252,19.7162372 84.4888262,20.5830061 82.8897628,20.5830061 C80.8227444,20.5830061 79.7245031,19.2837546 79.590229,17.817362 L76.2251616,18.7506667 C76.4251697,20.5830061 78.2244417,23.6482618 82.9216278,23.6482618 C87.0538609,23.6482618 89.0527403,20.9156851 89.0527403,18.4500532 C89.0527403,16.0515583 87.4542781,14.1865521 84.3882209,13.5201922 L81.9229898,13.0199714 C80.9229489,12.819362 80.2908589,12.1864703 80.2908589,11.3201022 C80.2908589,10.3202618 81.2568303,9.45489571 82.6222168,9.45489571 C83.5220532,9.45489571 84.1663681,9.71562781 84.6243027,10.0853824 C84.6441431,10.1048221 84.6810184,10.1294724 84.6810184,10.1294724 L84.6810184,10.1286708 L86.5845031,8.28210225 C86.2279755,7.94000409 85.9476033,7.51794274 85.7800613,7.04096933 C85.6674315,6.71590593 85.6039018,6.36659305 85.6039018,6.00184867 C85.6039018,4.25428221 87.020593,2.83739059 88.769362,2.83739059 C90.5183313,2.83739059 91.9344213,4.25428221 91.9344213,6.00184867 C91.9344213,6.96160736 91.5059468,7.8199591 90.8313701,8.40094479 C90.3273415,8.83402863 89.684229,9.10758691 88.9787894,9.1540818 L88.9787894,11.8319468 L90.7696442,11.8319468 L90.7696442,18.517591 C90.7696442,21.5491779 92.6358528,23.3486503 95.6353742,23.3486503 C97.0340286,23.3486503 97.7663231,23.0815051 98,22.9821022 L98,19.7829734 C97.8336605,19.8170429 97.1995665,19.9164458 96.6672802,19.9164458 C95.2349571,19.9164458 94.6012638,19.3160204 94.6012638,17.8840982 L94.6012638,11.8319468 L98,11.8319468" id="Fill-8" sketch:type="MSShapeGroup"></path>
            </g>
        </g>
    </g>
</svg>