<svg width="100" height="85" viewBox="0 0 100 85" xmlns="http://www.w3.org/2000/svg"><title>Earnest</title><g fill="#14181A" fill-rule="evenodd"><path d="M4.965 40.253c.133-1.733 1.532-3.599 3.965-3.599 2.665 0 3.932 1.7 3.998 3.599H4.965zm3.932-6.83C4.798 33.423 1 36.82 1 41.953c0 5.497 3.898 8.695 8.296 8.695 3.898 0 6.464-2.299 7.33-5.13l-3.265-1.034c-.533 1.6-1.732 2.833-4.065 2.833-2.399 0-4.331-1.766-4.431-4.232h11.861c.033-.066.1-.6.1-1.232 0-5.132-2.932-8.43-7.93-8.43zM27.953 43.418c0 3.165-1.865 4.199-4.032 4.199-1.532 0-2.365-1-2.365-2.1 0-1.333.967-2 2.166-2.2l4.231-.632v.733zm3.799-3.932c0-3.232-1.9-6.063-6.897-6.063-3.998 0-6.53 2.499-6.831 5.297l3.532.8c.167-1.633 1.299-2.932 3.332-2.932 2.132 0 3.065 1.099 3.065 2.465 0 .566-.267 1.034-1.2 1.167l-4.164.632c-2.766.4-4.898 2-4.898 4.899 0 2.565 2.1 4.897 5.497 4.897 2.632 0 4.232-1.332 4.998-2.565 0 1.299.134 1.965.167 2.066h3.598c-.033-.167-.199-1.134-.199-2.6v-8.063zM37.681 36.521v-2.599h-3.765V50.15h3.865v-7.73c0-3.033 1.366-4.765 4.365-4.765.4 0 .833.033 1.266.1v-3.931a5.508 5.508 0 0 0-1.033-.1c-2.132 0-3.932 1.032-4.698 2.798M53.373 33.456c-1.799 0-3.732.766-4.798 2.632v-2.166H44.81V50.15h3.865v-9.363c0-2.132 1.166-3.832 3.365-3.832 2.431 0 3.332 1.599 3.332 3.599v9.596h3.864V39.886c0-3.565-1.898-6.43-5.863-6.43M64.6 40.253c.132-1.733 1.532-3.599 3.964-3.599 2.666 0 3.932 1.7 3.999 3.599H64.6zm3.931-6.83c-4.1 0-7.897 3.398-7.897 8.53 0 5.497 3.898 8.695 8.298 8.695 3.897 0 6.462-2.299 7.329-5.13l-3.266-1.034c-.532 1.6-1.732 2.833-4.063 2.833-2.4 0-4.332-1.766-4.432-4.232h11.86c.034-.066.1-.6.1-1.232 0-5.132-2.931-8.43-7.929-8.43zM99 38.832V35.4h-3.399V33L95.6 33a5.83 5.83 0 0 0-11.66.002c0 .147.012.29.023.434-.114-.004-.222-.013-.34-.013-3.365 0-5.963 2.398-5.963 5.231 0 2.232 1.499 4.097 4.364 4.73l2.4.534c1.298.266 1.898.932 1.898 1.798 0 1-.832 1.867-2.431 1.867-2.067 0-3.165-1.3-3.3-2.766l-3.365.934c.2 1.832 2 4.897 6.697 4.897 4.132 0 6.13-2.732 6.13-5.198 0-2.398-1.598-4.263-4.664-4.93l-2.465-.5c-1-.2-1.632-.834-1.632-1.7 0-1 .966-1.865 2.331-1.865.9 0 1.544.26 2.002.63.02.02.057.044.057.044l1.904-1.847a3.187 3.187 0 0 1-.805-1.241 3.165 3.165 0 1 1 5.051 1.36 3.152 3.152 0 0 1-1.852.753v2.678h1.79v6.686c0 3.031 1.867 4.83 4.866 4.83 1.399 0 2.131-.266 2.365-.366v-3.199c-.166.034-.8.133-1.333.133-1.432 0-2.066-.6-2.066-2.032v-6.052H99"/></g></svg>