<svg width="110" height="30" viewBox="0 0 110 30" xmlns="http://www.w3.org/2000/svg"><title>Artboard</title><g fill="#666" fill-rule="evenodd"><path d="M21.356 12.853H12.16a.431.431 0 0 0-.43.434v4.53c0 .238.193.433.43.433h3.588v5.628s-.806.277-3.033.277c-2.628 0-6.298-.967-6.298-9.099 0-8.133 3.822-9.204 7.41-9.204 3.107 0 4.445.551 5.296.817.268.082.515-.186.515-.425l1.026-4.377a.405.405 0 0 0-.164-.338C20.153 1.28 18.044.09 12.714.09 6.574.09.276 2.722.276 15.373S7.486 29.91 13.563 29.91c5.031 0 8.083-2.166 8.083-2.166.126-.07.14-.247.14-.328V13.287a.431.431 0 0 0-.43-.434M68.755 1.607a.43.43 0 0 0-.428-.436H63.15a.432.432 0 0 0-.429.436l.002 10.082h-8.073V1.607a.43.43 0 0 0-.427-.436h-5.178a.432.432 0 0 0-.428.436v27.299c0 .24.192.437.428.437h5.178a.432.432 0 0 0 .427-.437V17.229h8.073l-.015 11.677c0 .24.192.437.43.437h5.19a.432.432 0 0 0 .428-.437v-27.3M31.128 5.19c0-1.88-1.495-3.398-3.339-3.398-1.843 0-3.339 1.518-3.339 3.397 0 1.877 1.496 3.399 3.339 3.399 1.844 0 3.34-1.522 3.34-3.399M30.758 23.147V10.546a.432.432 0 0 0-.428-.435h-5.163c-.237 0-.448.246-.448.485V28.65c0 .53.328.689.752.689h4.651c.51 0 .636-.253.636-.697v-5.495M88.435 10.152h-5.139a.433.433 0 0 0-.427.436v13.386s-1.306.962-3.159.962c-1.852 0-2.344-.847-2.344-2.674V10.588a.432.432 0 0 0-.428-.436h-5.215a.433.433 0 0 0-.428.436v12.558c0 5.429 3.003 6.757 7.135 6.757 3.39 0 6.123-1.887 6.123-1.887s.13.995.189 1.112a.452.452 0 0 0 .378.237l3.318-.015a.433.433 0 0 0 .428-.436l-.002-18.326a.433.433 0 0 0-.429-.436M100.454 24.92c-1.783-.055-2.992-.87-2.992-.87v-8.645s1.193-.736 2.656-.868c1.85-.167 3.634.396 3.634 4.844 0 4.69-.805 5.615-3.298 5.539zm2.026-15.381c-2.918 0-4.903 1.312-4.903 1.312V1.607a.431.431 0 0 0-.428-.436h-5.193a.431.431 0 0 0-.428.436v27.299c0 .24.192.437.429.437h3.603c.162 0 .285-.084.376-.232.09-.147.219-1.259.219-1.259s2.123 2.027 6.143 2.027c4.72 0 7.426-2.411 7.426-10.826 0-8.415-4.323-9.514-7.244-9.514zM45.641 10.108h-3.884l-.006-5.17c0-.195-.1-.293-.325-.293h-5.293c-.206 0-.316.091-.316.29v5.343s-2.653.645-2.833.697a.433.433 0 0 0-.31.416v3.358c0 .241.192.436.428.436h2.715v8.077c0 5.999 4.177 6.588 6.995 6.588 1.288 0 2.829-.417 3.083-.511.154-.057.243-.218.243-.392l.005-3.693a.439.439 0 0 0-.43-.436c-.226 0-.805.093-1.402.093-1.908 0-2.554-.894-2.554-2.05v-7.676h3.884a.432.432 0 0 0 .429-.436v-4.206a.431.431 0 0 0-.429-.435"/></g></svg>