<svg width="64" height="84" viewBox="0 0 64 84" xmlns="http://www.w3.org/2000/svg"><title>Artboard</title><g fill="none" fill-rule="evenodd"><g fill="#767676" fill-rule="nonzero"><path d="M58.098 57.358H5.805C3.16 57.358 1 55.207 1 52.583V6.363C1 3.73 3.16 1.58 5.805 1.58h52.303c2.635 0 4.795 2.151 4.795 4.785v46.219c-.01 2.624-2.17 4.775-4.805 4.775z"/><path d="M1.097 53.48h61.322v4.438H1.097z"/></g><g fill="#232323" fill-rule="nonzero"><path d="M20.54 24.269l1.88-5.412s1.49-4.293 6.112-2.663c4.224 1.486 4.824-.202 6.8-.492 2.732-.395 4.311.743 4.825 2.72.513 1.978 1.782 5.798 1.782 5.798l1.676.174c.068-.762 1.386-12.676-12.293-11.326-1.056-.144-12.623-2.016-12.061 11.326l1.279-.125z"/><path d="M19.26 25.378a.982.982 0 0 1-.988-.945c-.174-4.197.785-7.41 2.859-9.56 2.354-2.45 5.618-2.962 7.934-2.962 1.075 0 1.927.116 2.276.164a21.77 21.77 0 0 1 2.054-.097c3.74 0 6.626 1.08 8.573 3.222 2.955 3.242 2.752 7.911 2.626 9.262-.03.26-.155.52-.359.685a1.05 1.05 0 0 1-.64.24c-.028 0-.057 0-.086-.009l-1.676-.174A.98.98 0 0 1 41 24.53c-.049-.154-1.28-3.878-1.792-5.856-.369-1.389-1.289-2.064-2.839-2.064-.28 0-.571.02-.881.067-.446.068-.824.232-1.26.435-.707.318-1.511.675-2.732.675-.94 0-2.015-.212-3.274-.666a4.892 4.892 0 0 0-1.657-.308c-2.315 0-3.167 2.276-3.206 2.373l-1.87 5.412a.972.972 0 0 1-.833.656l-1.279.125h-.116zM31.516 51.744c-4.621 0-8.235-2.306-8.235-5.248 0-2.943 3.614-5.248 8.235-5.248 4.62 0 8.234 2.305 8.234 5.248 0 2.952-3.613 5.248-8.234 5.248z"/><path d="M31.516 49.785c-4.621 0-8.235-2.305-8.235-5.248 0-2.942 3.614-5.248 8.235-5.248 4.62 0 8.234 2.306 8.234 5.248 0 2.943-3.613 5.248-8.234 5.248zM20.617 21.539c-.106 0-.213-.02-.31-.049-5.86-1.93-7.382-9-6.868-12.174.29-1.775 1.172-2.036 1.676-2.036 1.094 0 1.695 1.274 1.898 1.698 2.132 4.486 7.034 4.679 7.082 4.679.349.01.668.203.833.502.175.299.165.675-.01.974l-3.458 5.923a.942.942 0 0 1-.843.483zM18.68 32.41c-1.957 0-3.546-1.91-3.546-4.254 0-2.344 1.589-4.254 3.546-4.254 1.957 0 3.545 1.91 3.545 4.254 0 2.354-1.588 4.255-3.545 4.255zM44.516 32.41c-1.957 0-3.545-1.91-3.545-4.254 0-2.344 1.588-4.254 3.545-4.254 1.957 0 3.546 1.91 3.546 4.254 0 2.354-1.589 4.255-3.546 4.255zM42.598 21.539a1 1 0 0 1-.852-.492l-3.459-5.924a.997.997 0 0 1-.01-.974.984.984 0 0 1 .834-.502c.203-.01 4.97-.222 7.081-4.679.194-.414.804-1.697 1.899-1.697.504 0 1.395.27 1.676 2.035.513 3.174-1.008 10.245-6.869 12.175a.83.83 0 0 1-.3.058z"/><path d="M31.35 46.717c-8.166 0-14.55-6.897-14.55-15.695a.81.81 0 0 1 .04-.26l3.438-12.687c.862-3.82 5.076-6.116 11.267-6.116 6.258 0 10.733 2.344 11.412 5.972l.106.385L45.892 30.8c.02.067.02.144.02.212-.01 8.808-6.404 15.705-14.561 15.705z"/><path d="M19.29 24.886a.982.982 0 0 1-.988-.945c-.175-4.197.785-7.41 2.858-9.56 2.354-2.45 5.618-2.962 7.934-2.962 1.075 0 1.928.116 2.276.164a21.77 21.77 0 0 1 2.054-.097c3.74 0 6.626 1.08 8.574 3.213 2.867 3.145 2.79 7.525 2.625 9.261-.03.26-.155.52-.359.685a1.05 1.05 0 0 1-.639.241c-.03 0-.058 0-.087-.01l-1.676-.173a.966.966 0 0 1-.833-.675c-.049-.155-1.279-3.879-1.802-5.856-.368-1.39-1.289-2.065-2.839-2.065-.28 0-.571.02-.881.068-.446.067-.824.231-1.26.434-.707.318-1.51.675-2.731.675-.94 0-2.015-.212-3.275-.665-.59-.203-1.143-.31-1.647-.31-2.354 0-3.197 2.345-3.197 2.364l-1.879 5.412a.984.984 0 0 1-.833.656l-1.279.135c-.048.01-.087.01-.116.01zM20.385 44.518a.983.983 0 0 1-.746-.338.984.984 0 0 1-.087-1.167c1.82-2.913 1.298-4.341.765-4.689-.426-.231-.581-.723-.417-1.176 1.783-4.94 6.772-5.084 7.334-5.084h.068a.98.98 0 0 1 .94.79c1.24 6.059-4.34 10.226-7.46 11.587a1.002 1.002 0 0 1-.397.077zM42.734 44.518a.951.951 0 0 1-.397-.087c-3.12-1.36-8.69-5.528-7.46-11.586a.99.99 0 0 1 .94-.791h.068c.562 0 5.55.145 7.333 5.084a.994.994 0 0 1-.446 1.196c-.038.03-1.482 1.032.795 4.679a.984.984 0 0 1-.087 1.167.969.969 0 0 1-.746.338z"/><path d="M23.756 38.932c-8.719 0-10.84-8.595-10.86-8.682a.983.983 0 0 1 .485-1.08.946.946 0 0 1 .474-.126.97.97 0 0 1 .698.29c.678.675 1.86 1.022 3.516 1.022 4.06 0 9.33-2.084 9.92-2.315l.049-.02a.951.951 0 0 1 .397-.086c.174 0 .34.048.494.125a.986.986 0 0 1 .494.733l.95 7.95a.978.978 0 0 1-.65 1.041c-2.121.762-4.136 1.148-5.967 1.148zM39.304 38.932c-1.83 0-3.846-.386-5.977-1.148a.99.99 0 0 1-.649-1.042l.95-7.949c.038-.309.222-.588.494-.743a.995.995 0 0 1 .891-.039c.63.252 5.91 2.335 9.959 2.335 1.656 0 2.838-.347 3.516-1.022a.985.985 0 0 1 .698-.29.92.92 0 0 1 .474.126.983.983 0 0 1 .485 1.08c0 .097-2.122 8.692-10.84 8.692zM31.748 53.403a2.806 2.806 0 0 1-2.81-2.798 2.797 2.797 0 0 1 2.81-2.788c1.55 0 2.81 1.254 2.81 2.788a2.806 2.806 0 0 1-2.81 2.798z"/><g><path d="M20.54 24.269l1.88-5.412s1.49-4.293 6.112-2.663c4.224 1.486 4.824-.202 6.8-.492 2.732-.395 4.311.743 4.825 2.72.513 1.978 1.782 5.798 1.782 5.798l1.676.174c.068-.762 1.386-12.676-12.293-11.326-1.056-.144-12.623-2.016-12.061 11.326l1.279-.125z"/><path d="M19.26 25.378a.982.982 0 0 1-.988-.945c-.174-4.197.785-7.41 2.859-9.56 2.354-2.45 5.618-2.962 7.934-2.962 1.075 0 1.927.116 2.276.164a21.77 21.77 0 0 1 2.054-.097c3.74 0 6.626 1.08 8.573 3.222 2.955 3.242 2.752 7.911 2.626 9.262-.03.26-.155.52-.359.685a1.05 1.05 0 0 1-.64.24c-.028 0-.057 0-.086-.009l-1.676-.174A.98.98 0 0 1 41 24.53c-.049-.154-1.28-3.878-1.792-5.856-.369-1.389-1.289-2.064-2.839-2.064-.28 0-.571.02-.881.067-.446.068-.824.232-1.26.435-.707.318-1.511.675-2.732.675-.94 0-2.015-.212-3.274-.666a4.892 4.892 0 0 0-1.657-.308c-2.315 0-3.167 2.276-3.206 2.373l-1.87 5.412a.972.972 0 0 1-.833.656l-1.279.125h-.116z"/></g></g><g transform="translate(13.787 8.428)"><path d="M24.974 38.337c0 2.354-3.245 4.264-7.246 4.264-4 0-7.246-1.91-7.246-4.264 0-2.353 3.245-4.264 7.246-4.264s7.246 1.9 7.246 4.264z" stroke="#232323" stroke-width=".689" fill="#C1C1C1" fill-rule="nonzero" stroke-linecap="round" stroke-linejoin="round"/><ellipse fill="#9D9D9D" fill-rule="nonzero" cx="17.709" cy="37.083" rx="7.12" ry="4.669"/><path d="M24.974 36.36c0 2.354-3.245 4.264-7.246 4.264-4 0-7.246-1.91-7.246-4.264s3.245-4.264 7.246-4.264c4.001.02 7.246 1.92 7.246 4.264z" stroke="#232323" stroke-width=".689" fill="#A3A3A3" fill-rule="nonzero" stroke-linecap="round" stroke-linejoin="round"/><path d="M24.83 34.69c0 2.644-3.207 4.776-7.17 4.776-3.962 0-7.168-2.142-7.168-4.775 0-2.634 3.206-4.775 7.168-4.775 3.953-.02 7.17 2.122 7.17 4.775z" fill="#8B8B8B" fill-rule="nonzero"/><path d="M10.288 6.454S4.747 6.3 2.344 1.206C-.068-3.888-1.24 9.705 6.84 12.377l3.45-5.923z" stroke="#232323" stroke-width=".689" fill="#FFF" fill-rule="nonzero" stroke-linecap="round" stroke-linejoin="round"/><path d="M5.464 11.422S.717 8.76.92 1.602c0 0 .155-1.071.427-1.158 0 0-.998 7.293 4.32 10.177l-.203.801z" fill="#CBCBCB" fill-rule="nonzero"/><path d="M7.45 19.98c0 1.813-1.143 3.27-2.558 3.27-1.414 0-2.557-1.467-2.557-3.27 0-1.815 1.143-3.271 2.557-3.271 1.415 0 2.558 1.466 2.558 3.27zM28.18 19.98c0 1.813 1.144 3.27 2.558 3.27 1.415 0 2.558-1.467 2.558-3.27 0-1.815-1.143-3.271-2.558-3.271-1.414 0-2.557 1.466-2.557 3.27z" stroke="#232323" stroke-width=".689" fill="#A3A3A3" fill-rule="nonzero" stroke-linecap="round" stroke-linejoin="round"/><path d="M31.765 19.96c0 1.08-.571 1.958-1.288 1.958-.707 0-1.289-.878-1.289-1.958S29.76 18 30.477 18s1.288.869 1.288 1.959zM3.613 19.96c0 1.08.572 1.958 1.289 1.958.707 0 1.288-.878 1.288-1.958S5.62 18 4.902 18c-.717 0-1.289.869-1.289 1.959z" fill="#8B8B8B" fill-rule="nonzero"/><path d="M25.352 6.454s5.541-.154 7.954-5.248c2.412-5.094 3.584 8.499-4.495 11.171l-3.459-5.923z" stroke="#232323" stroke-width=".689" fill="#FFF" fill-rule="nonzero" stroke-linecap="round" stroke-linejoin="round"/><path d="M28.317 10.41l-.117-.435c-.571-3.203-4.834-5.2-10.453-5.2-5.618 0-9.532 1.959-10.307 5.393L3.991 22.844c0 8.316 6.074 14.722 13.563 14.722 7.488 0 13.562-6.396 13.562-14.722l-2.8-12.435z" stroke="#232323" stroke-width=".988" fill="#A3A3A3" fill-rule="nonzero" stroke-linecap="round" stroke-linejoin="round"/><path d="M6.781 15.6l1.88-5.413s1.492-4.283 6.112-2.653c4.224 1.486 4.825-.202 6.801-.492 2.732-.395 4.311.743 4.824 2.72.514 1.969 1.783 5.799 1.783 5.799l1.676.173c.068-.762 1.385-12.676-12.294-11.325-1.055-.145-12.622-2.017-12.06 11.325L6.78 15.6z" stroke="#232323" stroke-width=".689" fill="#1D1D1D" fill-rule="nonzero" stroke-linecap="round" stroke-linejoin="round"/><path d="M28.753 29.674s-1.483 3.647-5.832 5.837l-.407.685s4.65-1.737 6.8-6.744l-.561.222z" fill="#FFF" fill-rule="nonzero"/><path d="M17.709 14.51l12.652 1.273s-2.49 6.589-9.523 5.093l-3.13-6.367z" stroke="#232323" stroke-width=".988" fill="#FFF" fill-rule="nonzero" stroke-linecap="round" stroke-linejoin="round"/><path d="M17.709 14.51L5.057 15.772s2.49 6.589 9.523 5.094l3.129-6.358z" stroke="#232323" stroke-width=".988" fill="#FFF" fill-rule="nonzero" stroke-linecap="round" stroke-linejoin="round"/><path d="M7.033 29.317s2.49 1.38-.436 6.059c0 0 8.293-3.608 6.878-10.487 0-.01-4.805-.135-6.442 4.428zM28.51 29.317s-2.49 1.38.436 6.059c0 0-8.292-3.608-6.878-10.487 0-.01 4.795-.135 6.442 4.428z" stroke="#232323" stroke-width=".689" fill="#FFF" fill-rule="nonzero" stroke-linecap="round" stroke-linejoin="round"/><path d="M24.141 27.369c0 10.351-4.805 10.95-6.548 10.95-1.957 0-6.55-.59-6.55-10.95h13.098z" stroke="#232323" stroke-width=".988" fill="#909090" fill-rule="nonzero" stroke-linecap="round" stroke-linejoin="round"/><path d="M17.39 14.384s-8.662-2.248-10.367 1.119l10.366-1.12zM18.028 14.48s8.661-2.238 10.366 1.12l-10.366-1.12zM14.657 20.75s-.029.01-.077.03c-.988.395-11.18 4.399-14.512 1.08 0 0 2.683 11.432 15.539 6.83l-.95-7.94zM20.828 20.75s.03.01.078.03c.988.395 11.179 4.399 14.511 1.08 0 0-2.683 11.432-15.538 6.83l.95-7.94z" stroke="#232323" stroke-width=".689" fill="#1D1D1D" fill-rule="nonzero" stroke-linecap="round" stroke-linejoin="round"/><path d="M21.748 22.728l-4.03-8.219-4.059 8.084c-.01.02-.01.02 0 0-.28.801-.445 1.341-.445 2.036 0 2.48 2.015 4.534 4.504 4.534 2.49 0 4.505-1.987 4.505-4.467a4.64 4.64 0 0 0-.475-1.968z" stroke="#232323" stroke-width=".8" fill="#A3A3A3" fill-rule="nonzero" stroke-linecap="round" stroke-linejoin="round"/><path d="M11.547 30.04s2.21-.288 4.06-.973c0 0 1.879 1.06 4.272-.03 0 0 2.024.772 3.69.936l-.154 1.062s-2.16-.791-3.536-1.139c0 0-1.918 1.061-4.272 0l-3.924 1.187-.136-1.042z" fill="#7F7F7F" fill-rule="nonzero"/><path d="M16.15 24.947c0 .405-.262.733-.582.733-.32 0-.581-.328-.581-.733 0-.405.261-.733.58-.733.32.01.582.328.582.733z" fill="#B9B9B9" fill-rule="nonzero"/><path d="M3.604 3.174S2.8 4.775.727 4.312" stroke="#232323" stroke-width=".988" stroke-linecap="round" stroke-linejoin="round"/><path d="M18.774 11.422c0 .608-.494 1.09-1.094 1.09a1.091 1.091 0 1 1 0-2.18c.6 0 1.094.482 1.094 1.09z" stroke="#232323" stroke-width=".689" fill="#606060" fill-rule="nonzero" stroke-linecap="round" stroke-linejoin="round"/><path d="M13.93 21.426l-1.152.347s-2.877 3.753.959 7.14l1.095-.29c0-.01-3.701-2.267-.901-7.197zM21.448 21.378l1.318.434s2.76 3.685-1.085 7.071l-1.095-.318s3.662-2.267.862-7.187z" fill="#161616" fill-rule="nonzero"/><path d="M5.851 17.886l-.29 1.051s2.315 2.981 5.928 2.586c0 0-3.07-.068-5.638-3.637zM29.624 17.808l.223.956s-1.83 3.154-5.803 2.768c0-.01 3.013-.154 5.58-3.724z" fill="#8B8B8B" fill-rule="nonzero"/><path d="M14.463 19.98s-5.337 1.253-8.185-3.84l-.475.057s2.538 5.49 8.438 4.226l.222-.444zM21.022 20.076s5.28 1.148 8.03-3.946l.563.077s-2.422 5.345-8.428 4.254l-.165-.385zM25.1 30.137s.03 1.959 2.926 4.38c0 0-1.705-.694-3.817-3.087l.174-1.331.717.038zM10.094 30.137s.281 1.959-2.606 4.38c0 0 1.783-.916 3.556-2.73L10.81 30.1l-.717.038z" fill="#CBCBCB" fill-rule="nonzero"/><path fill="#FFF" fill-rule="nonzero" d="M29.634 17.79l1.143 5.035-.484-.048-1.008-4.534zM17.709 15.377l3.633 7.458s1.85 2.913-1.376 5.257c0 0 1.986-2.238.823-5.026-1.152-2.798-3.08-7.689-3.08-7.689zM27.348 14.123l-1.376-4.611s-.504-1.698-2.276-2.084c0 0 1.191.348 1.889 2.566.62 1.978 1.172 3.878 1.172 3.878l.59.251zM34.662 22.825s-1.521 5.026-6.258 6.203c0 0 4.282-2.2 6.258-6.203zM23.085 29.896s-.755 6.657-4.882 7.882c0 0 4.563.174 5.367-7.805l-.485-.077zM30.283 17.114s2.093-.675 2.654 2.508c0 0 .34 2.219-1.327 3.039 0 0 1.638-1.36.64-3.714 0 0-.378-1.573-1.967-1.833z"/><path d="M29.973 11.519S35.311 8.72 34.672.994c0 0-.04-.627-.407-.54 0 0 .823 7.38-4.495 10.264l.203.8z" fill="#CBCBCB" fill-rule="nonzero"/><path d="M31.833 3.53s.804 1.602 2.887 1.14" stroke="#232323" stroke-width=".988" stroke-linecap="round" stroke-linejoin="round"/><path d="M12.972 17.548c0 .405-.33.733-.737.733a.734.734 0 1 1 0-1.466.734.734 0 0 1 .737.733zM23.657 17.548c0 .405-.33.733-.746.733a.734.734 0 1 1 0-1.466.73.73 0 0 1 .746.733z" fill="#1D1D1D" fill-rule="nonzero"/><path d="M23.696 5.248s6.21 1.225 5.831 10.09l-.494-.038c-.01 0 .494-7.64-5.337-10.052z" fill="#FFF" fill-rule="nonzero"/><path d="M23.812 8.316c.33.318.397.781.145 1.042-.252.26-.726.212-1.056-.097-.33-.318-.397-.781-.145-1.042.252-.27.727-.222 1.056.097zM24.916 10.023c.058.28-.068.55-.29.598-.223.049-.456-.135-.514-.424-.058-.28.068-.55.29-.598.224-.039.456.135.514.424z" fill="#B9B9B9" fill-rule="nonzero"/><path d="M18.474 33.543c.02 1.553-.387 2.807-.9 2.817-.514.01-.95-1.245-.97-2.798-.019-1.553.388-2.807.901-2.817.523 0 .95 1.254.97 2.798z" fill="#A1A1A1" fill-rule="nonzero"/><path d="M19.782 42.437a1.822 1.822 0 0 1-3.642 0 1.822 1.822 0 0 1 3.642 0z" stroke="#232323" stroke-width=".689" fill="#C1C1C1" fill-rule="nonzero" stroke-linecap="round" stroke-linejoin="round"/><path d="M18.445 43.026l-.688-1.331M18.106 42.437l-.62.608" stroke="#232323" stroke-width=".5" stroke-linecap="round" stroke-linejoin="round"/></g><g fill="#1D1D1D" fill-rule="nonzero"><path d="M11.404 64.96H13.1v5.065h2.102V64.96h1.705v11.818h-1.705V71.51H13.1v5.268h-1.696zM20.482 64.96h1.414l2.654 11.818h-1.705l-.503-2.538h-2.316l-.503 2.538h-1.705l2.664-11.818zm.716 3.396h-.029l-.833 4.283h1.705l-.843-4.283zM30.963 68.356h-1.705v-.386c0-.386-.087-.724-.27-1.003-.185-.28-.495-.425-.93-.425-.233 0-.427.048-.572.135a.902.902 0 0 0-.35.338c-.086.135-.144.299-.174.482-.029.183-.048.376-.048.57 0 .23.01.424.03.588.019.164.057.299.125.415a.975.975 0 0 0 .29.308c.127.087.301.174.524.27l1.298.512c.378.144.688.308.92.501.233.193.417.425.543.685.126.26.213.56.261.898.049.337.068.723.068 1.157 0 .502-.048.965-.145 1.39a2.86 2.86 0 0 1-.494 1.1c-.233.308-.533.549-.91.723-.379.173-.844.27-1.386.27a3.26 3.26 0 0 1-1.153-.212 2.835 2.835 0 0 1-.92-.589 3.021 3.021 0 0 1-.61-.887 2.673 2.673 0 0 1-.223-1.11v-.637h1.705v.531c0 .309.087.588.27.84.185.25.495.376.93.376.291 0 .514-.04.679-.126a.913.913 0 0 0 .368-.347c.087-.155.136-.338.155-.56.02-.222.03-.463.03-.733a8.2 8.2 0 0 0-.03-.762 1.093 1.093 0 0 0-.145-.482.81.81 0 0 0-.3-.3 4.04 4.04 0 0 0-.504-.25l-1.22-.502c-.737-.299-1.231-.694-1.473-1.186-.252-.492-.378-1.11-.378-1.853 0-.443.058-.868.184-1.263.126-.396.3-.743.542-1.033.243-.29.543-.52.91-.685.37-.173.795-.26 1.28-.26a2.841 2.841 0 0 1 2.063.849c.252.25.446.54.572.858.135.319.203.637.203.975l-.01.82zM37.822 74.125c0 .386-.068.752-.213 1.08a2.71 2.71 0 0 1-.59.868c-.253.251-.543.444-.873.589-.33.145-.688.212-1.065.212-.378 0-.737-.077-1.066-.212a2.723 2.723 0 0 1-.872-.589 2.82 2.82 0 0 1-.59-.868 2.657 2.657 0 0 1-.214-1.08V64.96h1.705v9c0 .425.097.734.3.927.204.202.446.299.746.299s.552-.097.746-.3c.204-.202.3-.51.3-.925V64.96h1.706v9.165h-.02zM39.498 64.96h2.732c1.996 0 3.003 1.158 3.003 3.473 0 .685-.106 1.273-.33 1.765-.212.492-.6.888-1.142 1.187l1.83 5.393H43.79l-1.57-5.046h-1.017v5.046h-1.705V64.96zm1.705 5.277h.969c.3 0 .542-.039.717-.125a.977.977 0 0 0 .407-.357c.096-.155.155-.348.193-.57.03-.221.049-.492.049-.79 0-.3-.02-.56-.049-.792a1.416 1.416 0 0 0-.213-.579.911.911 0 0 0-.445-.356c-.194-.078-.436-.116-.746-.116h-.882v3.685zM48.575 64.96h1.415l2.654 11.818H50.94l-.504-2.538H48.12l-.504 2.538h-1.705l2.664-11.818zm.717 3.396h-.029l-.833 4.283h1.705l-.843-4.283z"/></g><path d="M62.942 77.328c0 3.116-2.567 5.672-5.696 5.672H6.803c-3.13 0-5.696-2.556-5.696-5.672V6.759c0-3.116 2.567-5.672 5.696-5.672h50.443c3.129 0 5.696 2.556 5.696 5.672v70.569z" stroke="#1D1D1D" stroke-width="1.976"/></g></svg>