<?xml version="1.0" encoding="UTF-8" standalone="no"?>
<svg
   xmlns:dc="http://purl.org/dc/elements/1.1/"
   xmlns:cc="http://creativecommons.org/ns#"
   xmlns:rdf="http://www.w3.org/1999/02/22-rdf-syntax-ns#"
   xmlns:svg="http://www.w3.org/2000/svg"
   xmlns="http://www.w3.org/2000/svg"
   style="fill:none"
   id="svg977"
   version="1.1"
   viewBox="0 0 151.34702 37"
   height="37"
   width="151.34702">
  <metadata
     id="metadata983">
    <rdf:RDF>
      <cc:Work
         rdf:about="">
        <dc:format>image/svg+xml</dc:format>
        <dc:type
           rdf:resource="http://purl.org/dc/dcmitype/StillImage" />
        <dc:title></dc:title>
      </cc:Work>
    </rdf:RDF>
  </metadata>
  <defs
     id="defs981" />
  <path
     style="clip-rule:evenodd;fill:#666666;fill-rule:evenodd;stroke-width:0.13481115"
     id="path967"
     d="M 0,16.44819 V 31.75828 L 10.02745,26.72389 V 11.41384 Z" />
  <path
     style="clip-rule:evenodd;fill:#666666;fill-rule:evenodd;stroke-width:0.13481115"
     id="path969"
     d="M 20.054901,21.68991 V 37 L 32.589096,30.70702 V 15.39679 l -9.180905,-1.68783 z" />
  <path
     style="clip-rule:evenodd;fill:#666666;fill-rule:evenodd;stroke-width:0.13481115"
     id="path971"
     d="M 17.547954,0 5.0137454,6.29304 20.054901,21.68977 32.589096,15.39679 Z" />
  <path
     style="clip-rule:evenodd;fill:#666666;fill-rule:evenodd;stroke-width:0.13481115"
     id="path973"
     d="M 15.041142,35.68937 10.027464,34.379 v -7.65511 l 5.013678,1.3105 z" />
  <path
     style="clip-rule:evenodd;fill:#666666;fill-rule:evenodd;stroke-width:0.13481115"
     id="path975"
     d="m 80.825309,26.35249 c -1.307398,1.30429 -3.130313,2.02243 -5.133066,2.02243 -1.996822,0 -3.815559,-0.71814 -5.121339,-2.0223 -1.33099,-1.32924 -2.063957,-3.21524 -2.063957,-5.31061 0,-2.09551 0.732967,-3.98151 2.063957,-5.31075 1.30578,-1.30403 3.124517,-2.02217 5.121339,-2.02217 2.002753,0 3.825668,0.71814 5.133066,2.02231 1.331933,1.32856 2.065576,3.21456 2.065576,5.31061 0,2.09591 -0.733643,3.98178 -2.065576,5.31048 z M 75.692243,11.12052 c -5.772207,0 -9.96173,4.1726 -9.96173,9.92149 0,5.74875 4.189523,9.92142 9.96173,9.92142 5.772205,0 9.961595,-4.17267 9.961595,-9.92142 0,-5.74889 -4.18939,-9.92149 -9.961595,-9.92149 z M 56.151511,19.70064 H 45.285738 v -8.31158 h -2.669125 v 19.30569 h 2.669125 v -8.44591 h 10.865773 v 8.44591 h 2.669125 V 11.38906 H 56.151511 Z M 91.977286,11.3891 99.008897,27.65409 106.05372,11.3891 h 2.78129 l -8.34386,19.30565 H 97.485802 L 97.419742,30.54188 89.128321,11.3891 Z m 24.953534,10.84626 h 9.93126 v -2.52138 h -9.93126 v -5.79013 h 11.70429 v -2.53479 h -14.37355 v 19.30569 h 14.49421 V 28.1599 h -11.82495 z m 21.49859,-8.31151 v 6.12595 h 4.92869 c 2.71914,0 4.09691,-1.04411 4.09691,-3.10335 0,-2.00559 -1.37777,-3.0226 -4.09691,-3.0226 z m 11.77575,3.0226 c 0,3.52072 -2.47378,5.10529 -4.89364,5.48061 l 6.03549,8.26769 h -3.20985 l -5.81036,-8.17737 h -3.89739 v 8.17737 h -2.66927 V 11.3891 h 7.62492 c 2.16103,0 3.85291,0.48263 5.02846,1.43453 1.18903,0.96244 1.79164,2.34965 1.79164,4.12282 z" />
</svg>
