<?xml version="1.0" standalone="no"?>
<!DOCTYPE svg PUBLIC "-//W3C//DTD SVG 20010904//EN"
 "http://www.w3.org/TR/2001/REC-SVG-20010904/DTD/svg10.dtd">
<svg version="1.0" xmlns="http://www.w3.org/2000/svg"
 width="142.000000pt" height="35.000000pt" viewBox="0 0 142.000000 35.000000"
 preserveAspectRatio="xMidYMid meet">

<g transform="translate(0.000000,35.000000) scale(0.100000,-0.100000)"
fill="#000000" stroke="none">
<path d="M106 314 l-49 -26 67 -67 66 -67 0 -72 c0 -39 2 -72 5 -72 3 0 28 11
55 25 l50 25 0 73 0 73 -68 67 c-37 37 -70 67 -72 67 -3 -1 -27 -12 -54 -26z"/>
<path d="M400 150 c0 -53 4 -90 10 -90 6 0 10 18 10 40 l0 40 55 0 55 0 0 -40
c0 -22 5 -40 10 -40 6 0 10 37 10 90 0 53 -4 90 -10 90 -5 0 -10 -18 -10 -41
l0 -40 -52 3 -53 3 -3 38 c-6 73 -22 35 -22 -53z"/>
<path d="M645 215 c-48 -47 -25 -135 40 -151 61 -15 115 26 115 88 0 54 -35
88 -90 88 -30 0 -47 -6 -65 -25z m109 -11 c51 -50 7 -137 -60 -120 -51 13 -67
81 -28 120 20 20 68 20 88 0z"/>
<path d="M842 231 c37 -96 75 -171 87 -169 18 4 94 178 77 178 -7 0 -26 -31
-41 -70 -15 -38 -31 -70 -35 -70 -4 0 -21 32 -38 70 -17 39 -36 70 -42 70 -7
0 -10 -4 -8 -9z"/>
<path d="M1070 150 l0 -90 70 0 c40 0 70 4 70 10 0 6 -25 10 -55 10 -54 0 -55
0 -55 30 0 29 2 30 45 30 25 0 45 5 45 10 0 6 -20 10 -45 10 -43 0 -45 1 -45
30 0 30 1 30 55 30 30 0 55 5 55 10 0 6 -30 10 -70 10 l-70 0 0 -90z"/>
<path d="M1272 153 c2 -58 7 -88 16 -91 8 -2 12 9 12 37 0 55 28 56 64 1 14
-22 31 -40 36 -40 16 0 12 13 -14 45 l-23 29 23 19 c52 40 17 87 -65 87 l-52
0 3 -87z m103 37 c0 -22 -5 -25 -37 -28 -36 -3 -38 -2 -38 28 0 30 2 31 38 28
32 -3 37 -6 37 -28z"/>
<path d="M38 209 c-38 -19 -38 -20 -38 -84 0 -36 2 -65 5 -65 3 0 24 9 45 20
l40 20 0 65 c0 36 -3 65 -7 65 -5 -1 -25 -10 -45 -21z"/>
<path d="M100 61 c0 -17 2 -31 4 -31 2 0 12 -3 21 -6 14 -6 16 -1 13 27 -4 46
-38 55 -38 10z"/>
</g>
</svg>
