<?xml version="1.0" encoding="UTF-8" standalone="no"?>
<svg
   xmlns:dc="http://purl.org/dc/elements/1.1/"
   xmlns:cc="http://creativecommons.org/ns#"
   xmlns:rdf="http://www.w3.org/1999/02/22-rdf-syntax-ns#"
   xmlns:svg="http://www.w3.org/2000/svg"
   xmlns="http://www.w3.org/2000/svg"
   xmlns:sodipodi="http://sodipodi.sourceforge.net/DTD/sodipodi-0.dtd"
   xmlns:inkscape="http://www.inkscape.org/namespaces/inkscape"
   inkscape:version="1.0beta2 (2b71d25, 2019-12-03)"
   sodipodi:docname="Hover.svg"
   id="svg74"
   version="1.1"
   fill="none"
   viewBox="0 0 1123 275"
   height="275"
   width="1123">
  <metadata
     id="metadata80">
    <rdf:RDF>
      <cc:Work
         rdf:about="">
        <dc:format>image/svg+xml</dc:format>
        <dc:type
           rdf:resource="http://purl.org/dc/dcmitype/StillImage" />
        <dc:title></dc:title>
      </cc:Work>
    </rdf:RDF>
  </metadata>
  <defs
     id="defs78" />
  <sodipodi:namedview
     inkscape:current-layer="svg74"
     inkscape:window-maximized="0"
     inkscape:window-y="23"
     inkscape:window-x="-1"
     inkscape:cy="195.3866"
     inkscape:cx="561.5"
     inkscape:zoom="0.69100623"
     showgrid="false"
     id="namedview76"
     inkscape:window-height="689"
     inkscape:window-width="1280"
     inkscape:pageshadow="2"
     inkscape:pageopacity="0"
     guidetolerance="10"
     gridtolerance="10"
     objecttolerance="10"
     borderopacity="1"
     inkscape:document-rotation="0"
     bordercolor="#666666"
     pagecolor="#ffffff" />
  <path
     style="stroke-width:0.127895"
     inkscape:connector-curvature="0"
     id="path64"
     fill="#666666"
     d="m 0,16.003487 v 14.896304 l 9.2756578,-4.89832 V 11.105206 Z"
     clip-rule="evenodd"
     fill-rule="evenodd" />
  <path
     style="stroke-width:0.127895"
     inkscape:connector-curvature="0"
     id="path66"
     fill="#666666"
     d="m 18.551316,21.103544 v 14.896303 l 11.594463,-6.1229 V 14.980512 l -8.49258,-1.642218 z"
     clip-rule="evenodd"
     fill-rule="evenodd" />
  <path
     style="stroke-width:0.127895"
     inkscape:connector-curvature="0"
     id="path68"
     fill="#666666"
     d="M 16.232323,-1.52588e-4 4.6378476,6.1228074 18.551316,21.103413 30.145779,14.980512 Z"
     clip-rule="evenodd"
     fill-rule="evenodd" />
  <path
     style="stroke-width:0.127895"
     inkscape:connector-curvature="0"
     id="path70"
     fill="#666666"
     d="M 13.913456,34.724637 9.2756703,33.449688 v -7.448217 l 4.6377857,1.275079 z"
     clip-rule="evenodd"
     fill-rule="evenodd" />
  <path
     style="stroke-width:0.127895"
     inkscape:connector-curvature="0"
     id="path72"
     fill="#666666"
     d="m 74.765557,25.640104 c -1.209378,1.269046 -2.895623,1.967776 -4.748223,1.967776 -1.847113,0 -3.529493,-0.69873 -4.737374,-1.967645 -1.231201,-1.293312 -1.909216,-3.128345 -1.909216,-5.167082 0,-2.038869 0.678015,-3.873903 1.909216,-5.167214 1.207881,-1.268784 2.890261,-1.967514 4.737374,-1.967514 1.8526,0 3.538845,0.69873 4.748223,1.967645 1.232074,1.292656 1.910712,3.12769 1.910712,5.167083 0,2.039261 -0.678638,3.874164 -1.910712,5.166951 z M 70.017334,10.819812 c -5.339444,0 -9.214865,4.059832 -9.214865,9.653341 0,5.593377 3.875421,9.653274 9.214865,9.653274 5.339444,0 9.21474,-4.059897 9.21474,-9.653274 0,-5.593509 -3.875296,-9.653341 -9.21474,-9.653341 z M 51.941639,19.168036 H 41.89051 v -8.086938 h -2.469011 v 18.783913 h 2.469011 v -8.217647 h 10.051129 v 8.217647 H 54.41065 V 11.081098 h -2.469011 z m 33.139793,-8.086899 6.504427,15.82539 6.516648,-15.82539 h 2.572763 l -7.718293,18.783874 h -2.780022 l -0.06111,-0.148744 -7.669784,-18.63513 z m 23.082678,10.553111 h 9.18668 v -2.453227 h -9.18668 v -5.633646 h 10.82679 v -2.466277 h -13.29593 v 18.783913 h 13.40754 v -2.466344 h -10.9384 z m 19.88677,-8.086873 v 5.960384 h 4.55917 c 2.51528,0 3.78975,-1.015892 3.78975,-3.019476 0,-1.95138 -1.27447,-2.940908 -3.78975,-2.940908 z m 10.89288,2.940908 c 0,3.425571 -2.28832,4.967314 -4.52675,5.332485 L 140,29.865011 h -2.9692 l -5.37473,-7.956361 h -3.60519 v 7.956361 h -2.46914 V 11.081137 h 7.05325 c 1.999,0 3.56404,0.46958 4.65145,1.395754 1.09989,0.936431 1.65732,2.286145 1.65732,4.011392 z"
     clip-rule="evenodd"
     fill-rule="evenodd" />
</svg>
