<svg width="130" height="30" viewBox="0 0 130 30" fill="none" xmlns="http://www.w3.org/2000/svg"><path fill="#fff" d="M0 0h130v30H0z"/><path d="M35.613 2.535h-4.098l-4.183 24.154h4.295l-.383 2.533H19.96l.382-2.533h4.422l1.99-11.011H9.364l-1.992 11.01h4.097l-.384 2.534H0l.383-2.533h4.42L8.988 2.535H4.569L4.951 0h11.086l-.383 2.535h-4.099L9.802 13.143h17.394l1.752-10.608h-4.419L24.913 0h11.084l-.384 2.535zm25.994 20.969l2.189 1.248c2.791 1.602 6.854 3.188 9.75.925 1.018-.792 1.54-2.19 1.181-3.328-.471-1.48-1.83-2.05-4.83-2.763-3.15-.746-6.953-2.17-6.662-6.337.11-1.586.795-2.917 2.05-3.75 4.314-2.853 10.528-.644 11.34-.415l1.159.325-.675 4.314h-2.6l.389-2.5c.029-.196-2.589-.636-2.815-.66-1.549-.163-3.12-.025-4.55.65-1.152.547-2.02 1.56-1.662 2.882.569 2.048 2.925 2.58 4.686 3.068 2.872.787 6.14 1.563 6.73 4.713.391 2.096-.402 4.476-2.159 5.85-1.993 1.56-4.9 1.719-7.302 1.279a15.486 15.486 0 0 1-5.425-2.162c-.182.231-.398.597-.61.813-2.594 2.642-7.089 1.752-8.876-1.336-.135-.242-.835-1.643-.65-1.901-1.625 2.263-3.954 4.459-6.825 4.784-2.493.274-5.457-.779-6.74-3.018-1.133-1.973-.895-3.986-.58-5.71l1.601-9.318h-5.936l.47-2.458h8.466l-2.133 12.226c-.308 1.688-.36 2.881.29 4.019.709 1.235 2.102 1.64 3.146 1.766 2.245.268 4.381-1.15 6.28-3.838.667-.938 1.27-1.92 1.803-2.94l1.68-8.775h-5.984l.359-2.458h8.464l-1.852 10.973c-.293 2.322-.694 5.938 2.112 6.901 1.068.366 2.326.145 3.127-.667.619-.637 1.116-1.565 1.594-2.402zM91.53.064c-.016.082-.702 3.977-1.54 8.386h7.624l-.378 2.533h-7.72c-.917 4.874-1.878 10.05-2.112 12.121-.257 2.228 1.195 3.115 1.856 3.366 1.225.463 2.927.273 3.804-.984l2.075 1.448a5.525 5.525 0 0 1-4.576 2.306 6.224 6.224 0 0 1-2.198-.404c-2.493-.941-3.748-3.325-3.437-6.054.235-2.086 1.118-7.03 2.008-11.799H81.49l.464-2.528h5.46c.857-4.492 1.603-8.052 1.67-8.392h2.448zm16.084.012l-3.913 23.106c-.253 2.226 1.258 3.047 1.919 3.297 1.226.463 2.925.273 3.805-.983l2.075 1.448a5.527 5.527 0 0 1-4.576 2.306 6.221 6.221 0 0 1-2.197-.411c-2.493-.941-3.85-3.22-3.54-5.948.426-3.752 2.768-15.983 3.606-20.291h-5.593l.382-2.524h8.032zm19.335 18.881a11.916 11.916 0 0 1-3.146 1.276c-3.069.79-6.279.861-9.38.206.211 3.632 3.713 6.131 7.15 6.203 2.147.044 4.269-.717 6.056-1.897.499.65 1.118 1.3 1.517 2.01-2.396 2.024-6.364 2.838-9.383 2.276-2.504-.472-4.877-1.877-6.325-3.99-1.181-1.722-1.716-3.854-1.68-5.947.122-7.077 7.657-13.307 14.625-10.26 2.962 1.295 4.657 4.946 2.91 7.863a6.71 6.71 0 0 1-2.344 2.26zm-1.205-2.22c1.621-.877 2.44-2.798 1.247-4.372-1.672-2.206-4.755-2.227-7.124-1.315a8.393 8.393 0 0 0-5.239 5.889c-.075.303-.137.61-.187.918 4.69.87 8.3.505 11.303-1.12z" fill="#666"/></svg>