<?xml version="1.0" encoding="UTF-8" standalone="no"?>
<svg
   xmlns:dc="http://purl.org/dc/elements/1.1/"
   xmlns:cc="http://creativecommons.org/ns#"
   xmlns:rdf="http://www.w3.org/1999/02/22-rdf-syntax-ns#"
   xmlns:svg="http://www.w3.org/2000/svg"
   xmlns="http://www.w3.org/2000/svg"
   id="svg8"
   version="1.1"
   height="36"
   width="142.92009"
   viewBox="0 0 142.92009 36">
  <metadata
     id="metadata14">
    <rdf:RDF>
      <cc:Work
         rdf:about="">
        <dc:format>image/svg+xml</dc:format>
        <dc:type
           rdf:resource="http://purl.org/dc/dcmitype/StillImage" />
        <dc:title></dc:title>
      </cc:Work>
    </rdf:RDF>
  </metadata>
  <defs
     id="defs12" />
  <!-- [ツ] -->
  <!-- intercom -->
  <g
     transform="scale(0.36)"
     id="g824">
    <rect
       style="fill:#666666;fill-opacity:1"
       y="0"
       x="0"
       width="100"
       height="100"
       rx="12"
       id="rect2" />
    <path
       style="fill:none;stroke:#ffffff;stroke-width:6;stroke-linecap:round"
       d="m 16,75 a 67,67 0 0 0 68,0 M 16,25 V 55 M 84,25 V 55 M 50,16 V 65 M 33,18 V 62 M 67,18 v 44"
       id="path4" />
    <path
       style="fill:#666666;fill-opacity:1"
       d="m 138.01,64.399 a 3,3 0 0 1 -0.88,2.16 2.928,2.928 0 0 1 -2.15,0.855 2.909,2.909 0 0 1 -2.12,-0.869 A 2.987,2.987 0 0 1 132,64.399 V 35.648 c 0,-1.655 1.25,-3.016 3.03,-3.016 1.73,0 2.98,1.364 2.98,3.016 v 28.75 z m 38.844,-28.751 v 26.271 c 0,3.552 -1.874,5.548 -4.854,5.548 h -0.24 c -2.835,0 -4.183,-1.655 -5.384,-4.088 l -6.058,-11.92 -5.384,-12.306 0.144,11.92 0.049,13.28 a 3,3 0 0 1 -0.88,2.16 2.928,2.928 0 0 1 -2.149,0.855 2.916,2.916 0 0 1 -2.121,-0.87 2.987,2.987 0 0 1 -0.86,-2.146 V 38.081 c 0,-3.26 1.875,-5.548 5.146,-5.548 h 0.24 c 3.028,0 4.278,1.655 5.481,4.088 l 5.96,11.823 5.097,11.483 -0.144,-10.996 -0.049,-13.28 c 0,-1.655 1.25,-3.016 3.029,-3.016 a 2.91,2.91 0 0 1 2.12,0.868 c 0.561,0.568 0.87,1.342 0.857,2.145 z m 24.088,28.704 a 3,3 0 0 1 -0.88,2.16 2.928,2.928 0 0 1 -2.149,0.856 2.912,2.912 0 0 1 -2.12,-0.87 2.987,2.987 0 0 1 -0.86,-2.146 V 38.325 h -7.451 c -1.538,0 -2.787,-1.168 -2.787,-2.87 a 2.776,2.776 0 0 1 0.797,-2.013 2.709,2.709 0 0 1 1.99,-0.807 h 20.912 c 1.537,0 2.787,1.169 2.787,2.87 a 2.776,2.776 0 0 1 -0.798,2.013 2.709,2.709 0 0 1 -1.99,0.807 h -7.45 v 26.027 z m 18.077,-0.973 v -27 c 0,-2.529 1.393,-3.939 3.941,-3.843 h 17.308 c 1.537,0 2.787,1.215 2.787,2.87 0,1.655 -1.25,2.82 -2.787,2.82 h -15.29 v 8.368 h 13.51 c 1.492,0 2.692,1.119 2.692,2.724 a 2.676,2.676 0 0 1 -0.768,1.946 2.612,2.612 0 0 1 -1.924,0.778 h -13.51 v 9.633 h 15.29 c 1.537,0 2.787,1.214 2.787,2.87 a 2.776,2.776 0 0 1 -0.798,2.013 2.709,2.709 0 0 1 -1.99,0.807 h -17.45 c -2.5,0.003 -3.893,-1.407 -3.798,-3.986 z m 58.173,0.047 c 0.818,1.41 0.288,3.21 -1.394,4.087 a 3.159,3.159 0 0 1 -4.23,-1.214 l -6.682,-12.503 h -6.346 l 0.049,10.606 a 3,3 0 0 1 -0.88,2.16 2.928,2.928 0 0 1 -2.15,0.855 2.91,2.91 0 0 1 -2.12,-0.869 2.987,2.987 0 0 1 -0.86,-2.146 V 36.379 c 0,-2.529 1.394,-3.939 3.943,-3.843 h 11.393 c 7.837,0 11.105,5.157 11.105,10.41 0,5.012 -2.885,8.709 -7.837,9.682 z m -18.655,-15.13 h 9.519 c 3.222,0 4.903,-2.092 4.903,-5.061 0,-2.97 -1.78,-5.012 -4.952,-5.012 h -9.47 v 10.072 z m 32.884,16.493 c -3.604,-3.26 -5.24,-8.368 -5.24,-14.789 0,-6.471 1.587,-11.529 5.145,-14.74 2.212,-1.946 5.192,-3.26 9.52,-3.26 3.797,0 6.731,0.877 8.942,2.774 1.924,1.556 3.317,3.747 4.135,6.812 0.432,1.605 -0.674,3.21 -2.499,3.551 -1.73,0.292 -3.124,-0.827 -3.654,-2.432 -0.576,-1.556 -1.347,-2.675 -2.26,-3.456 -1.25,-1.119 -2.787,-1.605 -4.809,-1.605 -2.162,0 -4.04,0.632 -5.433,2.042 -2.018,2.042 -2.885,5.693 -2.885,10.314 0,4.574 0.818,8.222 2.934,10.264 1.394,1.41 3.222,2.043 5.335,2.043 2.212,0 3.893,-0.583 5.29,-1.897 a 7.673,7.673 0 0 0 1.78,-2.578 c 0.624,-1.51 1.923,-2.628 3.604,-2.238 1.681,0.39 2.741,2.042 2.211,3.648 -0.866,2.674 -2.355,4.816 -4.373,6.276 -2.212,1.605 -4.953,2.432 -8.414,2.432 -4.422,0 -7.212,-1.314 -9.329,-3.16 z M 320.701,50 c 0,-10.897 4.423,-18 14.857,-18 10.337,0 14.809,6.908 14.809,18 0,11.238 -4.521,18 -14.809,18 -10.48,0 -14.857,-6.762 -14.857,-18 z m 23.51,0 c 0,-8.272 -2.98,-12.307 -8.702,-12.307 -5.626,0 -8.606,4.038 -8.606,12.307 0,8.272 2.885,12.307 8.606,12.307 5.672,0 8.701,-4.038 8.701,-12.307 z M 397,64.352 a 3,3 0 0 1 -0.88,2.16 2.928,2.928 0 0 1 -2.15,0.856 2.914,2.914 0 0 1 -2.12,-0.87 2.987,2.987 0 0 1 -0.86,-2.146 V 51.314 l 0.144,-12.697 -4.183,12.892 -4.23,12.698 c -0.72,2.237 -2.211,3.114 -4.086,3.114 -1.972,0 -3.414,-0.923 -4.183,-3.16 l -4.328,-12.649 -3.99,-12.697 0.143,12.502 v 13.038 a 3,3 0 0 1 -0.88,2.16 2.928,2.928 0 0 1 -2.149,0.856 2.908,2.908 0 0 1 -2.12,-0.87 2.99,2.99 0 0 1 -0.86,-2.146 V 38.33 c 0,-3.602 1.924,-5.694 5.29,-5.694 3.173,0 4.952,1.702 5.96,4.816 l 4.422,13.28 2.692,9.05 2.742,-9.05 4.422,-13.28 c 1.01,-3.114 2.741,-4.816 5.914,-4.816 3.366,0 5.24,2.043 5.24,5.694 L 397,64.353 Z"
       id="path6" />
  </g>
</svg>
