<svg width="130" height="26" viewBox="0 0 130 26" xmlns="http://www.w3.org/2000/svg"><title>Artboard</title><path d="M65.66 23.098c0 .458 0 .562.304.842l1.705 1.706v.073h-7.561v-3.276c-.761 2.159-2.774 3.587-5.014 3.557-3.888 0-6.71-3.12-6.71-8.861 0-5.377 3.046-8.965 7.319-8.965 1.894-.122 3.656.996 4.395 2.787V3.734a.905.905 0 0 0-.346-.874L58.13 1.258v-.072l7.53-.905v22.817zm-5.552-1.04V11.273a2.805 2.805 0 0 0-2.254-1.081c-1.837 0-3.613 1.705-3.613 6.77 0 4.742 1.533 6.417 3.44 6.417a3.025 3.025 0 0 0 2.427-1.321zm10.566 3.66V11.16a.991.991 0 0 0-.305-.874l-1.674-1.768v-.072h7.561v14.767c0 .458 0 .562.305.843l1.664 1.601v.073l-7.551-.01zM70.4 3.12C70.4 1.397 71.763 0 73.445 0c1.681 0 3.045 1.397 3.045 3.12s-1.364 3.12-3.045 3.12c-1.682 0-3.045-1.397-3.045-3.12zm26.258 19.947c0 .457 0 .593.304.873l1.705 1.706v.073h-7.602v-3.734c-.692 2.36-2.801 3.987-5.207 4.015-3.37 0-5.176-2.517-5.176-7.28 0-2.299 0-4.815.07-7.644a.896.896 0 0 0-.304-.843l-1.675-1.716v-.072h7.501v9.495c0 3.12.447 5.2 2.355 5.2a3.038 3.038 0 0 0 2.456-1.57v-10.4a.991.991 0 0 0-.304-.874l-1.685-1.779v-.072h7.562v14.622zm25.74 2.652c0-.562.101-7.717.101-9.36 0-3.12-.477-5.273-2.618-5.273a3.38 3.38 0 0 0-2.69 1.498c.215.972.317 1.967.304 2.964 0 2.163-.07 4.919-.101 7.675-.056.316.06.64.304.842l1.705 1.602v.073h-7.632c0-.52.101-7.717.101-9.36 0-3.172-.477-5.273-2.588-5.273a3.035 3.035 0 0 0-2.517 1.54v10.607c0 .458 0 .562.304.842l1.665 1.602v.073h-7.552V11.21a.991.991 0 0 0-.304-.874l-1.675-1.82v-.072h7.562v3.702c.7-2.444 2.935-4.087 5.42-3.983 2.517 0 4.222 1.435 4.943 4.16.8-2.513 3.104-4.2 5.684-4.16 3.37 0 5.278 2.548 5.278 7.363 0 2.298-.071 4.919-.102 7.675a.841.841 0 0 0 .345.842L130 25.646v.073h-7.602zm-94.993-2.267l2.243 2.194v.073H18.27v-.073l2.284-2.194a.896.896 0 0 0 .304-.843V8.58c0-.592 0-1.393.102-2.08L13.286 26h-.091L5.248 8.06c-.173-.446-.224-.478-.335-.78v11.763a4.176 4.176 0 0 0 .375 2.298l3.197 4.306v.073H0v-.073l3.197-4.316c.338-.71.468-1.504.376-2.288v-13a2.56 2.56 0 0 0-.528-1.778L.782 1.258v-.072h8.12l6.8 15.194L21.69 1.186h7.948v.072l-2.233 2.548a.905.905 0 0 0-.345.874v17.93a.841.841 0 0 0 .345.842zm8.901-7.03v.072c0 4.451 2.243 6.24 4.872 6.24 2.195.077 4.227-1.184 5.177-3.214h.07c-.913 4.4-3.572 6.48-7.55 6.48-4.294 0-8.344-2.652-8.344-8.799 0-6.458 4.06-9.037 8.546-9.037 3.614 0 7.46 1.747 7.46 7.363v.894h-10.23zm0-.895h5.004v-.905c0-4.576-.924-5.793-2.314-5.793-1.685 0-2.71 1.82-2.71 6.698h.02z" fill="#666" fill-rule="nonzero"/></svg>