<?xml version="1.0" encoding="UTF-8"?>
<svg width="235px" height="50px" viewBox="0 0 235 50" version="1.1" xmlns="http://www.w3.org/2000/svg" xmlns:xlink="http://www.w3.org/1999/xlink">
    <!-- Generator: Sketch 40.2 (33826) - http://www.bohemiancoding.com/sketch -->
    <title>Microsoft</title>
    <desc>Created with Sketch.</desc>
    <defs></defs>
    <g id="Page-1" stroke="none" stroke-width="1" fill="none" fill-rule="evenodd">
        <g id="Microsoft" transform="translate(0.819672, 0.000000)">
            <path d="M233.555864,22.5702506 L233.555864,18.4603415 L228.455162,18.4603415 L228.455162,12.0708233 L228.283477,12.1236666 L223.492584,13.5902801 L223.398258,13.6191038 L223.398258,18.4603415 L215.836606,18.4603415 L215.836606,15.7636376 C215.836606,14.507832 216.117327,13.5467621 216.670294,12.9058605 C217.219591,12.2725886 218.005268,11.9507248 219.006993,11.9507248 C219.727432,11.9507248 220.473289,12.1205581 221.223665,12.4554208 L221.411753,12.5393484 L221.411753,8.21100148 L221.323357,8.17850427 C220.623252,7.92672147 219.670667,7.79984103 218.490456,7.79984103 C217.002696,7.79984103 215.650778,8.12368287 214.471979,8.76571487 C213.292333,9.40859462 212.364319,10.3264291 211.714483,11.4935031 C211.066624,12.6591642 210.737893,14.0053968 210.737893,15.4951823 L210.737893,18.4603415 L207.186247,18.4603415 L207.186247,22.5702506 L210.737893,22.5702506 L210.737893,39.8844859 L215.836606,39.8844859 L215.836606,22.5702506 L223.398258,22.5702506 L223.398258,33.5732435 C223.398258,38.1047687 225.534442,40.4013329 229.74722,40.4013329 C230.439701,40.4013329 231.16806,40.3199486 231.912211,40.1608535 C232.669376,39.9978023 233.185065,39.834751 233.488649,39.660679 L233.555864,39.6211171 L233.555864,35.4730592 L233.348571,35.6103952 C233.071805,35.7952055 232.727259,35.945823 232.323135,36.0577265 C231.917294,36.1718906 231.578397,36.2292553 231.316045,36.2292553 C230.328994,36.2292553 229.598964,35.9630607 229.145677,35.4380187 C228.687601,34.9081727 228.455185,33.9812955 228.455185,32.6850804 L228.455185,22.5702506 L233.555864,22.5702506 L233.555864,22.5702506 Z M195.800024,36.2296509 C193.949361,36.2296509 192.490408,35.6155948 191.462136,34.4061331 C190.427651,33.1904545 189.90349,31.4573638 189.90349,29.2554653 C189.90349,26.9837684 190.427651,25.2057467 191.462701,23.9685918 C192.491537,22.7396317 193.936653,22.1159677 195.758509,22.1159677 C197.526425,22.1159677 198.933697,22.7116559 199.941635,23.88749 C200.954938,25.0692584 201.468933,26.8331509 201.468933,29.1314107 C201.468933,31.4579289 200.985439,33.2449934 200.032007,34.4403258 C199.085353,35.6268982 197.661701,36.2296509 195.800024,36.2296509 L195.800024,36.2296509 Z M196.027086,17.9441727 C192.496338,17.9441727 189.691961,18.9792797 187.692748,21.0209528 C185.694665,23.0629084 184.681361,25.8884709 184.681361,29.4202121 C184.681361,32.7744902 185.670377,35.472607 187.621015,37.4382648 C189.571653,39.4047704 192.22635,40.4008808 195.510549,40.4008808 C198.933132,40.4008808 201.681591,39.351362 203.680239,37.2814304 C205.678605,35.213477 206.691061,32.4147601 206.691061,28.9655336 C206.691061,25.5586948 205.741018,22.8405144 203.86635,20.8878555 C201.990835,18.9343488 199.3528,17.9441727 196.027086,17.9441727 L196.027086,17.9441727 Z M176.460694,17.9440596 C174.059041,17.9440596 172.072536,18.5586809 170.55484,19.7706859 C169.028107,20.9897554 168.253726,22.5889012 168.253726,24.5237573 C168.253726,25.5294755 168.420915,26.4230078 168.749928,27.1806168 C169.080918,27.9410517 169.593218,28.6102118 170.273555,29.1719898 C170.949091,29.7292465 171.991201,30.3130661 173.372773,30.9067761 C174.53378,31.3849091 175.399945,31.7895701 175.950089,32.1083254 C176.487806,32.4205813 176.869631,32.7348153 177.085113,33.0405717 C177.294382,33.3398287 177.400853,33.7492937 177.400853,34.2551199 C177.400853,35.6943228 176.323723,36.3945672 174.107051,36.3945672 C173.284942,36.3945672 172.347043,36.2230384 171.319619,35.8842196 C170.29163,35.545966 169.331138,35.059638 168.465255,34.435974 L168.253726,34.2842261 L168.253726,39.1958274 L168.33139,39.2319983 C169.052959,39.5651654 169.962334,39.8460544 171.03438,40.0673181 C172.104449,40.2885817 173.07652,40.4013329 173.921222,40.4013329 C176.527344,40.4013329 178.625967,39.7836032 180.157219,38.5645337 C181.698356,37.3369866 182.479515,35.7002571 182.479515,33.6981459 C182.479515,32.254139 182.058999,31.0155711 181.230112,30.0169175 C180.407156,29.0261762 178.978703,28.1168193 176.985986,27.3128664 C175.398533,26.6753557 174.381558,26.1460749 173.962172,25.740001 C173.557755,25.3474911 173.352439,24.7924952 173.352439,24.0897075 C173.352439,23.4666086 173.605765,22.9675644 174.126255,22.563186 C174.650699,22.1568295 175.380459,21.9502602 176.296047,21.9502602 C177.14555,21.9502602 178.014822,22.0844878 178.879011,22.347574 C179.742917,22.6106602 180.501483,22.9630431 181.134939,23.394267 L181.343078,23.5366896 L181.343078,18.8774363 L181.263155,18.842961 C180.678839,18.5923085 179.908412,18.3778269 178.972772,18.2037548 C178.040804,18.0313783 177.195537,17.9440596 176.460694,17.9440596 L176.460694,17.9440596 Z M154.9616,36.2296509 C153.111502,36.2296509 151.651983,35.6155948 150.623994,34.4061331 C149.589227,33.1904545 149.065913,31.4579289 149.065913,29.2554653 C149.065913,26.9837684 149.589792,25.2057467 150.625124,23.9685918 C151.653113,22.7396317 153.097946,22.1159677 154.92065,22.1159677 C156.688001,22.1159677 158.095273,22.7116559 159.103493,23.88749 C160.116796,25.0692584 160.630791,26.8331509 160.630791,29.1314107 C160.630791,31.4579289 160.147015,33.2449934 159.193583,34.4403258 C158.246929,35.6268982 156.823842,36.2296509 154.9616,36.2296509 L154.9616,36.2296509 Z M155.189226,17.9441727 C151.657632,17.9441727 148.853255,18.9792797 146.854889,21.0209528 C144.856805,23.0629084 143.842937,25.8884709 143.842937,29.4202121 C143.842937,32.7759031 144.832518,35.472607 146.783155,37.4382648 C148.733793,39.4047704 151.388208,40.4008808 154.67269,40.4008808 C158.094425,40.4008808 160.843732,39.351362 162.84238,37.2814304 C164.840181,35.213477 165.853202,32.4147601 165.853202,28.9655336 C165.853202,25.5586948 164.902877,22.8405144 163.027926,20.8878555 C161.151846,18.9343488 158.514376,17.9441727 155.189226,17.9441727 L155.189226,17.9441727 Z M136.103252,22.1703935 L136.103252,18.4603415 L131.06667,18.4603415 L131.06667,39.8839207 L136.103252,39.8839207 L136.103252,28.925011 C136.103252,27.0613662 136.525462,25.5306059 137.358585,24.3742701 C138.181258,23.2317809 139.277592,22.6527653 140.615955,22.6527653 C141.069513,22.6527653 141.578706,22.7276502 142.130262,22.8757244 C142.676169,23.022951 143.07155,23.1826112 143.304824,23.350749 L143.516353,23.5041924 L143.516353,18.4236055 L143.434735,18.3885651 C142.965644,18.1890604 142.302252,18.0884603 141.462634,18.0884603 C140.197134,18.0884603 139.064369,18.495382 138.094275,19.2965091 C137.242795,20.0007097 136.627131,20.9663009 136.156628,22.1703935 L136.103252,22.1703935 L136.103252,22.1703935 Z M122.047337,17.9440596 C119.736903,17.9440596 117.675841,18.4399954 115.922611,19.4171727 C114.165992,20.3966106 112.807578,21.7951213 111.883235,23.5734256 C110.963128,25.3474911 110.496014,27.4196833 110.496014,29.7303768 C110.496014,31.7545296 110.949007,33.6122402 111.844262,35.2492522 C112.740081,36.8890901 114.008122,38.1720238 115.613085,39.0618824 C117.215787,39.9506107 119.068145,40.4013329 121.11904,40.4013329 C123.512504,40.4013329 125.556056,39.9223522 127.194625,38.9782374 L127.26071,38.9400885 L127.26071,34.3232228 L127.049182,34.4777965 C126.306996,35.0186633 125.477544,35.4504524 124.585114,35.7615779 C123.694943,36.0724209 122.883284,36.2295379 122.171881,36.2295379 C120.195544,36.2295379 118.609221,35.6106778 117.457534,34.3910431 C116.303306,33.1694303 115.718143,31.4544249 115.718143,29.2960444 C115.718143,27.1240999 116.328441,25.3650114 117.531245,24.0668181 C118.730095,22.7725811 120.319524,22.1161373 122.254911,22.1161373 C123.910426,22.1161373 125.523578,22.6770675 127.049747,23.7847988 L127.26071,23.9382422 L127.26071,19.0735499 L127.192648,19.0351184 C126.618217,18.7135372 125.835081,18.4479078 124.862445,18.2464251 C123.894328,18.0455075 122.947392,17.9440596 122.047337,17.9440596 L122.047337,17.9440596 Z M107.027229,18.460398 L101.990647,18.460398 L101.990647,39.8839772 L107.027229,39.8839772 L107.027229,18.460398 L107.027229,18.460398 Z M104.560337,9.33376625 C103.73145,9.33376625 103.008469,9.61606817 102.414551,10.1755855 C101.818091,10.7367983 101.515343,11.4432596 101.515343,12.2768839 C101.515343,13.0975093 101.81442,13.7909717 102.404949,14.3372075 C102.991806,14.8817479 103.717047,15.1578329 104.560337,15.1578329 C105.403345,15.1578329 106.13141,14.8817479 106.725327,14.3380553 C107.323199,13.7909717 107.62623,13.0975093 107.62623,12.2768839 C107.62623,11.4723658 107.331389,10.7729691 106.749898,10.1981923 C106.169253,9.6245457 105.432433,9.33376625 104.560337,9.33376625 L104.560337,9.33376625 Z M91.9940438,16.8797899 L91.9940438,39.8838642 L97.1339896,39.8838642 L97.1339896,9.98981444 L90.0202481,9.98981444 L80.9778972,32.1941746 L72.2029929,9.98981444 L64.799494,9.98981444 L64.799494,39.8838642 L69.629631,39.8838642 L69.629631,16.8775292 L69.7956908,16.8775292 L79.0617141,39.8838642 L82.7068394,39.8838642 L91.8282664,16.8797899 L91.9940438,16.8797899 L91.9940438,16.8797899 Z" id="path5056" fill="#777777"></path>
            <polygon id="path5058" fill="#7E7E7E" points="23.6928911 23.7071446 0 23.7071446 0 0 23.6928911 0"></polygon>
            <polygon id="path5060" fill="#969696" points="49.8526738 23.7071446 26.1600651 23.7071446 26.1600651 0 49.8526738 0"></polygon>
            <polygon id="path5062" fill="#7E7E7E" points="23.6923263 49.8919901 0 49.8919901 0 26.1848455 23.6923263 26.1848455"></polygon>
            <polygon id="path5064" fill="#BBBBBB" points="49.8526738 49.8919901 26.1600651 49.8919901 26.1600651 26.1848455 49.8526738 26.1848455"></polygon>
        </g>
    </g>
</svg>