<svg width="144" height="31" viewBox="0 0 144 31" xmlns="http://www.w3.org/2000/svg"><title>Microsoft</title><path d="M144.137 13.89v-2.53h-3.14V7.428l-.105.033-2.948.904-.058.018v2.98h-4.654V9.7c0-.772.173-1.364.513-1.758.338-.39.822-.588 1.438-.588.444 0 .903.105 1.364.31l.116.053V5.053l-.054-.02c-.433-.155-1.02-.233-1.745-.233-.916 0-1.748.2-2.473.594a4.227 4.227 0 0 0-1.697 1.68c-.4.716-.6 1.545-.6 2.46v1.826h-2.187v2.53h2.185v10.654h3.137V13.89h4.654v6.77c0 2.79 1.314 4.202 3.907 4.202a6.4 6.4 0 0 0 1.333-.148c.466-.1.783-.2.97-.307l.042-.025V21.83l-.128.084c-.17.114-.383.207-.632.275-.25.07-.458.104-.62.104-.607 0-1.056-.164-1.335-.487-.282-.326-.425-.896-.425-1.694V13.89h3.14zm-23.235 8.405c-1.14 0-2.037-.378-2.67-1.122-.636-.748-.958-1.815-.958-3.17 0-1.398.322-2.492.96-3.253.632-.756 1.52-1.14 2.643-1.14 1.088 0 1.954.366 2.574 1.09.625.727.94 1.813.94 3.227 0 1.432-.296 2.53-.883 3.267-.582.73-1.458 1.1-2.604 1.1zm.14-11.252c-2.173 0-3.9.637-5.13 1.893-1.23 1.257-1.852 2.995-1.852 5.17 0 2.063.61 3.723 1.81 4.933 1.2 1.21 2.833 1.82 4.854 1.82 2.106 0 3.798-.645 5.028-1.92 1.23-1.27 1.852-2.993 1.852-5.116 0-2.097-.584-3.77-1.738-4.97-1.154-1.203-2.778-1.812-4.824-1.812zm-12.04 0c-1.48 0-2.7.378-3.635 1.124-.94.75-1.416 1.734-1.416 2.925 0 .618.104 1.168.307 1.635.204.467.52.88.938 1.225.415.343 1.057.702 1.907 1.068.715.294 1.248.543 1.587.74.33.19.565.385.697.573.13.184.195.436.195.747 0 .886-.663 1.317-2.027 1.317-.506 0-1.083-.106-1.716-.314a6.447 6.447 0 0 1-1.757-.892l-.13-.09v3.022l.048.023c.445.205 1.005.378 1.665.514a8.92 8.92 0 0 0 1.776.204c1.605 0 2.897-.38 3.84-1.13.947-.755 1.43-1.763 1.43-2.995 0-.89-.26-1.65-.77-2.266-.507-.61-1.386-1.17-2.613-1.664-.977-.392-1.602-.718-1.86-.968-.25-.242-.376-.583-.376-1.016 0-.383.157-.69.477-.94.323-.25.772-.376 1.336-.376.522 0 1.057.082 1.59.244.53.162.998.38 1.387.644l.13.088V11.62l-.05-.02c-.36-.157-.834-.29-1.41-.396a8.636 8.636 0 0 0-1.546-.16zM95.77 22.293c-1.14 0-2.038-.377-2.67-1.12-.637-.75-.96-1.815-.96-3.17 0-1.4.323-2.493.96-3.254.633-.757 1.522-1.14 2.644-1.14 1.087 0 1.953.365 2.574 1.09.623.726.94 1.812.94 3.226 0 1.432-.298 2.53-.885 3.267-.582.73-1.458 1.1-2.604 1.1zm.14-11.25c-2.174 0-3.9.636-5.13 1.892-1.23 1.257-1.853 2.995-1.853 5.17 0 2.064.608 3.723 1.808 4.933 1.2 1.21 2.834 1.822 4.855 1.822 2.106 0 3.798-.646 5.028-1.92 1.23-1.272 1.853-2.994 1.853-5.117 0-2.097-.583-3.77-1.737-4.97-1.155-1.203-2.778-1.812-4.824-1.812zm-11.746 2.6V11.36h-3.1v13.184h3.1V17.8c0-1.147.26-2.09.772-2.8.506-.704 1.18-1.06 2.005-1.06.28 0 .593.046.933.137.336.09.58.19.722.293l.13.094v-3.126l-.05-.022c-.288-.123-.697-.185-1.213-.185-.78 0-1.476.253-2.073.746-.524.433-.903 1.027-1.19 1.768h-.035zm-8.65-2.6c-1.422 0-2.69.304-3.77.905a6.106 6.106 0 0 0-2.485 2.557c-.566 1.09-.854 2.367-.854 3.79 0 1.244.28 2.387.83 3.395a5.834 5.834 0 0 0 2.32 2.346c.986.547 2.126.824 3.388.824 1.473 0 2.73-.294 3.738-.875l.04-.024v-2.84l-.13.095c-.456.333-.966.6-1.515.79-.548.19-1.048.288-1.485.288-1.217 0-2.193-.38-2.902-1.13-.71-.753-1.07-1.808-1.07-3.137 0-1.336.377-2.42 1.117-3.218.738-.796 1.716-1.2 2.907-1.2 1.018 0 2.01.345 2.95 1.027l.13.094v-2.99l-.042-.024c-.353-.198-.835-.36-1.434-.485a8.56 8.56 0 0 0-1.732-.187zm-9.243.316h-3.1v13.183h3.1V11.36zm-1.517-5.617c-.51 0-.955.174-1.32.518a1.71 1.71 0 0 0-.554 1.294c0 .505.184.932.547 1.268.36.335.808.505 1.327.505.518 0 .966-.17 1.332-.505.368-.336.554-.763.554-1.268 0-.495-.18-.925-.538-1.28-.357-.352-.81-.53-1.347-.53zm-7.733 4.644v14.156h3.163V6.148h-4.378L50.24 19.812l-5.4-13.664h-4.556v18.396h2.973V10.386h.1l5.703 14.158h2.243l5.614-14.156h.102zM14.99 14.59H.41V0h14.58zm16.098 0h-14.58V0h14.58zM14.99 30.703H.41v-14.59h14.58zm16.098 0h-14.58v-14.59h14.58z" fill="#616161" fill-rule="evenodd"/></svg>