<svg width="235" height="50" viewBox="0 0 235 50" xmlns="http://www.w3.org/2000/svg"><title>Microsoft</title><g fill="none" fill-rule="evenodd"><path d="M234.376 22.57v-4.11h-5.101v-6.39l-.172.054-4.79 1.466-.095.03v4.84h-7.562v-2.696c0-1.256.281-2.217.834-2.858.55-.633 1.335-.955 2.337-.955.72 0 1.466.17 2.216.504l.188.084V8.211l-.088-.032c-.7-.252-1.653-.38-2.833-.38-1.488 0-2.84.325-4.018.967a6.869 6.869 0 0 0-2.758 2.728c-.648 1.165-.976 2.511-.976 4.001v2.965h-3.552v4.11h3.552v17.314h5.098V22.57h7.562v11.003c0 4.532 2.136 6.828 6.349 6.828a10.4 10.4 0 0 0 2.165-.24c.757-.163 1.273-.326 1.576-.5l.068-.04v-4.148l-.208.137a3.553 3.553 0 0 1-1.025.448c-.406.114-.745.171-1.007.171-.987 0-1.717-.266-2.17-.791-.459-.53-.691-1.457-.691-2.753V22.57h5.1zM196.62 36.23c-1.851 0-3.31-.614-4.338-1.824-1.035-1.216-1.559-2.949-1.559-5.15 0-2.272.524-4.05 1.56-5.287 1.028-1.23 2.473-1.853 4.295-1.853 1.768 0 3.175.596 4.183 1.771 1.014 1.182 1.528 2.946 1.528 5.244 0 2.327-.484 4.114-1.437 5.31-.947 1.186-2.37 1.789-4.232 1.789zm.227-18.286c-3.531 0-6.335 1.035-8.335 3.077-1.998 2.042-3.011 4.867-3.011 8.4 0 3.353.989 6.052 2.94 8.017 1.95 1.967 4.605 2.963 7.89 2.963 3.422 0 6.17-1.05 8.169-3.12 1.998-2.068 3.01-4.866 3.01-8.315 0-3.407-.95-6.125-2.824-8.078-1.875-1.954-4.514-2.944-7.84-2.944zm-19.567 0c-2.401 0-4.388.615-5.905 1.827-1.527 1.219-2.302 2.818-2.302 4.753 0 1.005.168 1.899.497 2.657.33.76.843 1.43 1.523 1.991.676.557 1.718 1.141 3.1 1.735 1.16.478 2.027.883 2.577 1.201.537.313.92.627 1.135.933.21.299.316.708.316 1.214 0 1.44-1.078 2.14-3.294 2.14-.822 0-1.76-.172-2.788-.51a10.477 10.477 0 0 1-2.854-1.449l-.212-.152v4.912l.078.036c.722.333 1.631.614 2.703.835 1.07.222 2.042.334 2.887.334 2.606 0 4.705-.617 6.236-1.836 1.541-1.228 2.322-2.865 2.322-4.867 0-1.444-.42-2.682-1.25-3.681-.822-.99-2.25-1.9-4.243-2.704-1.588-.638-2.605-1.167-3.024-1.573-.405-.393-.61-.948-.61-1.65 0-.623.253-1.122.774-1.527.524-.406 1.254-.613 2.17-.613.85 0 1.718.134 2.583.398.864.263 1.622.615 2.256 1.046l.208.143v-4.66l-.08-.034c-.584-.25-1.355-.465-2.29-.64-.933-.172-1.778-.259-2.513-.259zM155.781 36.23c-1.85 0-3.31-.614-4.337-1.824-1.035-1.216-1.558-2.948-1.558-5.15 0-2.272.523-4.05 1.559-5.287 1.028-1.23 2.473-1.853 4.295-1.853 1.768 0 3.175.596 4.183 1.771 1.013 1.182 1.527 2.946 1.527 5.244 0 2.327-.483 4.114-1.437 5.31-.946 1.186-2.37 1.789-4.232 1.789zm.228-18.286c-3.532 0-6.336 1.035-8.334 3.077-1.999 2.042-3.012 4.867-3.012 8.4 0 3.355.99 6.052 2.94 8.017 1.95 1.967 4.605 2.963 7.89 2.963 3.421 0 6.17-1.05 8.17-3.12 1.997-2.068 3.01-4.866 3.01-8.315 0-3.407-.95-6.125-2.825-8.078-1.876-1.954-4.514-2.944-7.84-2.944zm-19.086 4.226v-3.71h-5.037v21.424h5.037V28.925c0-1.864.422-3.394 1.255-4.55.823-1.143 1.92-1.722 3.258-1.722.453 0 .962.075 1.514.223.546.147.941.307 1.174.475l.212.153v-5.08l-.082-.035c-.469-.2-1.132-.3-1.972-.3a5.16 5.16 0 0 0-3.368 1.208c-.852.704-1.467 1.67-1.938 2.873h-.053zm-14.056-4.226c-2.31 0-4.371.496-6.125 1.473a9.922 9.922 0 0 0-4.04 4.156c-.92 1.774-1.386 3.847-1.386 6.157 0 2.025.453 3.882 1.348 5.52.896 1.64 2.164 2.922 3.769 3.812 1.602.889 3.455 1.34 5.506 1.34 2.393 0 4.437-.48 6.075-1.424l.066-.038v-4.617l-.211.155a9.47 9.47 0 0 1-2.464 1.284c-.89.31-1.702.468-2.413.468-1.977 0-3.563-.62-4.715-1.839-1.154-1.222-1.74-2.937-1.74-5.095 0-2.172.611-3.931 1.814-5.23 1.199-1.293 2.788-1.95 4.724-1.95 1.655 0 3.268.561 4.794 1.669l.211.153v-4.864l-.068-.039c-.574-.321-1.357-.587-2.33-.789a13.91 13.91 0 0 0-2.815-.302zm-15.02.516h-5.037v21.424h5.037V18.46zm-2.467-9.126c-.829 0-1.552.282-2.146.842-.596.56-.899 1.267-.899 2.1 0 .822.3 1.515.89 2.061.586.545 1.312.82 2.155.82.843 0 1.571-.275 2.165-.819.598-.547.9-1.24.9-2.061a2.83 2.83 0 0 0-.875-2.079c-.581-.573-1.318-.864-2.19-.864zM92.814 16.88v23.004h5.14V9.99H90.84l-9.042 22.204L73.023 9.99h-7.404v29.894h4.83V16.878h.166l9.266 23.006h3.646l9.12-23.004h.167z" fill="#777"/><path fill="#7E7E7E" d="M24.513 23.707H.82V0h23.693z"/><path fill="#969696" d="M50.672 23.707H26.98V0h23.692z"/><path fill="#7E7E7E" d="M24.512 49.892H.82V26.185h23.692z"/><path fill="#BBB" d="M50.672 49.892H26.98V26.185h23.692z"/></g></svg>