<?xml version="1.0" encoding="UTF-8" standalone="no"?>
<svg width="9615px" height="5968px" viewBox="0 0 9615 5968" version="1.1" xmlns="http://www.w3.org/2000/svg" xmlns:xlink="http://www.w3.org/1999/xlink">
    <!-- Generator: Sketch 40.3 (33839) - http://www.bohemiancoding.com/sketch -->
    <title>Group 3</title>
    <desc>Created with Sketch.</desc>
    <defs></defs>
    <g id="z" stroke="none" stroke-width="1" fill="none" fill-rule="evenodd">
        <g id="Group-3">
            <ellipse id="Oval" fill="#FFFFFF" cx="4913.34018" cy="1124.34018" rx="681.340183" ry="681.340183"></ellipse>
            <polygon id="Shape" fill="#58595B" points="1142.0956 4877.76826 1142.0956 4082.28055 889.074495 4641.67431 667.869358 4641.67431 414.759633 4082.28055 414.759633 4877.76826 0 4877.76826 0 3367.70642 453.045138 3367.70642 778.471927 4078.20385 1105.93706 3367.70642 1556.94385 3367.70642 1556.94385 4877.76826"></polygon>
            <polygon id="Shape" fill="#58595B" points="1772.47706 4877.76826 1772.47706 3367.70642 2187.2367 3367.70642 2187.2367 4877.76826"></polygon>
            <polygon id="Shape" fill="#58595B" points="2896.31615 4135.54349 2896.31615 4877.76826 2481.46789 4877.76826 2481.46789 3367.70642 2804.76771 3367.70642 3410.95486 4135.54349 3410.95486 3367.70642 3825.7145 3367.70642 3825.7145 4877.76826 3496.03376 4877.76826"></polygon>
            <path d="M4076.69725,4877.76826 L4076.69725,3367.70642 L4657.36073,3367.70642 C4782.14312,3367.70642 4891.94807,3387.64679 4987.04147,3427.26165 C5082.13486,3466.87651 5161.45321,3520.93706 5225.26239,3588.91156 C5289.07156,3656.97468 5337.28294,3736.73615 5369.89651,3828.10734 C5402.51009,3919.56716 5418.81688,4017.14202 5418.81688,4120.65468 C5418.81688,4235.42257 5400.73761,4339.37835 5364.57908,4432.25615 C5328.50917,4525.22257 5277.10734,4604.45229 5210.4622,4670.47706 C5143.81706,4736.50183 5063.7011,4787.46055 4970.11431,4823.70771 C4876.4389,4859.95486 4772.30587,4877.85688 4657.44936,4877.85688 L4076.69725,4877.76826 L4076.69725,4877.76826 L4076.69725,4877.76826 Z M4997.67633,4120.65468 C4997.67633,4062.51743 4989.87743,4009.34312 4974.27963,3961.04312 C4958.59321,3912.92037 4936.26,3871.71028 4907.28,3837.59009 C4878.21138,3803.55853 4842.40734,3776.88275 4799.77927,3757.91725 C4757.32844,3738.86312 4709.73743,3729.29174 4657.36073,3729.29174 L4491.45688,3729.29174 L4491.45688,4516.18294 L4657.36073,4516.18294 C4711.15541,4516.18294 4759.45541,4506.43431 4801.99486,4486.40532 C4844.53431,4466.6422 4880.33835,4438.99156 4909.40697,4403.45339 C4938.4756,4367.91523 4960.45431,4326.26202 4975.34312,4277.96202 C4990.23193,4229.92789 4997.67633,4177.37394 4997.67633,4120.65468 L4997.67633,4120.65468 Z" id="Shape" fill="#58595B"></path>
            <polygon id="Shape" fill="#58595B" points="6659.55083 4516.18294 6659.55083 4877.76826 5583.30275 4877.76826 5583.30275 3367.70642 6640.40807 3367.70642 6640.40807 3729.29174 5998.06239 3729.29174 5998.06239 3941.90037 6546.82128 3941.90037 6546.82128 4277.96202 5998.06239 4277.96202 5998.06239 4516.18294 6659.55083 4516.18294"></polygon>
            <path d="M6824.0367,4877.76826 L6824.0367,3367.70642 L7517.3411,3367.70642 C7591.07615,3367.70642 7659.22789,3382.94972 7721.61908,3413.52495 C7783.92165,3444.01156 7837.53908,3483.71505 7882.2055,3532.63541 C7926.87193,3581.6444 7961.96697,3637.65468 7987.49064,3700.66624 C8012.92569,3763.76642 8025.77615,3827.30972 8025.77615,3890.94165 C8025.77615,3978.94514 8006.63339,4060.83358 7968.34789,4136.51835 C7930.06239,4212.29174 7876.9767,4274.59431 7808.82495,4322.71706 L8149.14055,4877.85688 L7681.29523,4877.85688 L7394.15394,4414.35413 L7238.88495,4414.35413 L7238.88495,4877.85688 L6824.0367,4877.85688 L6824.0367,4877.76826 Z M7238.79633,4052.59156 L7500.41394,4052.59156 C7525.93761,4052.59156 7549.68881,4038.50037 7571.66752,4010.14073 C7593.64624,3981.7811 7604.6356,3941.98899 7604.6356,3890.94165 C7604.6356,3838.56495 7591.78514,3798.41835 7566.35009,3770.76771 C7540.82642,3743.11706 7515.30275,3729.38037 7489.77908,3729.38037 L7238.79633,3729.38037 L7238.79633,4052.59156 L7238.79633,4052.59156 Z" id="Shape" fill="#58595B"></path>
            <path d="M8153.3945,4877.76826 L8717.0422,3367.70642 L9053.10385,3367.70642 L9614.62459,4877.76826 L9176.46826,4877.76826 L9085.00844,4582.11908 L8683.01064,4582.11908 L8593.6778,4877.76826 L8153.3945,4877.76826 L8153.3945,4877.76826 Z M8885.07303,3799.39321 L8744.69284,4305.70128 L9019.07229,4305.70128 L8885.07303,3799.39321 L8885.07303,3799.39321 Z" id="Shape" fill="#58595B"></path>
            <path d="M2383.8044,5924.94771 C2351.98844,5924.94771 2321.32459,5919.63028 2292.16734,5908.99541 C2262.92147,5898.44917 2237.3978,5882.40826 2215.59633,5861.22716 L2235.5367,5834.01963 C2257.86991,5854.3145 2281.08936,5869.11468 2304.92917,5878.68606 C2328.76899,5888.25743 2355.1789,5893.04312 2383.89303,5893.04312 C2420.05156,5893.04312 2449.12018,5885.42147 2471.18752,5870.35541 C2493.25486,5855.11211 2504.33284,5834.01963 2504.33284,5806.72349 C2504.33284,5793.96165 2501.5855,5783.23817 2496.0022,5774.64165 C2490.4189,5765.69064 2481.99963,5758.24624 2470.83303,5752.30844 C2459.66642,5746.19339 2445.8411,5740.69872 2429.35706,5735.73578 C2412.7844,5730.95009 2393.73028,5726.07578 2371.92881,5720.66972 C2348.53211,5715.26367 2328.23725,5709.94624 2310.9556,5704.62881 C2293.67394,5699.22275 2279.49413,5692.93046 2268.32752,5685.48606 C2257.16092,5678.04165 2248.83028,5668.91339 2243.24697,5658.18991 C2237.75229,5647.64367 2234.82771,5634.17284 2234.82771,5617.51156 C2234.82771,5596.95083 2238.81578,5578.69431 2246.79193,5563.45101 C2254.76807,5547.94183 2265.75743,5535.26862 2279.93725,5525.07688 C2294.02844,5514.97376 2310.24661,5507.44073 2328.59174,5502.30055 C2346.93688,5497.16037 2366.52275,5494.6789 2387.26073,5494.6789 C2419.69706,5494.6789 2448.41119,5500.17358 2473.49174,5511.07431 C2498.39505,5521.97505 2517.89229,5535.97761 2531.62899,5553.08202 L2509.29578,5574.61761 C2495.55908,5558.48807 2477.56844,5546.7011 2455.58972,5538.72495 C2433.52239,5530.74881 2409.85982,5526.76073 2384.95651,5526.76073 C2369.44734,5526.76073 2355.09028,5528.35596 2341.53083,5531.54642 C2327.97138,5534.73688 2316.09578,5539.78844 2306.08128,5546.7011 C2296.06679,5553.61376 2288.00202,5562.56477 2282.15284,5573.4655 C2276.30367,5584.36624 2273.29046,5597.39394 2273.29046,5612.28275 C2273.29046,5624.60147 2275.24018,5634.35009 2279.22826,5641.7945 C2283.21633,5649.2389 2289.59725,5655.61982 2298.37101,5660.93725 C2307.23339,5666.3433 2318.48862,5670.95174 2332.22532,5674.93982 C2346.05064,5678.92789 2362.6233,5683.27046 2381.76606,5687.96752 C2407.82147,5694.25982 2430.95229,5700.55211 2451.15853,5706.31266 C2471.36477,5712.07321 2488.2033,5719.25174 2501.76275,5727.75963 C2515.3222,5736.26752 2525.77982,5746.45927 2532.95835,5758.06899 C2540.13688,5769.85596 2543.68183,5784.74477 2543.68183,5802.73541 C2543.68183,5839.95743 2529.14752,5869.82367 2500.25615,5891.71376 C2470.92165,5913.95835 2432.19303,5924.94771 2383.8044,5924.94771 L2383.8044,5924.94771 Z" id="Shape" fill="#939598"></path>
            <path d="M2861.48697,5924.23872 C2832.2411,5924.23872 2805.21083,5918.65541 2780.48477,5907.22294 C2755.75872,5895.79046 2734.31174,5880.28128 2716.14385,5860.69541 C2698.15321,5840.93229 2684.06202,5818.24459 2673.87028,5792.18917 C2663.67853,5766.13376 2658.7156,5738.66037 2658.7156,5709.94624 C2658.7156,5680.70037 2663.9444,5652.9611 2674.31339,5626.90569 C2684.68239,5600.85028 2699.03945,5577.98532 2717.38459,5558.31083 C2735.72972,5538.72495 2757.08807,5523.21578 2781.63688,5511.87193 C2806.18569,5500.52807 2832.68422,5494.6789 2861.39835,5494.6789 C2890.11248,5494.6789 2916.78826,5500.43945 2941.42569,5511.87193 C2966.15174,5523.3044 2987.68734,5538.9022 3006.03248,5558.31083 C3024.37761,5578.16257 3038.73468,5600.85028 3049.10367,5626.90569 C3059.38404,5652.9611 3064.61284,5680.52312 3064.61284,5709.94624 C3064.61284,5738.66037 3059.29541,5766.13376 3049.10367,5792.18917 C3038.73468,5818.24459 3024.46624,5841.10954 3006.38697,5860.69541 C2988.30771,5880.45853 2966.77211,5895.79046 2941.78018,5907.22294 C2917.05413,5918.47817 2890.2011,5924.23872 2861.48697,5924.23872 L2861.48697,5924.23872 Z M2699.57119,5711.2756 C2699.57119,5735.55853 2703.82514,5758.68936 2712.33303,5780.13633 C2720.92954,5801.67193 2732.53927,5820.37156 2747.1622,5836.5011 C2761.78514,5852.45339 2778.80092,5864.94936 2798.65266,5874.34349 C2818.32716,5883.56037 2839.33101,5888.34606 2861.66422,5888.34606 C2883.99743,5888.34606 2905.00128,5883.56037 2924.67578,5874.34349 C2944.35028,5865.12661 2961.5433,5852.18752 2976.16624,5835.61486 C2990.78917,5819.13083 3002.48752,5800.25394 3011.26128,5778.45248 C3020.12367,5757.0055 3024.37761,5733.69743 3024.37761,5708.7055 C3024.37761,5684.33394 3020.03505,5661.29174 3011.26128,5639.75615 C3002.48752,5618.30917 2990.8778,5599.34367 2976.16624,5583.1255 C2961.45468,5566.90734 2944.35028,5553.96826 2924.67578,5544.39688 C2905.00128,5534.8255 2883.99743,5530.03982 2861.66422,5530.03982 C2839.86275,5530.03982 2819.12477,5534.91413 2799.45028,5544.39688 C2779.77578,5553.79101 2762.49413,5566.99596 2747.60532,5583.39138 C2732.71651,5599.96404 2721.01817,5619.01817 2712.51028,5641.17413 C2704.00239,5663.33009 2699.57119,5686.90404 2699.57119,5711.2756 L2699.57119,5711.2756 Z" id="Shape" fill="#939598"></path>
            <path d="M3160.06073,5907.66606 L3160.06073,5574.26312 L3101.83486,5574.26312 L3101.83486,5541.56092 L3160.06073,5541.56092 L3160.06073,5479.4356 C3160.06073,5428.38826 3170.60697,5388.68477 3191.61083,5360.14789 C3212.52606,5331.69963 3241.41743,5317.43119 3278.10771,5317.43119 C3293.52826,5317.43119 3308.68294,5319.82404 3323.57174,5324.69835 C3338.46055,5329.57266 3350.77927,5335.77633 3360.26202,5343.92972 L3345.90495,5372.46661 C3338.46055,5366.79468 3329.24367,5362.00899 3318.34294,5358.10954 C3307.4422,5354.47596 3296.18697,5352.61486 3284.48862,5352.61486 C3257.2811,5352.61486 3236.4545,5363.33835 3221.83156,5384.96257 C3207.20862,5406.40954 3199.85284,5437.78239 3199.85284,5478.63798 L3199.85284,5541.64954 L3317.89982,5541.64954 L3317.89982,5574.35174 L3199.85284,5574.35174 L3199.85284,5907.75468 L3160.06073,5907.66606 L3160.06073,5907.66606 L3160.06073,5907.66606 Z" id="Shape" fill="#939598"></path>
            <path d="M3594.84936,5942.84972 C3592.72239,5943.91321 3589.17743,5945.95156 3584.12587,5948.6989 C3578.98569,5951.62349 3572.69339,5954.45945 3564.8945,5957.20679 C3557.18422,5959.77688 3548.49908,5962.25835 3539.01633,5964.38532 C3529.6222,5966.42367 3519.07596,5967.57578 3507.90936,5967.57578 C3496.74275,5967.57578 3486.19651,5965.89193 3476.53651,5962.61284 C3466.69927,5959.51101 3458.10275,5954.6367 3450.65835,5948.25578 C3443.21394,5942.05211 3437.27615,5934.34183 3432.66771,5925.21358 C3428.05927,5916.08532 3425.93229,5905.45046 3425.93229,5893.22037 L3425.93229,5580.73266 L3367.70642,5580.73266 L3367.70642,5548.03046 L3425.93229,5548.03046 L3425.93229,5406.05505 L3465.81303,5406.05505 L3465.81303,5548.03046 L3563.12202,5548.03046 L3563.12202,5580.73266 L3465.63578,5580.73266 L3465.63578,5883.82624 C3465.63578,5899.24679 3470.95321,5910.85651 3481.58807,5918.56679 C3492.22294,5926.27706 3504.45303,5930.08789 3518.27835,5930.08789 C3534.76239,5930.08789 3549.03083,5927.42917 3560.8178,5921.75725 C3572.78202,5916.26257 3580.1378,5912.54037 3582.79651,5911.03376 L3594.84936,5942.84972 L3594.84936,5942.84972 Z" id="Shape" fill="#939598"></path>
            <polygon id="Shape" fill="#939598" points="4206.35394 5494.6789 4246.23468 5494.6789 4066.77138 5909.43853 4033.27156 5909.43853 3939.95064 5690.0945 3846.62972 5909.43853 3812.33229 5909.43853 3633.57798 5494.6789 3672.6611 5494.6789 3831.38642 5865.65835 3918.2378 5661.38037 3847.25009 5495.56514 3882.34514 5495.56514 3939.68477 5632.66624 3996.31541 5495.56514 4031.41046 5495.56514 3961.22037 5661.38037 4048.16037 5865.65835"></polygon>
            <path d="M4391.04606,5924.68183 C4371.81468,5924.68183 4354.00128,5921.49138 4337.25138,5914.93321 C4320.59009,5908.1978 4305.87853,5899.15817 4293.38257,5887.63706 C4280.88661,5876.20459 4271.22661,5862.82239 4264.22532,5846.95872 C4257.31266,5831.27229 4253.94495,5814.52239 4253.94495,5796.44312 C4253.94495,5778.36385 4258.1989,5761.79119 4266.70679,5746.90239 C4275.21468,5732.01358 4287.00165,5719.16312 4302.59945,5708.08514 C4318.02,5697.1844 4336.18789,5688.67651 4357.19174,5682.65009 C4378.1956,5676.53505 4401.50367,5673.43321 4426.93872,5673.43321 C4449.27193,5673.43321 4471.95963,5675.29431 4494.82459,5679.28239 C4517.68954,5683.35908 4538.07303,5688.76514 4556.15229,5695.76642 L4556.15229,5655.08807 C4556.15229,5615.82771 4544.98569,5584.45486 4522.65248,5561.32404 C4500.31927,5538.19321 4470.00991,5526.58349 4431.81303,5526.58349 C4411.07505,5526.58349 4389.3622,5530.83743 4366.85174,5539.43394 C4344.25266,5547.94183 4321.47633,5560.0833 4298.61138,5576.12422 L4282.57046,5548.9167 C4336.27651,5512.75817 4386.88073,5494.6789 4434.11725,5494.6789 C4484.1011,5494.6789 4523.71596,5509.12459 4552.51872,5538.19321 C4581.49872,5567.08459 4596.03303,5606.96532 4596.03303,5658.18991 L4596.03303,5860.87266 C4596.03303,5874.07761 4601.61633,5880.90165 4612.78294,5880.90165 L4612.78294,5916.61706 C4610.12422,5917.14881 4607.4655,5917.59193 4605.24991,5917.59193 L4598.42587,5917.59193 C4588.8545,5917.59193 4580.08073,5914.31284 4572.10459,5907.57743 C4564.12844,5901.01927 4560.05174,5892.33413 4560.05174,5881.69927 L4560.05174,5847.22459 C4540.90899,5872.30514 4516.62606,5891.44789 4487.11431,5904.65284 C4457.69119,5918.12367 4425.60936,5924.68183 4391.04606,5924.68183 L4391.04606,5924.68183 Z M4399.0222,5892.77725 C4429.8633,5892.77725 4458.31156,5887.10532 4484.36697,5875.67284 C4510.33376,5864.24037 4529.83101,5848.64257 4542.59284,5829.0567 C4551.63248,5818.51046 4556.06367,5807.8756 4556.06367,5797.24073 L4556.06367,5723.68294 C4515.65119,5708.79413 4474.17523,5701.34972 4431.7244,5701.34972 C4390.15982,5701.34972 4356.66,5709.85761 4331.13633,5726.87339 C4305.70128,5743.80055 4292.85083,5766.22239 4292.85083,5793.87303 C4292.85083,5807.69835 4295.50954,5820.81468 4300.82697,5832.95615 C4306.23303,5845.09761 4313.67743,5855.73248 4323.16018,5864.32899 C4332.73156,5873.01413 4343.98679,5880.01541 4357.10312,5884.97835 C4370.21945,5890.29578 4384.13339,5892.77725 4399.0222,5892.77725 L4399.0222,5892.77725 Z" id="Shape" fill="#939598"></path>
            <path d="M4893.18881,5532.16679 C4855.43505,5533.3189 4822.73284,5544.21963 4795.17083,5565.31211 C4767.52018,5586.13872 4748.11156,5615.11872 4736.94495,5651.89761 L4736.94495,5911.03376 L4697.06422,5911.03376 L4697.06422,5496.27413 L4734.55211,5496.27413 L4734.55211,5598.36881 C4748.90917,5569.12294 4767.87468,5545.1945 4791.62587,5526.84936 C4815.28844,5508.50422 4840.72349,5498.04661 4867.75376,5495.47651 C4873.15982,5495.47651 4877.85688,5495.38789 4882.11083,5495.03339 C4886.36477,5494.85615 4890.08697,5494.6789 4893.27743,5494.6789 L4893.27743,5532.16679 L4893.18881,5532.16679 Z" id="Shape" fill="#939598"></path>
            <path d="M5167.92275,5924.41596 C5138.67688,5924.41596 5111.55798,5918.83266 5086.56606,5907.40018 C5061.57413,5895.96771 5039.94991,5880.19266 5021.60477,5860.42954 C5003.25963,5840.40055 4988.90257,5817.44697 4978.6222,5791.48018 C4968.25321,5765.33615 4962.93578,5737.59688 4962.93578,5707.81927 C4962.93578,5678.57339 4968.25321,5650.92275 4978.6222,5625.13321 C4988.90257,5599.34367 5003.08239,5576.74459 5021.16165,5557.24734 C5039.24092,5537.83872 5060.77651,5522.59541 5085.76844,5511.42881 C5110.67174,5500.2622 5137.61339,5494.6789 5166.2389,5494.6789 C5195.48477,5494.6789 5222.60367,5500.43945 5247.2411,5511.87193 C5271.96716,5523.3044 5293.41413,5538.72495 5311.58202,5558.04495 C5329.74991,5577.36495 5343.75248,5600.22991 5354.12147,5626.01945 C5364.49046,5651.80899 5369.63064,5679.01651 5369.63064,5707.73064 C5369.63064,5710.21211 5369.54202,5713.57982 5369.27615,5717.56789 C5369.01028,5721.55596 5368.92165,5724.03743 5368.92165,5725.10092 L5004.50037,5725.10092 C5006.0956,5749.11798 5011.6789,5771.27394 5021.16165,5791.74606 C5030.73303,5812.21817 5042.78587,5830.03156 5057.40881,5844.92037 C5072.03174,5859.80917 5088.78165,5871.50752 5108.10165,5880.01541 C5127.2444,5888.70055 5147.62789,5892.9545 5169.42936,5892.9545 C5183.78642,5892.9545 5197.96624,5891.00477 5212.05743,5887.0167 C5226.14862,5883.02862 5239.17633,5877.71119 5251.05193,5870.62128 C5263.10477,5863.70862 5273.73963,5855.37798 5282.95651,5845.54073 C5292.17339,5835.70349 5299.6178,5824.98 5304.84661,5813.19303 L5339.94165,5822.7644 C5333.64936,5837.65321 5324.69835,5851.38991 5313.26587,5863.88587 C5301.83339,5876.38183 5288.62844,5887.10532 5273.38514,5896.14495 C5258.23046,5905.27321 5241.74642,5912.2745 5223.57853,5917.14881 C5205.67651,5921.9345 5187.0655,5924.41596 5167.92275,5924.41596 L5167.92275,5924.41596 Z M5330.63615,5693.10771 C5328.95229,5668.73615 5323.54624,5646.40294 5314.15211,5626.10807 C5304.93523,5605.81321 5292.97101,5588.44294 5278.34807,5573.82 C5263.72514,5559.28569 5246.88661,5547.76459 5227.74385,5539.43394 C5208.6011,5531.19193 5188.12899,5527.02661 5166.32752,5527.02661 C5144.52606,5527.02661 5124.05394,5531.19193 5104.99982,5539.43394 C5085.85706,5547.76459 5068.92991,5559.28569 5054.3956,5573.82 C5039.68404,5588.44294 5028.07431,5605.90183 5019.30055,5626.46257 C5010.43817,5646.84606 5005.29798,5669.09064 5003.61413,5693.10771 L5330.63615,5693.10771 L5330.63615,5693.10771 Z" id="Shape" fill="#939598"></path>
            <path d="M5671.92661,5707.81927 C5671.92661,5678.57339 5676.97817,5650.7455 5687.08128,5624.77872 C5697.1844,5598.63468 5711.45284,5576.12422 5729.62073,5556.89284 C5747.96587,5537.75009 5769.67872,5522.59541 5794.67064,5511.42881 C5819.66257,5500.2622 5847.04734,5494.6789 5876.82495,5494.6789 C5914.66734,5494.6789 5947.72404,5503.27541 5976.17229,5520.20257 C6004.62055,5537.21835 6026.24477,5560.88092 6041.13358,5591.19028 L6002.05046,5604.12936 C5989.82037,5581.17578 5972.27284,5563.27376 5949.40789,5550.33468 C5926.54294,5537.3956 5901.55101,5530.74881 5874.43211,5530.74881 C5851.56716,5530.74881 5830.29743,5535.26862 5810.53431,5544.13101 C5790.85982,5553.34789 5773.66679,5565.75523 5759.04385,5581.79615 C5744.50954,5597.74844 5732.98844,5616.44807 5724.74642,5638.07229 C5716.5044,5659.51927 5712.33908,5682.82734 5712.33908,5707.81927 C5712.33908,5732.72257 5716.77028,5756.29651 5725.36679,5778.45248 C5734.22917,5800.43119 5745.8389,5819.66257 5760.46183,5835.70349 C5775.08477,5851.92165 5792.10055,5864.86073 5811.95229,5874.52073 C5831.71541,5884.00349 5852.63064,5888.8778 5874.96385,5888.8778 C5889.32092,5888.8778 5903.58936,5886.83945 5917.5033,5882.49688 C5931.5945,5878.24294 5944.71083,5872.65963 5956.58642,5865.74697 C5968.55064,5859.01156 5978.91963,5850.76954 5987.69339,5841.64128 C5996.55578,5832.33578 6002.49358,5822.58716 6005.68404,5812.48404 L6044.76716,5823.65064 C6039.3611,5838.00771 6031.38495,5851.47853 6020.48422,5863.9745 C6009.58349,5876.47046 5996.6444,5887.19394 5981.7556,5896.23358 C5966.86679,5905.27321 5950.38275,5912.36312 5932.74661,5917.23743 C5914.93321,5922.46624 5896.41083,5924.77046 5877.3567,5924.77046 C5848.11083,5924.77046 5820.9033,5919.18716 5796,5907.75468 C5771.00807,5896.3222 5749.29523,5880.63578 5730.95009,5860.78404 C5712.60495,5840.75505 5698.07064,5817.80147 5687.5244,5791.83468 C5677.24404,5765.42477 5671.92661,5737.50826 5671.92661,5707.81927 L5671.92661,5707.81927 Z" id="Shape" fill="#939598"></path>
            <path d="M6311.17046,5532.16679 C6273.4167,5533.3189 6240.7145,5544.21963 6213.15248,5565.31211 C6185.50183,5586.13872 6166.09321,5615.11872 6154.92661,5651.89761 L6154.92661,5911.03376 L6115.04587,5911.03376 L6115.04587,5496.27413 L6152.53376,5496.27413 L6152.53376,5598.36881 C6166.89083,5569.12294 6185.94495,5545.1945 6209.60752,5526.84936 C6233.27009,5508.50422 6258.70514,5498.04661 6285.82404,5495.47651 C6291.14147,5495.47651 6295.83853,5495.38789 6300.09248,5495.03339 C6304.43505,5494.85615 6308.15725,5494.6789 6311.25908,5494.6789 L6311.25908,5532.16679 L6311.17046,5532.16679 Z" id="Shape" fill="#939598"></path>
            <path d="M6518.01853,5924.68183 C6498.87578,5924.68183 6480.97376,5921.49138 6464.22385,5914.93321 C6447.56257,5908.1978 6432.85101,5899.15817 6420.35505,5887.63706 C6407.85908,5876.20459 6398.19908,5862.82239 6391.1978,5846.95872 C6384.28514,5831.27229 6380.91743,5814.52239 6380.91743,5796.44312 C6380.91743,5778.36385 6385.17138,5761.79119 6393.67927,5746.90239 C6402.18716,5732.01358 6414.06275,5719.16312 6429.57193,5708.08514 C6444.99248,5697.1844 6463.16037,5688.67651 6484.25284,5682.65009 C6505.16807,5676.53505 6528.56477,5673.43321 6553.91119,5673.43321 C6576.2444,5673.43321 6598.93211,5675.29431 6621.79706,5679.28239 C6644.66202,5683.35908 6665.0455,5688.76514 6683.12477,5695.76642 L6683.12477,5655.08807 C6683.12477,5615.82771 6671.95817,5584.45486 6649.62495,5561.32404 C6627.29174,5538.19321 6596.98239,5526.58349 6558.7855,5526.58349 C6538.04752,5526.58349 6516.33468,5530.83743 6493.82422,5539.43394 C6471.22514,5547.94183 6448.44881,5560.0833 6425.58385,5576.12422 L6409.54294,5548.9167 C6463.24899,5512.75817 6513.85321,5494.6789 6561.08972,5494.6789 C6611.07358,5494.6789 6650.68844,5509.12459 6679.49119,5538.19321 C6708.47119,5567.08459 6723.0055,5606.96532 6723.0055,5658.18991 L6723.0055,5860.87266 C6723.0055,5874.07761 6728.58881,5880.90165 6739.75541,5880.90165 L6739.75541,5916.61706 C6737.0967,5917.14881 6734.43798,5917.59193 6732.22239,5917.59193 L6725.39835,5917.59193 C6715.82697,5917.59193 6707.05321,5914.31284 6699.07706,5907.57743 C6691.10092,5901.01927 6687.02422,5892.33413 6687.02422,5881.69927 L6687.02422,5847.22459 C6667.88147,5872.30514 6643.59853,5891.44789 6614.08679,5904.65284 C6584.66367,5918.12367 6552.58183,5924.68183 6518.01853,5924.68183 L6518.01853,5924.68183 Z M6525.99468,5892.77725 C6556.83578,5892.77725 6585.28404,5887.10532 6611.33945,5875.67284 C6637.30624,5864.24037 6656.80349,5848.64257 6669.56532,5829.0567 C6678.60495,5818.51046 6683.03615,5807.8756 6683.03615,5797.24073 L6683.03615,5723.68294 C6642.62367,5708.79413 6601.14771,5701.34972 6558.69688,5701.34972 C6517.13229,5701.34972 6483.63248,5709.85761 6458.10881,5726.87339 C6432.67376,5743.80055 6419.8233,5766.22239 6419.8233,5793.87303 C6419.8233,5807.69835 6422.48202,5820.81468 6427.79945,5832.95615 C6433.2055,5845.09761 6440.64991,5855.73248 6450.13266,5864.32899 C6459.70404,5873.01413 6470.95927,5880.01541 6484.16422,5884.97835 C6497.19193,5890.29578 6511.10587,5892.77725 6525.99468,5892.77725 L6525.99468,5892.77725 Z" id="Shape" fill="#939598"></path>
            <path d="M6793.63872,5907.66606 L6793.63872,5574.26312 L6735.41284,5574.26312 L6735.41284,5541.56092 L6793.63872,5541.56092 L6793.63872,5479.4356 C6793.63872,5428.38826 6804.18495,5388.68477 6825.10018,5360.14789 C6846.10404,5331.69963 6874.90679,5317.43119 6911.68569,5317.43119 C6927.10624,5317.43119 6942.26092,5319.82404 6957.14972,5324.69835 C6972.03853,5329.57266 6984.26862,5335.77633 6993.84,5343.92972 L6979.48294,5372.46661 C6972.03853,5366.79468 6962.82165,5362.00899 6951.92092,5358.10954 C6941.02018,5354.47596 6929.76495,5352.61486 6917.97798,5352.61486 C6890.85908,5352.61486 6869.94385,5363.33835 6855.32092,5384.96257 C6840.69798,5406.40954 6833.3422,5437.78239 6833.3422,5478.63798 L6833.3422,5541.64954 L6951.38917,5541.64954 L6951.38917,5574.35174 L6833.3422,5574.35174 L6833.3422,5907.75468 L6793.63872,5907.66606 L6793.63872,5907.66606 L6793.63872,5907.66606 Z" id="Shape" fill="#939598"></path>
            <path d="M7228.33872,5942.84972 C7226.30037,5943.91321 7222.75541,5945.95156 7217.61523,5948.6989 C7212.56367,5951.62349 7206.18275,5954.45945 7198.47248,5957.20679 C7190.7622,5959.77688 7182.07706,5962.25835 7172.59431,5964.38532 C7163.11156,5966.42367 7152.65394,5967.57578 7141.48734,5967.57578 C7130.32073,5967.57578 7119.7745,5965.89193 7110.02587,5962.61284 C7100.18862,5959.51101 7091.59211,5954.6367 7084.14771,5948.25578 C7076.7033,5942.05211 7070.7655,5934.34183 7066.15706,5925.21358 C7061.63725,5916.08532 7059.42165,5905.45046 7059.42165,5893.22037 L7059.42165,5580.73266 L7001.2844,5580.73266 L7001.2844,5548.03046 L7059.42165,5548.03046 L7059.42165,5406.05505 L7099.30239,5406.05505 L7099.30239,5548.03046 L7196.7,5548.03046 L7196.7,5580.73266 L7099.30239,5580.73266 L7099.30239,5883.82624 C7099.30239,5899.24679 7104.70844,5910.85651 7115.3433,5918.56679 C7125.88954,5926.27706 7138.20826,5930.08789 7151.94495,5930.08789 C7168.51761,5930.08789 7182.78606,5927.42917 7194.57303,5921.75725 C7206.44862,5916.26257 7213.8044,5912.54037 7216.55174,5911.03376 L7228.33872,5942.84972 L7228.33872,5942.84972 Z" id="Shape" fill="#939598"></path>
            <path d="M4913.39211,0 C4304.45761,0 3811,476.353211 3811,1064.19523 C3811,1651.86 4304.45761,2707.19284 4913.39211,2707.19284 C5522.14936,2707.19284 6015.6956,1651.86 6015.6956,1064.19523 C6015.60697,476.353211 5522.14936,0 4913.39211,0 L4913.39211,0 Z M4913.39211,1395.47119 C4615.17284,1395.47119 4373.22972,1220.08459 4373.22972,1003.75376 C4373.22972,787.422936 4615.08422,612.03633 4913.39211,612.03633 C5211.52275,612.03633 5453.28862,787.422936 5453.28862,1003.75376 C5453.28862,1220.08459 5211.61138,1395.47119 4913.39211,1395.47119 L4913.39211,1395.47119 Z" id="Shape" fill="#FFD100"></path>
            <ellipse id="Oval" fill="#000000" cx="4913.08495" cy="985.084954" rx="187.084954" ry="187.084954"></ellipse>
        </g>
    </g>
</svg>