<svg width="95" height="48" viewBox="0 0 95 48" xmlns="http://www.w3.org/2000/svg"><title>Mindera</title><g fill-rule="nonzero" fill="none"><ellipse fill="#FFF" cx="48.546" cy="11.109" rx="6.732" ry="6.732"/><path fill="#58595B" d="M11.284 48.194v-7.86l-2.5 5.528H6.6l-2.502-5.527v7.86H0v-14.92h4.476l3.216 7.02 3.235-7.02h4.456v14.92zM17.513 48.194v-14.92h4.098v14.92zM28.617 40.86v7.334h-4.1v-14.92h3.195l5.99 7.587v-7.586H37.8v14.92h-3.258zM40.28 48.194v-14.92h5.737c1.232 0 2.317.197 3.257.59.94.39 1.723.924 2.354 1.596a6.71 6.71 0 0 1 1.43 2.363c.32.904.482 1.868.482 2.89 0 1.135-.18 2.162-.536 3.08a6.65 6.65 0 0 1-1.523 2.353 6.83 6.83 0 0 1-2.373 1.514c-.926.358-1.955.535-3.09.535H40.28zm9.1-7.48c0-.575-.078-1.1-.232-1.577a3.57 3.57 0 0 0-.662-1.22 2.96 2.96 0 0 0-1.062-.787 3.403 3.403 0 0 0-1.407-.283h-1.64v7.775h1.64c.53 0 1.008-.097 1.43-.295.42-.195.773-.468 1.06-.82.287-.35.504-.762.65-1.24.148-.474.222-.993.222-1.553zM65.8 44.622v3.572H55.164v-14.92H65.61v3.573h-6.347v2.1h5.422v3.32h-5.422v2.355zM67.424 48.194v-14.92h6.85c.73 0 1.402.15 2.02.453.614.3 1.144.693 1.585 1.177.44.484.787 1.037 1.04 1.66a5 5 0 0 1 .378 1.88 5.3 5.3 0 0 1-.568 2.426 4.943 4.943 0 0 1-1.576 1.84l3.363 5.485h-4.623l-2.837-4.58h-1.534v4.58h-4.1zm4.098-8.153h2.585c.252 0 .487-.138.704-.418.218-.28.327-.674.327-1.178 0-.517-.127-.914-.378-1.187-.254-.274-.506-.41-.758-.41h-2.48v3.194zM80.56 48.194l5.568-14.92h3.32l5.548 14.92h-4.33l-.903-2.92h-3.97l-.884 2.92h-4.35zm7.228-10.654L86.4 42.542h2.712l-1.324-5.002z"/><path d="M48.546 0C42.53 0 37.654 4.707 37.654 10.515c0 5.806 4.876 16.233 10.892 16.233 6.015 0 10.89-10.427 10.89-16.233C59.437 4.707 54.562 0 48.547 0zm0 13.788c-2.946 0-5.337-1.733-5.337-3.87 0-2.138 2.39-3.87 5.336-3.87s5.335 1.732 5.335 3.87c0 2.137-2.387 3.87-5.334 3.87z" fill="#616161"/><ellipse fill="#616161" cx="48.543" cy="9.733" rx="1.848" ry="1.848"/></g></svg>