<svg width="62" height="74" viewBox="0 0 62 74" xmlns="http://www.w3.org/2000/svg"><title>Mixmax</title><g fill-rule="nonzero" fill="none"><path fill="#B3B3B3" d="M12.455 24.91L.055 49.656V.166h12.4z"/><path fill="#666" d="M12.455 49.655H.055L24.8.166v24.745z"/><path fill="#B3B3B3" d="M37.2 24.91L24.8 49.656V.166h12.4z"/><path fill="#666" d="M37.2 49.655H24.8L49.545.166v24.745z"/><path fill="#B3B3B3" d="M49.545.166H61.89v49.489H49.545z"/><g fill="#666"><path d="M5.868 73.57l-3.654-9.19v9.19H.055V60.34h2.547l4.04 10.185 3.987-10.186h2.49v13.23h-2.158V64.38l-3.543 9.19zM16.496 62.443c-.72 0-1.328-.61-1.328-1.329 0-.72.609-1.328 1.328-1.328.72 0 1.329.609 1.329 1.328 0 .72-.609 1.329-1.329 1.329zm1.052 11.127H15.39v-9.577h2.16v9.577zM24.523 68.587l3.598 4.983h-2.435l-2.38-3.377-2.381 3.377H18.6l3.543-4.927-3.322-4.65h2.436l2.104 2.99 2.159-2.99h2.325zM39.027 63.771c1.937 0 3.1 1.384 3.1 3.543v6.2h-2.16v-5.868c0-1.162-.497-1.937-1.55-1.937-.774 0-1.494.498-1.715 1.44v6.42h-2.16v-5.867c0-1.163-.497-1.938-1.55-1.938-.774 0-1.494.498-1.715 1.44v6.421h-2.16v-9.577h2.16v.775c.443-.609 1.328-.996 2.38-.996 1.052 0 2.048.553 2.547 1.273.608-.83 1.494-1.329 2.823-1.329zM49.434 73.57v-.554c-.332.332-1.273.72-2.38.72-1.938 0-3.599-1.163-3.599-3.1 0-1.827 1.606-3.1 3.71-3.1.885 0 1.826.276 2.214.609v-.775c0-.997-.61-1.716-1.827-1.716-.886 0-1.384.387-1.66 1.051h-2.05c.278-1.66 1.772-2.878 3.765-2.878 2.436 0 3.82 1.328 3.82 3.487v6.256h-1.993zm0-3.377c-.221-.61-1.107-.997-1.938-.997-.996 0-1.992.388-1.992 1.384 0 .997.996 1.384 1.992 1.384.886 0 1.716-.387 1.938-.996v-.775zM58.346 68.587l3.599 4.983h-2.436l-2.38-3.377-2.38 3.377h-2.326l3.543-4.927-3.321-4.65h2.435l2.104 2.99 2.159-2.99h2.325z"/></g></g></svg>