<svg width="100" height="84" viewBox="0 0 100 84" xmlns="http://www.w3.org/2000/svg"><title>Artboard 1</title><g fill="none" fill-rule="evenodd"><path d="M48.408 68.408c-14.939 0-27.046-12.116-27.046-27.062 0-14.938 12.107-27.046 27.046-27.046 14.938 0 27.054 12.108 27.054 27.046 0 14.946-12.116 27.062-27.054 27.062zm50.284-37.031C94.077 10.154 68.631-2.331 41.854 3.492 15.077 9.315-2.892 31.238 1.724 52.454c4.614 21.223 30.06 33.708 56.838 27.884 26.776-5.823 44.738-27.746 40.13-48.961z" fill="#616161"/><path d="M48.408 67.97c-14.7 0-26.616-11.916-26.616-26.624 0-14.692 11.916-26.608 26.616-26.608s26.615 11.916 26.615 26.608c0 14.708-11.915 26.623-26.615 26.623zm6.746-60.147c-19.123 0-34.623 15.5-34.623 34.623 0 19.123 15.5 34.623 34.623 34.623 19.123 0 34.623-15.5 34.623-34.623 0-19.123-15.5-34.623-34.623-34.623z" fill="#B8B8B8"/><path d="M38.885 38.692l-2.923-6.115c-.693-1.446-1.408-3.085-1.654-3.854l-.054.054c.092 1.092.115 2.47.13 3.615l.078 6.3H32.33V25.67h2.446l3.161 6.362c.608 1.207 1.17 2.754 1.339 3.354l.054-.062c-.054-.654-.185-2.515-.185-3.708l-.038-5.946h2.054v13.023h-2.277M46.862 30.508c-1.17 0-1.808.923-1.808 2.469h3.523c0-1.546-.677-2.47-1.715-2.47zM45.038 34.5v.146c0 1.323.485 2.716 2.347 2.716.884 0 1.661-.324 2.377-.947l.807 1.262c-1 .846-2.146 1.261-3.423 1.261-2.692 0-4.384-1.938-4.384-4.984 0-1.677.353-2.785 1.184-3.73.77-.886 1.708-1.278 2.916-1.278.938 0 1.807.246 2.615.977.83.754 1.246 1.923 1.246 4.146v.431h-5.685zM61.73 38.73h-1.938l-1.169-4.384c-.3-1.13-.623-2.592-.623-2.592h-.038s-.147.938-.616 2.684l-1.154 4.293h-1.938l-2.592-9.423 2.046-.285 1.038 4.608c.262 1.184.492 2.507.492 2.507h.054s.185-1.246.546-2.561l1.224-4.408h2.03l1.077 4.293c.393 1.546.6 2.715.6 2.715h.054s.23-1.454.47-2.562l.984-4.446h2.146l-2.692 9.562M34.238 44.185h-1.184v4.123h1.108c1.13 0 1.73-.154 2.123-.546.361-.362.584-.908.584-1.585 0-1.315-.715-1.992-2.63-1.992zm3.008 11.277l-1.13-2.016c-.9-1.6-1.5-2.508-2.216-3.223-.246-.238-.438-.377-.846-.392v5.63h-2.13V42.439h3.968c2.923 0 4.239 1.693 4.239 3.724 0 1.861-1.208 3.576-3.239 3.576.47.247 1.339 1.508 2.016 2.593l1.915 3.13h-2.577zM44.492 47.27c-1.169 0-1.807.922-1.807 2.468h3.523c0-1.546-.677-2.469-1.716-2.469zm-1.823 3.992v.153c0 1.316.485 2.708 2.354 2.708.885 0 1.654-.323 2.37-.938l.807 1.253a5.114 5.114 0 0 1-3.423 1.262c-2.692 0-4.385-1.938-4.385-4.985 0-1.677.354-2.784 1.185-3.723.77-.884 1.708-1.284 2.915-1.284.939 0 1.808.246 2.616.977.83.753 1.246 1.923 1.246 4.146v.43h-5.685zM52.223 55.662c-2.085 0-2.085-1.877-2.085-2.685v-8.115c0-1.3-.053-1.993-.192-2.785l2.13-.47c.147.585.17 1.37.17 2.616V52.3c0 1.277.054 1.485.208 1.708.115.169.43.261.677.154l.338 1.276c-.377.154-.769.224-1.246.224M54.785 55.462v-9.377l2.092-.377v9.754h-2.092zm1.038-10.939c-.754 0-1.338-.623-1.338-1.377 0-.77.6-1.392 1.377-1.392.73 0 1.353.608 1.353 1.392 0 .754-.623 1.377-1.392 1.377zM62.8 55.7c-2.592 0-4.046-1.823-4.046-4.892 0-3.462 2.07-5.116 4.2-5.116 1.03 0 1.784.246 2.63 1.031l-1.03 1.377c-.57-.508-1.054-.73-1.6-.73-.662 0-1.208.338-1.508.953-.277.585-.392 1.47-.392 2.654 0 1.3.208 2.13.638 2.6.3.338.754.546 1.262.546.661 0 1.3-.323 1.915-.938l.985 1.253c-.87.87-1.77 1.262-3.054 1.262M67.723 53.754a.487.487 0 0 0-.177-.023h-.108v.423h.1c.139 0 .2-.016.239-.054a.22.22 0 0 0 .061-.162c0-.092-.038-.161-.115-.184zm.17 1.292c-.062-.108-.085-.154-.147-.261-.154-.285-.208-.362-.261-.385-.016-.008-.031-.008-.047-.008v.654h-.307v-1.57h.577c.284 0 .469.186.469.455 0 .238-.162.43-.354.438.03.023.046.039.062.062.092.115.377.615.377.615h-.37zm-.278-1.9c-.592 0-1.069.5-1.069 1.123s.477 1.123 1.07 1.123c.592 0 1.076-.5 1.076-1.123s-.484-1.123-1.077-1.123zm0 2.523a1.394 1.394 0 0 1-1.392-1.4c0-.777.63-1.4 1.392-1.4.762 0 1.393.623 1.393 1.4 0 .785-.631 1.4-1.393 1.4z" fill="#1A1A1A"/></g></svg>