<?xml version="1.0" encoding="UTF-8" standalone="no"?>
<svg width="100px" height="84px" viewBox="0 0 100 84" version="1.1" xmlns="http://www.w3.org/2000/svg" xmlns:xlink="http://www.w3.org/1999/xlink" xmlns:sketch="http://www.bohemiancoding.com/sketch/ns">
    <!-- Generator: Sketch 3.4.2 (15855) - http://www.bohemiancoding.com/sketch -->
    <title>Artboard 1</title>
    <desc>Created with Sketch.</desc>
    <defs></defs>
    <g id="Page-1" stroke="none" stroke-width="1" fill="none" fill-rule="evenodd" sketch:type="MSPage">
        <g id="Artboard-1" sketch:type="MSArtboardGroup">
            <g id="newrelic" sketch:type="MSLayerGroup" transform="translate(1.000000, 2.000000)">
                <g id="Group" sketch:type="MSShapeGroup">
                    <g id="Shape">
                        <path d="M47.4076923,66.4076923 C32.4692308,66.4076923 20.3615385,54.2923077 20.3615385,39.3461538 C20.3615385,24.4076923 32.4692308,12.3 47.4076923,12.3 C62.3461538,12.3 74.4615385,24.4076923 74.4615385,39.3461538 C74.4615385,54.2923077 62.3461538,66.4076923 47.4076923,66.4076923 L47.4076923,66.4076923 L47.4076923,66.4076923 L47.4076923,66.4076923 Z M97.6923077,29.3769231 C93.0769231,8.15384615 67.6307692,-4.33076923 40.8538462,1.49230769 C14.0769231,7.31538462 -3.89230769,29.2384615 0.723076923,50.4538462 C5.33846154,71.6769231 30.7846154,84.1615385 57.5615385,78.3384615 C84.3384615,72.5153846 102.3,50.5923077 97.6923077,29.3769231 L97.6923077,29.3769231 L97.6923077,29.3769231 L97.6923077,29.3769231 Z" fill="#616161"></path>
                        <path d="M47.4076923,65.9692308 C32.7076923,65.9692308 20.7923077,54.0538462 20.7923077,39.3461538 C20.7923077,24.6538462 32.7076923,12.7384615 47.4076923,12.7384615 C62.1076923,12.7384615 74.0230769,24.6538462 74.0230769,39.3461538 C74.0230769,54.0538462 62.1076923,65.9692308 47.4076923,65.9692308 L47.4076923,65.9692308 L47.4076923,65.9692308 L47.4076923,65.9692308 Z M54.1538462,5.82307692 C35.0307692,5.82307692 19.5307692,21.3230769 19.5307692,40.4461538 C19.5307692,59.5692308 35.0307692,75.0692308 54.1538462,75.0692308 C73.2769231,75.0692308 88.7769231,59.5692308 88.7769231,40.4461538 C88.7769231,21.3230769 73.2769231,5.82307692 54.1538462,5.82307692 L54.1538462,5.82307692 L54.1538462,5.82307692 L54.1538462,5.82307692 Z" fill="#B8B8B8"></path>
                        <path d="M37.8846154,36.6923077 L34.9615385,30.5769231 C34.2692308,29.1307692 33.5538462,27.4923077 33.3076923,26.7230769 L33.2538462,26.7769231 C33.3461538,27.8692308 33.3692308,29.2461538 33.3846154,30.3923077 L33.4615385,36.6923077 L31.3307692,36.6923077 L31.3307692,23.6692308 L33.7769231,23.6692308 L36.9384615,30.0307692 C37.5461538,31.2384615 38.1076923,32.7846154 38.2769231,33.3846154 L38.3307692,33.3230769 C38.2769231,32.6692308 38.1461538,30.8076923 38.1461538,29.6153846 L38.1076923,23.6692308 L40.1615385,23.6692308 L40.1615385,36.6923077 L37.8846154,36.6923077" fill="#1A1A1A"></path>
                        <path d="M45.8615385,28.5076923 C44.6923077,28.5076923 44.0538462,29.4307692 44.0538462,30.9769231 L47.5769231,30.9769231 C47.5769231,29.4307692 46.9,28.5076923 45.8615385,28.5076923 L45.8615385,28.5076923 L45.8615385,28.5076923 L45.8615385,28.5076923 Z M44.0384615,32.5 L44.0384615,32.6461538 C44.0384615,33.9692308 44.5230769,35.3615385 46.3846154,35.3615385 C47.2692308,35.3615385 48.0461538,35.0384615 48.7615385,34.4153846 L49.5692308,35.6769231 C48.5692308,36.5230769 47.4230769,36.9384615 46.1461538,36.9384615 C43.4538462,36.9384615 41.7615385,35 41.7615385,31.9538462 C41.7615385,30.2769231 42.1153846,29.1692308 42.9461538,28.2230769 C43.7153846,27.3384615 44.6538462,26.9461538 45.8615385,26.9461538 C46.8,26.9461538 47.6692308,27.1923077 48.4769231,27.9230769 C49.3076923,28.6769231 49.7230769,29.8461538 49.7230769,32.0692308 L49.7230769,32.5 L44.0384615,32.5 L44.0384615,32.5 L44.0384615,32.5 Z" fill="#1A1A1A"></path>
                        <path d="M60.7307692,36.7307692 L58.7923077,36.7307692 L57.6230769,32.3461538 C57.3230769,31.2153846 57,29.7538462 57,29.7538462 L56.9615385,29.7538462 C56.9615385,29.7538462 56.8153846,30.6923077 56.3461538,32.4384615 L55.1923077,36.7307692 L53.2538462,36.7307692 L50.6615385,27.3076923 L52.7076923,27.0230769 L53.7461538,31.6307692 C54.0076923,32.8153846 54.2384615,34.1384615 54.2384615,34.1384615 L54.2923077,34.1384615 C54.2923077,34.1384615 54.4769231,32.8923077 54.8384615,31.5769231 L56.0615385,27.1692308 L58.0923077,27.1692308 L59.1692308,31.4615385 C59.5615385,33.0076923 59.7692308,34.1769231 59.7692308,34.1769231 L59.8230769,34.1769231 C59.8230769,34.1769231 60.0538462,32.7230769 60.2923077,31.6153846 L61.2769231,27.1692308 L63.4230769,27.1692308 L60.7307692,36.7307692" fill="#1A1A1A"></path>
                        <path d="M33.2384615,42.1846154 L32.0538462,42.1846154 L32.0538462,46.3076923 L33.1615385,46.3076923 C34.2923077,46.3076923 34.8923077,46.1538462 35.2846154,45.7615385 C35.6461538,45.4 35.8692308,44.8538462 35.8692308,44.1769231 C35.8692308,42.8615385 35.1538462,42.1846154 33.2384615,42.1846154 L33.2384615,42.1846154 L33.2384615,42.1846154 L33.2384615,42.1846154 Z M36.2461538,53.4615385 L35.1153846,51.4461538 C34.2153846,49.8461538 33.6153846,48.9384615 32.9,48.2230769 C32.6538462,47.9846154 32.4615385,47.8461538 32.0538462,47.8307692 L32.0538462,53.4615385 L29.9230769,53.4615385 L29.9230769,40.4384615 L33.8923077,40.4384615 C36.8153846,40.4384615 38.1307692,42.1307692 38.1307692,44.1615385 C38.1307692,46.0230769 36.9230769,47.7384615 34.8923077,47.7384615 C35.3615385,47.9846154 36.2307692,49.2461538 36.9076923,50.3307692 L38.8230769,53.4615385 L36.2461538,53.4615385 L36.2461538,53.4615385 L36.2461538,53.4615385 Z" fill="#1A1A1A"></path>
                        <path d="M43.4923077,45.2692308 C42.3230769,45.2692308 41.6846154,46.1923077 41.6846154,47.7384615 L45.2076923,47.7384615 C45.2076923,46.1923077 44.5307692,45.2692308 43.4923077,45.2692308 L43.4923077,45.2692308 L43.4923077,45.2692308 L43.4923077,45.2692308 Z M41.6692308,49.2615385 L41.6692308,49.4153846 C41.6692308,50.7307692 42.1538462,52.1230769 44.0230769,52.1230769 C44.9076923,52.1230769 45.6769231,51.8 46.3923077,51.1846154 L47.2,52.4384615 C46.2,53.2923077 45.0538462,53.7 43.7769231,53.7 C41.0846154,53.7 39.3923077,51.7615385 39.3923077,48.7153846 C39.3923077,47.0384615 39.7461538,45.9307692 40.5769231,44.9923077 C41.3461538,44.1076923 42.2846154,43.7076923 43.4923077,43.7076923 C44.4307692,43.7076923 45.3,43.9538462 46.1076923,44.6846154 C46.9384615,45.4384615 47.3538462,46.6076923 47.3538462,48.8307692 L47.3538462,49.2615385 L41.6692308,49.2615385 L41.6692308,49.2615385 L41.6692308,49.2615385 Z" fill="#1A1A1A"></path>
                        <path d="M51.2230769,53.6615385 C49.1384615,53.6615385 49.1384615,51.7846154 49.1384615,50.9769231 L49.1384615,42.8615385 C49.1384615,41.5615385 49.0846154,40.8692308 48.9461538,40.0769231 L51.0769231,39.6076923 C51.2230769,40.1923077 51.2461538,40.9769231 51.2461538,42.2230769 L51.2461538,50.3 C51.2461538,51.5769231 51.3,51.7846154 51.4538462,52.0076923 C51.5692308,52.1769231 51.8846154,52.2692308 52.1307692,52.1615385 L52.4692308,53.4384615 C52.0923077,53.5923077 51.7,53.6615385 51.2230769,53.6615385" fill="#1A1A1A"></path>
                        <path d="M53.7846154,53.4615385 L53.7846154,44.0846154 L55.8769231,43.7076923 L55.8769231,53.4615385 L53.7846154,53.4615385 L53.7846154,53.4615385 L53.7846154,53.4615385 Z M54.8230769,42.5230769 C54.0692308,42.5230769 53.4846154,41.9 53.4846154,41.1461538 C53.4846154,40.3769231 54.0846154,39.7538462 54.8615385,39.7538462 C55.5923077,39.7538462 56.2153846,40.3615385 56.2153846,41.1461538 C56.2153846,41.9 55.5923077,42.5230769 54.8230769,42.5230769 L54.8230769,42.5230769 L54.8230769,42.5230769 L54.8230769,42.5230769 Z" fill="#1A1A1A"></path>
                        <path d="M61.8,53.7 C59.2076923,53.7 57.7538462,51.8769231 57.7538462,48.8076923 C57.7538462,45.3461538 59.8230769,43.6923077 61.9538462,43.6923077 C62.9846154,43.6923077 63.7384615,43.9384615 64.5846154,44.7230769 L63.5538462,46.1 C62.9846154,45.5923077 62.5,45.3692308 61.9538462,45.3692308 C61.2923077,45.3692308 60.7461538,45.7076923 60.4461538,46.3230769 C60.1692308,46.9076923 60.0538462,47.7923077 60.0538462,48.9769231 C60.0538462,50.2769231 60.2615385,51.1076923 60.6923077,51.5769231 C60.9923077,51.9153846 61.4461538,52.1230769 61.9538462,52.1230769 C62.6153846,52.1230769 63.2538462,51.8 63.8692308,51.1846154 L64.8538462,52.4384615 C63.9846154,53.3076923 63.0846154,53.7 61.8,53.7" fill="#1A1A1A"></path>
                        <path d="M66.7230769,51.7538462 C66.6923077,51.7384615 66.6230769,51.7307692 66.5461538,51.7307692 L66.4384615,51.7307692 L66.4384615,52.1538462 L66.5384615,52.1538462 C66.6769231,52.1538462 66.7384615,52.1384615 66.7769231,52.1 C66.8153846,52.0615385 66.8384615,52.0076923 66.8384615,51.9384615 C66.8384615,51.8461538 66.8,51.7769231 66.7230769,51.7538462 L66.7230769,51.7538462 L66.7230769,51.7538462 L66.7230769,51.7538462 Z M66.8923077,53.0461538 C66.8307692,52.9384615 66.8076923,52.8923077 66.7461538,52.7846154 C66.5923077,52.5 66.5384615,52.4230769 66.4846154,52.4 C66.4692308,52.3923077 66.4538462,52.3923077 66.4384615,52.3923077 L66.4384615,53.0461538 L66.1307692,53.0461538 L66.1307692,51.4769231 L66.7076923,51.4769231 C66.9923077,51.4769231 67.1769231,51.6615385 67.1769231,51.9307692 C67.1769231,52.1692308 67.0153846,52.3615385 66.8230769,52.3692308 C66.8538462,52.3923077 66.8692308,52.4076923 66.8846154,52.4307692 C66.9769231,52.5461538 67.2615385,53.0461538 67.2615385,53.0461538 L66.8923077,53.0461538 L66.8923077,53.0461538 L66.8923077,53.0461538 Z M66.6153846,51.1461538 C66.0230769,51.1461538 65.5461538,51.6461538 65.5461538,52.2692308 C65.5461538,52.8923077 66.0230769,53.3923077 66.6153846,53.3923077 C67.2076923,53.3923077 67.6923077,52.8923077 67.6923077,52.2692308 C67.6923077,51.6461538 67.2076923,51.1461538 66.6153846,51.1461538 L66.6153846,51.1461538 L66.6153846,51.1461538 L66.6153846,51.1461538 Z M66.6153846,53.6692308 C65.8538462,53.6692308 65.2230769,53.0538462 65.2230769,52.2692308 C65.2230769,51.4923077 65.8538462,50.8692308 66.6153846,50.8692308 C67.3769231,50.8692308 68.0076923,51.4923077 68.0076923,52.2692308 C68.0076923,53.0538462 67.3769231,53.6692308 66.6153846,53.6692308 L66.6153846,53.6692308 L66.6153846,53.6692308 L66.6153846,53.6692308 Z" fill="#1A1A1A"></path>
                    </g>
                </g>
            </g>
        </g>
    </g>
</svg>