<svg xmlns="http://www.w3.org/2000/svg" xmlns:xlink="http://www.w3.org/1999/xlink" width="130" height="106" viewBox="0 0 130 106" version="1.1"><title>newrelic</title><desc>Created with Sketch.</desc><defs><path d="M0.01 0.08L127.94 0.08 127.94 103.69 0.01 103.69 0.01 0.08 0.01 0.08Z"/></defs><g stroke="none" stroke-width="1" fill="none" fill-rule="evenodd"><g transform="translate(1.000000, 1.000000)"><g fill="#FFFFFF"><path d="M0.01 0.08L127.94 0.08 127.94 103.69 0.01 103.69 0.01 0.08 0.01 0.08Z"/></g><g fill="#FFFFFF"><path d="M0.01 0.08L127.94 0.08 127.94 103.69 0.01 103.69 0.01 0.08 0.01 0.08Z"/></g><mask fill="white"><use xlink:href="#path-1"/></mask><path d="M61.63 86.33C42.21 86.33 26.47 70.58 26.47 51.15 26.47 31.73 42.21 15.99 61.63 15.99 81.05 15.99 96.8 31.73 96.8 51.15 96.8 70.58 81.05 86.33 61.63 86.33L61.63 86.33 61.63 86.33ZM127 38.19C121 10.6 87.92-5.63 53.11 1.94 18.3 9.51-5.06 38.01 0.94 65.59 6.94 93.18 40.02 109.41 74.83 101.84 109.64 94.27 132.99 65.77 127 38.19L127 38.19 127 38.19Z" fill="#37808C" mask="url(#mask-2)"/><path d="M61.63 85.76C42.52 85.76 27.03 70.27 27.03 51.15 27.03 32.05 42.52 16.56 61.63 16.56 80.74 16.56 96.23 32.05 96.23 51.15 96.23 70.27 80.74 85.76 61.63 85.76L61.63 85.76 61.63 85.76ZM70.4 7.57C45.54 7.57 25.39 27.72 25.39 52.58 25.39 77.44 45.54 97.59 70.4 97.59 95.26 97.59 115.41 77.44 115.41 52.58 115.41 27.72 95.26 7.57 70.4 7.57L70.4 7.57 70.4 7.57Z" fill="#9BD3CD"/><path d="M49.25 47.7L45.45 39.75C44.55 37.87 43.62 35.74 43.3 34.74L43.23 34.81C43.35 36.23 43.38 38.02 43.4 39.51L43.5 47.7 40.73 47.7 40.73 30.77 43.91 30.77 48.02 39.04C48.81 40.61 49.54 42.62 49.76 43.4L49.83 43.32C49.76 42.47 49.59 40.05 49.59 38.5L49.54 30.77 52.21 30.77 52.21 47.7 49.25 47.7" fill="#1B1A19"/><path d="M59.62 37.06C58.1 37.06 57.27 38.26 57.27 40.27L61.85 40.27C61.85 38.26 60.97 37.06 59.62 37.06L59.62 37.06 59.62 37.06ZM57.25 42.25L57.25 42.44C57.25 44.16 57.88 45.97 60.3 45.97 61.45 45.97 62.46 45.55 63.39 44.74L64.44 46.38C63.14 47.48 61.65 48.02 59.99 48.02 56.49 48.02 54.29 45.5 54.29 41.54 54.29 39.36 54.75 37.92 55.83 36.69 56.83 35.54 58.05 35.03 59.62 35.03 60.84 35.03 61.97 35.35 63.02 36.3 64.1 37.28 64.64 38.8 64.64 41.69L64.64 42.25 57.25 42.25 57.25 42.25Z" fill="#1B1A19"/><path d="M78.95 47.75L76.43 47.75 74.91 42.05C74.52 40.58 74.1 38.68 74.1 38.68L74.05 38.68C74.05 38.68 73.86 39.9 73.25 42.17L71.75 47.75 69.23 47.75 65.86 35.5 68.52 35.13 69.87 41.12C70.21 42.66 70.51 44.38 70.51 44.38L70.58 44.38C70.58 44.38 70.82 42.76 71.29 41.05L72.88 35.32 75.52 35.32 76.92 40.9C77.43 42.91 77.7 44.43 77.7 44.43L77.77 44.43C77.77 44.43 78.07 42.54 78.38 41.1L79.66 35.32 82.45 35.32 78.95 47.75" fill="#1B1A19"/><path d="M43.21 54.84L41.67 54.84 41.67 60.2 43.11 60.2C44.58 60.2 45.36 60 45.87 59.49 46.34 59.02 46.63 58.31 46.63 57.43 46.63 55.72 45.7 54.84 43.21 54.84L43.21 54.84 43.21 54.84ZM47.12 69.5L45.65 66.88C44.48 64.8 43.7 63.62 42.77 62.69 42.45 62.38 42.2 62.2 41.67 62.18L41.67 69.5 38.9 69.5 38.9 52.57 44.06 52.57C47.86 52.57 49.57 54.77 49.57 57.41 49.57 59.83 48 62.06 45.36 62.06 45.97 62.38 47.1 64.02 47.98 65.43L50.47 69.5 47.12 69.5 47.12 69.5Z" fill="#1B1A19"/><path d="M56.54 58.85C55.02 58.85 54.19 60.05 54.19 62.06L58.77 62.06C58.77 60.05 57.89 58.85 56.54 58.85L56.54 58.85 56.54 58.85ZM54.17 64.04L54.17 64.24C54.17 65.95 54.8 67.76 57.23 67.76 58.38 67.76 59.38 67.34 60.31 66.54L61.36 68.17C60.06 69.28 58.57 69.81 56.91 69.81 53.41 69.81 51.21 67.29 51.21 63.33 51.21 61.15 51.67 59.71 52.75 58.49 53.75 57.34 54.97 56.82 56.54 56.82 57.76 56.82 58.89 57.14 59.94 58.09 61.02 59.07 61.56 60.59 61.56 63.48L61.56 64.04 54.17 64.04 54.17 64.04Z" fill="#1B1A19"/><path d="M66.59 69.76C63.88 69.76 63.88 67.32 63.88 66.27L63.88 55.72C63.88 54.03 63.81 53.13 63.63 52.1L66.4 51.49C66.59 52.25 66.62 53.27 66.62 54.89L66.62 65.39C66.62 67.05 66.69 67.32 66.89 67.61 67.04 67.83 67.45 67.95 67.77 67.81L68.21 69.47C67.72 69.67 67.21 69.76 66.59 69.76" fill="#1B1A19"/><path d="M69.92 69.5L69.92 57.31 72.64 56.82 72.64 69.5 69.92 69.5 69.92 69.5ZM71.27 55.28C70.29 55.28 69.53 54.47 69.53 53.49 69.53 52.49 70.31 51.68 71.32 51.68 72.27 51.68 73.08 52.47 73.08 53.49 73.08 54.47 72.27 55.28 71.27 55.28L71.27 55.28 71.27 55.28Z" fill="#1B1A19"/><path d="M80.34 69.81C76.97 69.81 75.08 67.44 75.08 63.45 75.08 58.95 77.77 56.8 80.54 56.8 81.88 56.8 82.86 57.12 83.96 58.14L82.62 59.93C81.88 59.27 81.25 58.98 80.54 58.98 79.68 58.98 78.97 59.42 78.58 60.22 78.22 60.98 78.07 62.13 78.07 63.67 78.07 65.36 78.34 66.44 78.9 67.05 79.29 67.49 79.88 67.76 80.54 67.76 81.4 67.76 82.23 67.34 83.03 66.54L84.31 68.17C83.18 69.3 82.01 69.81 80.34 69.81" fill="#1B1A19"/><path d="M86.74 67.28C86.7 67.26 86.61 67.25 86.51 67.25L86.37 67.25 86.37 67.8 86.5 67.8C86.68 67.8 86.76 67.78 86.81 67.73 86.86 67.68 86.89 67.61 86.89 67.52 86.89 67.4 86.84 67.31 86.74 67.28L86.74 67.28 86.74 67.28ZM86.96 68.96C86.88 68.82 86.85 68.76 86.77 68.62 86.57 68.25 86.5 68.15 86.43 68.12 86.41 68.11 86.39 68.11 86.37 68.11L86.37 68.96 85.97 68.96 85.97 66.92 86.72 66.92C87.09 66.92 87.33 67.16 87.33 67.51 87.33 67.82 87.12 68.07 86.87 68.08 86.91 68.11 86.93 68.13 86.95 68.16 87.07 68.31 87.44 68.96 87.44 68.96L86.96 68.96 86.96 68.96ZM86.6 66.49C85.83 66.49 85.21 67.14 85.21 67.95 85.21 68.76 85.83 69.41 86.6 69.41 87.37 69.41 88 68.76 88 67.95 88 67.14 87.37 66.49 86.6 66.49L86.6 66.49 86.6 66.49ZM86.6 69.77C85.61 69.77 84.79 68.97 84.79 67.95 84.79 66.94 85.61 66.13 86.6 66.13 87.59 66.13 88.41 66.94 88.41 67.95 88.41 68.97 87.59 69.77 86.6 69.77L86.6 69.77 86.6 69.77Z" fill="#1B1A19"/></g></g></svg>