<svg width="135" height="28" viewBox="0 0 135 28" xmlns="http://www.w3.org/2000/svg"><title>Artboard 2</title><g fill="#666" fill-rule="nonzero"><path d="M.082 12.007c0-7.451 5.289-10.393 10.006-10.393 5.028 0 9.762 2.91 9.762 9.95 0 7.514-5.289 10.377-10.007 10.377C4.816 21.925.082 18.81.082 12.007zm14.218.174c0-6.628-1.175-9.381-4.391-9.381-2.84 0-4.26 1.93-4.26 8.606 0 6.596 1.11 9.317 4.39 9.317 2.873.016 4.26-1.882 4.26-8.542zM39.03 14.158c0-4.935 3.772-7.672 7.624-7.672 3.983 0 6.497 1.914 6.628 6.897a.178.178 0 0 1-.18.174h-9.288c-.098 0-.18.08-.18.174.13 4.493 1.943 5.742 4.914 5.742a8.967 8.967 0 0 0 3.591-.743.182.182 0 0 1 .212.047l.392.443a.15.15 0 0 1 0 .222c-1.061 1.091-3.232 2.468-6.089 2.468-5.077.015-7.623-2.927-7.623-7.752zm4.62-1.66l4.996-.254c0-3.433-.474-4.682-2.22-4.682-1.486 0-2.645 1.36-2.775 4.935zM88.28 14.253c0-5.442 3.984-7.767 7.918-7.767 4.244 0 7.95 2.468 7.95 7.625 0 5.442-3.918 7.814-7.95 7.814-4.245 0-7.917-2.499-7.917-7.672zm10.954.142c0-5.726-1.143-6.802-3.134-6.802-1.845 0-2.922 1.297-2.922 6.17 0 5.805.963 7.055 3.101 7.055 1.763 0 2.955-.997 2.955-6.423zM105.715 14.253c0-5.442 3.983-7.767 7.917-7.767 4.244 0 7.95 2.468 7.95 7.625 0 5.442-3.918 7.814-7.95 7.814-4.228 0-7.917-2.499-7.917-7.672zm10.97.142c0-5.726-1.143-6.802-3.135-6.802-1.844 0-2.922 1.297-2.922 6.17 0 5.805.963 7.055 3.102 7.055 1.746 0 2.954-.997 2.954-6.423zM65.313 6.486c-2.139 0-4.065.933-5.616 2.009h-.114l.065-1.788a.233.233 0 0 0-.261-.237l-4.097.443c-.115.016-.213.11-.213.221v14.222a.22.22 0 0 0 .229.221h4.179a.22.22 0 0 0 .228-.221V9.492c.637-.143 1.698-.364 2.727-.364 1.37 0 2.024.538 2.024 2.262v9.966a.22.22 0 0 0 .228.221h4.212a.22.22 0 0 0 .228-.221V10.282c.017-2.546-1.322-3.796-3.82-3.796zM86.338 3.702c0-1.471.049-2.816.082-3.37a.288.288 0 0 0-.294-.285l-4.212.46a.23.23 0 0 0-.212.237v3.97c0 1.013.065 2.072.065 2.072a8.602 8.602 0 0 0-2.22-.316c-4.554 0-8.472 2.357-8.472 8.242 0 5.157 2.84 7.198 5.73 7.198 2.04 0 3.689-.791 4.946-1.835h.114L81.8 21.64c0 .174.147.3.31.269l4.016-.428a.277.277 0 0 0 .245-.268V3.702h-.033zm-4.652 15.36c-.474.174-1.257.617-2.449.617-2.22 0-3.395-1.44-3.395-5.9 0-4.683 1.469-6.17 3.558-6.17 1.078 0 1.78.601 2.286 1.186v10.267zM132.453 6.486c-1.697 0-3.362 1.25-4.26 2.183h-.114l.049-1.898c0-.159-.147-.285-.31-.27l-4.049.444c-.114.015-.212.11-.212.221v14.158c0 .143.13.27.277.27h4.098a.282.282 0 0 0 .277-.27V9.84c.408-.364 1.078-.744 1.6-.744.261 0 .44.063.62.364.555.886.996 1.392 2.253 1.392 1.143 0 2.155-.87 2.155-2.23.016-1.408-.98-2.136-2.384-2.136zM31.587 6.486c-2.04 0-3.69.933-4.913 1.961h-.147l.049-1.692c0-.158-.131-.285-.294-.253l-4.065.443c-.114.015-.212.11-.212.221v20.518c0 .142.13.237.261.221l4.179-.459c.114-.015.212-.11.212-.221V23.38c0-.997-.032-1.725-.032-1.725.636.175 1.6.285 2.22.285 4.88 0 8.455-2.578 8.455-8.479.017-5.189-2.938-6.976-5.713-6.976zm-2.595 14.3c-.996 0-1.78-.427-2.302-1.012V9.46c.473-.174 1.191-.506 2.367-.506 2.22 0 3.477 1.423 3.477 5.473-.016 5.173-1.24 6.36-3.542 6.36z"/></g></svg>