<?xml version="1.0" encoding="UTF-8" standalone="no"?>
<svg width="152px" height="27px" viewBox="0 0 152 27" version="1.1" xmlns="http://www.w3.org/2000/svg" xmlns:xlink="http://www.w3.org/1999/xlink" xmlns:sketch="http://www.bohemiancoding.com/sketch/ns">
    <!-- Generator: Sketch 3.3.3 (12072) - http://www.bohemiancoding.com/sketch -->
    <title>opendoor</title>
    <desc>Created with Sketch.</desc>
    <defs></defs>
    <g id="Page-1" stroke="none" stroke-width="1" fill="none" fill-rule="evenodd" sketch:type="MSPage">
        <g id="opendoor" sketch:type="MSLayerGroup" transform="translate(0.000000, -0.160645)" fill="#151719">
            <path d="M1,11.1724138 L1,11.1402299 C1,6.63448276 4.66666667,2.96551724 9.7,2.96551724 C14.7333333,2.96551724 18.3666667,6.60229885 18.3666667,11.0758621 L18.3666667,11.108046 C18.3666667,15.5816092 14.7,19.2505747 9.66666667,19.2505747 C4.63333333,19.2827586 1,15.645977 1,11.1724138 L1,11.1724138 L1,11.1724138 Z M14.6,11.1724138 L14.6,11.1402299 C14.6,8.43678161 12.5333333,6.18390805 9.66666667,6.18390805 C6.76666667,6.18390805 4.76666667,8.4045977 4.76666667,11.108046 L4.76666667,11.1402299 C4.76666667,13.8436782 6.83333333,16.0965517 9.7,16.0965517 C12.5666667,16.0965517 14.6,13.8758621 14.6,11.1724138 L14.6,11.1724138 L14.6,11.1724138 Z" id="Shape" sketch:type="MSShapeGroup"></path>
            <path d="M22.7333333,3.22298851 L29.4,3.22298851 C33.3,3.22298851 35.6666667,5.44367816 35.6666667,8.66206897 L35.6666667,8.69425287 C35.6666667,12.3310345 32.7333333,14.2298851 29.0666667,14.2298851 L26.3333333,14.2298851 L26.3333333,18.9609195 L22.7333333,18.9609195 L22.7333333,3.22298851 L22.7333333,3.22298851 Z M29.1666667,11.2045977 C30.9666667,11.2045977 32,10.1747126 32,8.82298851 L32,8.75862069 C32,7.2137931 30.8666667,6.37701149 29.0666667,6.37701149 L26.3333333,6.37701149 L26.3333333,11.2045977 L29.1666667,11.2045977 L29.1666667,11.2045977 Z" id="Shape" sketch:type="MSShapeGroup"></path>
            <path d="M39.4666667,3.22298851 L51.8,3.22298851 L51.8,6.31264368 L43.0333333,6.31264368 L43.0333333,9.49885057 L50.7333333,9.49885057 L50.7333333,12.6206897 L43.0333333,12.6206897 L43.0333333,15.9356322 L51.9,15.9356322 L51.9,19.0252874 L39.4666667,19.0252874 L39.4666667,3.22298851 L39.4666667,3.22298851 Z" id="Shape" sketch:type="MSShapeGroup"></path>
            <path d="M56.2666667,3.22298851 L59.5666667,3.22298851 L67.2333333,12.9425287 L67.2333333,3.22298851 L70.7666667,3.22298851 L70.7666667,18.9931034 L67.7,18.9931034 L59.8,8.95172414 L59.8,18.9931034 L56.2666667,18.9931034 L56.2666667,3.22298851 L56.2666667,3.22298851 Z" id="Shape" sketch:type="MSShapeGroup"></path>
            <path d="M75.8666667,3.22298851 L82.2333333,3.22298851 C87.3666667,3.22298851 90.9,6.63448276 90.9,11.0758621 L90.9,11.108046 C90.9,15.5494253 87.3666667,18.9931034 82.2333333,18.9931034 L75.8666667,18.9931034 L75.8666667,3.22298851 L75.8666667,3.22298851 Z M82.2333333,15.8712644 C85.1666667,15.8712644 87.1666667,13.9402299 87.1666667,11.1724138 L87.1666667,11.1402299 C87.1666667,8.34022989 85.1666667,6.37701149 82.2333333,6.37701149 L79.4666667,6.37701149 L79.4666667,15.8712644 L82.2333333,15.8712644 L82.2333333,15.8712644 Z" id="Shape" sketch:type="MSShapeGroup"></path>
            <path d="M94.5666667,11.1724138 L94.5666667,11.1402299 C94.5666667,6.66666667 98.2333333,2.99770115 103.266667,2.99770115 C108.3,2.99770115 111.933333,6.63448276 111.933333,11.108046 L111.933333,11.1402299 C111.933333,15.6137931 108.266667,19.2827586 103.233333,19.2827586 C98.1666667,19.2827586 94.5666667,15.645977 94.5666667,11.1724138 L94.5666667,11.1724138 L94.5666667,11.1724138 Z M108.166667,11.1724138 L108.166667,11.1402299 C108.166667,8.43678161 106.1,6.18390805 103.233333,6.18390805 C100.333333,6.18390805 98.3333333,8.4045977 98.3333333,11.108046 L98.3333333,11.1402299 C98.3333333,13.8436782 100.4,16.0965517 103.266667,16.0965517 C106.133333,16.0965517 108.166667,13.8758621 108.166667,11.1724138 L108.166667,11.1724138 L108.166667,11.1724138 Z" id="Shape" sketch:type="MSShapeGroup"></path>
            <path d="M115.566667,11.1724138 L115.566667,11.1402299 C115.566667,6.66666667 119.233333,2.99770115 124.266667,2.99770115 C129.3,2.99770115 132.933333,6.63448276 132.933333,11.108046 L132.933333,11.1402299 C132.933333,15.6137931 129.266667,19.2827586 124.233333,19.2827586 C119.166667,19.2827586 115.566667,15.645977 115.566667,11.1724138 L115.566667,11.1724138 L115.566667,11.1724138 Z M129.166667,11.1724138 L129.166667,11.1402299 C129.166667,8.43678161 127.1,6.18390805 124.233333,6.18390805 C121.333333,6.18390805 119.333333,8.4045977 119.333333,11.108046 L119.333333,11.1402299 C119.333333,13.8436782 121.4,16.0965517 124.266667,16.0965517 C127.133333,16.0965517 129.166667,13.8758621 129.166667,11.1724138 L129.166667,11.1724138 L129.166667,11.1724138 Z" id="Shape" sketch:type="MSShapeGroup"></path>
            <path d="M137.3,3.22298851 L144.766667,3.22298851 C146.833333,3.22298851 148.466667,3.80229885 149.533333,4.83218391 C150.433333,5.70114943 150.933333,6.95632184 150.933333,8.43678161 L150.933333,8.46896552 C150.933333,11.0114943 149.5,12.6206897 147.433333,13.3609195 L151.433333,18.9931034 L147.233333,18.9931034 L143.733333,13.9402299 L140.9,13.9402299 L140.9,18.9931034 L137.3,18.9931034 L137.3,3.22298851 L137.3,3.22298851 Z M144.533333,10.8827586 C146.266667,10.8827586 147.3,9.9816092 147.3,8.66206897 L147.3,8.62988506 C147.3,7.14942529 146.233333,6.37701149 144.466667,6.37701149 L140.9,6.37701149 L140.9,10.9149425 L144.533333,10.9149425 L144.533333,10.8827586 L144.533333,10.8827586 Z" id="Shape" sketch:type="MSShapeGroup"></path>
        </g>
    </g>
</svg>