<svg xmlns="http://www.w3.org/2000/svg" width="128" height="104" viewBox="0 0 128 104" version="1.1"><title>opendoor</title><desc>Created with Sketch.</desc><g stroke="none" stroke-width="1" fill="none" fill-rule="evenodd"><g fill="#2BA8DE"><path d="M13.8 58.2C11.8 58.2 10.1 57.6 8.8 56.3 7.4 55 6.8 53.4 6.8 51.5L6.8 51.4C6.8 49.5 7.4 47.9 8.8 46.6 10.1 45.3 11.8 44.6 13.8 44.6 15.8 44.6 17.5 45.3 18.8 46.6 20.1 47.9 20.8 49.5 20.8 51.4L20.8 51.4C20.8 53.3 20.1 54.9 18.8 56.3 17.4 57.6 15.8 58.2 13.8 58.2L13.8 58.2ZM13.8 55.6C14.9 55.6 15.9 55.2 16.6 54.4 17.4 53.6 17.7 52.6 17.7 51.5L17.7 51.4C17.7 50.3 17.4 49.3 16.6 48.5 15.9 47.7 14.9 47.3 13.8 47.3 12.6 47.3 11.7 47.7 10.9 48.5 10.2 49.3 9.8 50.2 9.8 51.4L9.8 51.4C9.8 52.6 10.2 53.6 10.9 54.4 11.7 55.2 12.6 55.6 13.8 55.6L13.8 55.6ZM23.4 58L23.4 44.9 28.7 44.9C30.3 44.9 31.5 45.3 32.4 46.1 33.3 46.9 33.8 48 33.8 49.4L33.8 49.4C33.8 50.9 33.3 52 32.3 52.9 31.3 53.7 30 54.1 28.4 54.1L26.2 54.1 26.2 58 23.4 58ZM26.2 51.5L28.5 51.5C29.2 51.5 29.8 51.3 30.2 50.9 30.6 50.6 30.8 50.1 30.8 49.5L30.8 49.5C30.8 48.8 30.6 48.3 30.2 48 29.8 47.6 29.2 47.5 28.5 47.5L26.2 47.5 26.2 51.5ZM35.9 58L35.9 44.9 45.8 44.9 45.8 47.4 38.8 47.4 38.8 50.1 45 50.1 45 52.7 38.8 52.7 38.8 55.4 45.9 55.4 45.9 58 35.9 58ZM48.5 58L48.5 44.9 51.2 44.9 57.4 53 57.4 44.9 60.2 44.9 60.2 58 57.8 58 51.4 49.6 51.4 58 48.5 58ZM63.4 58L63.4 44.9 68.5 44.9C70.6 44.9 72.2 45.5 73.5 46.7 74.9 48 75.5 49.5 75.5 51.4L75.5 51.4C75.5 53.3 74.9 54.9 73.5 56.1 72.2 57.4 70.6 58 68.5 58L63.4 58ZM66.3 55.4L68.5 55.4C69.7 55.4 70.6 55 71.4 54.3 72.1 53.6 72.5 52.6 72.5 51.5L72.5 51.4C72.5 50.3 72.1 49.3 71.4 48.6 70.6 47.8 69.7 47.5 68.5 47.5L66.3 47.5 66.3 55.4ZM84.5 58.2C82.5 58.2 80.8 57.6 79.5 56.3 78.2 55 77.5 53.4 77.5 51.5L77.5 51.4C77.5 49.5 78.2 47.9 79.5 46.6 80.8 45.3 82.5 44.6 84.5 44.6 86.5 44.6 88.2 45.3 89.5 46.6 90.8 47.9 91.5 49.5 91.5 51.4L91.5 51.4C91.5 53.3 90.8 54.9 89.5 56.3 88.2 57.6 86.5 58.2 84.5 58.2L84.5 58.2ZM84.5 55.6C85.7 55.6 86.6 55.2 87.4 54.4 88.1 53.6 88.5 52.6 88.5 51.5L88.5 51.4C88.5 50.3 88.1 49.3 87.3 48.5 86.6 47.7 85.6 47.3 84.5 47.3 83.3 47.3 82.4 47.7 81.6 48.5 80.9 49.3 80.5 50.2 80.5 51.4L80.5 51.4C80.5 52.6 80.9 53.6 81.7 54.4 82.4 55.2 83.4 55.6 84.5 55.6L84.5 55.6ZM100.5 58.2C98.5 58.2 96.8 57.6 95.5 56.3 94.2 55 93.5 53.4 93.5 51.5L93.5 51.4C93.5 49.5 94.2 47.9 95.5 46.6 96.8 45.3 98.5 44.6 100.5 44.6 102.5 44.6 104.2 45.3 105.5 46.6 106.8 47.9 107.5 49.5 107.5 51.4L107.5 51.4C107.5 53.3 106.8 54.9 105.5 56.3 104.1 57.6 102.5 58.2 100.5 58.2L100.5 58.2ZM100.5 55.6C101.7 55.6 102.6 55.2 103.3 54.4 104.1 53.6 104.5 52.6 104.5 51.5L104.5 51.4C104.5 50.3 104.1 49.3 103.3 48.5 102.6 47.7 101.6 47.3 100.5 47.3 99.3 47.3 98.4 47.7 97.6 48.5 96.9 49.3 96.5 50.2 96.5 51.4L96.5 51.4C96.5 52.6 96.9 53.6 97.7 54.4 98.4 55.2 99.4 55.6 100.5 55.6L100.5 55.6ZM110.1 58L110.1 44.9 116.1 44.9C117.8 44.9 119 45.3 119.9 46.2 120.7 46.9 121 47.9 121 49.2L121 49.2C121 51.3 120.1 52.6 118.2 53.3L121.4 58 118.1 58 115.2 53.8 115.2 53.8 113 53.8 113 58 110.1 58ZM113 51.2L115.9 51.2C116.6 51.2 117.1 51.1 117.5 50.7 117.9 50.4 118.1 49.9 118.1 49.4L118.1 49.3C118.1 48.7 117.9 48.3 117.5 47.9 117.1 47.6 116.6 47.5 115.8 47.5L113 47.5 113 51.2Z"/></g></g></svg>