<svg width="100" height="85" viewBox="0 0 100 85" xmlns="http://www.w3.org/2000/svg"><title>Artboard 1</title><path d="M8.733 48.086c-1.638 0-3.03-.489-4.095-1.548C3.49 45.478 3 44.174 3 42.625v-.082c0-1.549.491-2.853 1.638-3.913C5.703 37.57 7.095 37 8.733 37s3.03.57 4.095 1.63c1.064 1.06 1.638 2.364 1.638 3.913 0 1.55-.574 2.853-1.638 3.995-1.147 1.06-2.457 1.548-4.095 1.548zm0-2.119c.9 0 1.72-.326 2.293-.978.655-.652.9-1.468.9-2.364v-.082c0-.896-.245-1.712-.9-2.364-.573-.652-1.392-.978-2.293-.978-.983 0-1.72.326-2.375.978-.574.652-.901 1.386-.901 2.364s.327 1.794.9 2.446c.656.652 1.393.978 2.376.978zm7.862 1.956V37.245h4.34c1.31 0 2.293.326 3.03.978.738.652 1.147 1.549 1.147 2.69 0 1.223-.41 2.12-1.228 2.853-.82.652-1.884.978-3.194.978h-1.802v3.18h-2.293zm2.293-5.298h1.884c.573 0 1.064-.163 1.392-.49.327-.244.491-.652.491-1.14 0-.571-.164-.979-.491-1.223-.328-.326-.82-.408-1.392-.408h-1.884v3.26zm7.944 5.298V37.245h8.108v2.038h-5.733v2.2h5.077v2.12h-5.077v2.201h5.815v2.12h-8.19zm10.319 0V37.245h2.211l5.078 6.603v-6.603h2.293v10.678h-1.966l-5.241-6.847v6.847H37.15zm12.202 0V37.245h4.177c1.72 0 3.03.489 4.095 1.467 1.147 1.06 1.638 2.282 1.638 3.831 0 1.55-.491 2.853-1.638 3.832-1.065 1.06-2.375 1.548-4.095 1.548h-4.177zm2.375-2.119h1.802c.983 0 1.72-.326 2.375-.897.573-.57.901-1.386.901-2.282v-.082c0-.896-.328-1.712-.9-2.282-.656-.652-1.393-.897-2.376-.897h-1.802v6.44zm14.906 2.282c-1.638 0-3.03-.489-4.095-1.548-1.065-1.06-1.638-2.364-1.638-3.913v-.082c0-1.549.573-2.853 1.638-3.913 1.064-1.06 2.457-1.63 4.095-1.63s3.03.57 4.094 1.63c1.065 1.06 1.638 2.364 1.638 3.913 0 1.55-.573 2.853-1.638 3.995-1.064 1.06-2.456 1.548-4.094 1.548zm0-2.119c.982 0 1.72-.326 2.375-.978.573-.652.9-1.468.9-2.364v-.082c0-.896-.327-1.712-.982-2.364-.574-.652-1.393-.978-2.293-.978-.983 0-1.72.326-2.375.978-.574.652-.901 1.386-.901 2.364s.327 1.794.983 2.446c.573.652 1.392.978 2.293.978zm13.103 2.12c-1.638 0-3.03-.49-4.095-1.55-1.064-1.06-1.638-2.363-1.638-3.912v-.082c0-1.549.574-2.853 1.638-3.913C76.707 37.57 78.1 37 79.737 37s3.03.57 4.095 1.63 1.638 2.364 1.638 3.913c0 1.55-.573 2.853-1.638 3.995-1.147 1.06-2.457 1.548-4.095 1.548zm0-2.12c.983 0 1.72-.326 2.293-.978a3.257 3.257 0 0 0 .983-2.364v-.082c0-.896-.328-1.712-.983-2.364-.573-.652-1.392-.978-2.293-.978-.983 0-1.72.326-2.375.978-.573.652-.9 1.386-.9 2.364s.327 1.794.982 2.446c.573.652 1.392.978 2.293.978zm7.862 1.956V37.245h4.914c1.392 0 2.375.326 3.112 1.06.655.57.9 1.385.9 2.445 0 1.712-.736 2.771-2.292 3.342l2.62 3.831h-2.702L91.776 44.5h-1.802v3.423H87.6zm2.375-5.543h2.375c.573 0 .983-.081 1.31-.407.328-.245.492-.653.492-1.06v-.082c0-.489-.164-.815-.492-1.14-.327-.245-.737-.327-1.392-.327h-2.293v3.016z" fill="#191919" fill-rule="evenodd"/></svg>