<svg width="95" height="34" viewBox="0 0 95 34" xmlns="http://www.w3.org/2000/svg"><title>Artboard</title><path d="M92.517 33.836V0H95v33.836h-2.483zM78.694 11.28h2.467v10.726h-2.59l-3.86-6.896v6.896h-2.484V11.28h2.59l3.878 6.987V11.28zm-16.26-.277c3.555 0 5.67 2.697 5.67 5.64 0 2.942-2.115 5.64-5.67 5.64-3.57 0-5.686-2.698-5.686-5.64 0-2.943 2.115-5.64 5.686-5.64zm3.142 5.64c0-1.763-1.196-3.402-3.142-3.402-1.962 0-3.142 1.64-3.142 3.403 0 1.762 1.18 3.402 3.142 3.402 1.946 0 3.142-1.64 3.142-3.402zm-43.232-3.22V11.28h7.34v2.144h-2.437v8.582h-2.482v-8.582h-2.42zm26.313 2.285h4.06v1.946h-4.06v2.36h4.06v1.992h-6.543V11.28h6.544v1.992h-4.06v2.436zm-10.605-4.43c2.375 0 3.908 1.794 3.908 3.878 0 1.502-.797 2.835-2.13 3.464l2.145 3.386h-2.88l-1.902-2.973H36.03v2.973h-2.484V11.28h4.506zm1.394 3.878c0-.996-.674-1.854-1.716-1.854h-1.7v3.708h1.7c1.042 0 1.716-.857 1.716-1.854zm-21.96 5.548H13.67l-.414 1.302h-2.65l3.83-10.727h2.283l3.877 10.726H17.9l-.414-1.302zm-1.9-6.36l-1.32 4.414h2.606l-1.287-4.414zM4.49 11.28c2.375 0 3.908 1.792 3.908 3.876 0 2.084-1.533 3.877-3.908 3.877H2.483v2.973H0V11.28h4.49zm1.41 3.876c0-.996-.674-1.854-1.716-1.854h-1.7v3.708h1.7c1.042 0 1.716-.857 1.716-1.854z" fill="#616161" fill-rule="evenodd"/></svg>