<svg width="100" height="22" viewBox="0 0 100 22" xmlns="http://www.w3.org/2000/svg" xmlns:xlink="http://www.w3.org/1999/xlink"><title>Artboard 2</title><defs><path id="a" d="M10.985 0H.018v21.982h21.933V0H10.985z"/></defs><g fill="none" fill-rule="evenodd"><mask id="b" fill="#fff"><use xlink:href="#a"/></mask><path fill="#616161" mask="url(#b)" d="M10.063 8.793V0H1.29l8.773 8.793M10.598 22L20.66 11.914h-9.308L1.29 22h9.308M11.888 10.086h10.063V0H11.888zM21.951 22v-8.793L13.178 22h8.773M0 1.293v19.414L9.686 11 0 1.293"/><path d="M42.513 8.532s-.218-.028-.491-.028c-3.136 0-4.117 1.776-4.117 5.383v5.246h-3.107V5.745h3.052v1.448c1.036-1.257 2.29-1.64 4.062-1.64.083 0 .273 0 .6.028v2.95M47.373 10.881h5.697c-.027-1.174-.708-2.622-2.78-2.622-1.745 0-2.672 1.338-2.917 2.622zm-.164 2.487c.164 2.022 1.527 3.251 3.517 3.251 1.581 0 2.672-.765 3.435-1.885L56.26 16.7c-1.145 1.475-2.808 2.732-5.534 2.732-4.007 0-6.706-2.841-6.706-6.912 0-3.88 2.371-7.104 6.242-7.104 4.308 0 6.107 3.47 6.107 6.858 0 .465-.027 1.093-.027 1.093h-9.133zM67.245 19.133v-8.006c0-1.748-.872-2.896-2.454-2.896-1.799 0-2.752 1.311-2.752 3.279v7.623H58.93V5.745h3.054V6.92c.6-.71 1.744-1.503 3.462-1.503 1.827 0 3.027.765 3.735 1.749 1.09-1.23 2.48-1.75 4.17-1.75 3.572 0 5.317 2.132 5.317 5.93v7.787H75.56v-8.006c0-1.748-.873-2.896-2.454-2.896-1.799 0-2.78 1.311-2.78 3.279v7.623h-3.08M81.857 19.133h3.107V5.745h-3.107v13.388zm-.11-15.71h3.299V.007h-3.299v3.416zM91.082 5.745l2.48 3.989 2.508-3.989h3.572l-4.335 6.502 4.635 6.886H96.37l-2.807-4.372-2.781 4.372H87.21l4.635-6.886-4.335-6.502h3.572" fill="#616161"/></g></svg>