<svg width="136" height="37" viewBox="0 0 136 37" fill="none" xmlns="http://www.w3.org/2000/svg"><g clip-path="url(#a)" fill-rule="evenodd" clip-rule="evenodd" fill="#666"><path d="M45.672 29.149V4.059h7.703c3.09 0 5.445.674 7.064 2.021 1.618 1.347 2.427 3.306 2.427 5.877 0 1.972-.502 3.603-1.505 4.895-.63.81-1.963 1.647-4 2.51a.338.338 0 0 0-.143.509l6.634 9.278h-6.206l-6.228-9.074a.338.338 0 0 0-.617.191v8.883h-5.13zM50.8 16.163h2.318c1.46 0 2.586-.342 3.377-1.028.79-.686 1.186-1.66 1.186-2.92 0-1.2-.37-2.152-1.113-2.856-.742-.705-1.746-1.057-3.012-1.057h-2.756v7.861zm12.48 4.278c0-2.73.785-4.962 2.355-6.695 1.57-1.732 3.594-2.599 6.072-2.599 2.534 0 4.603.885 6.206 2.654 1.603 1.77 2.405 4.056 2.405 6.86 0 .404-.011.716-.034.937H67.822c.191 1.2.662 2.152 1.413 2.856.752.704 1.67 1.056 2.758 1.056.808 0 1.537-.202 2.187-.606a4.008 4.008 0 0 0 1.497-1.653l4.02 1.212c-.796 1.69-1.864 2.997-3.204 3.921-1.34.925-2.851 1.387-4.533 1.387-2.534 0-4.614-.878-6.24-2.636-1.626-1.757-2.439-3.988-2.439-6.694zm4.579-2.059h7.989c-.19-1.15-.648-1.699-1.371-2.354s-1.623-.983-2.7-.983c-1.053 0-1.917.319-2.59.955-.672.637-1.115 1.194-1.328 2.382zm13.383-2.8V11.56h1.971V6.895h4.746v4.665h2.172v4.022H87.96v8.339c0 .404.107.695.32.872.213.178.556.266 1.031.266h.821v3.986h-3.778c-1.12 0-1.923-.257-2.41-.771-.486-.515-.73-1.36-.73-2.535V15.582h-1.971zm10.214 4.896c0-2.743.848-4.984 2.545-6.723 1.697-1.738 3.89-2.608 6.58-2.608 2.631 0 4.798.894 6.501 2.682 1.702 1.787 2.554 4.053 2.554 6.796 0 2.559-.881 4.723-2.643 6.492-1.761 1.77-3.922 2.654-6.483 2.654-2.63 0-4.797-.872-6.5-2.617-1.703-1.745-2.554-3.97-2.554-6.676zm19.722 0c0-2.743.849-4.984 2.546-6.723 1.697-1.738 3.89-2.608 6.58-2.608 2.63 0 4.797.894 6.5 2.682 1.703 1.787 2.555 4.053 2.555 6.796 0 2.559-.881 4.723-2.643 6.492-1.762 1.77-3.923 2.654-6.483 2.654-2.631 0-4.797-.872-6.5-2.617-1.703-1.745-2.555-3.97-2.555-6.676zm-13.866-3.682c-.852.93-1.278 2.149-1.278 3.655 0 1.506.426 2.721 1.278 3.645.852.925 1.971 1.387 3.358 1.387 1.363 0 2.477-.462 3.341-1.387.864-.924 1.296-2.115 1.296-3.572 0-1.567-.417-2.813-1.251-3.738-.833-.924-1.95-1.386-3.349-1.386-1.4 0-2.531.465-3.395 1.396zm19.722 0c-.851.93-1.277 2.149-1.277 3.655 0 1.506.426 2.721 1.277 3.645.852.925 1.972 1.387 3.359 1.387 1.363 0 2.476-.462 3.34-1.387.864-.924 1.296-2.115 1.296-3.572 0-1.567-.416-2.813-1.25-3.738-.834-.924-1.95-1.386-3.349-1.386-1.4 0-2.532.465-3.396 1.396zm14.219 12.353V4.059H136v25.09h-4.746zM2.706 0H14.21a2.706 2.706 0 0 1 2.706 2.706v4.737c0 .56-.454 1.015-1.014 1.015H1.014C.455 8.458 0 8.003 0 7.443V2.706A2.706 2.706 0 0 1 2.706 0zM1.015 11.418h30.11a2.706 2.706 0 0 1 2.706 2.706v10.657c0 .56-.455 1.015-1.015 1.015H2.706A2.706 2.706 0 0 1 0 23.09V12.433c0-.56.454-1.015 1.015-1.015zM17.93 28.756h14.886c.56 0 1.015.455 1.015 1.015v1.523a2.537 2.537 0 0 1-2.538 2.537h-11.84a2.537 2.537 0 0 1-2.538-2.538v-1.522c0-.56.455-1.015 1.015-1.015z"/></g><defs><clipPath id="a"><path fill="#fff" d="M0 0h136v33.831H0z"/></clipPath></defs></svg>