<?xml version="1.0" encoding="UTF-8"?>
<svg width="102px" height="37px" viewBox="0 0 102 37" version="1.1" xmlns="http://www.w3.org/2000/svg" xmlns:xlink="http://www.w3.org/1999/xlink">
    <!-- Generator: Sketch 43.2 (39069) - http://www.bohemiancoding.com/sketch -->
    <title>Runkit</title>
    <desc>Created with Sketch.</desc>
    <defs></defs>
    <g id="Page-1" stroke="none" stroke-width="1" fill="none" fill-rule="evenodd">
        <g id="Runkit" fill="#616161">
            <path d="M13.5045545,31.1288528 L9.08142707,22.8029658 L7.42275427,22.8029658 L7.42275427,31.1288528 L1.406,31.1288528 L1.406,8.52537057 L9.24404205,8.52537057 C15.5535033,8.52537057 18.7407569,10.7369343 18.7407569,15.5503377 C18.7407569,18.4774074 17.4073141,20.2011261 14.5778134,21.697184 L20.2042917,31.1288528 L13.5045545,31.1288528 Z M7.42275427,12.7208371 L7.42275427,18.7050683 L9.43918003,18.7050683 C11.4881288,18.7050683 12.5613876,17.7293784 12.5613876,15.5503377 C12.5613876,13.598958 11.3905598,12.7208371 9.11395007,12.7208371 L7.42275427,12.7208371 Z M36.6284047,13.7940959 L30.8393114,13.7940959 L30.8393114,25.7625585 C30.1563285,26.9008633 29.3107306,27.4862773 28.4976557,27.4862773 C27.6520578,27.4862773 27.1316899,27.0634783 27.1316899,25.5023745 L27.1316899,13.7940959 L21.3425966,13.7940959 L21.3425966,26.2504034 C21.3425966,29.567749 22.8711774,31.7142668 26.188523,31.7142668 C28.4000867,31.7142668 30.1238055,30.8686689 31.3596794,29.0799041 L31.5873403,31.1288528 L36.6284047,31.1288528 L36.6284047,13.7940959 Z M50.743385,13.208682 C48.6293903,13.208682 47.0032405,14.0217569 45.4746597,15.7454757 L45.0518607,13.7940959 L40.0107963,13.7940959 L40.0107963,31.1288528 L45.7998896,31.1288528 L45.7998896,19.4205742 C46.6129645,18.1196544 47.4585624,17.4366715 48.4017293,17.4366715 C49.1822812,17.4366715 49.7026491,17.8594704 49.7026491,19.4530972 L49.7026491,31.1288528 L55.4917424,31.1288528 L55.4917424,18.4123614 C55.4917424,15.0950158 53.6704547,13.208682 50.743385,13.208682 Z M64.7933193,8.52537057 L58.776565,8.52537057 L58.776565,31.1288528 L64.7933193,31.1288528 L64.7933193,8.52537057 Z M77.9651327,8.52537057 L71.6881945,8.52537057 L64.9884573,19.0953443 L71.6556715,31.1288528 L78.5505466,31.1288528 L71.1678265,18.6074993 L77.9651327,8.52537057 Z M82.6159212,4.45999606 C80.6645414,4.45999606 79.2985756,5.85848489 79.2985756,7.64724967 C79.2985756,9.43601445 80.6645414,10.8345033 82.6159212,10.8345033 C84.5673009,10.8345033 85.9332668,9.43601445 85.9332668,7.64724967 C85.9332668,5.85848489 84.5673009,4.45999606 82.6159212,4.45999606 Z M85.5104678,13.7940959 L79.7213745,13.7940959 L79.7213745,31.1288528 L85.5104678,31.1288528 L85.5104678,13.7940959 Z M98.4871432,26.6732024 C97.8692063,27.0309553 97.2837924,27.1610473 96.7309014,27.1610473 C95.7877346,27.1610473 95.2348436,26.6406794 95.2348436,25.0145296 L95.2348436,17.7619014 L98.5847122,17.7619014 L99.1701261,13.7940959 L95.2348436,13.7940959 L95.2348436,9.43601445 L89.4457503,10.1189974 L89.4457503,13.7940959 L87.2016636,13.7940959 L87.2016636,17.7619014 L89.4457503,17.7619014 L89.4457503,25.0795756 C89.4457503,29.405134 91.3646071,31.7142668 95.4625046,31.7142668 C97.0561314,31.7142668 99.0075112,31.2589448 100.406,30.2832549 L98.4871432,26.6732024 Z" id="RunKit"></path>
        </g>
    </g>
</svg>