<svg width="102" height="37" viewBox="0 0 102 37" xmlns="http://www.w3.org/2000/svg"><title>Runkit</title><path d="M13.505 31.13L9.08 22.802H7.424v8.326H1.406V8.524h7.838c6.31 0 9.497 2.212 9.497 7.025 0 2.927-1.333 4.65-4.162 6.147l5.626 9.432h-6.7zM7.423 12.72v5.985H9.44c2.048 0 3.12-.976 3.12-3.155 0-1.95-1.17-2.83-3.446-2.83h-1.69zm29.205 1.074h-5.79v11.97c-.682 1.137-1.527 1.722-2.34 1.722-.846 0-1.366-.423-1.366-1.984V13.794h-5.79V26.25c0 3.318 1.53 5.464 4.847 5.464 2.21 0 3.934-.845 5.17-2.634l.227 2.05h5.04V13.793zm14.115-.585c-2.114 0-3.74.812-5.268 2.535l-.423-1.95h-5.04v17.334H45.8V19.42c.813-1.3 1.66-1.983 2.602-1.983.78 0 1.3.422 1.3 2.016V31.13h5.79V18.41c0-3.317-1.822-5.203-4.75-5.203zm14.05-4.685h-6.016V31.13h6.016V8.524zm13.172 0h-6.277l-6.7 10.57 6.668 12.034h6.895L71.17 18.606l6.797-10.082zm4.65-4.065c-1.95 0-3.316 1.398-3.316 3.187 0 1.79 1.365 3.188 3.316 3.188 1.95 0 3.317-1.4 3.317-3.188 0-1.79-1.366-3.187-3.317-3.187zm2.895 9.334h-5.79V31.13h5.79V13.793zm12.977 12.88a3.43 3.43 0 0 1-1.756.487c-.942 0-1.495-.52-1.495-2.145v-7.253h3.35l.585-3.968h-3.935V9.436l-5.79.683v3.674h-2.243v3.968h2.244v7.318c0 4.325 1.92 6.634 6.017 6.634 1.593 0 3.545-.455 4.943-1.43l-1.92-3.61z" fill="#616161" fill-rule="evenodd"/></svg>