<?xml version="1.0" encoding="UTF-8" standalone="no"?>
<svg width="129px" height="19px" viewBox="0 0 129 19" version="1.1" xmlns="http://www.w3.org/2000/svg" xmlns:xlink="http://www.w3.org/1999/xlink" xmlns:sketch="http://www.bohemiancoding.com/sketch/ns">
    <!-- Generator: Sketch 3.5.2 (25235) - http://www.bohemiancoding.com/sketch -->
    <title>Shape Security</title>
    <desc>Created with Sketch.</desc>
    <defs></defs>
    <g id="Page-1" stroke="none" stroke-width="1" fill="none" fill-rule="evenodd" sketch:type="MSPage">
        <g id="Shape-Security" sketch:type="MSLayerGroup" transform="translate(0.409836, 0.000000)" fill="#616161">
            <g id="Group" sketch:type="MSShapeGroup">
                <path d="M125.09557,11.7782727 C126.856602,11.7782727 127.705462,10.9270727 127.705462,9.15903636 L127.705462,5.49203636 C127.705462,4.96832727 127.281204,4.01867273 126.921978,3.65905455 L124.313806,1.07263636 C123.954237,0.711636364 122.977032,0.3192 122.487398,0.3192 L106.833548,0.3192 C106.344946,0.3192 105.366022,0.711636364 105.008172,1.07263636 L102.398624,3.65905455 C102.039742,4.01867273 101.616172,4.96832727 101.616172,5.49203636 C101.616172,4.96832727 101.192602,4.01867273 100.83372,3.65905455 L98.2245161,1.07263636 C97.8666667,0.711636364 96.888086,0.3192 96.3984516,0.3192 L81.4128172,0.3192 L81.4128172,0.318854545 L76.179957,0.318854545 L76.179957,0.3192 L70.9618925,0.3192 C71.4511828,0.3192 72.4294194,0.711636364 72.7872688,1.07263636 L75.396129,3.65905455 C75.7553548,4.01867273 76.179957,4.96832727 76.179957,5.49203636 L76.179957,16.0346182 C76.179957,17.8033455 75.3314409,18.6548909 73.5700645,18.6548909 L76.179957,18.6548909 L82.7010753,18.6548909 L82.7010753,15.3146909 L99.0073118,15.3146909 C100.768344,15.3146909 101.615484,14.4634909 101.615484,12.6951091 L101.615484,13.4160727 C101.615484,13.9401273 102.00671,14.9226 102.365935,15.2822182 L104.974108,17.9007636 C105.333333,18.2614182 106.31157,18.6548909 106.83286,18.6548909 L126.955011,18.6548909 L126.955011,13.5791273 L109.245935,13.5791273 L108.138323,12.4657273 L108.138323,11.7782727 L125.09557,11.7782727 L125.09557,11.7782727 Z M108.139011,6.44169091 L109.214968,5.39392727 L120.139699,5.39392727 L121.183312,6.40921818 L121.183312,7.19443636 L108.139011,7.19443636 L108.139011,6.44169091 L108.139011,6.44169091 Z M95.0943656,10.0758727 L82.7014194,10.0758727 L82.7014194,5.55801818 L94.0507527,5.55801818 L95.0943656,6.57296364 L95.0943656,10.0758727 L95.0943656,10.0758727 Z" id="Shape"></path>
                <path d="M56.6131613,12.4657273 L57.7218065,13.5791273 L66.808086,13.5791273 L68.5484731,13.5791273 L69.6581505,13.5791273 L69.6581505,12.4657273 L69.6581505,12.0207818 L69.6581505,11.7782727 L56.6131613,11.7782727 L56.6131613,12.4657273 Z" id="Shape"></path>
                <path d="M50.840086,5.39392727 L50.840086,0.3192 L43.568172,0.3192 L43.568172,6.86729091 L31.6325161,6.86729091 L31.6325161,0.3192 L25.1103656,0.3192 L25.1103656,9.81401818 C25.1103656,8.04598182 24.2625376,7.19443636 22.5021935,7.19443636 L6.35939785,7.19443636 L6.35939785,6.44134545 L7.43501075,5.39358182 L24.1135484,5.39358182 L24.1135484,0.3192 L5.21806452,0.3192 C4.72843011,0.3192 3.75019355,0.711636364 3.392,1.07263636 L0.782795699,3.65905455 C0.423913978,4.01832727 0,4.96832727 0,5.49203636 L0,9.15903636 C0,10.9270727 0.847827957,11.7782727 2.6092043,11.7782727 L18.7513118,11.7782727 L18.7513118,12.4992364 L17.6423226,13.6119455 L0.749419355,13.6119455 L0.749419355,18.6545455 L19.8926452,18.6545455 C20.4146237,18.6545455 21.3928602,18.2610727 21.752086,17.9004182 L24.3612903,15.2818727 C24.720172,14.9226 25.1110538,13.9397818 25.1110538,13.4157273 L25.1110538,18.6545455 L31.6332043,18.6545455 L31.6332043,12.1050727 L43.5685161,12.1050727 L43.5685161,18.6545455 L50.0910108,18.6545455 L55.3083871,18.6545455 C54.7870968,18.6545455 53.8085161,18.2610727 53.4499785,17.9004182 L50.8411183,15.2818727 C50.4825806,14.9226 50.0910108,13.9397818 50.0910108,13.4157273 L50.0910108,9.81401818 C50.0910108,8.04598182 50.9391828,7.19443636 52.7005591,7.19443636 L69.6588387,7.19443636 L69.6588387,6.40921818 L68.6148817,5.39392727 C68.6148817,5.39392727 50.840086,5.39392727 50.840086,5.39392727 L50.840086,5.39392727 Z" id="Shape"></path>
            </g>
        </g>
    </g>
</svg>