<svg width="129" height="19" viewBox="0 0 129 19" xmlns="http://www.w3.org/2000/svg"><title>Shape Security</title><g fill="#616161" fill-rule="evenodd"><path d="M125.505 11.778c1.761 0 2.61-.85 2.61-2.619V5.492c0-.524-.424-1.473-.783-1.833l-2.608-2.586c-.36-.361-1.337-.754-1.827-.754h-15.654c-.488 0-1.467.393-1.825.754l-2.61 2.586c-.358.36-.782 1.31-.782 1.833 0-.524-.424-1.473-.782-1.833l-2.61-2.586c-.357-.361-1.336-.754-1.826-.754H71.372c.489 0 1.467.393 1.825.754l2.609 2.586c.36.36.784 1.31.784 1.833v10.543c0 1.768-.849 2.62-2.61 2.62H83.11v-3.34h16.307c1.761 0 2.608-.852 2.608-2.62v.721c0 .524.392 1.507.75 1.866l2.609 2.619c.36.36 1.337.754 1.859.754h20.122v-5.076h-17.71l-1.107-1.113v-.688h16.957zM108.55 6.442l1.076-1.048h10.925l1.043 1.015v.785H108.55v-.752zm-13.045 3.634H83.111V5.558h11.35l1.043 1.015v3.503zM57.023 12.466l1.109 1.113h11.936V11.778H57.023v.688z"/><path d="M51.25 5.394V.319h-7.272v6.548H32.042V.32H25.52v9.495c0-1.768-.848-2.62-2.608-2.62H6.769v-.753l1.076-1.047h16.678V.319H5.628c-.49 0-1.468.393-1.826.754l-2.61 2.586C.835 4.02.41 4.97.41 5.492v3.667c0 1.768.848 2.62 2.609 2.62h16.142v.72l-1.109 1.113H1.16v5.043h19.143c.522 0 1.5-.394 1.86-.755l2.61-2.618c.358-.36.749-1.342.749-1.866v5.239h6.522v-6.55h11.935v6.55H55.718c-.521 0-1.5-.394-1.858-.755l-2.609-2.618c-.359-.36-.75-1.342-.75-1.866V9.814c0-1.768.848-2.62 2.61-2.62h16.958V6.41l-1.044-1.015H51.25z"/></g></svg>