<svg width="127" height="37" viewBox="0 0 127 37" xmlns="http://www.w3.org/2000/svg" xmlns:xlink="http://www.w3.org/1999/xlink"><title>Artboard</title><defs><path id="a" d="M.104.136h38.312v29.16H.104z"/><path id="c" d="M0 .272H35.77v35.751H0z"/></defs><g fill="none" fill-rule="evenodd"><path d="M57.58 10.073c1.117.488 1.198.854.324 2.52-.894 1.707-1.118 1.808-2.215 1.361-1.382-.589-3.15-1.036-4.287-1.036-1.87 0-3.11.67-3.11 1.686 0 3.354 10.71 1.545 10.71 8.698 0 3.597-3.09 5.995-7.722 5.995-2.44 0-5.447-.813-7.52-1.87-1.036-.528-1.097-.833-.202-2.54.772-1.504 1.016-1.666 2.133-1.199 1.768.772 4.003 1.362 5.507 1.362 1.707 0 2.845-.691 2.845-1.707 0-3.252-10.892-1.707-10.892-8.637 0-3.678 3.069-6.137 7.661-6.137 2.154 0 4.877.65 6.767 1.504M66.216 1.579V28.24c0 .407-.426.833-1.036.833h-2.804c-.61 0-1.037-.426-1.037-.833V1.58c0-1.321.366-1.443 2.439-1.443 2.357 0 2.438.162 2.438 1.443M73.227 23.22c0 1.362 1.158 2.277 2.906 2.277 2.114 0 4.023-1.016 5.141-2.744v-1.788a10.834 10.834 0 0 0-3.698-.67c-2.601 0-4.349 1.239-4.349 2.926zm12.924-6.644v11.481c0 .61-.426 1.037-1.036 1.037h-2.764c-.63 0-1.077-.468-1.036-1.098l.04-1.24c-1.503 1.667-3.657 2.54-5.811 2.54-4.187 0-6.99-2.417-6.99-6.035 0-3.84 3.17-6.421 7.925-6.442 1.808 0 3.454.326 4.795.874v-1.32c0-2.114-1.666-3.374-4.49-3.374-1.322 0-2.947.529-4.248 1.28-.996.57-1.24.529-2.316-1.076-1.057-1.606-1.017-1.91 0-2.561 1.95-1.26 4.592-2.073 7.03-2.073 5.467 0 8.901 2.967 8.901 8.007z" fill="#666"/><g transform="translate(88.385)"><mask id="b" fill="#fff"><use xlink:href="#a"/></mask><path d="M16.788 10.114c1.016.589 1.057.914-.061 2.641-1.057 1.626-1.24 1.728-2.357 1.159-.854-.447-2.215-.834-3.333-.834-3.515 0-5.853 2.317-5.853 5.812 0 3.638 2.338 6.076 5.853 6.076 1.22 0 2.743-.467 3.739-1.016 1.016-.59 1.24-.549 2.317 1.016.975 1.463.955 1.809.08 2.419-1.564 1.077-4.043 1.91-6.217 1.91C4.453 29.297.104 25.13.104 18.892c0-6.198 4.349-10.323 10.892-10.323 1.992 0 4.329.67 5.792 1.545M38.004 26.553c.813 1.037.488 1.402-1.545 2.134-2.072.752-2.357.711-3.088-.244l-5.812-7.762-2.601 2.52v5.04c0 .406-.427.832-1.037.832h-2.804c-.61 0-1.036-.426-1.036-.833V1.58c0-1.321.365-1.443 2.438-1.443 2.358 0 2.439.162 2.439 1.443v15.16l7.966-7.642c.873-.833 1.361-.772 2.926.265 1.727 1.117 1.849 1.422 1.016 2.235l-5.934 5.771 7.072 9.185" fill="#666" mask="url(#b)"/></g><path fill="#292E31" d="M14.724 16.942l1.541 4.6 4.78-1.6-1.541-4.6-4.78 1.6"/><g transform="translate(0 .286)"><mask id="d" fill="#fff"><use xlink:href="#c"/></mask><path fill="#666" mask="url(#d)" d="M14.724 16.656l1.541 4.6 4.78-1.6-1.541-4.6-4.78 1.6"/><path d="M28.055 21.218l-2.317.776.803 2.398a1.854 1.854 0 1 1-3.516 1.178l-.803-2.398-4.78 1.6.804 2.399a1.854 1.854 0 0 1-3.516 1.177l-.803-2.398-2.318.776a1.854 1.854 0 1 1-1.178-3.516l2.318-.776-1.54-4.6-2.318.776a1.853 1.853 0 0 1-2.347-1.17 1.854 1.854 0 0 1 1.17-2.346l2.317-.776-.803-2.398a1.854 1.854 0 0 1 3.515-1.178l.804 2.398 4.779-1.6-.803-2.398a1.854 1.854 0 0 1 3.516-1.178l.803 2.398 2.317-.776a1.854 1.854 0 0 1 1.178 3.516l-2.317.776 1.54 4.6 2.318-.776a1.854 1.854 0 0 1 1.177 3.516zm6.217-7.978C30.584.95 25.258-1.918 12.968 1.769.678 5.456-2.19 10.782 1.498 23.073 5.183 35.363 10.51 38.23 22.8 34.543c12.29-3.687 15.158-9.013 11.47-21.303z" fill="#666" mask="url(#d)"/></g></g></svg>