<svg width="145" height="59" viewBox="0 0 145 59" xmlns="http://www.w3.org/2000/svg"><title>Artboard</title><g fill-rule="nonzero" fill="#616161"><path d="M0 33.824L2.273 31.1c1.575 1.3 3.223 2.125 5.22 2.125 1.576 0 2.525-.625 2.525-1.65v-.05c0-.973-.6-1.473-3.523-2.222C2.973 28.403.7 27.43.7 23.956v-.05c0-3.172 2.547-5.27 6.12-5.27 2.548 0 4.72.798 6.495 2.222l-1.998 2.898c-1.55-1.074-3.073-1.724-4.547-1.724-1.474 0-2.248.675-2.248 1.525v.05c0 1.15.75 1.524 3.772 2.298 3.548.924 5.546 2.198 5.546 5.246v.05c0 3.474-2.648 5.422-6.42 5.422-2.65 0-5.322-.924-7.42-2.798M23.095 27.704c1.924 0 3.048-1.15 3.048-2.65v-.05c0-1.723-1.2-2.647-3.122-2.647H20.05v5.347h3.047zm-6.895-8.82h7.145c4.172 0 6.695 2.474 6.695 6.047v.05c0 4.047-3.148 6.146-7.07 6.146H20.05v5.247H16.2v-17.49zM39.533 29.053L37.21 23.38l-2.324 5.673h4.647zM35.485 18.76h3.548l7.495 17.613h-4.022l-1.6-3.923h-7.393l-1.6 3.923H27.99l7.495-17.613zM56.093 27.38c1.873 0 2.948-1 2.948-2.474v-.05c0-1.65-1.15-2.5-3.023-2.5h-3.82v5.023h3.896zm-7.745-8.496h7.994c2.224 0 3.948.625 5.097 1.774.973.975 1.498 2.35 1.498 3.998v.05c0 2.823-1.524 4.597-3.748 5.42l4.272 6.247h-4.496l-3.748-5.597h-3.022v5.597h-3.848v-17.49zM89.488 28.653c3.247 0 5.445-1.7 5.445-4.297v-.05c0-2.773-2.148-4.222-5.296-4.222H84.69v8.57h4.798zm-6.096-9.77h6.345c3.848 0 6.496 1.975 6.496 5.348v.05c0 3.673-3.173 5.572-6.82 5.572H84.69v6.52h-1.298V18.885zM117.04 33.824l.85-.974c1.923 1.773 3.697 2.598 6.27 2.598 2.623 0 4.422-1.474 4.422-3.472v-.05c0-1.85-.975-2.923-4.947-3.723-4.197-.85-5.896-2.273-5.896-4.922v-.048c0-2.6 2.372-4.597 5.62-4.597 2.55 0 4.222.7 5.997 2.123l-.826 1.025c-1.647-1.424-3.296-1.974-5.22-1.974-2.573 0-4.27 1.473-4.27 3.297v.05c0 1.848.948 2.973 5.095 3.822 4.047.824 5.746 2.272 5.746 4.82v.05c0 2.824-2.422 4.772-5.795 4.772-2.798 0-4.947-.924-7.045-2.798M137.373 20.084h-6.097v-1.2h13.49v1.2h-6.094v16.29h-1.3v-16.29M69.414 26.242l6.054-7.358h4.696l-7.102 8.307 7.613 9.183H75.73l-6.316-7.807v7.807h-3.847V18.885h3.847v7.357M106.83 34.154a6.126 6.126 0 1 1 0-12.253 6.126 6.126 0 0 1 0 12.254zm6.214-19.255c-1.948 1.47-2.325 4.062-2.382 5.815-3.08-3.56 5.702-14.036-4.276-20.51 6.176 7.993-8.788 15.85-8.788 27.627 0 4.616 2.884 8.683 9.22 10.096 6.213-1.324 9.28-5.48 9.28-10.096 0-6.882-4.285-9.185-3.054-12.933z"/></g></svg>