<svg width="70" height="103" viewBox="0 0 70 103" xmlns="http://www.w3.org/2000/svg"><title>Artboard</title><g fill="#666" fill-rule="nonzero"><path d="M68.905 22.577c-.062 2.418-1.111 4.22-3.136 5.434-.373.224-.503.452-.502.878.013 6.596.013 13.193.002 19.788 0 .396.1.635.464.846 2.342 1.353 3.527 3.851 3.106 6.477-.404 2.516-2.414 4.584-5.017 5.079-1.51.287-2.972.058-4.295-.754-.403-.247-.688-.204-1.065.014a5418.349 5418.349 0 0 1-17.02 9.825c-.389.223-.534.47-.534.923.006 3.174-2.441 5.936-5.5 6.244-3.257.328-6.136-1.72-6.84-4.883a7.713 7.713 0 0 1-.155-1.492c-.008-.337-.102-.544-.401-.718a8415.905 8415.905 0 0 1-17.263-9.964c-.312-.181-.556-.182-.87.007-3.757 2.264-8.547.094-9.344-4.134-.503-2.671.584-5.17 2.972-6.576.378-.223.549-.448.548-.91-.017-6.596-.014-13.192-.004-19.788 0-.397-.102-.63-.465-.841C1.187 26.637.059 24.215.52 21.495c.456-2.701 2.545-4.683 5.262-5.07 1.457-.208 2.861.058 4.121.863.293.187.51.181.809.01 5.733-3.32 11.472-6.632 17.215-9.935.347-.2.483-.43.484-.839.01-3.633 2.878-6.413 6.514-6.34 2.833.056 5.484 2.397 5.886 5.195.037.257.094.415.094.77 0 .775.286 1.104.89 1.45a3438.28 3438.28 0 0 1 16.683 9.627c.38.221.658.231 1.055.005 3.772-2.153 8.346-.09 9.264 4.17.086.397.078.814.108 1.176zm-49.177 22.63c-.057.048-.095.09-.143.117-3.126 1.807-6.25 3.618-9.387 5.405-.173.098-.51.077-.686-.029-.83-.501-1.712-.834-2.679-.86-3.215-.082-5.17 2.546-5.28 4.829-.127 2.673 1.895 5.413 5.165 5.388 2.867-.02 5.05-2.322 5.021-5.193-.005-.513.146-.803.596-1.058 3.332-1.899 6.65-3.82 9.965-5.746.32-.187.578-.217.927-.053 2.067.972 4.205 1.137 6.41.514.218-.062.509 0 .728.094.648.276 1.267.626 1.92.89.371.15.497.353.496.749-.011 5.2-.01 10.398-.001 15.597 0 .367-.116.575-.45.736-1.75.844-3.072 3.023-2.711 5.354.418 2.707 3.198 4.752 5.88 4.227 2.363-.462 3.916-2.076 4.249-4.56.225-1.684-.585-3.909-2.75-5.022-.293-.15-.455-.314-.454-.676.01-5.05.011-10.1 0-15.15 0-.448.206-.54.598-.61 1.037-.182 2.076-.382 3.09-.667.458-.129.821-.147 1.265.044 2.222.957 4.385.793 6.455-.457.295-.177.507-.185.804-.012a873.88 873.88 0 0 0 8.223 4.742c.444.252.616.53.603 1.053-.08 3.021 2.553 5.49 5.624 5.163 3.014-.32 5.15-3.224 4.45-6.16-.838-3.518-4.646-5.105-7.722-3.203-.324.2-.559.254-.904.052a804.275 804.275 0 0 0-7.832-4.526c-.387-.22-.439-.424-.315-.84.79-2.664.253-5.033-1.653-7.074-.373-.399-2.12-3.192-2.365-3.707-.192-.407-.111-.625.277-.847 3.972-2.277 7.939-4.564 11.898-6.863.319-.184.536-.187.848.023 1.116.75 2.368.987 3.68.757 2.555-.448 4.407-2.762 4.18-5.493-.248-2.963-3.152-5.177-6.053-4.535-2.545.564-4.144 2.555-4.116 5.172.005.446-.12.7-.516.927a1869.297 1869.297 0 0 0-12.04 6.954c-.36.21-.558.167-.849-.113-1.887-1.82-4.157-2.841-6.748-3.165-.874-.11-.875-.105-.875-1.008 0-4.734.012-9.467-.014-14.2-.003-.66.151-1.043.77-1.398 2.217-1.275 3.06-4.02 2.046-6.361-1.024-2.361-3.638-3.622-6.09-2.875-2.231.68-3.475 2.257-3.694 4.553-.168 1.771.67 3.74 2.69 4.844.31.17.527.319.525.745-.017 5.218-.016 10.435-.002 15.653 0 .414-.188.554-.525.725-1.009.509-2.091.954-2.948 1.663-.988.816-1.911 1.287-3.287 1.287-.134-.004-.22.01-.36.006-.34-.007-.724-.022-1.002-.18-4.058-2.316-8.094-4.67-12.156-6.978-.58-.329-.86-.681-.763-1.35.038-.267-.044-.553-.087-.828-.397-2.5-2.84-4.591-5.79-4.106-2.893.477-4.73 3.097-4.253 5.901.609 3.582 4.693 5.395 7.775 3.436.348-.222.588-.239.944-.03 3.055 1.782 6.121 3.543 9.184 5.311.524.303 1.048.61 1.569.912-3.52 3.729-3.914 7.735-1.355 12.11z"/><path d="M28.189 33.153c.805.071 1.206-.2 1.794-.747 2.54-2.362 5.536-3.093 8.826-2 3.234 1.075 5.24 3.375 5.904 6.749.13.66.39 1.058.98 1.394 1.685.961 2.657 3.04 2.323 4.772-.432 2.243-1.901 3.798-3.98 4.127-1.106.176-2.205.05-3.179-.55-.436-.269-.782-.24-1.232-.05-2.894 1.217-5.695 1.01-8.358-.666-.409-.258-.751-.278-1.194-.133-3.752 1.227-7.655-.904-8.608-4.649-1.091-4.292 2.331-8.444 6.724-8.247zM61.243 54.96c0-.84.604-1.45 1.43-1.448.796.003 1.473.66 1.48 1.438.01.749-.714 1.472-1.469 1.473-.807 0-1.44-.642-1.44-1.463zM33.207 6.432a1.43 1.43 0 0 1 1.456-1.441c.82 0 1.45.625 1.452 1.442.003.783-.68 1.475-1.45 1.466-.781-.008-1.46-.692-1.458-1.467zM8.077 54.966c-.003.82-.642 1.464-1.444 1.457-.759-.006-1.46-.715-1.464-1.48-.004-.763.69-1.431 1.486-1.431.826 0 1.425.614 1.422 1.454zM34.679 69.697c.818.006 1.44.629 1.436 1.44-.005.808-.636 1.416-1.466 1.411-.822-.005-1.451-.633-1.442-1.44.01-.803.65-1.416 1.472-1.41zM6.672 24.03c-.83.007-1.478-.598-1.503-1.4-.024-.782.632-1.438 1.45-1.45.853-.012 1.447.557 1.459 1.4.012.845-.567 1.442-1.406 1.45zM62.655 24.032c-.838-.006-1.42-.604-1.412-1.45.01-.84.604-1.412 1.458-1.4.818.01 1.47.66 1.45 1.446-.02.797-.672 1.41-1.496 1.404z"/><g><path d="M4.916 89.299c-.34.28-.509.648-.509 1.108 0 .46.207.825.622 1.097.414.271 1.37.592 2.87.96 1.499.37 2.663.925 3.492 1.663.828.739 1.243 1.817 1.243 3.234s-.532 2.567-1.594 3.449c-1.062.882-2.46 1.323-4.192 1.323-2.501 0-4.754-.927-6.758-2.782l2.102-2.578c1.703 1.493 3.277 2.239 4.724 2.239.647 0 1.156-.14 1.525-.418.37-.28.554-.656.554-1.131s-.196-.852-.588-1.13c-.392-.28-1.168-.562-2.328-.849-1.838-.437-3.183-1.006-4.034-1.708-.851-.7-1.277-1.801-1.277-3.301 0-1.5.539-2.657 1.616-3.472 1.077-.814 2.422-1.22 4.034-1.22 1.055 0 2.11.18 3.164.542 1.055.362 1.974.874 2.758 1.538l-1.786 2.578c-1.371-1.04-2.787-1.56-4.249-1.56-.587 0-1.05.14-1.39.418zM21.334 89.197v12.755H17.81V89.197h-4.475v-3.053h12.475v3.053h-4.475zM40.386 99.77c-1.597 1.56-3.563 2.34-5.899 2.34-2.335 0-4.301-.78-5.898-2.34-1.597-1.56-2.396-3.502-2.396-5.824 0-2.321.799-4.263 2.396-5.823 1.597-1.56 3.563-2.34 5.898-2.34 2.336 0 4.302.78 5.899 2.34 1.597 1.56 2.396 3.502 2.396 5.823 0 2.322-.8 4.263-2.396 5.824zm-1.198-5.812c0-1.41-.452-2.612-1.356-3.607-.904-.995-2.015-1.493-3.333-1.493-1.319 0-2.43.498-3.334 1.493-.904.995-1.356 2.197-1.356 3.607 0 1.41.452 2.608 1.356 3.595.904.988 2.015 1.482 3.334 1.482 1.317 0 2.43-.494 3.333-1.482.904-.987 1.356-2.186 1.356-3.595zM57.72 91.39c0 2.534-1.002 4.17-3.006 4.908l4 5.654h-4.339l-3.503-5.043h-2.44v5.043h-3.526V86.145h5.988c2.456 0 4.207.414 5.255 1.243 1.047.83 1.57 2.163 1.57 4.003zm-4.25 1.878c.438-.392.656-1.014.656-1.866 0-.852-.226-1.436-.677-1.752-.453-.317-1.243-.475-2.374-.475h-2.644v4.681h2.576c1.206 0 2.027-.196 2.464-.588zM60.884 89.174v-3.03h8.226v10.312c0 1.885-.486 3.295-1.458 4.23-.971.934-2.218 1.402-3.74 1.402-1.898 0-3.556-.732-4.972-2.194l1.83-2.533c.95 1.026 1.944 1.538 2.984 1.538.497 0 .923-.192 1.277-.577.353-.384.53-.96.53-1.73v-7.417h-4.677z"/></g></g></svg>