<svg width="130" height="35" viewBox="0 0 130 35" xmlns="http://www.w3.org/2000/svg"><title>Trim</title><g fill-rule="nonzero" fill="none"><ellipse fill="#9E9E9E" cx="17.516" cy="17.532" rx="17.388" ry="17.331"/><ellipse fill="#DDD" cx="18.507" cy="17.345" rx="10.488" ry="1.191"/><path d="M4.681 29.224a6.512 6.512 0 0 1 2.386-.464v-4.733c-1.778 0-3.532.42-5.116 1.226.72 1.444 1.64 2.78 2.73 3.97z" fill="#F6F6F6"/><path d="M28.107 31.275a17.454 17.454 0 0 0 3.54-3.648V16.088l-3.54 3.394v11.793z" fill="#686868"/><path d="M5.735 30.278c6.22 5.716 15.665 6.136 22.372.997V19.482H5.735v10.796zM28.986 14.999c-.188-5.634-4.825-10.103-10.48-10.103-5.656 0-10.292 4.47-10.48 10.103v2.406l20.979.056v-2.462h-.019z" fill="#DDD"/><path d="M19.72 16.443a.761.761 0 0 1-.764.763.764.764 0 0 1-.765-.763v-2.304a.764.764 0 0 1 1.306-.54.761.761 0 0 1 .224.54v2.304z" fill="#414042"/><ellipse fill="#F6F6F6" cx="19.072" cy="14.039" rx="1" ry="1"/><path d="M15.553 16.443a.761.761 0 0 1-.765.763.764.764 0 0 1-.765-.763v-2.304a.764.764 0 0 1 1.306-.54.761.761 0 0 1 .224.54v2.304z" fill="#414042"/><ellipse fill="#F6F6F6" cx="14.905" cy="14.039" rx="1" ry="1"/><path fill="#686868" d="M10.114 7.079h18.512v2.033H10.114z"/><path fill="#959595" d="M1.951 12.12h26.651V9.112H10.026z"/><path fill="#9E9E9E" d="M8.179 21.579H25.77v5.123H8.179z"/><path fill="#686868" d="M8.179 21.579H25.77v1H8.179z"/><path d="M30.028 24.338v4.744c.146 0 .29 0 .437.017a17.347 17.347 0 0 0 2.83-4.281c-1.06-.32-2.16-.481-3.267-.48zM8.18 26.7v-5.123l.694.668V26.7z" fill="#F6F6F6"/><ellipse fill="#F6F6F6" cx="30.028" cy="26.7" rx="1" ry="2.364"/><path fill="#686868" d="M20.453 4.956l1.74-1.74 8.97 8.97-1.74 1.74z"/><path fill="#DDD" d="M22.177 3.217l-1.74 1.734-.816-2.654z"/><path d="M31.177 12.187l.697.696a.43.43 0 0 1 0 .61l-1.137 1.11a.434.434 0 0 1-.611 0l-.698-.696 1.749-1.72z" fill="#686868"/><path fill="#9E9E9E" d="M28.748 13.236l1.74-1.74.707.708-1.74 1.739z"/><path fill="#414042" d="M19.923 3.277l-.302-.98.946.34z"/><ellipse fill="#F6F6F6" cx="10.584" cy="29.898" rx="1.949" ry="1.942"/><ellipse fill="#F6F6F6" cx="16.951" cy="29.898" rx="1.949" ry="1.942"/><path d="M12.31 34.073a1.942 1.942 0 0 0-2.366-.927c.765.366 1.555.676 2.365.927zM17.516 34.863c.465 0 .93-.023 1.375-.058a1.944 1.944 0 0 0-1.878-1.766 1.945 1.945 0 0 0-1.985 1.646c.824.118 1.656.178 2.488.178zM20.742 33.558l.625.874a17.283 17.283 0 0 0 2.775-.874h-3.4zM23.01 28.406l-2.268 3.17h4.537z" fill="#F6F6F6"/><path fill="#666" d="M105.13 26.632l2.684-13.216h.065l3.086 13.216h7.795l3.303-13.216h.065l2.04 13.216h5.627l-3.874-19.507h-7.205l-3.95 16.075h-.066l-3.186-16.075h-7.205l-4.695 19.507zM93.4 26.632l.17-19.507h-5.737l-.17 19.507zM69.535 26.632l.09-5.908h.861c1.274 0 1.816.953 2.486 2.288l1.875 3.623h6.36l-2.456-4.383c-.798-1.43-1.753-2.796-3.023-3.178v-.067c3.156-.128 5.386-2.55 5.29-5.686 0-4.988-3.855-6.196-8.446-6.196h-8.674l-.177 19.507h5.814zm0-15.311h2.325c2.296 0 3.41.795 3.41 2.605 0 2.223-1.912 2.605-3.284 2.605h-2.581l.13-5.21zM46.874 26.632h5.738l.165-14.931h5.958V7.125h-18.04v4.576h6.342z"/></g></svg>