<svg xmlns="http://www.w3.org/2000/svg" width="58" height="48"><path fill="#616161" fill-rule="evenodd" d="M57.642 6.45c-2.112.947-4.383 1.586-6.765 1.874 2.432-1.473 4.3-3.804 5.18-6.583-2.277 1.37-4.797 2.36-7.48 2.89-2.15-2.31-5.21-3.76-8.597-3.76-6.51 0-11.78 5.33-11.78 11.9 0 .93.104 1.84.305 2.71-9.79-.492-18.47-5.23-24.278-12.43-1.014 1.76-1.595 3.8-1.595 5.98 0 4.13 2.08 7.77 5.24 9.907-1.93-.06-3.747-.596-5.335-1.488v.15c0 5.764 4.06 10.572 9.448 11.665-.99.277-2.03.42-3.104.42-.75 0-1.49-.072-2.21-.21 1.5 4.726 5.85 8.166 11.006 8.262-4.03 3.19-9.11 5.093-14.63 5.093-.95 0-1.89-.056-2.81-.166C5.446 46.03 11.636 48 18.288 48 39.952 48 51.8 29.87 51.8 14.148c0-.515-.01-1.03-.035-1.54 2.302-1.676 4.3-3.772 5.878-6.158"/></svg>