<svg xmlns="http://www.w3.org/2000/svg" width="58" height="48"><path fill="#616161" fill-rule="evenodd" d="M57.642 6.45a23.358 23.358 0 0 1-6.765 1.874 11.917 11.917 0 0 0 5.18-6.583 23.224 23.224 0 0 1-7.48 2.89c-2.15-2.31-5.21-3.76-8.597-3.76-6.51 0-11.78 5.33-11.78 11.9 0 .93.104 1.84.305 2.71-9.79-.492-18.47-5.23-24.278-12.43a11.936 11.936 0 0 0-1.595 5.98c0 4.13 2.08 7.77 5.24 9.907a11.612 11.612 0 0 1-5.335-1.488v.15c0 5.764 4.06 10.572 9.448 11.665a11.741 11.741 0 0 1-5.314.21c1.5 4.726 5.85 8.166 11.006 8.262a23.489 23.489 0 0 1-14.63 5.093c-.95 0-1.89-.056-2.81-.166A33.146 33.146 0 0 0 18.288 48C39.952 48 51.8 29.87 51.8 14.148c0-.515-.01-1.03-.035-1.54a24.015 24.015 0 0 0 5.878-6.158"/></svg>