<svg xmlns="http://www.w3.org/2000/svg" width="99" height="80"><path fill="#616161" fill-rule="evenodd" d="M79 22.445c-2.097.924-4.35 1.548-6.717 1.83 2.415-1.438 4.27-3.714 5.142-6.426-2.26 1.33-4.762 2.293-7.426 2.814C67.862 18.41 64.823 17 61.46 17c-6.458 0-11.694 5.2-11.694 11.613 0 .91.102 1.796.302 2.646-9.72-.488-18.336-5.11-24.104-12.137-1.007 1.715-1.583 3.71-1.583 5.838 0 4.03 2.066 7.584 5.204 9.667-1.917-.06-3.72-.584-5.297-1.454v.146c0 5.626 4.03 10.32 9.38 11.386-.98.264-2.014.406-3.08.406-.754 0-1.487-.072-2.2-.208 1.487 4.613 5.806 7.97 10.923 8.064-4 3.113-9.045 4.97-14.523 4.97-.944 0-1.875-.055-2.79-.16C27.175 61.076 33.322 63 39.927 63c21.51 0 33.27-17.695 33.27-33.04 0-.504-.01-1.005-.032-1.503 2.284-1.637 4.267-3.683 5.835-6.012"/></svg>