<?xml version="1.0" encoding="UTF-8" standalone="no"?>
<svg
   xmlns:dc="http://purl.org/dc/elements/1.1/"
   xmlns:cc="http://creativecommons.org/ns#"
   xmlns:rdf="http://www.w3.org/1999/02/22-rdf-syntax-ns#"
   xmlns:svg="http://www.w3.org/2000/svg"
   xmlns="http://www.w3.org/2000/svg"
   id="svg3812"
   version="1.1"
   data-background="#f1eCe3"
   data-palette="positive"
   data-state="resting"
   viewBox="0 0 131.6006 74.746367"
   height="74.746368"
   width="131.60062">
  <metadata
     id="metadata3818">
    <rdf:RDF>
      <cc:Work
         rdf:about="">
        <dc:format>image/svg+xml</dc:format>
        <dc:type
           rdf:resource="http://purl.org/dc/dcmitype/StillImage" />
        <dc:title>Typeform</dc:title>
      </cc:Work>
    </rdf:RDF>
  </metadata>
  <defs
     id="defs3816" />
  <title
     id="title3788">Typeform</title>
  <g
     style="stroke-width:0.67385197"
     id="g3810"
     transform="matrix(1.4840055,0,0,1.4840055,-4.6400591,-271.58316)">
    <path
       style="fill:none;stroke:#666666;stroke-width:0.67385197;stroke-miterlimit:4;stroke-dasharray:none;stroke-opacity:1"
       id="path3790"
       d="m 30.217042,232.9152 c 6.391423,-0.58391 11.184631,-4.28639 16.236863,-8.9526 5.050619,-4.6646 9.639409,-8.20144 9.73058,-15.07859 0.09117,-6.89172 -4.327479,-14.62347 -9.303452,-19.58601 -4.958393,-4.94513 -9.068218,-5.7189 -16.206391,-5.92382 -7.137817,-0.20493 -14.468007,0.54808 -19.746832,4.89853 -5.2968759,4.3683 -8.0356236,9.95898 -7.3654645,17.63989 0.6701592,7.65456 5.4895313,15.68999 10.6644315,20.94705 5.191408,5.27371 9.58742,6.63946 15.990265,6.05555 z"
       class="tf-ring" />
    <g
       style="fill:#666666;fill-opacity:1;stroke-width:0.67385197"
       id="g3808"
       transform="matrix(0.30460567,0,0,0.30460567,28.498421,201.14963)"
       class="tf-wordmark">
      <polygon
         style="fill:#666666;fill-opacity:1;stroke-width:0.67385197"
         id="polygon3792"
         points="26.553794,5.9761 16.178794,5.9761 16.178794,33.9741 11.010794,33.9741 11.010794,5.9761 0.6357939,5.9761 0.6357939,1.0911 26.553794,1.0911 " />
      <polygon
         id="polygon3794"
         style="display:block;fill:#666666;fill-opacity:1;stroke-width:0.67385197"
         points="32.961494,10.2983 27.332494,10.2983 37.669494,33.8803 33.170494,43.5563 38.856494,43.5563 54.316494,10.2983 48.631494,10.2983 40.566494,27.6483 "
         class="tf-letter" />
      <path
         id="path3796"
         style="display:block;fill:#666666;fill-opacity:1;stroke-width:0.67385197"
         d="m 75.557694,22.1357 c 0,-2.396 -0.563,-4.322 -1.69,-5.73 -1.128,-1.457 -2.584,-2.162 -4.37,-2.162 -1.785,0 -3.241,0.705 -4.368,2.162 -1.128,1.408 -1.691,3.334 -1.691,5.73 0,2.396 0.563,4.321 1.691,5.778 1.127,1.409 2.583,2.114 4.368,2.114 1.786,0 3.242,-0.705 4.37,-2.114 1.127,-1.457 1.69,-3.382 1.69,-5.778 m -5.496,12.214 c -2.772,0 -5.167,-1.316 -6.341,-3.006 v 12.212 h -4.886 v -33.257 h 4.886 v 2.724 c 0.893,-1.551 3.569,-3.101 6.436,-3.101 6.905,0 10.569,4.509 10.569,12.214 0,7.516 -3.712,12.214 -10.664,12.214 z"
         class="tf-letter" />
      <path
         id="path3798"
         style="display:block;fill:#666666;fill-opacity:1;stroke-width:0.67385197"
         d="m 90.238394,19.4116 h 11.508996 c -0.423,-2.96 -2.395996,-5.167 -5.730996,-5.167 -3.147,0 -5.215,2.113 -5.778,5.167 z m 16.675996,4.086 H 90.143394 c 0,3.712 2.161,6.53 5.873,6.53 2.63,0 5.026996,-1.504 6.200996,-3.993 l 4.18,1.644 c -2.395,4.65 -5.167,6.671 -10.380996,6.671 -7.798,0 -11.04,-6.577 -11.04,-12.214 0,-5.638 3.242,-12.214 11.04,-12.214 7.562996,0 10.897996,6.154 10.897996,11.463 z"
         class="tf-letter" />
      <path
         id="path3800"
         style="display:block;fill:#666666;fill-opacity:1;stroke-width:0.67385197"
         d="m 110.89749,14.6191 v -4.321 h 3.054 v -1.221 c 0,-5.591 3.007,-8.362 7.938,-8.362 1.55,0 2.82,0.281 3.9,0.845 l -0.988,4.134 c -0.844,-0.423 -1.784,-0.658 -2.771,-0.658 -2.113,0 -3.194,1.222 -3.194,3.712 v 1.55 h 5.214 v 4.321 h -5.214 v 19.354 h -4.885 v -19.354 z"
         class="tf-letter" />
      <path
         id="path3802"
         style="display:block;fill:#666666;fill-opacity:1;stroke-width:0.67385197"
         d="m 132.45129,22.1357 c 0,2.161 0.563,4.04 1.69,5.59 1.175,1.551 2.772,2.302 4.792,2.302 2.02,0 3.618,-0.751 4.745,-2.302 1.174,-1.55 1.738,-3.429 1.738,-5.59 0,-2.161 -0.564,-3.993 -1.738,-5.543 -1.127,-1.551 -2.725,-2.349 -4.745,-2.349 -2.02,0 -3.617,0.798 -4.792,2.349 -1.127,1.55 -1.69,3.382 -1.69,5.543 m -5.168,0 c 0,-3.429 1.033,-6.341 3.147,-8.69 2.115,-2.35 4.98,-3.524 8.503,-3.524 3.524,0 6.342,1.174 8.456,3.524 2.114,2.349 3.194,5.261 3.194,8.69 0,3.429 -1.08,6.342 -3.194,8.691 -2.114,2.348 -4.932,3.523 -8.456,3.523 -3.523,0 -6.388,-1.175 -8.503,-3.523 -2.114,-2.349 -3.147,-5.262 -3.147,-8.691 z"
         class="tf-letter" />
      <path
         id="path3804"
         style="display:block;fill:#666666;fill-opacity:1;stroke-width:0.67385197"
         d="m 160.10949,33.9736 h -4.885 v -23.675 h 4.885 v 3.946 c 1.551,-2.772 4.369,-4.323 7,-4.323 1.08,0 2.066,0.189 3.006,0.564 l -0.846,4.463 c -0.751,-0.47 -1.69,-0.704 -2.771,-0.704 -1.738,0 -3.242,0.939 -4.509,2.864 -1.269,1.879 -1.88,4.557 -1.88,8.08 z"
         class="tf-letter" />
      <path
         id="path3806"
         style="display:block;fill:#666666;fill-opacity:1;stroke-width:0.67385197"
         d="m 175.13969,10.2983 h 4.885 v 4.04 c 1.927,-2.96 4.275,-4.416 7.14,-4.416 3.195,0 5.826,1.926 6.531,4.885 1.643,-3.147 4.321,-4.885 7.375,-4.885 4.274,0 6.764,2.818 6.764,7.093 v 16.958 h -4.885 v -15.877 c 0,-2.49 -1.363,-3.852 -3.477,-3.852 -3.053,0 -5.543,3.992 -5.543,10.24 v 9.489 h -4.886 v -15.877 c 0,-2.49 -1.362,-3.852 -3.475,-3.852 -3.148,0 -5.544,3.992 -5.544,10.757 v 8.972 h -4.885 z"
         class="tf-letter" />
    </g>
  </g>
</svg>
