<svg xmlns="http://www.w3.org/2000/svg" width="116" height="17" viewBox="0 0 116 17" xmlns:xlink="http://www.w3.org/1999/xlink"><defs><path id="a" d="M.014 0h115.83v16.235H.014"/></defs><g fill="none" fill-rule="evenodd"><mask id="b" fill="#fff"><use xlink:href="#a"/></mask><path fill="#0E1014" d="M15.17.038v9.28c0 3.177-1.533 5.053-6.134 5.053-4.615 0-6.155-1.873-6.155-5.05V2.796C2.825 1.25 1.558.005 0 .005V1.81c.564 0 1.012.438 1.065.987v7.158c0 3.68 2.886 6.293 7.97 6.293 5.078 0 7.952-2.614 7.952-6.293V.038H15.17m52.824 14.07V9.76c0-.597.507-1.086 1.095-1.098h7.92V6.83h-7.95c-.384.01-.74.088-1.068.23V1.823h12.93V0H66.156v15.93H81.46v-1.82H67.995m32.775-6.13c-.385 0-.748.08-1.084.215L99.67 1.72l9.982-.004c1.733 0 3.133 1.396 3.133 3.13s-1.4 3.14-3.133 3.14l-8.883-.006zm13.957 6.24c-.438.35-1.062.28-1.442-.123L109.8 9.672c2.603-.08 4.685-2.213 4.685-4.83 0-2.677-2.17-4.842-4.843-4.842H97.847v15.93h1.823l.017-5.19c.02-.578.51-1.06 1.1-1.06l6.71.002 4.358 5.535c1.003 1.185 2.765 1.383 3.988.42l-1.116-1.417z" mask="url(#b)"/><path fill="#0E1014" d="M45.214 14.22l-10.057-.01V9.692c.007-.603.508-1.116 1.107-1.116l8.95-.002c1.56 0 2.818 1.262 2.818 2.814 0 1.57-1.258 2.832-2.818 2.832zM35.157 1.72l10.103.01c1.416 0 2.56 1.15 2.56 2.567 0 1.41-1.144 2.557-2.56 2.557h-9.148c-.333.023-.662.1-.955.227V1.72zM47.84 7.7c1.026-.782 1.7-2.014 1.7-3.41 0-2.36-1.92-4.284-4.285-4.284L33.335 0v15.93h11.88c2.504 0 4.533-2.03 4.533-4.542 0-1.52-.755-2.864-1.908-3.688z"/></g></svg>