<svg xmlns="http://www.w3.org/2000/svg" width="77" height="16"><path fill="#000203" fill-rule="evenodd" d="M12.04.386v8.808c0 2.942-1.303 4.163-4.357 4.163-3.054 0-4.356-1.22-4.356-4.163V0H.387C.127 0 0 .13 0 .386V9.34c0 4.918 3.134 6.637 7.683 6.637 4.55 0 7.684-1.72 7.684-6.638V0h-2.942c-.257 0-.386.13-.386.386m42.64 2.17c.24 0 .353-.08.433-.258l.852-2.105c.05-.128 0-.193-.128-.193H43.99c-1.108 0-1.525.338-1.525 1.093v13.68c0 .642.32.93 1.173.93H54.68c.24 0 .354-.08.434-.256l.852-2.106c.05-.125 0-.19-.128-.19h-10.11v-2.78c0-.965.53-1.4 1.96-1.4h4.39c.24 0 .352-.08.432-.256l.82-2.025c.048-.13 0-.194-.128-.194h-7.475v-3.94h8.953M30.74 13.18h-5.804v-2.877c0-.964.53-1.398 1.96-1.398h3.844c1.848 0 2.363.707 2.363 2.154 0 1.443-.515 2.12-2.363 2.12zM24.936 2.525h5.193c1.733 0 2.215.653 2.215 2.01 0 1.354-.482 2.008-2.218 2.008h-5.194v-4.02zm8.89 4.902c1.286-.675 1.816-1.945 1.816-3.44C35.642.514 32.812 0 29.888 0H23.2c-1.108 0-1.526.338-1.526 1.093v13.68c0 .642.322.93 1.174.93h8.23c3.102 0 5.32-1.204 5.32-4.34 0-1.88-.804-3.47-2.572-3.937zM70.36 7.28h-5.466V2.525h5.466c2.04 0 2.49.787 2.49 2.38 0 1.606-.45 2.377-2.49 2.377zm6.14 8.15l-3.52-6.043c1.752-.45 3.166-1.607 3.166-4.55C76.146 1.03 73.783 0 69.876 0H63.16c-1.11 0-1.53.338-1.53 1.093v14.225c0 .257.13.386.387.386h2.877v-4.58c0-.965.53-1.4 1.962-1.4h2.893l3.18 5.723c.096.16.192.257.433.257h2.99c.21 0 .21-.177.145-.273z"/></svg>