<svg width="102" height="25" viewBox="0 0 102 25" xmlns="http://www.w3.org/2000/svg"><title>Ueno</title><path d="M34.682 10.487c1.51 0 3.018.005 4.526-.002.776-.004.955-.192.796-.93-.3-1.386-.952-2.563-2.15-3.383-3.127-2.14-7.74-.09-8.353 3.7-.084.535.176.614.587.614 1.532-.002 3.064 0 4.596 0m2.962 3.683c-2.498 0-4.996-.004-7.495 0-.85.002-.92.085-.755.9.67 3.3 3.555 5.103 6.846 4.75 1.514-.165 2.827-.72 3.798-1.94.214-.27.436-.223.685-.09 1.045.544 2.082 1.107 3.14 1.627.535.263.53.534.207.982-1.307 1.8-3.076 2.93-5.18 3.494-3.12.838-6.2.67-9.193-.626-3.12-1.354-5.122-3.728-5.87-7.007-.977-4.285-.3-8.303 2.693-11.69 1.475-1.663 3.39-2.694 5.556-3.2 2.917-.682 5.747-.443 8.458.902 2.73 1.355 4.263 3.645 5 6.526.384 1.495.43 3.036.45 4.577.007.64-.257.808-.846.803-2.498-.02-4.996-.01-7.494-.01M77.98 13.05c-.093 1.004.124 2.206.58 3.368.832 2.124 2.383 3.34 4.66 3.465 2.294.124 4.153-.745 5.16-2.9 1.302-2.785 1.284-5.644.04-8.448-.845-1.91-2.445-2.888-4.486-2.964-1.963-.072-3.667.557-4.79 2.34-.952 1.507-1.182 3.165-1.165 5.14m17.33-.332c.04 6.85-4.706 11.698-11.718 11.693-6.974-.004-11.653-4.737-11.69-11.653C71.862 5.91 76.745 1 83.517 1c6.94 0 11.79 4.817 11.793 11.717M54.73 4.865c.68-1.07 1.506-1.98 2.605-2.656C60.46.284 65.63.705 67.895 3.115c1.285 1.367 2 3.002 2.137 4.807.376 4.975.084 9.963.17 14.945.008.518-.215.702-.73.697-1.486-.017-2.972-.03-4.456.006-.674.018-.865-.242-.862-.867.02-3.838.014-7.677.006-11.515-.002-.987-.14-1.96-.477-2.897-.77-2.134-2.5-2.795-4.466-2.632-2.695.224-4.187 2.287-4.545 4.7-.14.933-.143 1.865-.142 2.8.003 3.16.003 6.32 0 9.48 0 .883-.038.918-.926.92-1.438.005-2.875-.016-4.312.01-.59.01-.8-.2-.8-.778.013-6.788.012-13.575 0-20.363 0-.57.2-.8.795-.79 1.485.025 2.97.025 4.455 0 .594-.01.816.22.795.79-.03.788-.007 1.578-.007 2.366l.2.07m-39.227 15.65c-.68 1.07-1.503 1.993-2.602 2.67-3.152 1.94-8.15 1.537-10.56-.91-1.4-1.417-2.026-3.19-2.16-5.11C-.156 12.296.1 7.422.02 2.555c-.006-.513.205-.72.726-.713 1.484.015 2.972.027 4.457-.006.666-.015.87.24.867.872-.02 3.67-.028 7.34.002 11.013.01 1.124.086 2.253.466 3.34.694 1.98 2.36 2.735 4.188 2.662 2.997-.12 4.408-2.233 4.833-4.65.175-1.006.134-2.016.135-3.027.003-3.084 0-6.167.002-9.25 0-.913.04-.95.978-.952 1.415-.002 2.83.016 4.243-.006.57-.01.82.17.82.767-.013 6.85-.013 13.698-.002 20.547 0 .56-.232.74-.775.732-1.484-.02-2.97-.028-4.455.004-.648.014-.838-.253-.815-.844.03-.817.007-1.637.007-2.456l-.194-.076m80.655.968c-.157-1.8 1.428-2.925 2.88-2.925 1.64 0 2.966 1.318 2.962 2.93-.004 1.614-1.333 2.93-2.972 2.923-1.31-.006-3.02-.953-2.87-2.928" fill="#616161" fill-rule="evenodd"/></svg>