<svg xmlns="http://www.w3.org/2000/svg" xmlns:xlink="http://www.w3.org/1999/xlink" width="370" height="335" viewBox="0 0 370 335" version="1.1"><title>computer</title><desc>Created with Sketch.</desc><defs><path d="M153.13 141.3C158.61 135.87 162 128.33 162 120.01L162 29.99C162 13.43 148.57 0 132.01 0L41.99 0C34.19 0 27.09 2.98 21.75 7.86L21.74 7.84 21.05 8.52C20.91 8.66 20.77 8.8 20.63 8.94L8.83 20.68 8.81 20.76C3.37 26.19 0 33.7 0 41.99L0 132.01C0 148.57 13.43 162 29.99 162L120.01 162C128.71 162 136.55 158.29 142.03 152.37L153.11 141.35 153.13 141.3Z" id="path-1"/></defs><g id="Page-1" stroke="none" stroke-width="1" fill="none" fill-rule="evenodd"><g id="computer"><g id="Group" transform="translate(167.000000, 64.000000)"><mask id="mask-2" fill="white"><use xlink:href="#path-1"/></mask><use id="Mask" stroke="#8C8473" stroke-width="5" fill="#FFFDF5" xlink:href="#path-1"/><ellipse id="Oval-89" fill="#8C8473" mask="url(#mask-2)" cx="27" cy="111" rx="6" ry="9"/><ellipse id="Oval-89" fill="#8C8473" mask="url(#mask-2)" cx="84" cy="111" rx="6" ry="9"/><path d="M71.29 120.28C65.9 124.8 74.18 133.47 78.98 129.44M41.23 127.62C41.23 127.62 46.41 133.6 55.74 133.6 65.06 133.6 70.25 127.62 70.25 127.62" id="Path-349" stroke="#8C8473" stroke-width="3" stroke-linecap="round" mask="url(#mask-2)"/><g mask="url(#mask-2)" stroke-linecap="round" stroke="#8C8474" id="Path-126" stroke-width="3"><g transform="translate(20.000000, 31.000000)"><path d="M0.57 0C0.57 0 4.15 0 8.56 0L12.58 0C16.99 0 20.57 3.58 20.57 7.99L20.57 20M31 0C31 0 34.58 0 38.99 0L43.01 0C47.42 0 51 3.58 51 7.99L51 20M61 0C61 0 64.58 0 68.99 0L73.01 0C77.42 0 81 3.58 81 7.99L81 20M91 0C91 0 94.58 0 98.99 0L103.01 0C107.42 0 111 3.58 111 7.99L111 20"/></g></g><g mask="url(#mask-2)" stroke-linecap="round" stroke="#8C8474" id="Path-126" stroke-width="3"><g transform="translate(20.000000, 61.000000)"><path d="M0.57 0C0.57 0 4.15 0 8.56 0L12.58 0C16.99 0 20.57 3.58 20.57 7.99L20.57 20M31 0C31 0 34.58 0 38.99 0L43.01 0C47.42 0 51 3.58 51 7.99L51 20M61 0C61 0 64.58 0 68.99 0L73.01 0C77.42 0 81 3.58 81 7.99L81 20M91 0C91 0 94.58 0 98.99 0L103.01 0C107.42 0 111 3.58 111 7.99L111 20"/></g></g><path d="M111 91C111 91 114.58 91 118.99 91L123.01 91C127.42 91 131 94.58 131 98.99L131 111M111 121C111 121 114.58 121 118.99 121L123.01 121C127.42 121 131 124.58 131 128.99L131 141" id="Path-126" stroke="#8C8474" stroke-width="3" stroke-linecap="round" mask="url(#mask-2)"/></g><g id="Group" transform="translate(38.000000, 155.000000)" stroke="#8C8473" stroke-width="3"><path d="M51.33 86.98C56.12 84.23 64.49 82 69.99 82L175.01 82C180.53 82 181.11 84.24 176.33 86.98L153.67 100.02C148.88 102.77 140.51 105 135.01 105L29.99 105C24.47 105 23.89 102.76 28.67 100.02L51.33 86.98Z" id="Rectangle-136" fill="#FFFDF5"/><rect id="Rectangle-136" fill="#FFFDF5" x="0" y="0" width="145" height="105" rx="10"/><g id="Path-424-+-Oval-94" transform="translate(61.000000, 36.000000)"><path d="M11.26 13.35C14.28 13.35 22.15 9.7 22.15 17.41 22.15 20.43 20.42 23.13 19.24 25.89 17.41 30.18 15.37 33.94 11.26 33.94 7.34 33.94 5.84 29.95 3.98 25.89 2.64 22.97 0.38 20.4 0.38 17.41 0.38 10.27 8.25 13.35 11.26 13.35ZM9.26 2.63C9.86 1.09 11.29 0 12 0 12.71 0 14.14 1.09 14.74 2.63 15.94 2.66 17.02 3.09 17.27 3.46 17.71 4.08 17.53 6.94 15.72 8.21 14.57 9.02 13.07 9.03 12 8.75 10.93 9.03 9.43 9.02 8.28 8.21 6.47 6.94 6.29 4.08 6.72 3.46 6.98 3.09 8.05 2.65 9.26 2.63Z" id="Path-424"/></g></g></g></g></svg>