<svg xmlns="http://www.w3.org/2000/svg" xmlns:xlink="http://www.w3.org/1999/xlink" width="370" height="335" viewBox="0 0 370 335" version="1.1"><title>microphone</title><desc>Created with Sketch.</desc><defs><path d="M191.21 177.77C198.47 170.93 203 161.22 203 150.46L203 37.5C203 16.78 186.21 0 165.5 0L52.54 0C41.61 0 31.78 4.67 24.92 12.13L11.07 25.91 11.06 25.95C4.23 32.74 0 42.14 0 52.54L0 165.5C0 186.22 16.79 203 37.5 203L150.46 203C161.6 203 171.6 198.15 178.47 190.44L191.21 177.77Z" id="path-1"/></defs><g id="Page-1" stroke="none" stroke-width="1" fill="none" fill-rule="evenodd"><g id="microphone"><g id="Group" transform="translate(170.500000, 135.500000) scale(-1, 1) rotate(-20.000000) translate(-170.500000, -135.500000) translate(69.000000, 34.000000)"><mask id="mask-2" fill="white"><use xlink:href="#path-1"/></mask><use id="Mask" stroke="#8C8473" stroke-width="5" fill="#FFFDF5" xlink:href="#path-1"/><path id="Path-125" stroke="#979797" stroke-width="1.25" mask="url(#mask-2)" d=""/><g mask="url(#mask-2)" stroke-linecap="round" stroke="#8C8474" id="Path-126" stroke-width="3"><g transform="translate(25.061728, 38.845679)"><path d="M0.72 0C0.72 0 5.2 0 10.71 0L15.78 0C21.3 0 25.78 4.48 25.78 10L25.78 25.06"/><path d="M38.85 0C38.85 0 43.33 0 48.84 0L53.91 0C59.43 0 63.91 4.48 63.91 10L63.91 25.06"/><path d="M76.44 0C76.44 0 80.92 0 86.43 0L91.5 0C97.03 0 101.5 4.48 101.5 10L101.5 25.06"/><path d="M114.03 0C114.03 0 118.51 0 124.03 0L129.1 0C134.62 0 139.09 4.48 139.09 10L139.09 25.06"/></g></g><g mask="url(#mask-2)" stroke-linecap="round" stroke="#8C8474" id="Path-126" stroke-width="3"><g transform="translate(25.061728, 76.438272)"><path d="M0.72 0C0.72 0 5.2 0 10.71 0L15.78 0C21.3 0 25.78 4.48 25.78 10L25.78 25.06"/><path d="M38.85 0C38.85 0 43.33 0 48.84 0L53.91 0C59.43 0 63.91 4.48 63.91 10L63.91 25.06"/><path d="M76.44 0C76.44 0 80.92 0 86.43 0L91.5 0C97.03 0 101.5 4.48 101.5 10L101.5 25.06"/><path d="M114.03 0C114.03 0 118.51 0 124.03 0L129.1 0C134.62 0 139.09 4.48 139.09 10L139.09 25.06"/></g></g><path d="M139.09 114.03C139.09 114.03 143.57 114.03 149.09 114.03L154.16 114.03C159.68 114.03 164.15 118.51 164.15 124.03L164.15 139.09" id="Path-126" stroke="#8C8474" stroke-width="3" stroke-linecap="round" mask="url(#mask-2)"/><path d="M139.09 151.62C139.09 151.62 143.57 151.62 149.09 151.62L154.16 151.62C159.68 151.62 164.15 156.1 164.15 161.62L164.15 176.69" id="Path-126" stroke="#8C8474" stroke-width="3" stroke-linecap="round" mask="url(#mask-2)"/><path d="M90.57 138.1C90.57 138.1 88.42 148.42 98.82 148.42 109.22 148.42 107.29 138.1 107.29 138.1" id="Path-75" stroke="#8C8474" stroke-width="3" stroke-linecap="round" mask="url(#mask-2)"/><path d="M20.57 138.1C20.57 138.1 18.42 148.42 28.82 148.42 39.22 148.42 37.29 138.1 37.29 138.1" id="Path-75" stroke="#8C8474" stroke-width="3" stroke-linecap="round" mask="url(#mask-2)"/><ellipse id="Oval-93" fill="#8C8473" mask="url(#mask-2)" cx="61.36" cy="158.01" rx="11" ry="12"/></g><g id="Group" transform="translate(256.717622, 268.809600) rotate(-40.000000) translate(-256.717622, -268.809600) translate(232.217622, 205.809600)" stroke="#8C8473" stroke-width="3"><path d="M10.13 51.77L10.77 43.72C4.43 39.42 0.26 32.15 0.26 23.91 0.26 10.7 10.96 0 24.17 0 37.37 0 48.08 10.7 48.08 23.91 48.08 32.34 43.71 39.75 37.12 44.01L37.74 51.77 37.78 51.77 37.76 52 37.78 52.19 37.75 52.19 33.29 117.2C32.99 121.61 29.16 125.17 24.73 125.17L23.14 125.17C18.71 125.17 14.88 121.6 14.58 117.2L10.12 52.19 10.09 52.19 10.11 52 10.09 51.77 10.13 51.77Z" id="Oval-7" fill="#FFFDF5"/><path d="M24.07 6.09C20.96 6.87 14.89 11.19 13.31 14.46" id="Path-28" stroke-linecap="round"/><path d="M31.18 11.28C28.07 12.06 22 16.38 20.42 19.65" id="Path-28" stroke-linecap="round"/><path d="M14.36 11.2C15.36 11.2 22.5 14.92 23.42 18.64" id="Path-30" stroke-linecap="round"/><path d="M18.38 7.14C19.37 7.14 26.51 10.86 27.43 14.58" id="Path-30" stroke-linecap="round"/><path d="M12.96 46.97C16.52 46.01 25.97 40.53 25.97 40.53" id="Path-65" stroke-linecap="round" transform="translate(19.466188, 43.746532) rotate(-330.000000) translate(-19.466188, -43.746532) "/></g><g id="Group" transform="translate(303.000000, 178.000000)" stroke="#8C8473" stroke-width="3"><path d="M11 13.29L11 42.71" id="Line" stroke-linecap="round"/><path d="M39 1.5L39 31.7" id="Line" stroke-linecap="round"/><path d="M6.77 49.49C9.72 48.41 11.55 45.97 10.85 44.05 10.15 42.12 7.19 41.43 4.23 42.51 1.28 43.59-0.55 46.03 0.15 47.95 0.85 49.88 3.81 50.57 6.77 49.49L6.77 49.49Z" id="Oval-9" fill="#8C8473"/><path d="M34.77 37.49C37.72 36.41 39.55 33.97 38.85 32.05 38.15 30.12 35.19 29.43 32.23 30.51 29.28 31.59 27.45 34.03 28.15 35.95 28.85 37.88 31.81 38.57 34.77 37.49L34.77 37.49Z" id="Oval-9" fill="#8C8473"/><path d="M10.5 12.5L38.5 0.5" id="Line" stroke-linecap="round"/></g><g id="Line-+-Oval-94" transform="translate(130.000000, 287.500000) rotate(-20.000000) translate(-130.000000, -287.500000) translate(121.000000, 262.000000)"><path d="M14.5 0.69L14.5 40.84" id="Line" stroke="#8C8473" stroke-width="3" stroke-linecap="round"/><ellipse id="Oval-94" fill="#8C8473" transform="translate(9.000000, 43.000000) rotate(-20.000000) translate(-9.000000, -43.000000) " cx="9" cy="43" rx="7" ry="5"/></g></g></g></svg>