<?xml version="1.0" encoding="UTF-8" standalone="no"?>
<svg
   xmlns:dc="http://purl.org/dc/elements/1.1/"
   xmlns:cc="http://creativecommons.org/ns#"
   xmlns:rdf="http://www.w3.org/1999/02/22-rdf-syntax-ns#"
   xmlns:svg="http://www.w3.org/2000/svg"
   xmlns="http://www.w3.org/2000/svg"
   width="68.307961mm"
   height="32.480789mm"
   viewBox="0 0 68.307961 32.480789"
   version="1.1"
   id="svg913">
  <defs
     id="defs907" />
  <metadata
     id="metadata910">
    <rdf:RDF>
      <cc:Work
         rdf:about="">
        <dc:format>image/svg+xml</dc:format>
        <dc:type
           rdf:resource="http://purl.org/dc/dcmitype/StillImage" />
        <dc:title></dc:title>
      </cc:Work>
    </rdf:RDF>
  </metadata>
  <g
     id="layer1"
     transform="translate(-38.824438,-108.40246)">
    <g
       id="g1103"
       transform="matrix(0.2714275,0,0,0.27152161,-33.967534,77.007931)"
       style="stroke-width:0.97461563">
      <g
         aria-label="socially distanced"
         transform="rotate(-2.9161659)"
         style="font-style:normal;font-variant:normal;font-weight:normal;font-stretch:normal;font-size:48.89553452px;line-height:125%;font-family:'Permanent Marker';-inkscape-font-specification:'Permanent Marker, Normal';font-variant-ligatures:normal;font-variant-caps:normal;font-variant-numeric:normal;font-feature-settings:normal;text-align:start;letter-spacing:0px;word-spacing:0px;writing-mode:lr-tb;text-anchor:start;fill:#e75700;fill-opacity:1;stroke:none;stroke-width:0.90573972px;stroke-linecap:butt;stroke-linejoin:miter;stroke-opacity:1"
         id="text838">
        <path
           d="m 290.71715,168.65194 q 0.33425,-1.00274 1.05049,-1.71898 0.76399,-0.71625 1.62348,-1.19374 0.90724,-0.52525 1.86224,-0.85949 0.95499,-0.33425 1.81448,-0.573 1.90998,-0.81174 4.05871,-1.52798 2.19648,-0.764 4.44071,-1.33699 2.29198,-0.57299 4.67945,-0.71624 2.38748,-0.191 5.0137,0.57299 0.14325,0.4775 0.42975,0.90724 0.2865,0.42975 0.573,0.85949 0.33424,0.42975 0.57299,0.8595 0.23875,0.38199 0.2865,0.81174 0.47749,0.42974 0.76399,0.95499 0.2865,0.47749 0.0955,1.28924 -0.4775,0.38199 -0.95499,0.71624 -0.42975,0.2865 -0.95499,0.52525 -1.76674,-0.42975 -3.58122,-0.2865 -1.81448,0.14325 -3.24697,0.23875 -0.42974,-0.42975 -1.05049,-0.42975 -0.57299,0 -1.24149,0.191 -0.62074,0.191 -1.28923,0.38199 -0.62075,0.191 -1.19374,0.0955 -0.4775,0.382 -1.19374,0.52525 -0.66849,0.0955 -1.48024,0.191 -0.0477,0.23874 0.0955,0.33424 0.14325,0.0477 0.0478,0.2865 0.2865,0.33425 0.71624,0.4775 0.4775,0.14324 0.955,0.28649 0.52524,0.14325 0.90724,0.382 0.38199,0.191 0.52524,0.66849 0.71625,0 1.24149,0.33425 0.52525,0.33425 0.85949,0.81174 0.33425,0.4775 0.4775,1.05049 0.191,0.52525 0.191,0.95499 0.14324,0.382 0.33424,0.33425 0.191,-0.0477 0.42975,0.191 0.14325,0.62074 0.71624,1.28924 0.573,0.62074 0.90724,1.38473 0.0955,1.19374 0.14325,2.14873 0.0477,0.90724 -0.33425,1.86223 -0.71624,1.76674 -2.00548,3.15147 -1.24148,1.38474 -2.86497,2.48298 -1.57573,1.05049 -3.39022,1.81448 -1.81448,0.764 -3.53346,1.28924 -0.191,-0.0478 -0.382,0 -0.191,0.0478 -0.0955,-0.23875 -0.38199,0.33425 -0.85949,0.42975 -0.42975,0.0955 -0.95499,0.0478 -0.52525,0 -1.09824,-0.0478 -0.52525,-0.0478 -1.00274,0.0478 -0.33425,-0.33425 -0.62075,-0.66849 -0.23874,-0.2865 -0.38199,-0.764 -0.23875,0 -0.23875,-0.23874 0.0478,-0.23875 -0.14325,-0.23875 0.2865,-0.4775 0.23875,-0.52525 0,-0.0955 -0.14325,-0.14325 -0.0955,-0.0478 -0.191,-0.0955 -0.0955,-0.0955 -0.0477,-0.23874 0.191,-0.382 0.14325,-0.85949 -0.0478,-0.52525 -0.0955,-1.05049 -0.0477,-0.52525 0.0478,-1.00275 0.14325,-0.47749 0.71625,-0.76399 1.62348,0.191 3.05597,-0.0955 1.48023,-0.33424 2.76947,-0.90724 1.28924,-0.57299 2.43523,-1.24149 1.19374,-0.66849 2.33972,-1.19374 0.14325,-0.42974 0.382,-0.71624 0.2865,-0.2865 0.573,-0.52524 0.28649,-0.23875 0.52524,-0.52525 0.23875,-0.2865 0.33425,-0.71624 0.0477,-0.33425 -0.191,-0.382 -0.191,-0.0955 -0.191,-0.38199 l -0.52524,-0.14325 q -0.90725,-0.52525 -2.05323,-0.85949 -1.14599,-0.382 -1.95774,-0.81175 -0.52524,0.2865 -1.00274,0.14325 -0.42974,-0.14325 -1.14599,-0.2865 -1.62348,-0.0955 -3.15147,-0.33424 -1.48023,-0.23875 -2.86497,-0.85949 -0.0955,-0.23875 -0.23875,-0.42975 -0.14324,-0.191 -0.52524,-0.0955 -0.2865,-0.382 -0.573,-0.71624 -0.28649,-0.382 -0.52524,-0.81174 0.0955,-0.573 0.14325,-0.955 0.0478,-0.42974 -0.2865,-0.81174 0.191,-0.62074 0.2865,-1.00274 0.0955,-0.38199 0,-1.00274 z"
           style="fill:#e75700;fill-opacity:1;stroke-width:0.90573972px"
           id="path1105" />
        <path
           d="m 339.56493,175.81437 q -0.0478,0.573 0.0955,1.09824 0.14325,0.52525 0.33425,1.05049 0.23875,0.4775 0.42974,1.00274 0.191,0.52525 0.2865,1.05049 0.0955,0.6685 0,1.48024 -0.0955,0.76399 -0.33424,1.52798 -0.23875,0.71625 -0.62075,1.33699 -0.382,0.573 -0.90724,0.85949 -0.66849,0.8595 -1.62348,1.33699 -0.955,0.4775 -1.76674,1.14599 -0.52524,0.33425 -1.19374,0.4775 -0.62074,0.14324 -1.28923,0.28649 -0.52525,0.2865 -1.24149,0.62075 -0.71625,0.28649 -1.48024,0.57299 -0.76399,0.23875 -1.52798,0.382 -0.764,0.0955 -1.33699,0.0477 -1.43249,0.52524 -2.81722,0.66849 -1.33699,0.191 -3.15147,-0.191 -1.71899,0.23875 -3.19922,-0.14325 -1.43249,-0.38199 -2.57848,-1.19373 -1.09824,-0.8595 -1.95773,-2.00549 -0.81174,-1.19373 -1.33699,-2.48297 -0.38199,-2.72173 0.191,-4.91821 0.57299,-2.24422 1.62348,-4.10646 1.09824,-1.90998 2.48298,-3.48571 1.38474,-1.62349 2.67398,-3.15147 0.28649,0.0955 0.42974,0 0.191,-0.14325 0.33425,-0.33425 0.14325,-0.23875 0.2865,-0.42975 0.19099,-0.19099 0.42974,-0.23874 0.33425,-0.71625 0.95499,-1.05049 0.6685,-0.382 1.05049,-1.05049 0.42975,-0.0955 0.71625,-0.2865 0.28649,-0.191 0.52524,-0.42975 0.2865,-0.23874 0.573,-0.42974 0.28649,-0.23875 0.66849,-0.33425 v -0.52524 q 0.85949,-0.382 1.24149,-0.8595 0.42974,-0.52524 1.00274,-1.24148 0.42974,-0.0478 0.66849,-0.0478 0.2865,0 0.81174,-0.0955 0.382,-0.6685 0.6685,-1.00274 0.33424,-0.33425 0.95499,-0.71625 0.57299,0.2865 1.24149,0.382 0.71624,0.0955 1.24148,0.62074 0.0478,0.4775 0.2865,0.764 0.23875,0.23874 0.52525,0.47749 0.28649,0.191 0.52524,0.42975 0.2865,0.23875 0.382,0.66849 0.191,0.0477 0.23875,-0.0478 0.0955,-0.0955 0.28649,-0.0478 0.14325,0.6685 0.33425,0.90724 0.191,0.191 0.382,0.81175 -0.23875,0.47749 -0.382,1.00274 -0.0955,0.47749 -0.57299,0.71624 -0.0478,0.33425 0.19099,0.382 0.23875,0 0.2865,0.23874 0.0478,0.42975 -0.14325,0.62075 1.14599,1.86223 2.05323,3.96321 0.90724,2.05323 2.05323,3.91546 z m -5.96869,4.53621 q 0.191,-0.52525 0.4775,-0.85949 0.33424,-0.33425 0.38199,-1.00274 -0.23875,-0.382 -0.2865,-0.573 -0.0478,-0.23874 -0.0478,-0.71624 -1.05049,-1.48024 -1.81448,-3.15147 -0.76399,-1.71898 -1.71898,-3.19922 -0.0955,0.191 -0.33425,0.382 -0.23875,0.19099 -0.52524,-0.0955 -0.0955,0.38199 -0.33425,0.57299 -0.23875,0.14325 -0.52525,0.14325 -0.28649,-0.0477 -0.62074,-0.14325 -0.2865,-0.14325 -0.52524,-0.33424 -1.38474,1.09823 -2.76948,2.14872 -1.38473,1.05049 -2.48297,2.43523 -0.191,0.0955 -0.23875,0.0955 -0.0478,-0.0478 -0.2865,0.0477 -0.382,0.90724 -0.95499,1.67123 -0.52525,0.71625 -1.05049,1.48024 -0.52525,0.76399 -0.90724,1.62348 -0.382,0.8595 -0.42975,2.00549 0.81174,0.66849 1.90998,0.81174 1.09824,0.14325 2.24423,0.0478 1.19374,-0.0955 2.29198,-0.2865 1.14599,-0.23875 2.10098,-0.23875 2.00548,-0.47749 3.43797,-1.24149 1.43248,-0.81174 3.00822,-1.62348 z"
           style="fill:#e75700;fill-opacity:1;stroke-width:0.90573972px"
           id="path1107" />
        <path
           d="m 362.34146,190.23474 q -0.76399,0.0478 -1.90998,-0.0477 -1.09824,-0.0955 -2.05323,0.33424 -2.53072,-0.0955 -5.15695,-0.62074 -2.62622,-0.52525 -4.8227,-1.28924 -0.4775,-0.52524 -0.95499,-0.95499 -0.4775,-0.4775 -1.28924,-0.66849 -1.14599,-0.90724 -1.86223,-2.19648 -0.71625,-1.33699 -1.14599,-2.81723 -0.42975,-1.48023 -0.573,-3.00822 -0.14325,-1.57573 -0.0955,-3.00822 0.71625,-2.14873 2.00548,-3.67671 1.33699,-1.57574 2.72173,-3.10372 0.62074,-0.2865 0.90724,-0.573 0.33425,-0.33425 0.66849,-0.57299 0.382,-0.2865 0.71625,-0.52525 0.38199,-0.2865 0.66849,-0.66849 1.00274,-0.23875 1.71898,-0.6685 0.764,-0.47749 1.48024,-0.95499 0.71624,-0.52524 1.48024,-0.95499 0.76399,-0.42974 1.76673,-0.66849 0.382,-0.42975 0.90724,-0.66849 0.52525,-0.2865 1.05049,-0.52525 0.57299,-0.2865 1.05049,-0.57299 0.52525,-0.2865 0.81174,-0.764 0.23875,0.382 0.6685,0.2865 0.42974,-0.14325 0.81174,-0.2865 0.23875,-0.0478 0.38199,0.0955 0.191,0.14325 0.33425,0.2865 0.14325,0.14325 0.23875,0.191 0.14325,0 0.23875,-0.23875 0.23874,0 0.14325,0.23875 -0.0955,0.23875 -0.14325,0.33424 0.38199,-0.0477 0.62074,0.191 0.2865,0.191 0.85949,0.23875 0.191,0.23875 0.0955,0.382 -0.0955,0.0955 -0.0955,0.38199 1.43249,0.42975 1.81449,1.38474 0.38199,0.90724 0.0478,1.90998 -0.33425,1.00274 -1.19374,1.86223 -0.8595,0.8595 -1.86224,1.14599 -2.29197,0.62075 -4.3452,1.38474 -2.00549,0.71624 -3.29472,2.14873 -1.14599,0.33425 -2.05323,0.90724 -0.8595,0.52525 -1.67124,1.24149 -0.76399,0.66849 -1.48023,1.43249 -0.6685,0.71624 -1.43249,1.43248 0.0478,0.6685 -0.23875,1.05049 -0.23875,0.33425 -0.47749,0.71625 0.0955,0.71624 0.33424,1.28923 0.23875,0.52525 0.52525,1.05049 3.15147,0.95499 6.68494,1.19374 3.58121,0.23875 7.16243,0.2865 0.33424,0.47749 0.76399,0.90724 0.4775,0.382 0.85949,0.85949 0.382,0.42975 0.62075,1.00274 0.23874,0.52525 0.0955,1.33699 -0.66849,0.71624 -1.48023,1.33699 -0.81174,0.57299 -1.62349,1.19374 z"
           style="fill:#e75700;fill-opacity:1;stroke-width:0.90573972px"
           id="path1109" />
        <path
           d="m 377.71682,186.79677 q 0.23875,1.43248 -0.191,2.24423 -0.38199,0.81174 -1.14599,1.19374 -0.71624,0.42974 -1.67123,0.47749 -0.95499,0.0478 -1.81448,-0.0955 -0.4775,-0.66849 -0.85949,-1.67123 -0.382,-1.00274 -0.71625,-2.05323 -0.33424,-1.09824 -0.62074,-2.14873 -0.23875,-1.05049 -0.42975,-1.86223 0.23875,-0.573 0.2865,-1.28924 0.0955,-0.76399 0.0955,-1.52799 0.0477,-0.76399 0.0477,-1.52798 0.0478,-0.81175 0.14325,-1.52799 0.33424,-2.00548 0.95499,-3.81996 0.66849,-1.81448 1.05049,-3.77222 0.0955,-0.42974 -0.0955,-0.81174 -0.14325,-0.38199 -0.0478,-0.71624 0.0478,-0.191 0.2865,-0.23875 0.23874,-0.0955 0.28649,-0.33425 0.14325,-0.52524 0.0478,-0.85949 -0.0478,-0.33424 0.191,-0.81174 0.23875,-0.382 0.573,-1.09824 0.38199,-0.76399 0.28649,-1.57573 0.42975,-0.2865 0.81175,-0.6685 0.38199,-0.38199 0.76399,-0.66849 0.42974,-0.33425 0.90724,-0.573 0.52524,-0.23874 1.24149,-0.23874 0.38199,0.47749 0.47749,1.05049 0.14325,0.57299 0.23875,1.14598 0.14325,0.573 0.382,1.09824 0.23875,0.4775 0.81174,0.764 0,0.38199 0,0.95499 0,0.57299 0.0478,1.14599 0.0478,0.52524 0.191,1.00274 0.191,0.42974 0.57299,0.57299 -0.85949,2.29198 -1.62348,4.53621 -0.71625,2.24423 -1.19374,4.53621 -0.4775,2.24422 -0.62075,4.5362 -0.0955,2.29198 0.33425,4.63171 z"
           style="fill:#e75700;fill-opacity:1;stroke-width:0.90573972px"
           id="path1111" />
        <path
           d="m 408.51528,186.12827 q -0.2865,0.81175 -0.85949,1.67124 -0.52525,0.81174 -1.28924,1.48023 -0.71625,0.62075 -1.62349,1.05049 -0.90724,0.42975 -1.90998,0.4775 -0.62074,-0.14325 -0.85949,-0.33425 -0.191,-0.14325 -0.42975,-0.28649 -0.14324,-0.0955 -0.28649,-0.14325 -0.0955,-0.0955 -0.191,-0.14325 l -0.573,-0.23875 0.191,-0.62074 q 0.0955,-0.382 -0.0478,-0.573 -0.14325,-0.23875 -0.57299,-0.62074 -0.14325,-0.14325 -0.2865,-0.2865 -0.14325,-0.14325 -0.23875,-0.2865 l -0.81174,-0.90724 1.28924,-0.33424 q 1.19374,-0.33425 1.57573,-0.8595 0.42975,-0.52524 0.33425,-1.76673 -0.95499,-0.191 -1.62348,-0.0478 -0.62075,0.14325 -1.28924,0.33425 -0.85949,0.23875 -1.76674,0.42974 -0.85949,0.14325 -1.90998,0.14325 -0.38199,0 -0.71624,0 -0.33425,-0.0478 -0.71624,-0.0955 l -0.4775,-0.0955 q -0.0955,-0.52524 -0.191,-0.57299 -0.0955,-0.0955 -0.191,-0.191 -0.23874,-0.23875 -0.52524,-0.62074 -0.23875,-0.42975 -0.0955,-1.05049 -0.23875,-0.42975 -0.2865,-0.85949 -0.28649,0.57299 -0.42974,1.19373 l -0.191,0.4775 -0.4775,0.0955 q -0.0955,0.0478 -0.14324,0.23875 -0.0477,0.14325 -0.0477,0.23874 l -0.23875,0.81175 q -0.0955,0.0955 -0.191,0.19099 -0.0955,0.0478 -0.191,0.14325 -0.0955,0.42975 -0.23875,0.8595 -0.14324,0.42974 -0.28649,0.81174 -0.23875,0.62074 -0.42975,1.24149 -0.14325,0.57299 -0.0955,1.14598 l -0.191,0.52525 q -0.23874,0.2865 -0.52524,0.4775 -0.2865,0.14324 -0.573,0.28649 -0.0955,0.0955 -0.28649,0.191 -0.14325,0.0478 -0.23875,0.0955 l -0.14325,0.52524 -0.57299,0.0955 q -0.52525,0.0955 -0.764,0.14325 -0.191,0.0477 -0.47749,0.0477 l -0.4775,-0.0477 q -0.52524,-0.42974 -0.81174,-0.66849 -0.2865,-0.2865 -0.66849,-0.52525 -0.42975,-0.57299 -0.4775,-0.85949 -0.0478,-0.2865 -0.0955,-0.52524 -0.0955,-0.2865 -0.0955,-0.4775 -0.0478,-0.191 -0.14325,-0.2865 l -0.62074,-0.57299 0.52524,-0.42975 0.0478,-0.81174 q 0.955,-2.43523 2.00549,-4.67945 1.09823,-2.24423 2.24422,-4.58396 0.382,-0.76399 0.71625,-1.52799 0.38199,-0.76399 0.76399,-1.52798 -0.0478,-0.14325 -0.0478,-0.33425 0,-0.191 0.0955,-0.42974 0.52524,-0.81175 0.85949,-1.43249 0.33425,-0.66849 0.66849,-1.33699 0.382,-0.81174 0.764,-1.57573 0.42974,-0.764 1.05049,-1.57574 l 0.76399,-0.33424 q 0.14325,-0.0477 0.33425,-0.0955 0.191,-0.0955 0.42974,-0.0955 l 0.71625,0.0955 q 1.33698,-0.62075 2.33972,-1.71899 1.00274,-1.14599 2.05323,-2.72172 l 0.4775,-0.66849 0.62074,0.38199 q 0.23875,0.14325 0.6685,0.2865 0.42974,0.0955 0.90724,0.23875 0.85949,0.19099 1.62348,0.42974 0.764,0.23875 1.24149,0.71625 0.2865,0.76399 0.33425,1.14598 0.0478,0.382 0.14325,0.764 0.14325,0.81174 0.23874,1.62348 0.14325,0.81174 0.191,1.81448 0.23875,0.81175 0.382,1.62349 0.191,0.76399 0.33425,1.57573 0.23874,1.14599 0.47749,2.24423 0.23875,1.05049 0.62075,2.00548 0.38199,0 0.47749,0.0477 0.23875,-0.0955 0.4775,-0.14325 0.28649,-0.0477 0.62074,-0.0955 l 0.52525,-0.0478 0.19099,0.47749 q 0.0478,0.23875 0.4775,0.4775 0.62074,0.0477 0.90724,0.28649 0.2865,0.191 0.52525,0.42975 0.19099,0.191 0.38199,0.2865 l 0.71625,0.28649 -0.382,0.71625 q -0.4775,0.85949 -1.38474,1.67123 -0.85949,0.76399 -1.95773,1.28924 0.0477,0.2865 0.0477,0.57299 0.0478,0.23875 0.14325,0.52525 0.14325,0.81174 0.23875,1.67123 0.0955,0.8595 0,1.76674 z m -13.79962,-8.26067 q 1.43249,-0.0955 2.57847,-0.19099 1.19374,-0.14325 2.62623,-0.42975 -0.33425,-1.43249 -0.71624,-2.96047 -0.382,-1.57574 -0.81175,-3.10372 l -0.28649,0.47749 q -0.95499,1.00274 -1.86224,2.24423 -0.85949,1.24149 -1.48023,2.33973 -0.2865,0.42974 -0.573,0.85949 -0.28649,0.42975 -0.52524,0.85949 0.2865,-0.0478 0.52524,-0.0478 0.2865,0 0.52525,-0.0477 z"
           style="fill:#e75700;fill-opacity:1;stroke-width:0.90573972px"
           id="path1113" />
        <path
           d="m 424.32037,189.61399 q -1.33698,0.42975 -2.91272,0.85949 -1.57573,0.42975 -3.15147,0.42975 -2.38748,0 -3.77221,-1.19374 -0.23875,-0.52524 -0.42975,-0.71624 -0.14325,-0.191 -0.2865,-0.382 -0.0955,-0.23875 -0.14325,-0.62074 -0.57299,-0.6685 -0.90724,-1.52799 -0.33424,-0.90724 -0.47749,-1.81448 -0.0955,-0.95499 -0.0478,-1.90998 0.0955,-0.95499 0.33425,-1.81449 0.0955,-0.19099 0.0955,-0.38199 0.0478,-0.191 0.0955,-0.42975 0.191,-0.76399 0.382,-1.48023 0.23875,-0.71625 0.62074,-1.24149 -0.19099,-0.42975 0,-0.95499 0.191,-0.52525 0.42975,-0.95499 0.66849,-1.81449 1.09824,-3.05597 0.47749,-1.28924 0.95499,-2.53073 0.81174,-2.14873 1.52799,-4.24971 0.71624,-2.10098 1.28923,-4.53621 0.382,-0.23874 0.573,-0.33424 0.2865,-0.0955 0.47749,-0.14325 0.8595,0.42974 2.00548,0.85949 1.14599,0.382 1.90999,0.382 0.38199,0.23874 0.47749,0.38199 0.0955,0.0955 0.191,0.191 0.52524,0.62074 0.90724,1.28924 0.382,0.62074 0.23875,1.67123 -0.2865,0.42975 -0.42975,0.42975 -0.23874,0.95499 -0.52524,1.62348 -0.23875,0.6685 -0.52525,1.33699 -0.33424,0.71624 -0.62074,1.43249 -0.2865,0.71624 -0.4775,1.76673 -0.19099,0.23875 -0.28649,0.42975 -0.0477,0.19099 -0.14325,0.42974 -0.0955,0.23875 -0.23875,0.52525 -0.0955,0.23874 -0.33425,0.42974 -0.14325,1.24149 -0.47749,2.00548 -0.2865,0.764 -0.62075,1.52799 -0.57299,1.38474 -1.05049,2.76947 -0.42974,1.38474 -0.52524,3.15147 0.23875,-0.0955 0.42974,-0.0955 0.23875,0 0.42975,0 0.42975,0 1.00274,0.14325 1.43249,-0.76399 3.10372,-0.90724 1.71898,-0.14325 3.39022,-0.191 0.66849,0 1.33699,0 0.66849,0 1.24148,-0.0955 0.42975,0.23875 0.52525,0.2865 0.14325,0 0.382,0 0.33424,0 0.57299,0.0478 0.57299,0.52524 1.09824,0.76399 0.52524,0.23875 1.09824,0.42975 0.52524,0.191 1.00274,0.42974 0.52524,0.191 1.00274,0.573 l 0.33425,2.05323 q 0.33424,0.42975 0.28649,0.57299 0,0.382 -0.19099,0.573 l 0.0955,0.52524 q -0.71625,0.14325 -1.00275,0.33425 -0.23874,0.191 -0.47749,0.42975 -0.382,0.0477 -0.573,0.0477 -0.14324,0 -0.28649,0 -0.6685,0 -1.62349,0.23874 -1.28923,-0.42974 -2.67397,-0.42974 -0.52525,0 -1.09824,0.0478 -0.573,0.0478 -1.14599,0.0955 -0.57299,0.0955 -1.19374,0.14324 -0.57299,0.0478 -1.19374,0.0478 z"
           style="fill:#e75700;fill-opacity:1;stroke-width:0.90573972px"
           id="path1115" />
        <path
           d="m 450.39163,189.61399 q -1.33699,0.42975 -2.91272,0.85949 -1.57574,0.42975 -3.15147,0.42975 -2.38748,0 -3.77222,-1.19374 -0.23874,-0.52524 -0.42974,-0.71624 -0.14325,-0.191 -0.2865,-0.382 -0.0955,-0.23875 -0.14325,-0.62074 -0.57299,-0.6685 -0.90724,-1.52799 -0.33425,-0.90724 -0.47749,-1.81448 -0.0955,-0.95499 -0.0477,-1.90998 0.0955,-0.95499 0.33424,-1.81449 0.0955,-0.19099 0.0955,-0.38199 0.0478,-0.191 0.0955,-0.42975 0.191,-0.76399 0.382,-1.48023 0.23875,-0.71625 0.62074,-1.24149 -0.191,-0.42975 0,-0.95499 0.191,-0.52525 0.42975,-0.95499 0.66849,-1.81449 1.09824,-3.05597 0.47749,-1.28924 0.95499,-2.53073 0.81174,-2.14873 1.52798,-4.24971 0.71625,-2.10098 1.28924,-4.53621 0.382,-0.23874 0.573,-0.33424 0.28649,-0.0955 0.47749,-0.14325 0.85949,0.42974 2.00548,0.85949 1.14599,0.382 1.90998,0.382 0.382,0.23874 0.4775,0.38199 0.0955,0.0955 0.191,0.191 0.52524,0.62074 0.90724,1.28924 0.382,0.62074 0.23875,1.67123 -0.2865,0.42975 -0.42975,0.42975 -0.23875,0.95499 -0.52524,1.62348 -0.23875,0.6685 -0.52525,1.33699 -0.33425,0.71624 -0.62074,1.43249 -0.2865,0.71624 -0.4775,1.76673 -0.191,0.23875 -0.2865,0.42975 -0.0478,0.19099 -0.14324,0.42974 -0.0955,0.23875 -0.23875,0.52525 -0.0955,0.23874 -0.33425,0.42974 -0.14325,1.24149 -0.47749,2.00548 -0.2865,0.764 -0.62075,1.52799 -0.57299,1.38474 -1.05049,2.76947 -0.42974,1.38474 -0.52524,3.15147 0.23874,-0.0955 0.42974,-0.0955 0.23875,0 0.42975,0 0.42974,0 1.00274,0.14325 1.43249,-0.76399 3.10372,-0.90724 1.71898,-0.14325 3.39022,-0.191 0.66849,0 1.33698,0 0.6685,0 1.24149,-0.0955 0.42975,0.23875 0.52525,0.2865 0.14325,0 0.38199,0 0.33425,0 0.573,0.0478 0.57299,0.52524 1.09824,0.76399 0.52524,0.23875 1.09824,0.42975 0.52524,0.191 1.00274,0.42974 0.52524,0.191 1.00274,0.573 l 0.33425,2.05323 q 0.33424,0.42975 0.28649,0.57299 0,0.382 -0.191,0.573 l 0.0955,0.52524 q -0.71624,0.14325 -1.00274,0.33425 -0.23874,0.191 -0.47749,0.42975 -0.382,0.0477 -0.573,0.0477 -0.14325,0 -0.28649,0 -0.6685,0 -1.62349,0.23874 -1.28924,-0.42974 -2.67397,-0.42974 -0.52525,0 -1.09824,0.0478 -0.573,0.0478 -1.14599,0.0955 -0.573,0.0955 -1.19374,0.14324 -0.573,0.0478 -1.19374,0.0478 z"
           style="fill:#e75700;fill-opacity:1;stroke-width:0.90573972px"
           id="path1117" />
        <path
           d="m 477.75211,177.62886 q -0.33424,0.28649 -0.57299,0.71624 -0.23875,0.382 -0.4775,0.81174 -0.23874,0.52525 -0.52524,1.00274 -0.2865,0.4775 -0.71624,0.85949 -0.23875,0.71625 -0.4775,1.14599 -0.23875,0.382 -0.76399,0.90724 -0.4775,1.90999 -2.24423,4.15421 -0.0478,0.42975 -0.2865,0.8595 -0.191,0.38199 -0.42974,0.76399 -0.0955,0.14325 -0.191,0.33425 -0.0955,0.14324 -0.14325,0.23874 l -0.0955,0.4775 q -0.23875,0.382 -0.52525,0.66849 -0.28649,0.2865 -0.52524,0.52525 -0.0955,0.14325 -0.33425,0.38199 l -0.71624,0.2865 q -3.48572,-0.47749 -4.24971,-3.72446 l 0.0478,-0.4775 q 0.0955,-0.23875 0.14325,-0.47749 0.0955,-0.2865 0.191,-0.573 0.19099,-0.66849 0.42974,-1.33699 0.2865,-0.66849 0.81174,-1.19373 0.0955,-0.33425 0.42975,-1.05049 0.33425,-0.764 1.14599,-2.24423 0.66849,-1.14599 1.05049,-1.81449 0.382,-0.66849 0.62074,-1.05049 -0.47749,-0.76399 -1.14599,-1.38473 -0.62074,-1.19374 -1.09823,-2.29198 -0.42975,-1.09824 -0.6685,-1.95773 -0.0478,-0.62075 -0.14325,-1.05049 -0.0955,-0.42975 -0.191,-0.90724 -0.14324,-0.52525 -0.23874,-1.05049 -0.0955,-0.52525 -0.0955,-1.09824 -0.23875,-0.33425 -0.2865,-0.6685 l 0.0955,-0.47749 q 0.14325,-0.33425 0.0478,-0.85949 -0.0955,-0.573 -0.23875,-1.14599 -0.0955,-0.4775 -0.23875,-1.05049 -0.0955,-0.573 -0.0478,-1.14599 0.0478,-0.573 0.2865,-1.05049 0.2865,-0.52525 0.90724,-0.90724 l 0.81175,-0.0478 q 0.42974,0.23874 0.81174,0.47749 0.42974,0.191 0.81174,0.42975 0.52524,0.23875 1.00274,0.47749 0.4775,0.23875 1.00274,0.62075 l 0.33425,0.66849 0.62074,0.52525 v 0.52524 q 0.0478,0.191 0.0478,0.52525 0,0.62074 0.191,0.76399 l 0.191,0.57299 q 0,0.6685 0.14325,1.28924 0.14324,0.573 0.28649,1.09824 0.14325,0.52525 0.2865,1.09824 0.14325,0.57299 0.0478,1.24149 0.2865,-0.14325 0.4775,-0.33425 0.0955,-0.0955 0.19099,-0.14325 0.0955,-0.0477 0.191,-0.14325 l 2.81723,-3.81996 -0.0955,-0.47749 1.00274,-0.955 q 0.38199,-0.38199 0.71624,-0.71624 0.382,-0.33425 0.62074,-0.71624 l 0.52525,-0.382 q 1.52798,-2.38748 4.34521,-2.96047 l 0.66849,-0.0955 0.191,0.62074 q 0.191,0.52525 0.76399,0.955 0.62075,0.42974 1.28924,0.81174 l 0.42975,0.2865 q 0.23874,0.47749 0.23874,0.71624 0,0.23875 -0.0478,0.42974 l 0.191,0.4775 q -0.38199,1.14599 -0.95499,1.67123 -0.52524,0.52525 -1.05049,0.95499 -0.42974,0.382 -0.81174,0.71625 -0.33425,0.2865 -0.52525,0.76399 l -0.33424,0.382 q -1.00274,0.57299 -1.28924,1.52798 l -0.14325,0.573 h -0.57299 q -0.0478,0 -0.23875,0.191 -0.14325,0.14324 -0.4775,0.81174 -0.33424,0.47749 -0.47749,0.62074 -0.14325,0.14325 -0.23875,0.23875 -0.0478,0.191 -0.14325,0.382 -0.0478,0.14324 -0.14325,0.38199 -0.62074,0.62075 -0.76399,0.95499 -0.14325,0.2865 -0.33425,0.6685 -0.191,0.38199 -0.38199,0.76399 -0.14325,0.33425 -0.52525,0.71624 z"
           style="fill:#e75700;fill-opacity:1;stroke-width:0.90573972px"
           id="path1119" />
        <path
           d="m 302.49368,217.39953 q -0.0478,0.23875 -0.0955,0.42975 -0.0478,0.14325 -0.0955,0.2865 -0.0478,0.14324 -0.0478,0.38199 0,0.191 0,0.52525 -1.43248,2.53072 -3.62896,4.24971 -2.14873,1.71898 -4.77496,3.05597 -2.57847,1.28923 -5.39569,2.38747 -2.81723,1.05049 -5.4912,2.29198 -1.14599,-0.28649 -1.76674,-0.95499 -0.57299,-0.66849 -0.90724,-1.52798 -0.28649,-0.90725 -0.42974,-1.95774 -0.0955,-1.09823 -0.191,-2.24422 0.14325,-0.52525 0.382,-0.8595 0.28649,-0.38199 0.28649,-1.05049 0.382,-1.24148 0.764,-2.43522 0.38199,-1.19374 0.47749,-2.43523 0.14325,-0.382 0.52525,-0.52524 0.23874,-2.29198 0,-4.63171 -0.191,-2.38748 -0.764,-4.44071 0.0478,-0.47749 0.0955,-0.66849 0.0955,-0.23875 0,-0.33425 -0.0478,-0.38199 0.23875,-0.38199 0.33425,0 0.66849,0 0,-0.71625 -0.28649,-1.43249 -0.23875,-0.71624 -0.4775,-1.62349 0.33425,-0.71624 0.42975,-1.38473 0.0955,-0.71625 0.42974,-1.24149 2.57848,0.81174 4.91821,1.95773 2.38747,1.14599 4.67945,1.67123 1.71898,1.24149 3.53347,2.48298 1.81448,1.19374 3.29472,2.67398 1.48023,1.43248 2.48297,3.29471 1.00274,1.86224 1.14599,4.44071 z m -11.31664,2.62623 q 1.00274,-0.382 1.95773,-0.81175 1.00274,-0.42974 1.81448,-0.95499 0.8595,-0.57299 1.52799,-1.28923 0.66849,-0.71625 1.09824,-1.71899 -0.2865,-0.57299 -0.76399,-1.00274 -0.4775,-0.47749 -0.955,-0.85949 -0.47749,-0.42975 -0.95499,-0.85949 -0.42974,-0.42975 -0.71624,-1.05049 -0.62074,-0.0955 -1.09824,-0.33425 -0.47749,-0.2865 -0.95499,-0.52524 -0.42975,-0.2865 -0.95499,-0.52525 -0.4775,-0.23875 -1.14599,-0.2865 -1.05049,-0.52524 -1.90998,-0.76399 -0.81174,-0.23875 -1.24149,-0.62074 -0.33425,0 -0.52524,0.14325 0.47749,1.81448 0.71624,3.43796 0.23875,1.57574 0.23875,3.19922 0.0478,1.57574 -0.14325,3.24697 -0.191,1.67124 -0.52525,3.62897 0.4775,-0.0478 0.85949,-0.191 0.42975,-0.191 0.81175,-0.382 0.42974,-0.191 0.85949,-0.33424 0.47749,-0.191 1.09824,-0.23875 0.14325,-0.2865 0.38199,-0.4775 0.2865,-0.191 0.52525,-0.42974 z"
           style="fill:#e75700;fill-opacity:1;stroke-width:0.90573972px"
           id="path1121" />
        <path
           d="m 313.42833,226.94944 q 0.23875,1.43249 -0.191,2.24423 -0.382,0.81174 -1.14599,1.19374 -0.71624,0.42974 -1.67123,0.47749 -0.95499,0.0478 -1.81449,-0.0955 -0.47749,-0.66849 -0.85949,-1.67123 -0.38199,-1.00274 -0.71624,-2.05323 -0.33425,-1.09824 -0.62075,-2.14873 -0.23874,-1.05049 -0.42974,-1.86223 0.23875,-0.573 0.2865,-1.28924 0.0955,-0.76399 0.0955,-1.52798 0.0478,-0.764 0.0478,-1.52799 0.0478,-0.81174 0.14325,-1.52799 0.33425,-2.00548 0.95499,-3.81996 0.6685,-1.81448 1.05049,-3.77221 0.0955,-0.42975 -0.0955,-0.81175 -0.14324,-0.38199 -0.0477,-0.71624 0.0477,-0.191 0.28649,-0.23875 0.23875,-0.0955 0.2865,-0.33424 0.14325,-0.52525 0.0478,-0.8595 -0.0478,-0.33424 0.191,-0.81174 0.23875,-0.38199 0.57299,-1.09824 0.382,-0.76399 0.2865,-1.57573 0.42975,-0.2865 0.81174,-0.6685 0.382,-0.38199 0.76399,-0.66849 0.42975,-0.33425 0.90725,-0.57299 0.52524,-0.23875 1.24148,-0.23875 0.382,0.47749 0.4775,1.05049 0.14325,0.57299 0.23875,1.14599 0.14325,0.57299 0.38199,1.09824 0.23875,0.47749 0.81175,0.76399 0,0.382 0,0.95499 0,0.573 0.0478,1.14599 0.0477,0.52524 0.19099,1.00274 0.191,0.42975 0.573,0.57299 -0.85949,2.29198 -1.62349,4.53621 -0.71624,2.24423 -1.19374,4.53621 -0.47749,2.24423 -0.62074,4.53621 -0.0955,2.29197 0.33425,4.6317 z"
           style="fill:#e75700;fill-opacity:1;stroke-width:0.90573972px"
           id="path1123" />
        <path
           d="m 319.73127,208.80461 q 0.33424,-1.00274 1.05049,-1.71898 0.76399,-0.71624 1.62348,-1.19374 0.90724,-0.52524 1.86223,-0.85949 0.95499,-0.33425 1.81449,-0.57299 1.90998,-0.81175 4.05871,-1.52799 2.19648,-0.76399 4.44071,-1.33699 2.29197,-0.57299 4.67945,-0.71624 2.38748,-0.191 5.0137,0.57299 0.14325,0.4775 0.42975,0.90725 0.2865,0.42974 0.57299,0.85949 0.33425,0.42974 0.573,0.85949 0.23875,0.382 0.2865,0.81174 0.47749,0.42975 0.76399,0.95499 0.2865,0.4775 0.0955,1.28924 -0.4775,0.382 -0.95499,0.71624 -0.42975,0.2865 -0.95499,0.52525 -1.76674,-0.42975 -3.58122,-0.2865 -1.81448,0.14325 -3.24697,0.23875 -0.42975,-0.42975 -1.05049,-0.42975 -0.57299,0 -1.24149,0.191 -0.62074,0.191 -1.28924,0.382 -0.62074,0.191 -1.19373,0.0955 -0.4775,0.38199 -1.19374,0.52524 -0.6685,0.0955 -1.48024,0.191 -0.0478,0.23875 0.0955,0.33425 0.14325,0.0478 0.0478,0.28649 0.2865,0.33425 0.71624,0.4775 0.4775,0.14325 0.95499,0.2865 0.52525,0.14324 0.90725,0.38199 0.38199,0.191 0.52524,0.6685 0.71624,0 1.24149,0.33424 0.52524,0.33425 0.85949,0.81175 0.33425,0.47749 0.4775,1.05049 0.19099,0.52524 0.19099,0.95499 0.14325,0.38199 0.33425,0.33424 0.191,-0.0477 0.42975,0.191 0.14325,0.62075 0.71624,1.28924 0.57299,0.62074 0.90724,1.38474 0.0955,1.19373 0.14325,2.14873 0.0478,0.90724 -0.33425,1.86223 -0.71624,1.76673 -2.00548,3.15147 -1.24149,1.38473 -2.86497,2.48297 -1.57574,1.05049 -3.39022,1.81449 -1.81448,0.76399 -3.53346,1.28923 -0.191,-0.0478 -0.382,0 -0.191,0.0478 -0.0955,-0.23874 -0.382,0.33424 -0.85949,0.42974 -0.42975,0.0955 -0.95499,0.0478 -0.52525,0 -1.09824,-0.0478 -0.52525,-0.0478 -1.00274,0.0478 -0.33425,-0.33424 -0.62075,-0.66849 -0.23874,-0.2865 -0.38199,-0.76399 -0.23875,0 -0.23875,-0.23875 0.0478,-0.23875 -0.14325,-0.23875 0.2865,-0.4775 0.23875,-0.52524 0,-0.0955 -0.14325,-0.14325 -0.0955,-0.0478 -0.191,-0.0955 -0.0955,-0.0955 -0.0478,-0.23875 0.191,-0.382 0.14325,-0.85949 -0.0478,-0.52525 -0.0955,-1.05049 -0.0478,-0.52525 0.0477,-1.00274 0.14325,-0.4775 0.71624,-0.764 1.62349,0.191 3.05597,-0.0955 1.48024,-0.33425 2.76948,-0.90725 1.28924,-0.57299 2.43523,-1.24148 1.19373,-0.6685 2.33972,-1.19374 0.14325,-0.42975 0.382,-0.71625 0.2865,-0.28649 0.57299,-0.52524 0.2865,-0.23875 0.52525,-0.52525 0.23875,-0.28649 0.33425,-0.71624 0.0478,-0.33425 -0.191,-0.382 -0.191,-0.0955 -0.191,-0.38199 l -0.52525,-0.14325 q -0.90724,-0.52525 -2.05323,-0.85949 -1.14599,-0.382 -1.95773,-0.81174 -0.52524,0.28649 -1.00274,0.14324 -0.42974,-0.14324 -1.14599,-0.28649 -1.62348,-0.0955 -3.15147,-0.33425 -1.48023,-0.23875 -2.86497,-0.85949 -0.0955,-0.23875 -0.23875,-0.42975 -0.14325,-0.191 -0.52524,-0.0955 -0.2865,-0.38199 -0.573,-0.71624 -0.28649,-0.382 -0.52524,-0.81174 0.0955,-0.573 0.14325,-0.95499 0.0478,-0.42975 -0.2865,-0.81175 0.191,-0.62074 0.2865,-1.00274 0.0955,-0.38199 0,-1.00274 z"
           style="fill:#e75700;fill-opacity:1;stroke-width:0.90573972px"
           id="path1125" />
        <path
           d="m 368.86555,207.32438 q -1.19374,0 -2.57847,0.191 -1.38474,0.14324 -2.72173,0.33424 -0.95499,0.14325 -1.86223,0.23875 -0.85949,0.0955 -1.57574,0.14325 -0.33424,1.05049 -0.66849,1.86223 -0.33425,0.81174 -0.71624,1.57574 -0.382,0.81174 -0.71625,1.67123 -0.28649,0.81174 -0.57299,1.76673 -0.4775,0.764 -0.81174,1.43249 -0.2865,0.62074 -0.4775,1.43249 -0.57299,0.71624 -0.85949,1.52798 -0.2865,0.76399 -0.42975,1.33699 l -0.19099,0.57299 q -0.2865,0.2865 -0.33425,0.4775 -0.0478,0.14325 -0.23875,0.2865 -0.0478,0.52524 -0.33424,1.05049 -0.0955,0.23874 -0.14325,0.47749 -0.0478,0.191 -0.0478,0.2865 0,0.47749 -0.23875,0.62074 0.0478,0.23875 0,0.52525 -0.0478,0.23875 -0.0955,0.47749 -0.14325,0.573 -0.0955,0.90725 0.14325,0.19099 0.23875,0.33424 0.14325,0.14325 0.191,0.382 0.28649,0.191 0.42974,0.23875 0.191,0.14324 0.573,0.33424 l 0.42974,0.4775 q 0.23875,1.38474 -0.42974,2.19648 -0.71625,0.90724 -2.43523,0.90724 h -0.57299 q -0.23875,-0.23875 -0.2865,-0.382 -0.382,-0.14325 -0.62075,-0.23875 -0.23874,-0.0955 -0.42974,-0.38199 -0.62075,-0.2865 -1.00274,-0.4775 l -0.42975,-0.23874 q 0,-0.52525 0,-0.573 -0.33424,-0.42975 -0.52524,-0.95499 -0.14325,-0.52525 -0.23875,-1.05049 -0.0955,-0.42975 -0.23875,-0.81174 -0.0955,-0.382 -0.2865,-0.6685 -0.0955,-2.76947 0.52525,-4.67945 0.62074,-1.90998 1.28924,-3.67672 0.38199,-0.95499 0.76399,-1.90998 0.382,-1.00274 0.66849,-2.05323 l 0.42975,-0.47749 q 0.33425,-0.764 0.52524,-1.24149 0.23875,-0.52525 0.4775,-1.05049 0.14325,-0.33425 0.23875,-0.62075 0.14325,-0.33424 0.23875,-0.57299 -0.2865,0 -0.52525,0.0478 -0.23875,0 -0.47749,0.0478 -0.2865,0.0477 -0.52525,0.0955 -0.23875,0 -0.4775,0 -0.33424,0 -0.47749,-0.0478 -0.52525,0.23875 -1.14599,0.23875 h -0.4775 q -0.14324,0 -0.28649,0 -0.0955,-0.0478 -0.191,-0.0478 -0.4775,0 -0.76399,0.14324 -0.573,0 -1.09824,0 h -0.4775 q -0.0955,0 -0.23875,0.0477 -0.14324,0 -0.23874,0 -0.33425,0 -0.71625,-0.0477 -0.38199,-0.0955 -0.81174,-0.33424 -0.57299,-0.764 -0.76399,-0.81174 l -0.42975,-0.573 q -0.0478,-0.2865 -0.14325,-0.52524 -0.0955,-0.2865 -0.19099,-0.62075 -0.191,-0.47749 -0.382,-1.00274 -0.14325,-0.57299 -0.14325,-1.33699 0.0478,-0.38199 0.191,-0.57299 0.14325,-0.191 0.23875,-0.33425 l 0.14324,-0.71624 0.62075,0.0477 h 1.33699 q 1.52798,0 3.10372,-0.0955 1.57573,-0.14325 3.24697,-0.2865 0.95499,-0.0955 1.90998,-0.191 1.00274,-0.0955 2.05323,-0.19099 0.191,-0.42975 0.38199,-0.81175 l 0.4775,-0.23874 q 0.85949,-0.0477 1.19374,0.23874 0.38199,0.23875 0.62074,0.4775 1.05049,-0.0955 2.10098,-0.191 1.09824,-0.14325 2.19648,-0.33425 1.62349,-0.23874 3.24697,-0.42974 1.67123,-0.191 3.19922,-0.191 0.66849,0 1.28924,0.0478 0.62074,0.0477 1.14599,0.14325 l 0.47749,0.33425 q 0.14325,0.28649 0.382,0.52524 0.2865,0.23875 0.57299,0.4775 0.573,0.52524 1.14599,1.24148 0.573,0.71625 0.42975,2.10098 -0.382,0.573 -0.573,0.6685 l -0.42974,0.57299 -0.4775,-0.0478 q -0.28649,0 -0.52524,0.0955 -0.23875,0.0477 -0.4775,0.14325 -0.191,0.0955 -0.38199,0.191 -0.191,0.0477 -0.42975,0.0955 -0.42975,0 -0.71624,0 -0.23875,-0.0478 -0.52525,-0.0478 z"
           style="fill:#e75700;fill-opacity:1;stroke-width:0.90573972px"
           id="path1127" />
        <path
           d="m 388.10862,226.28095 q -0.2865,0.81174 -0.8595,1.67123 -0.52524,0.81174 -1.28923,1.48024 -0.71625,0.62074 -1.62349,1.05049 -0.90724,0.42974 -1.90998,0.47749 -0.62074,-0.14325 -0.85949,-0.33424 -0.191,-0.14325 -0.42975,-0.2865 -0.14325,-0.0955 -0.2865,-0.14325 -0.0955,-0.0955 -0.19099,-0.14325 l -0.573,-0.23875 0.191,-0.62074 q 0.0955,-0.382 -0.0478,-0.57299 -0.14325,-0.23875 -0.57299,-0.62075 -0.14325,-0.14325 -0.2865,-0.2865 -0.14325,-0.14324 -0.23875,-0.28649 l -0.81174,-0.90724 1.28924,-0.33425 q 1.19373,-0.33425 1.57573,-0.85949 0.42975,-0.52525 0.33425,-1.76674 -0.95499,-0.19099 -1.62349,-0.0478 -0.62074,0.14325 -1.28923,0.33425 -0.8595,0.23875 -1.76674,0.42975 -0.85949,0.14325 -1.90998,0.14325 -0.382,0 -0.71624,0 -0.33425,-0.0478 -0.71625,-0.0955 l -0.47749,-0.0955 q -0.0955,-0.52525 -0.191,-0.573 -0.0955,-0.0955 -0.191,-0.191 -0.23875,-0.23874 -0.52524,-0.62074 -0.23875,-0.42975 -0.0955,-1.05049 -0.23875,-0.42975 -0.2865,-0.85949 -0.2865,0.57299 -0.42974,1.19374 l -0.191,0.47749 -0.4775,0.0955 q -0.0955,0.0478 -0.14325,0.23875 -0.0478,0.14325 -0.0478,0.23875 l -0.23874,0.81174 q -0.0955,0.0955 -0.191,0.191 -0.0955,0.0478 -0.191,0.14325 -0.0955,0.42974 -0.23875,0.85949 -0.14325,0.42974 -0.2865,0.81174 -0.23874,0.62074 -0.42974,1.24149 -0.14325,0.57299 -0.0955,1.14599 l -0.191,0.52524 q -0.23875,0.2865 -0.52524,0.4775 -0.2865,0.14325 -0.573,0.2865 -0.0955,0.0955 -0.2865,0.19099 -0.14324,0.0478 -0.23874,0.0955 l -0.14325,0.52525 -0.573,0.0955 q -0.52524,0.0955 -0.76399,0.14325 -0.191,0.0477 -0.47749,0.0477 l -0.4775,-0.0477 q -0.52525,-0.42975 -0.81174,-0.6685 -0.2865,-0.2865 -0.6685,-0.52524 -0.42974,-0.573 -0.47749,-0.8595 -0.0478,-0.28649 -0.0955,-0.52524 -0.0955,-0.2865 -0.0955,-0.4775 -0.0477,-0.19099 -0.14325,-0.28649 l -0.62074,-0.573 0.52524,-0.42974 0.0478,-0.81175 q 0.95499,-2.43522 2.00548,-4.67945 1.09824,-2.24423 2.24423,-4.58396 0.382,-0.76399 0.71624,-1.52798 0.382,-0.764 0.764,-1.52799 -0.0477,-0.14325 -0.0477,-0.33425 0,-0.19099 0.0955,-0.42974 0.52524,-0.81174 0.85949,-1.43249 0.33425,-0.66849 0.66849,-1.33698 0.382,-0.81175 0.764,-1.57574 0.42974,-0.76399 1.05049,-1.57573 l 0.76399,-0.33425 q 0.14325,-0.0477 0.33424,-0.0955 0.191,-0.0955 0.42975,-0.0955 l 0.71624,0.0955 q 1.33699,-0.62074 2.33973,-1.71898 1.00274,-1.14599 2.05323,-2.72173 l 0.4775,-0.66849 0.62074,0.38199 q 0.23875,0.14325 0.6685,0.2865 0.42974,0.0955 0.90724,0.23875 0.85949,0.191 1.62348,0.42975 0.76399,0.23874 1.24149,0.71624 0.2865,0.76399 0.33425,1.14599 0.0478,0.38199 0.14324,0.76399 0.14325,0.81174 0.23875,1.62348 0.14325,0.81175 0.191,1.81449 0.23875,0.81174 0.382,1.62348 0.191,0.76399 0.33424,1.57574 0.23875,1.14599 0.4775,2.24423 0.23875,1.05049 0.62074,2.00548 0.382,0 0.4775,0.0477 0.23875,-0.0955 0.47749,-0.14325 0.2865,-0.0478 0.62075,-0.0955 l 0.52524,-0.0478 0.191,0.47749 q 0.0478,0.23875 0.4775,0.4775 0.62074,0.0477 0.90724,0.2865 0.2865,0.191 0.52524,0.42974 0.191,0.191 0.382,0.2865 l 0.71624,0.2865 -0.38199,0.71624 q -0.4775,0.85949 -1.38474,1.67123 -0.85949,0.764 -1.95773,1.28924 0.0478,0.2865 0.0478,0.573 0.0478,0.23874 0.14325,0.52524 0.14325,0.81174 0.23874,1.67124 0.0955,0.85949 0,1.76673 z M 374.309,218.02028 q 1.43248,-0.0955 2.57847,-0.191 1.19374,-0.14325 2.62623,-0.42975 -0.33425,-1.43248 -0.71625,-2.96047 -0.38199,-1.57573 -0.81174,-3.10372 l -0.2865,0.4775 q -0.95499,1.00274 -1.86223,2.24422 -0.85949,1.24149 -1.48023,2.33973 -0.2865,0.42975 -0.573,0.85949 -0.2865,0.42975 -0.52524,0.8595 0.28649,-0.0478 0.52524,-0.0478 0.2865,0 0.52525,-0.0477 z"
           style="fill:#e75700;fill-opacity:1;stroke-width:0.90573972px"
           id="path1129" />
        <path
           d="m 401.14424,221.60149 q -0.42975,0.0955 -0.62074,0.52525 -0.191,0.38199 -0.382,0.81174 -0.14325,0.42975 -0.33425,0.81174 -0.14325,0.33425 -0.47749,0.33425 -0.0478,0.38199 -0.2865,0.66849 -0.191,0.2865 -0.382,0.62075 -0.19099,0.28649 -0.28649,0.66849 -0.0955,0.33425 0.0955,0.81174 -0.382,0.2865 -0.4775,0.81174 -0.0955,0.52525 -0.23875,1.00274 -0.0955,0.4775 -0.38199,0.81175 -0.2865,0.33424 -1.05049,0.28649 -0.14325,0.191 -0.0478,0.23875 0.0955,0.0477 0.14325,0.33425 -0.52525,-0.0955 -0.81175,0.0477 -0.23874,0.191 -0.62074,0.23875 -0.90724,-0.2865 -1.52799,-1.00274 -0.57299,-0.71625 -1.05049,-1.57574 -0.42974,-0.90724 -0.81174,-1.81448 -0.33425,-0.90724 -0.66849,-1.57574 0.14325,-0.52524 0.0478,-1.00274 -0.0955,-0.52524 -0.33425,-0.85949 2.33973,-4.96595 5.1092,-10.6004 2.76948,-5.63444 5.25245,-11.12564 1.09824,0.42974 2.14873,1.00274 1.09824,0.52524 1.95773,1.24149 0.90724,0.71624 1.52799,1.67123 0.62074,0.90724 0.81174,2.05323 -0.0955,0.2865 -0.23875,0.23875 -0.0955,-0.0955 -0.191,0.0477 0.191,0.23875 0.191,0.33424 0.0477,0.0955 0,0.191 0,0.0955 0,0.2865 0,0.14325 0.14325,0.42975 -0.191,-0.0477 -0.2865,0.0478 -0.0478,0.0955 -0.28649,0 0.19099,0.52524 0.0955,0.85949 -0.0478,0.33424 -0.191,0.62074 -0.14325,0.23875 -0.23875,0.573 -0.0955,0.28649 0.0478,0.76399 -0.14325,0 -0.23875,0.0955 -0.0478,0.0478 -0.0955,0.14325 -0.0478,0.0478 -0.14325,0.14325 -0.0477,0.0477 -0.19099,0 0.14324,1.05049 0.0955,2.10098 -0.0477,1.05049 -0.0955,2.14872 0,1.05049 0.0478,2.24423 0.0477,1.14599 0.33424,2.38748 1.71899,-1.00274 2.72173,-2.57847 1.05049,-1.57574 1.67123,-3.53347 0.66849,-1.95773 1.00274,-4.20196 0.33425,-2.24423 0.71624,-4.58396 0.42975,-0.42974 0.6685,-1.05049 0.23874,-0.62074 0.42974,-1.28924 0.191,-0.71624 0.382,-1.38473 0.191,-0.71625 0.47749,-1.28924 0.71625,0.0955 1.19374,0.4775 0.52525,0.33424 0.95499,0.76399 0.42975,0.38199 0.90725,0.76399 0.47749,0.33425 1.19373,0.42975 0.573,0.81174 1.05049,1.57573 0.4775,0.76399 0.62075,1.62349 -0.23875,0.38199 -0.382,0.85949 -0.0955,0.47749 -0.23875,0.95499 -0.14324,0.47749 -0.38199,0.90724 -0.23875,0.382 -0.6685,0.66849 -0.14324,1.24149 -0.38199,2.29198 -0.191,1.00274 -0.42975,2.00548 -0.191,1.00274 -0.33424,2.10098 -0.14325,1.05049 -0.0955,2.33973 -0.382,1.09824 -0.81175,2.33973 -0.42974,1.24149 -0.66849,2.24423 -0.76399,0.62074 -1.19374,1.48023 -0.42974,0.8595 -0.90724,1.71899 -0.191,0.191 -0.23875,0.0955 -0.0478,-0.0955 -0.33424,-0.14325 0.0477,0.191 0,0.28649 -0.0478,0.0955 -0.14325,0.191 -0.0478,0.0477 -0.0955,0.191 0,0.14325 0.0955,0.382 -0.6685,0.28649 -1.19374,0.81174 -0.52525,0.52524 -1.14599,0.95499 -0.573,0.42975 -1.43249,0.573 -0.81174,0.14324 -2.14873,-0.33425 -1.95773,-1.43249 -3.48571,-3.29472 -1.48024,-1.86223 -2.43523,-4.44071 z"
           style="fill:#e75700;fill-opacity:1;stroke-width:0.90573972px"
           id="path1131" />
        <path
           d="m 438.81863,230.38741 q -0.76399,0.0478 -1.90998,-0.0477 -1.09824,-0.0955 -2.05323,0.33425 -2.53073,-0.0955 -5.15695,-0.62075 -2.62623,-0.52524 -4.82271,-1.28924 -0.47749,-0.52524 -0.95499,-0.95499 -0.47749,-0.47749 -1.28924,-0.66849 -1.14599,-0.90724 -1.86223,-2.19648 -0.71624,-1.33699 -1.14599,-2.81722 -0.42974,-1.48024 -0.57299,-3.00822 -0.14325,-1.57574 -0.0955,-3.00823 0.71624,-2.14873 2.00548,-3.67671 1.33699,-1.57574 2.72172,-3.10372 0.62075,-0.2865 0.90725,-0.573 0.33424,-0.33424 0.66849,-0.57299 0.382,-0.2865 0.71624,-0.52525 0.382,-0.28649 0.6685,-0.66849 1.00274,-0.23875 1.71898,-0.66849 0.76399,-0.4775 1.48024,-0.95499 0.71624,-0.52525 1.48023,-0.95499 0.76399,-0.42975 1.76673,-0.6685 0.382,-0.42974 0.90725,-0.66849 0.52524,-0.2865 1.05049,-0.52525 0.57299,-0.28649 1.05049,-0.57299 0.52524,-0.2865 0.81174,-0.76399 0.23875,0.38199 0.66849,0.28649 0.42975,-0.14325 0.81174,-0.28649 0.23875,-0.0477 0.382,0.0955 0.191,0.14324 0.33425,0.28649 0.14325,0.14325 0.23874,0.191 0.14325,0 0.23875,-0.23875 0.23875,0 0.14325,0.23875 -0.0955,0.23875 -0.14325,0.33425 0.382,-0.0477 0.62075,0.191 0.28649,0.19099 0.85949,0.23874 0.191,0.23875 0.0955,0.382 -0.0955,0.0955 -0.0955,0.382 1.43248,0.42974 1.81448,1.38473 0.382,0.90724 0.0478,1.90998 -0.33425,1.00275 -1.19374,1.86224 -0.85949,0.85949 -1.86223,1.14599 -2.29198,0.62074 -4.34521,1.38473 -2.00548,0.71625 -3.29472,2.14873 -1.14599,0.33425 -2.05323,0.90724 -0.85949,0.52525 -1.67123,1.24149 -0.76399,0.6685 -1.48024,1.43249 -0.66849,0.71624 -1.43248,1.43248 0.0478,0.6685 -0.23875,1.05049 -0.23875,0.33425 -0.4775,0.71625 0.0955,0.71624 0.33425,1.28924 0.23875,0.52524 0.52524,1.05049 3.15147,0.95499 6.68494,1.19373 3.58122,0.23875 7.16243,0.2865 0.33425,0.4775 0.764,0.90724 0.47749,0.382 0.85949,0.85949 0.38199,0.42975 0.62074,1.00275 0.23875,0.52524 0.0955,1.33698 -0.66849,0.71625 -1.48024,1.33699 -0.81174,0.57299 -1.62348,1.19374 z"
           style="fill:#e75700;fill-opacity:1;stroke-width:0.90573972px"
           id="path1133" />
        <path
           d="m 470.28559,203.40892 q 0.0478,0.33424 0,0.52524 0,0.14325 -0.0478,0.2865 0,0.14325 0,0.33424 0,0.14325 0.0955,0.4775 -1.00274,1.62348 -2.33973,2.24423 -1.28924,0.57299 -2.81722,0.85949 -1.52799,0.23875 -3.15147,0.52525 -1.57574,0.28649 -3.15147,1.24148 -0.62075,-0.23874 -1.14599,0 -0.4775,0.23875 -1.43249,0.14325 -0.2865,0.2865 -0.71624,0.42975 -0.42975,0.0955 -0.85949,0.23875 0.19099,0.42974 0.14325,0.90724 0,0.42974 0.14324,0.71624 1.67124,0.14325 3.67672,-0.0477 2.05323,-0.191 4.01096,-0.23875 0.0478,0.23875 -0.0477,0.33425 -0.0955,0.0478 -0.0478,0.23875 0.33425,0.23875 0.6685,0.62074 0.33424,0.33425 0.66849,0.6685 0.33425,0.33424 0.66849,0.57299 0.382,0.191 0.85949,0.14325 0.191,0.38199 0.23875,0.85949 0.0955,0.42975 -0.0955,0.90724 -0.76399,0.52525 -1.52798,1.09824 -0.764,0.52525 -1.62349,0.95499 -0.81174,0.42975 -1.76673,0.71625 -0.90724,0.23874 -2.05323,0.19099 -0.23875,0 -0.382,0 -0.0955,0 -0.28649,-0.14325 -0.382,0.23875 -1.09824,0.14325 -0.6685,-0.0955 -1.05049,0.14325 -0.52525,-0.23875 -1.28924,-0.191 -0.71624,0 -1.28924,-0.19099 -0.76399,1.00274 -1.38474,2.14873 -0.62074,1.14598 -1.09824,2.43522 1.62349,0.23875 2.67398,0.191 1.09824,-0.0478 2.05323,-0.14325 0.95499,-0.14325 1.95773,-0.23875 1.00274,-0.14324 2.53073,-0.0955 0.95499,-0.52524 2.24423,-0.66849 1.33698,-0.191 2.43522,-0.57299 0.382,0.14325 0.6685,0.52524 0.28649,0.33425 0.52524,0.6685 0.2865,0.28649 0.573,0.52524 0.28649,0.23875 0.71624,0.191 0.191,0.191 0.23875,0.47749 0.0955,0.23875 0.14324,0.4775 0.0477,0.23875 0.14325,0.42975 0.14325,0.14324 0.42975,0.0955 -0.71624,1.57574 -1.67123,2.43523 -0.90725,0.81174 -2.10098,1.24149 -1.19374,0.42975 -2.67398,0.66849 -1.43249,0.23875 -3.19922,0.573 -0.42974,0.0955 -0.71624,-0.0478 -0.2865,-0.0955 -0.6685,-0.0955 -1.09824,0.23875 -2.62622,0.42974 -1.52799,0.191 -3.10372,0.14325 -1.57574,-0.0478 -3.00822,-0.42974 -1.43249,-0.33425 -2.33973,-1.24149 -0.382,-0.33425 -0.52525,-0.76399 -0.0955,-0.4775 -0.62074,-0.71625 -0.0478,-0.62074 -0.191,-1.38473 -0.14325,-0.764 -0.28649,-1.57574 -0.14325,-0.85949 -0.23875,-1.67123 -0.0477,-0.81174 0.0955,-1.48024 0.14325,-0.71624 0.57299,-1.28924 0.4775,-0.57299 0.33425,-1.24148 0.23875,-0.0477 0.2865,-0.23875 0.0477,-0.23875 0.38199,-0.191 0.2865,-0.85949 0.62075,-1.62348 0.33424,-0.764 0.66849,-1.48024 0.382,-0.71624 0.71624,-1.43249 0.382,-0.76399 0.71625,-1.67123 -0.6685,-0.62075 -1.00274,-1.33699 -0.2865,-0.76399 -0.42975,-1.48023 -0.14325,-0.764 -0.23875,-1.52799 -0.0955,-0.81174 -0.33425,-1.62348 0.4775,-0.71625 1.14599,-1.14599 0.71625,-0.4775 1.52799,-0.764 0.81174,-0.28649 1.76673,-0.47749 0.95499,-0.191 2.00548,-0.42975 1.90999,-0.62074 3.39022,-0.95499 1.52799,-0.33425 2.96047,-0.52524 1.48024,-0.23875 3.05597,-0.42975 1.57574,-0.191 3.58122,-0.57299 0.42975,0.42974 0.81174,0.42974 0.191,-0.42974 0.42975,-0.23875 0.2865,0.14325 0.23875,-0.28649 0.47749,0.81174 1.19373,1.38473 0.764,0.52525 1.67124,0.90725 z"
           style="fill:#e75700;fill-opacity:1;stroke-width:0.90573972px"
           id="path1135" />
        <path
           d="m 492.72787,217.39953 q -0.0478,0.23875 -0.0955,0.42975 -0.0478,0.14325 -0.0955,0.2865 -0.0478,0.14324 -0.0478,0.38199 0,0.191 0,0.52525 -1.43249,2.53072 -3.62897,4.24971 -2.14873,1.71898 -4.77495,3.05597 -2.57848,1.28923 -5.3957,2.38747 -2.81723,1.05049 -5.4912,2.29198 -1.14599,-0.28649 -1.76673,-0.95499 -0.573,-0.66849 -0.90725,-1.52798 -0.28649,-0.90725 -0.42974,-1.95774 -0.0955,-1.09823 -0.191,-2.24422 0.14325,-0.52525 0.382,-0.8595 0.28649,-0.38199 0.28649,-1.05049 0.382,-1.24148 0.764,-2.43522 0.38199,-1.19374 0.47749,-2.43523 0.14325,-0.382 0.52525,-0.52524 0.23875,-2.29198 0,-4.63171 -0.191,-2.38748 -0.764,-4.44071 0.0478,-0.47749 0.0955,-0.66849 0.0955,-0.23875 0,-0.33425 -0.0478,-0.38199 0.23875,-0.38199 0.33425,0 0.6685,0 0,-0.71625 -0.2865,-1.43249 -0.23875,-0.71624 -0.4775,-1.62349 0.33425,-0.71624 0.42975,-1.38473 0.0955,-0.71625 0.42974,-1.24149 2.57848,0.81174 4.91821,1.95773 2.38747,1.14599 4.67945,1.67123 1.71899,1.24149 3.53347,2.48298 1.81448,1.19374 3.29472,2.67398 1.48023,1.43248 2.48297,3.29471 1.00274,1.86224 1.14599,4.44071 z m -11.31664,2.62623 q 1.00274,-0.382 1.95773,-0.81175 1.00274,-0.42974 1.81449,-0.95499 0.85949,-0.57299 1.52798,-1.28923 0.66849,-0.71625 1.09824,-1.71899 -0.2865,-0.57299 -0.76399,-1.00274 -0.4775,-0.47749 -0.95499,-0.85949 -0.4775,-0.42975 -0.95499,-0.85949 -0.42975,-0.42975 -0.71625,-1.05049 -0.62074,-0.0955 -1.09824,-0.33425 -0.47749,-0.2865 -0.95499,-0.52524 -0.42974,-0.2865 -0.95499,-0.52525 -0.47749,-0.23875 -1.14599,-0.2865 -1.05049,-0.52524 -1.90998,-0.76399 -0.81174,-0.23875 -1.24149,-0.62074 -0.33424,0 -0.52524,0.14325 0.47749,1.81448 0.71624,3.43796 0.23875,1.57574 0.23875,3.19922 0.0478,1.57574 -0.14325,3.24697 -0.191,1.67124 -0.52525,3.62897 0.4775,-0.0478 0.8595,-0.191 0.42974,-0.191 0.81174,-0.382 0.42974,-0.191 0.85949,-0.33424 0.4775,-0.191 1.09824,-0.23875 0.14325,-0.2865 0.382,-0.4775 0.28649,-0.191 0.52524,-0.42974 z"
           style="fill:#e75700;fill-opacity:1;stroke-width:0.90573972px"
           id="path1137" />
      </g>
      <g
         style="opacity:0.53399999;stroke-width:0.97461563"
         id="g1084">
        <path
           style="opacity:1;vector-effect:none;fill:none;fill-opacity:1;fill-rule:evenodd;stroke:#e75700;stroke-width:2.92384672;stroke-linecap:round;stroke-linejoin:round;stroke-miterlimit:4;stroke-dasharray:none;stroke-dashoffset:0;stroke-opacity:1"
           d="m 288.92288,143.11344 c -0.0602,-0.55071 -0.27988,-1.05497 -0.43816,-1.57414 -0.20925,-0.43753 -0.32484,-0.92585 -0.6832,-1.25684 -0.20348,-0.40998 -0.5969,-0.57259 -0.89819,-0.88563 -0.26955,-0.11036 -0.0293,-0.55356 -0.44002,-0.4056 -0.2553,-0.14954 -0.54726,-0.34744 -0.91704,-0.35593 0.0129,-0.12153 -0.003,-0.13884 -0.12423,-0.11199"
           id="path890" />
        <path
           style="opacity:1;vector-effect:none;fill:none;fill-opacity:1;fill-rule:evenodd;stroke:#e75700;stroke-width:2.92384696;stroke-linecap:round;stroke-linejoin:round;stroke-miterlimit:4;stroke-dasharray:none;stroke-dashoffset:0;stroke-opacity:1"
           d="m 333.15166,131.61034 c -0.14798,-1.04604 -0.21279,-2.23648 -0.28638,-3.38569 -0.0439,-0.91377 0.03,-1.84738 0.169,-2.58391 0.0634,-0.27894 -0.007,-0.8973 0.12632,-0.84116 l -0.009,-0.19774"
           id="path892" />
        <path
           style="opacity:1;vector-effect:none;fill:none;fill-opacity:1;fill-rule:evenodd;stroke:#e75700;stroke-width:2.92384696;stroke-linecap:round;stroke-linejoin:round;stroke-miterlimit:4;stroke-dasharray:none;stroke-dashoffset:0;stroke-opacity:1"
           d="m 416.93049,126.10806 c 0.86174,-2.19354 0.54403,-5.13218 1.19096,-7.50392"
           id="path894" />
        <path
           style="opacity:1;vector-effect:none;fill:none;fill-opacity:1;fill-rule:evenodd;stroke:#e75700;stroke-width:2.92384696;stroke-linecap:round;stroke-linejoin:round;stroke-miterlimit:4;stroke-dasharray:none;stroke-dashoffset:0;stroke-opacity:1"
           d="m 507.13203,151.77261 c 3.63508,-0.88399 7.20916,-2.41639 9.67089,-4.99595"
           id="path896" />
        <path
           style="opacity:1;vector-effect:none;fill:none;fill-opacity:1;fill-rule:evenodd;stroke:#e75700;stroke-width:2.92384696;stroke-linecap:round;stroke-linejoin:round;stroke-miterlimit:4;stroke-dasharray:none;stroke-dashoffset:0;stroke-opacity:1"
           d="m 513.92983,210.60247 c 1.12159,1.23264 2.25253,2.83564 4.43139,3.00434"
           id="path898" />
        <path
           style="opacity:1;vector-effect:none;fill:none;fill-opacity:1;fill-rule:evenodd;stroke:#e75700;stroke-width:2.92384696;stroke-linecap:round;stroke-linejoin:round;stroke-miterlimit:4;stroke-dasharray:none;stroke-dashoffset:0;stroke-opacity:1"
           d="m 440.55495,218.60302 c 0.57094,3.30882 2.58615,5.83821 4.25299,8.43205"
           id="path900" />
        <path
           style="opacity:1;vector-effect:none;fill:none;fill-opacity:1;fill-rule:evenodd;stroke:#e75700;stroke-width:2.92384696;stroke-linecap:round;stroke-linejoin:round;stroke-miterlimit:4;stroke-dasharray:none;stroke-dashoffset:0;stroke-opacity:1"
           d="m 377.60119,228.50393 c -0.58111,1.52927 -0.77787,3.17158 -1.34439,4.70539"
           id="path902" />
        <path
           style="opacity:1;vector-effect:none;fill:none;fill-opacity:1;fill-rule:evenodd;stroke:#e75700;stroke-width:2.92384696;stroke-linecap:round;stroke-linejoin:round;stroke-miterlimit:4;stroke-dasharray:none;stroke-dashoffset:0;stroke-opacity:1"
           d="m 327.18917,226.94703 c -0.23179,0.51361 -0.63586,0.98687 -0.62422,1.57532 -0.0302,0.51013 -0.63354,0.62467 -0.72265,1.12036 -0.23922,0.58947 -0.85047,0.88985 -1.23563,1.37262 -0.29415,0.42304 -0.79336,0.55249 -1.20543,0.81694 -0.49913,0.43306 -1.12149,0.6627 -1.70307,0.95269 -0.36006,0.21289 -0.836,0.64144 -0.79742,1.00267 -0.077,-0.0258 -0.15819,-0.0149 -0.23745,-0.0184"
           id="path904" />
        <path
           style="fill:none;fill-rule:evenodd;stroke:#e75700;stroke-width:2.9238472;stroke-linecap:round;stroke-linejoin:round;stroke-miterlimit:4;stroke-dasharray:none;stroke-opacity:1"
           d="m 273.1936,218.61871 c -0.8813,-0.2418 -0.77529,1.36759 -1.71007,1.14919 -0.54548,0.38863 -1.17138,0.65028 -1.81939,0.81161"
           id="path906" />
        <path
           style="opacity:1;vector-effect:none;fill:none;fill-opacity:1;fill-rule:evenodd;stroke:#e75700;stroke-width:2.92384696;stroke-linecap:round;stroke-linejoin:round;stroke-miterlimit:4;stroke-dasharray:none;stroke-dashoffset:0;stroke-opacity:1"
           d="m 376.17893,124.1066 c -0.43085,-0.7634 -0.43244,-1.68197 -0.83711,-2.4568 -0.22732,-0.67879 -0.14761,-1.41424 -0.34155,-2.10021 -0.0839,-0.76028 -0.30487,-1.49584 -0.43256,-2.24851 -0.11447,0.0314 -0.16086,-0.1051 -0.13929,-0.19448"
           id="path1005" />
        <path
           style="opacity:1;vector-effect:none;fill:none;fill-opacity:1;fill-rule:evenodd;stroke:#e75700;stroke-width:2.92384696;stroke-linecap:round;stroke-linejoin:round;stroke-miterlimit:4;stroke-dasharray:none;stroke-dashoffset:0;stroke-opacity:1"
           d="m 469.92893,125.8566 c 0.005,-0.641 0.40029,-1.13542 0.71625,-1.61825 0.22006,-0.45915 0.75921,-0.66663 0.8712,-1.18752 0.16446,-0.25231 0.39457,-0.68077 0.6626,-0.69351"
           id="path1007" />
        <path
           style="opacity:1;vector-effect:none;fill:none;fill-opacity:1;fill-rule:evenodd;stroke:#e75700;stroke-width:2.92384696;stroke-linecap:round;stroke-linejoin:round;stroke-miterlimit:4;stroke-dasharray:none;stroke-dashoffset:0;stroke-opacity:1"
           d="m 278.92893,178.6066 c -0.79028,-0.33035 -1.66208,-0.23372 -2.49547,-0.25755 -0.20137,-0.0684 -0.29202,0.0611 -0.27282,0.23562 -0.22594,0.0649 -0.49147,5.4e-4 -0.73171,0.0224"
           id="path1009" />
        <path
           style="opacity:1;vector-effect:none;fill:none;fill-opacity:1;fill-rule:evenodd;stroke:#e75700;stroke-width:2.92384696;stroke-linecap:round;stroke-linejoin:round;stroke-miterlimit:4;stroke-dasharray:none;stroke-dashoffset:0;stroke-opacity:1"
           d="m 510.78926,173.47703 c 1.20284,0.73832 2.4681,0.80381 3.70107,1.1667 0.14269,0.002 0.28536,-0.0123 0.42805,-0.005"
           id="path1011" />
      </g>
    </g>
  </g>
</svg>
